{
	"patcher" : 	{
		"fileversion" : 1,
		"appversion" : 		{
			"major" : 9,
			"minor" : 0,
			"revision" : 0,
			"architecture" : "x64",
			"modernui" : 1
		}
,
		"classnamespace" : "dsp.gen",
		"rect" : [ 134.0, 172.0, 825.0, 660.0 ],
		"bglocked" : 1,
		"openinpresentation" : 0,
		"default_fontsize" : 10.0,
		"default_fontface" : 0,
		"default_fontname" : "Arial Bold",
		"gridonopen" : 2,
		"gridsize" : [ 15.0, 15.0 ],
		"gridsnaponopen" : 1,
		"objectsnaponopen" : 1,
		"statusbarvisible" : 2,
		"toolbarvisible" : 1,
		"lefttoolbarpinned" : 0,
		"toptoolbarpinned" : 0,
		"righttoolbarpinned" : 0,
		"bottomtoolbarpinned" : 0,
		"toolbars_unpinned_last_save" : 0,
		"tallnewobj" : 0,
		"boxanimatetime" : 200,
		"enablehscroll" : 1,
		"enablevscroll" : 1,
		"devicewidth" : 0.0,
		"description" : "",
		"digest" : "",
		"tags" : "",
		"style" : "",
		"subpatcher_template" : "",
		"assistshowspatchername" : 0,
		"cluebar" : 0,
		"boxes" : [ 			{
				"box" : 				{
					"color" : [ 0.6, 0.4, 0.2, 0.5 ],
					"fontface" : 0,
					"fontname" : "Arial Bold",
					"fontsize" : 10.0,
					"id" : "obj-37",
					"maxclass" : "newobj",
					"numinlets" : 0,
					"numoutlets" : 1,
					"outlettype" : [ "" ],
					"patching_rect" : [ 585.931641000000013, 412.0, 176.0, 20.0 ],
					"text" : "param nonlinear 1 @min 0 @max 1"
				}

			}
, 			{
				"box" : 				{
					"fontface" : 0,
					"fontname" : "Arial Bold",
					"fontsize" : 10.0,
					"id" : "obj-38",
					"maxclass" : "newobj",
					"numinlets" : 1,
					"numoutlets" : 1,
					"outlettype" : [ "" ],
					"patching_rect" : [ 585.931641000000013, 449.0, 103.0, 20.0 ],
					"text" : "setparam nonlinear"
				}

			}
, 			{
				"box" : 				{
					"color" : [ 0.6, 0.4, 0.2, 0.5 ],
					"fontface" : 0,
					"fontname" : "Arial Bold",
					"fontsize" : 10.0,
					"id" : "obj-31",
					"maxclass" : "newobj",
					"numinlets" : 0,
					"numoutlets" : 1,
					"outlettype" : [ "" ],
					"patching_rect" : [ 603.931641000000013, 486.0, 196.0, 20.0 ],
					"text" : "param oversampling 2 @min 0 @max 2"
				}

			}
, 			{
				"box" : 				{
					"color" : [ 0.6, 0.4, 0.2, 0.5 ],
					"fontface" : 0,
					"fontname" : "Arial Bold",
					"fontsize" : 10.0,
					"id" : "obj-23",
					"maxclass" : "newobj",
					"numinlets" : 0,
					"numoutlets" : 1,
					"outlettype" : [ "" ],
					"patching_rect" : [ 426.931670999999994, 412.0, 157.0, 20.0 ],
					"text" : "param slope 0 @min 0 @max 1"
				}

			}
, 			{
				"box" : 				{
					"color" : [ 0.6, 0.4, 0.2, 0.5 ],
					"fontface" : 0,
					"fontname" : "Arial Bold",
					"fontsize" : 10.0,
					"id" : "obj-19",
					"maxclass" : "newobj",
					"numinlets" : 0,
					"numoutlets" : 1,
					"outlettype" : [ "" ],
					"patching_rect" : [ 271.931670999999994, 412.0, 153.0, 20.0 ],
					"text" : "param filter 1 @min 0 @max 3"
				}

			}
, 			{
				"box" : 				{
					"fontface" : 0,
					"fontname" : "Arial Bold",
					"fontsize" : 10.0,
					"id" : "obj-17",
					"maxclass" : "newobj",
					"numinlets" : 1,
					"numoutlets" : 1,
					"outlettype" : [ "" ],
					"patching_rect" : [ 603.931641000000013, 523.5, 123.0, 20.0 ],
					"text" : "setparam oversampling"
				}

			}
, 			{
				"box" : 				{
					"fontface" : 0,
					"fontname" : "Arial Bold",
					"fontsize" : 10.0,
					"id" : "obj-11",
					"maxclass" : "newobj",
					"numinlets" : 1,
					"numoutlets" : 1,
					"outlettype" : [ "" ],
					"patching_rect" : [ 426.931670999999994, 449.0, 84.0, 20.0 ],
					"text" : "setparam slope"
				}

			}
, 			{
				"box" : 				{
					"fontface" : 0,
					"fontname" : "Arial Bold",
					"fontsize" : 10.0,
					"id" : "obj-7",
					"maxclass" : "newobj",
					"numinlets" : 1,
					"numoutlets" : 1,
					"outlettype" : [ "" ],
					"patching_rect" : [ 271.931670999999994, 449.0, 79.0, 20.0 ],
					"text" : "setparam filter"
				}

			}
, 			{
				"box" : 				{
					"color" : [ 0.0, 0.0, 0.0, 0.5 ],
					"fontface" : 0,
					"fontname" : "Arial Bold",
					"fontsize" : 10.0,
					"id" : "obj-12",
					"maxclass" : "newobj",
					"numinlets" : 0,
					"numoutlets" : 1,
					"outlettype" : [ "" ],
					"patching_rect" : [ 188.931670999999994, 301.0, 233.0, 20.0 ],
					"text" : "in 4 @comment add frequency (hz) modulation"
				}

			}
, 			{
				"box" : 				{
					"color" : [ 0.0, 0.0, 0.0, 0.5 ],
					"fontface" : 0,
					"fontname" : "Arial Bold",
					"fontsize" : 10.0,
					"id" : "obj-10",
					"maxclass" : "newobj",
					"numinlets" : 0,
					"numoutlets" : 1,
					"outlettype" : [ "" ],
					"patching_rect" : [ 157.931670999999994, 264.0, 358.0, 20.0 ],
					"text" : "in 3 @comment add pitch (midi) modulation (ignored if 'cutoffmode' == 0)"
				}

			}
, 			{
				"box" : 				{
					"fontface" : 0,
					"fontname" : "Arial Bold",
					"fontsize" : 10.0,
					"id" : "obj-30",
					"maxclass" : "newobj",
					"numinlets" : 1,
					"numoutlets" : 1,
					"outlettype" : [ "" ],
					"patching_rect" : [ 388.431670999999994, 375.0, 144.0, 20.0 ],
					"text" : "setparam resonancesmooth"
				}

			}
, 			{
				"box" : 				{
					"fontface" : 0,
					"fontname" : "Arial Bold",
					"fontsize" : 10.0,
					"id" : "obj-28",
					"maxclass" : "newobj",
					"numinlets" : 1,
					"numoutlets" : 1,
					"outlettype" : [ "" ],
					"patching_rect" : [ 174.931641000000013, 116.0, 112.0, 20.0 ],
					"text" : "setparam cutoffmode"
				}

			}
, 			{
				"box" : 				{
					"color" : [ 0.6, 0.4, 0.2, 0.5 ],
					"fontface" : 0,
					"fontname" : "Arial Bold",
					"fontsize" : 10.0,
					"id" : "obj-18",
					"maxclass" : "newobj",
					"numinlets" : 0,
					"numoutlets" : 1,
					"outlettype" : [ "" ],
					"patching_rect" : [ 388.431670999999994, 338.0, 240.0, 20.0 ],
					"text" : "param resonancesmooth 20 @min 0 @max 1000"
				}

			}
, 			{
				"box" : 				{
					"color" : [ 0.6, 0.4, 0.2, 0.5 ],
					"fontface" : 0,
					"fontname" : "Arial Bold",
					"fontsize" : 10.0,
					"id" : "obj-14",
					"maxclass" : "newobj",
					"numinlets" : 0,
					"numoutlets" : 1,
					"outlettype" : [ "" ],
					"patching_rect" : [ 174.931641000000013, 79.0, 186.0, 20.0 ],
					"text" : "param cutoffmode 1 @min 0 @max 1"
				}

			}
, 			{
				"box" : 				{
					"fontface" : 0,
					"fontname" : "Arial Bold",
					"fontsize" : 10.0,
					"id" : "obj-13",
					"maxclass" : "newobj",
					"numinlets" : 4,
					"numoutlets" : 2,
					"outlettype" : [ "", "" ],
					"patching_rect" : [ 125.931640999999999, 449.0, 114.000031000000007, 20.0 ],
					"text" : "sm_sallenkey_setup"
				}

			}
, 			{
				"box" : 				{
					"color" : [ 0.0, 0.0, 0.0, 0.5 ],
					"fontface" : 0,
					"fontname" : "Arial Bold",
					"fontsize" : 10.0,
					"id" : "obj-21",
					"maxclass" : "newobj",
					"numinlets" : 0,
					"numoutlets" : 1,
					"outlettype" : [ "" ],
					"patching_rect" : [ 220.931641000000013, 338.0, 164.0, 20.0 ],
					"text" : "in 5 @comment resonance (0..1)"
				}

			}
, 			{
				"box" : 				{
					"fontface" : 0,
					"fontname" : "Arial Bold",
					"fontsize" : 10.0,
					"id" : "obj-9",
					"maxclass" : "newobj",
					"numinlets" : 1,
					"numoutlets" : 1,
					"outlettype" : [ "" ],
					"patching_rect" : [ 446.931670999999994, 523.0, 82.0, 20.0 ],
					"text" : "setparam drive"
				}

			}
, 			{
				"box" : 				{
					"color" : [ 0.0, 0.0, 0.0, 0.5 ],
					"fontname" : "Arial Bold",
					"fontsize" : 10.0,
					"id" : "obj-1",
					"maxclass" : "newobj",
					"numinlets" : 0,
					"numoutlets" : 1,
					"outlettype" : [ "" ],
					"patching_rect" : [ 30.931671000000001, 79.0, 141.0, 20.0 ],
					"text" : "in 1 @comment audio input"
				}

			}
, 			{
				"box" : 				{
					"color" : [ 0.0, 0.0, 0.0, 0.5 ],
					"fontface" : 0,
					"fontname" : "Arial Bold",
					"fontsize" : 10.0,
					"id" : "obj-4",
					"maxclass" : "newobj",
					"numinlets" : 1,
					"numoutlets" : 0,
					"patching_rect" : [ 30.931671000000001, 612.0, 209.0, 20.0 ],
					"text" : "out 1 @comment saturated filtered output"
				}

			}
, 			{
				"box" : 				{
					"color" : [ 0.0, 0.0, 0.0, 0.5 ],
					"fontface" : 0,
					"fontname" : "Arial Bold",
					"fontsize" : 10.0,
					"id" : "obj-26",
					"maxclass" : "newobj",
					"numinlets" : 0,
					"numoutlets" : 1,
					"outlettype" : [ "" ],
					"patching_rect" : [ 125.931640999999999, 227.0, 429.0, 20.0 ],
					"text" : "in 2 @comment cutoff (Hz or MIDI-pitch depending on 'cutoffmode' param\\, default pitch)"
				}

			}
, 			{
				"box" : 				{
					"color" : [ 0.6, 0.4, 0.2, 0.5 ],
					"fontface" : 0,
					"fontname" : "Arial Bold",
					"fontsize" : 10.0,
					"id" : "obj-20",
					"maxclass" : "newobj",
					"numinlets" : 0,
					"numoutlets" : 1,
					"outlettype" : [ "" ],
					"patching_rect" : [ 446.931670999999994, 486.0, 155.0, 20.0 ],
					"text" : "param drive 0 @min 0 @max 1"
				}

			}
, 			{
				"box" : 				{
					"fontface" : 0,
					"fontname" : "Arial Bold",
					"fontsize" : 10.0,
					"id" : "obj-29",
					"maxclass" : "newobj",
					"numinlets" : 1,
					"numoutlets" : 1,
					"outlettype" : [ "" ],
					"patching_rect" : [ 140.931641000000013, 190.0, 122.0, 20.0 ],
					"text" : "setparam cutoffsmooth"
				}

			}
, 			{
				"box" : 				{
					"color" : [ 0.6, 0.4, 0.2, 0.5 ],
					"fontface" : 0,
					"fontname" : "Arial Bold",
					"fontsize" : 10.0,
					"id" : "obj-24",
					"maxclass" : "newobj",
					"numinlets" : 0,
					"numoutlets" : 1,
					"outlettype" : [ "" ],
					"patching_rect" : [ 140.931641000000013, 153.0, 212.0, 20.0 ],
					"text" : "param cutoffsmooth 0 @min 0 @max 1000"
				}

			}
, 			{
				"box" : 				{
					"color" : [ 0.941176, 0.690196, 0.196078, 1.0 ],
					"id" : "obj-5",
					"maxclass" : "newobj",
					"numinlets" : 3,
					"numoutlets" : 1,
					"outlettype" : [ "" ],
					"patching_rect" : [ 30.931671000000001, 575.0, 209.0, 20.0 ],
					"text" : "sm_sallenkey"
				}

			}
, 			{
				"box" : 				{
					"fontname" : "Arial Bold",
					"fontsize" : 10.0,
					"id" : "obj-32",
					"linecount" : 3,
					"maxclass" : "comment",
					"numinlets" : 1,
					"numoutlets" : 0,
					"patching_rect" : [ 354.931641000000013, 143.0, 188.000031000000007, 40.0 ],
					"text" : "cutoff smooth time in milliseconds; choose 0 (off, default) for signal rate modulation input"
				}

			}
, 			{
				"box" : 				{
					"fontname" : "Arial Bold",
					"fontsize" : 10.0,
					"id" : "obj-15",
					"maxclass" : "comment",
					"numinlets" : 1,
					"numoutlets" : 0,
					"patching_rect" : [ 363.421630999999991, 80.0, 236.510009999999994, 18.0 ],
					"text" : "flag, 0 = hz input, 1 = pitch input (default)"
				}

			}
, 			{
				"box" : 				{
					"fontname" : "Arial Bold",
					"fontsize" : 10.0,
					"id" : "obj-25",
					"linecount" : 3,
					"maxclass" : "comment",
					"numinlets" : 1,
					"numoutlets" : 0,
					"patching_rect" : [ 630.431641000000013, 328.0, 162.000014999999991, 40.0 ],
					"text" : "resonance smooth time in milliseconds; choose 0 (off) for signal rate modulation input"
				}

			}
, 			{
				"box" : 				{
					"fontface" : 0,
					"fontname" : "Arial Bold",
					"fontsize" : 10.0,
					"id" : "obj-16",
					"maxclass" : "newobj",
					"numinlets" : 1,
					"numoutlets" : 1,
					"outlettype" : [ "" ],
					"patching_rect" : [ 287.931670999999994, 523.0, 83.0, 20.0 ],
					"text" : "setparam order"
				}

			}
, 			{
				"box" : 				{
					"color" : [ 0.6, 0.4, 0.2, 0.5 ],
					"fontface" : 0,
					"fontname" : "Arial Bold",
					"fontsize" : 10.0,
					"id" : "obj-27",
					"maxclass" : "newobj",
					"numinlets" : 0,
					"numoutlets" : 1,
					"outlettype" : [ "" ],
					"patching_rect" : [ 287.931670999999994, 486.0, 157.0, 20.0 ],
					"text" : "param order 1 @min 0 @max 1"
				}

			}
, 			{
				"box" : 				{
					"background" : 1,
					"fontname" : "Arial Bold",
					"fontsize" : 10.0,
					"id" : "obj-8",
					"maxclass" : "comment",
					"numinlets" : 1,
					"numoutlets" : 0,
					"patching_rect" : [ 30.931671000000001, 48.0, 569.0, 18.0 ],
					"text" : "based on \"Linear trapezoidal integrated filters\" by Andy Simper"
				}

			}
, 			{
				"box" : 				{
					"background" : 1,
					"fontname" : "Arial Bold",
					"fontsize" : 10.0,
					"id" : "obj-3",
					"maxclass" : "comment",
					"numinlets" : 1,
					"numoutlets" : 0,
					"patching_rect" : [ 30.931671000000001, 32.0, 569.0, 18.0 ],
					"text" : "by Pete Dowling & Matt Jackson @Surreal Machines, thanks to Alex Harker"
				}

			}
, 			{
				"box" : 				{
					"background" : 1,
					"fontname" : "Arial Bold",
					"fontsize" : 10.0,
					"id" : "obj-50",
					"maxclass" : "comment",
					"numinlets" : 1,
					"numoutlets" : 0,
					"patching_rect" : [ 30.931671000000001, 16.0, 569.0, 18.0 ],
					"text" : "12/24dB multimode Sallen & Key filter, Lowpass, Bandpass, Highpass, MS20-like"
				}

			}
, 			{
				"box" : 				{
					"background" : 1,
					"id" : "obj-34",
					"linecount" : 20,
					"maxclass" : "comment",
					"numinlets" : 1,
					"numoutlets" : 0,
					"patching_rect" : [ 601.931641000000013, 16.0, 208.0, 230.0 ],
					"text" : "filter - choose lowpass (1, default), bandpass (2), highpass (3), (0) = bypass entire filter section & do not use the cpu\n\nslope - 12dB (0, default) or 24dB (1) filter poles\n\nnonlinear - nonlinear filters (1, default), pure linear filter sections (0)\n\norder - main nonlinearity is inserted pre filter (0) or post filter (1, default)\n\ndrive - saturation in main nonlinearity, % 0..1 (0 does not mean none !) (smoothed internally)\n\noversampling - (0) nonlinearity bypassed & do not use the cpu, (1) 1x or (2, default) 4x oversampling"
				}

			}
, 			{
				"box" : 				{
					"background" : 1,
					"fontname" : "Arial Bold",
					"fontsize" : 10.0,
					"id" : "obj-22",
					"maxclass" : "comment",
					"numinlets" : 1,
					"numoutlets" : 0,
					"patching_rect" : [ 241.941680999999988, 576.0, 346.489989999999977, 18.0 ],
					"text" : "Surreal Machines Sallen & Key core mono abstraction"
				}

			}
, 			{
				"box" : 				{
					"background" : 1,
					"fontface" : 2,
					"fontname" : "Arial Bold",
					"fontsize" : 10.0,
					"id" : "obj-2",
					"maxclass" : "comment",
					"numinlets" : 1,
					"numoutlets" : 0,
					"patching_rect" : [ 256.941681000000017, 590.0, 552.989990000000034, 18.0 ],
					"text" : "this can be instantiated in either gen~ (as it is here), or in GenExpr code, for example: y = sm_sallenkey(x, hz, k);"
				}

			}
 ],
		"lines" : [ 			{
				"patchline" : 				{
					"color" : [ 1.0, 1.0, 0.0, 1.0 ],
					"destination" : [ "obj-5", 0 ],
					"midpoints" : [ 40.431671000000001, 336.5, 40.431671000000001, 336.5 ],
					"source" : [ "obj-1", 0 ]
				}

			}
, 			{
				"patchline" : 				{
					"color" : [ 0.0, 0.0, 1.0, 1.0 ],
					"destination" : [ "obj-13", 1 ],
					"midpoints" : [ 167.431670999999994, 363.25, 167.098318000000006, 363.25 ],
					"source" : [ "obj-10", 0 ]
				}

			}
, 			{
				"patchline" : 				{
					"color" : [ 0.65, 0.65, 0.65, 0.0 ],
					"destination" : [ "obj-5", 0 ],
					"midpoints" : [ 436.431670999999994, 558.5, 40.431671000000001, 558.5 ],
					"source" : [ "obj-11", 0 ]
				}

			}
, 			{
				"patchline" : 				{
					"color" : [ 0.0, 0.0, 1.0, 1.0 ],
					"destination" : [ "obj-13", 2 ],
					"midpoints" : [ 198.431670999999994, 381.75, 198.764994999999999, 381.75 ],
					"source" : [ "obj-12", 0 ]
				}

			}
, 			{
				"patchline" : 				{
					"color" : [ 1.0, 0.5, 0.0, 1.0 ],
					"destination" : [ "obj-5", 2 ],
					"midpoints" : [ 230.431671999999992, 524.25, 230.431670999999994, 524.25 ],
					"source" : [ "obj-13", 1 ]
				}

			}
, 			{
				"patchline" : 				{
					"color" : [ 1.0, 0.5, 0.0, 1.0 ],
					"destination" : [ "obj-5", 1 ],
					"midpoints" : [ 135.431641000000013, 524.25, 135.431670999999994, 524.25 ],
					"source" : [ "obj-13", 0 ]
				}

			}
, 			{
				"patchline" : 				{
					"color" : [ 0.65, 0.65, 0.65, 0.0 ],
					"destination" : [ "obj-28", 0 ],
					"midpoints" : [ 184.431641000000013, 107.0, 184.431641000000013, 107.0 ],
					"source" : [ "obj-14", 0 ]
				}

			}
, 			{
				"patchline" : 				{
					"color" : [ 0.65, 0.65, 0.65, 0.0 ],
					"destination" : [ "obj-5", 0 ],
					"midpoints" : [ 297.431670999999994, 558.5, 40.431671000000001, 558.5 ],
					"source" : [ "obj-16", 0 ]
				}

			}
, 			{
				"patchline" : 				{
					"color" : [ 0.65, 0.65, 0.65, 0.0 ],
					"destination" : [ "obj-5", 0 ],
					"midpoints" : [ 613.431641000000013, 558.75, 40.431671000000001, 558.75 ],
					"source" : [ "obj-17", 0 ]
				}

			}
, 			{
				"patchline" : 				{
					"color" : [ 0.65, 0.65, 0.65, 0.0 ],
					"destination" : [ "obj-30", 0 ],
					"midpoints" : [ 397.931670999999994, 366.0, 397.931670999999994, 366.0 ],
					"source" : [ "obj-18", 0 ]
				}

			}
, 			{
				"patchline" : 				{
					"color" : [ 0.65, 0.65, 0.65, 0.0 ],
					"destination" : [ "obj-7", 0 ],
					"source" : [ "obj-19", 0 ]
				}

			}
, 			{
				"patchline" : 				{
					"color" : [ 0.65, 0.65, 0.65, 0.0 ],
					"destination" : [ "obj-9", 0 ],
					"midpoints" : [ 456.431670999999994, 514.0, 456.431670999999994, 514.0 ],
					"source" : [ "obj-20", 0 ]
				}

			}
, 			{
				"patchline" : 				{
					"color" : [ 1.0, 0.5, 0.0, 1.0 ],
					"destination" : [ "obj-13", 3 ],
					"midpoints" : [ 230.431641000000013, 400.25, 230.431671999999992, 400.25 ],
					"source" : [ "obj-21", 0 ]
				}

			}
, 			{
				"patchline" : 				{
					"color" : [ 0.65, 0.65, 0.65, 0.0 ],
					"destination" : [ "obj-11", 0 ],
					"source" : [ "obj-23", 0 ]
				}

			}
, 			{
				"patchline" : 				{
					"color" : [ 0.65, 0.65, 0.65, 0.0 ],
					"destination" : [ "obj-29", 0 ],
					"midpoints" : [ 150.431641000000013, 181.0, 150.431641000000013, 181.0 ],
					"source" : [ "obj-24", 0 ]
				}

			}
, 			{
				"patchline" : 				{
					"color" : [ 1.0, 0.5, 0.0, 1.0 ],
					"destination" : [ "obj-13", 0 ],
					"midpoints" : [ 135.431641000000013, 344.75, 135.431641000000013, 344.75 ],
					"source" : [ "obj-26", 0 ]
				}

			}
, 			{
				"patchline" : 				{
					"color" : [ 0.65, 0.65, 0.65, 0.0 ],
					"destination" : [ "obj-16", 0 ],
					"midpoints" : [ 297.431670999999994, 514.0, 297.431670999999994, 514.0 ],
					"source" : [ "obj-27", 0 ]
				}

			}
, 			{
				"patchline" : 				{
					"color" : [ 0.65, 0.65, 0.65, 0.0 ],
					"destination" : [ "obj-13", 0 ],
					"midpoints" : [ 184.431641000000013, 405.25, 135.431641000000013, 405.25 ],
					"source" : [ "obj-28", 0 ]
				}

			}
, 			{
				"patchline" : 				{
					"color" : [ 0.65, 0.65, 0.65, 0.0 ],
					"destination" : [ "obj-13", 0 ],
					"midpoints" : [ 150.431641000000013, 405.25, 135.431641000000013, 405.25 ],
					"source" : [ "obj-29", 0 ]
				}

			}
, 			{
				"patchline" : 				{
					"color" : [ 0.65, 0.65, 0.65, 0.0 ],
					"destination" : [ "obj-13", 0 ],
					"midpoints" : [ 397.931670999999994, 405.75, 135.431641000000013, 405.75 ],
					"source" : [ "obj-30", 0 ]
				}

			}
, 			{
				"patchline" : 				{
					"color" : [ 0.65, 0.65, 0.65, 0.0 ],
					"destination" : [ "obj-17", 0 ],
					"source" : [ "obj-31", 0 ]
				}

			}
, 			{
				"patchline" : 				{
					"color" : [ 0.65, 0.65, 0.65, 0.0 ],
					"destination" : [ "obj-38", 0 ],
					"source" : [ "obj-37", 0 ]
				}

			}
, 			{
				"patchline" : 				{
					"color" : [ 0.65, 0.65, 0.65, 0.0 ],
					"destination" : [ "obj-5", 0 ],
					"midpoints" : [ 595.431641000000013, 558.5, 40.431671000000001, 558.5 ],
					"source" : [ "obj-38", 0 ]
				}

			}
, 			{
				"patchline" : 				{
					"color" : [ 1.0, 1.0, 0.0, 1.0 ],
					"destination" : [ "obj-4", 0 ],
					"midpoints" : [ 40.431671000000001, 603.0, 40.431671000000001, 603.0 ],
					"source" : [ "obj-5", 0 ]
				}

			}
, 			{
				"patchline" : 				{
					"color" : [ 0.65, 0.65, 0.65, 0.0 ],
					"destination" : [ "obj-5", 0 ],
					"midpoints" : [ 281.431670999999994, 558.5, 40.431671000000001, 558.5 ],
					"source" : [ "obj-7", 0 ]
				}

			}
, 			{
				"patchline" : 				{
					"color" : [ 0.65, 0.65, 0.65, 0.0 ],
					"destination" : [ "obj-5", 0 ],
					"midpoints" : [ 456.431670999999994, 558.5, 40.431671000000001, 558.5 ],
					"source" : [ "obj-9", 0 ]
				}

			}
 ],
		"originid" : "pat-79",
		"oscsendmode" : 0,
		"oscsendudpaddr" : "127.0.0.1",
		"oscsendudpport" : 30337,
		"oscreceivemode" : 0,
		"oscreceiveudpport" : 30338,
		"oscqueryenable" : 0,
		"oscprefixmode" : 0,
		"oscprefix" : ""
	}

}
