{
	"patcher" : 	{
		"fileversion" : 1,
		"appversion" : 		{
			"major" : 9,
			"minor" : 1,
			"revision" : 0,
			"architecture" : "x64",
			"modernui" : 1
		}
,
		"classnamespace" : "rnbo",
		"rect" : [ 1438.0, 353.0, 448.0, 808.0 ],
		"default_fontname" : "Lato",
		"gridonopen" : 2,
		"gridsize" : [ 10.0, 10.0 ],
		"gridsnaponopen" : 2,
		"objectsnaponopen" : 0,
		"subpatcher_template" : "MP-Rnbo",
		"assistshowspatchername" : 0,
		"commentary" : "",
		"showcommentary" : 0,
		"title" : "gp.noisegate",
		"boxes" : [ 			{
				"box" : 				{
					"id" : "obj-13",
					"maxclass" : "newobj",
					"numinlets" : 2,
					"numoutlets" : 1,
					"outlettype" : [ "signal" ],
					"patching_rect" : [ 50.0, 600.0, 91.0, 23.0 ],
					"rnbo_classname" : "delay~",
					"rnbo_extra_attributes" : 					{
						"maxdelayms" : 0.0,
						"interp" : "linear",
						"ramp" : 50.0
					}
,
					"rnbo_serial" : 1,
					"rnbo_uniqueid" : "delay~_obj-13",
					"text" : "delay~ 240 240"
				}

			}
, 			{
				"box" : 				{
					"bufsize" : 128.0,
					"calccount" : 256.0,
					"id" : "obj-10",
					"maxclass" : "scope~",
					"numinlets" : 2,
					"numoutlets" : 0,
					"patching_rect" : [ 480.0, 480.0, 130.0, 130.0 ],
					"rnbo_classname" : "scope~",
					"rnbo_extra_attributes" : 					{
						"calccount" : 256.0,
						"bufsize" : 128.0
					}
,
					"rnbo_serial" : 1,
					"rnbo_uniqueid" : "scope~_obj-10"
				}

			}
, 			{
				"box" : 				{
					"bufsize" : 128.0,
					"calccount" : 256.0,
					"id" : "obj-9",
					"maxclass" : "scope~",
					"numinlets" : 2,
					"numoutlets" : 0,
					"patching_rect" : [ 60.0, 320.0, 130.0, 130.0 ],
					"rnbo_classname" : "scope~",
					"rnbo_extra_attributes" : 					{
						"calccount" : 256.0,
						"bufsize" : 128.0
					}
,
					"rnbo_serial" : 2,
					"rnbo_uniqueid" : "scope~_obj-9"
				}

			}
, 			{
				"box" : 				{
					"id" : "obj-4",
					"maxclass" : "newobj",
					"numinlets" : 1,
					"numoutlets" : 0,
					"patching_rect" : [ 500.0, 700.0, 43.0, 23.0 ],
					"rnbo_classname" : "out~",
					"rnbo_extra_attributes" : 					{
						"comment" : "",
						"meta" : ""
					}
,
					"rnbo_serial" : 1,
					"rnbo_uniqueid" : "out~_obj-4",
					"rnboinfo" : 					{
						"needsInstanceInfo" : 1,
						"argnames" : 						{
							"in1" : 							{
								"attrOrProp" : 1,
								"digest" : "signal sent to outlet with index 2",
								"isalias" : 0,
								"aliases" : [  ],
								"settable" : 0,
								"attachable" : 0,
								"isparam" : 0,
								"deprecated" : 0,
								"touched" : 0,
								"inlet" : 1,
								"type" : "signal"
							}
,
							"index" : 							{
								"attrOrProp" : 2,
								"digest" : "outlet number",
								"defaultarg" : 1,
								"isalias" : 0,
								"aliases" : [  ],
								"settable" : 1,
								"attachable" : 0,
								"isparam" : 0,
								"deprecated" : 0,
								"touched" : 0,
								"type" : "number",
								"mandatory" : 1
							}
,
							"comment" : 							{
								"attrOrProp" : 2,
								"digest" : "mouse over comment",
								"isalias" : 0,
								"aliases" : [  ],
								"settable" : 1,
								"attachable" : 0,
								"isparam" : 0,
								"deprecated" : 0,
								"touched" : 0,
								"type" : "symbol"
							}
,
							"meta" : 							{
								"attrOrProp" : 2,
								"digest" : "A JSON formatted string containing metadata for use by the exported code",
								"isalias" : 0,
								"aliases" : [  ],
								"settable" : 1,
								"attachable" : 0,
								"isparam" : 0,
								"deprecated" : 0,
								"touched" : 0,
								"type" : "symbol",
								"defaultValue" : "",
								"label" : "Metadata",
								"displayorder" : 3
							}

						}
,
						"inputs" : [ 							{
								"name" : "in1",
								"type" : "signal",
								"digest" : "signal sent to outlet with index 2",
								"displayName" : "",
								"hot" : 1,
								"docked" : 0
							}
 ],
						"outputs" : [  ],
						"helpname" : "out~",
						"aliasOf" : "out~",
						"classname" : "out~",
						"operator" : 0,
						"versionId" : 1989326771,
						"changesPatcherIO" : 1
					}
,
					"text" : "out~ 2"
				}

			}
, 			{
				"box" : 				{
					"id" : "obj-2",
					"maxclass" : "newobj",
					"numinlets" : 2,
					"numoutlets" : 1,
					"outlettype" : [ "signal" ],
					"patching_rect" : [ 500.0, 660.0, 39.0, 23.0 ],
					"rnbo_classname" : "==~",
					"rnbo_serial" : 1,
					"rnbo_uniqueid" : "==~_obj-2",
					"text" : "==~ 0"
				}

			}
, 			{
				"box" : 				{
					"id" : "obj-38",
					"maxclass" : "newobj",
					"numinlets" : 2,
					"numoutlets" : 2,
					"outlettype" : [ "signal", "" ],
					"patching_rect" : [ 280.0, 410.0, 69.0, 23.0 ],
					"rnbo_classname" : "fade~",
					"rnbo_serial" : 1,
					"rnbo_uniqueid" : "fade~_obj-38",
					"rnboinfo" : 					{
						"needsInstanceInfo" : 1,
						"argnames" : 						{
							"segments" : 							{
								"attrOrProp" : 1,
								"digest" : "Target value or target value/ramp time pairs",
								"isalias" : 0,
								"aliases" : [ "dest" ],
								"settable" : 1,
								"attachable" : 0,
								"isparam" : 0,
								"deprecated" : 0,
								"touched" : 0,
								"inlet" : 1,
								"type" : "list",
								"defaultValue" : ""
							}
,
							"dest" : 							{
								"attrOrProp" : 1,
								"digest" : "Target value or target value/ramp time pairs",
								"isalias" : 1,
								"aliasOf" : "segments",
								"aliases" : [  ],
								"settable" : 1,
								"attachable" : 0,
								"isparam" : 0,
								"deprecated" : 0,
								"touched" : 0,
								"inlet" : 1,
								"type" : "list",
								"defaultValue" : ""
							}
,
							"time" : 							{
								"attrOrProp" : 1,
								"digest" : "Ramp time",
								"defaultarg" : 2,
								"isalias" : 0,
								"aliases" : [  ],
								"settable" : 1,
								"attachable" : 0,
								"isparam" : 0,
								"deprecated" : 0,
								"touched" : 0,
								"inlet" : 1,
								"type" : "number",
								"defaultValue" : "0"
							}
,
							"keepramp" : 							{
								"attrOrProp" : 1,
								"digest" : "Keep last ramp",
								"isalias" : 0,
								"aliases" : [  ],
								"settable" : 1,
								"attachable" : 1,
								"isparam" : 0,
								"deprecated" : 0,
								"touched" : 0,
								"type" : "bool",
								"defaultValue" : "false"
							}
,
							"out" : 							{
								"attrOrProp" : 1,
								"digest" : "Ramp out",
								"isalias" : 0,
								"aliases" : [  ],
								"settable" : 0,
								"attachable" : 0,
								"isparam" : 0,
								"deprecated" : 0,
								"touched" : 0,
								"outlet" : 1,
								"type" : "signal"
							}
,
							"target" : 							{
								"attrOrProp" : 1,
								"digest" : "Bang when ramp has finished",
								"isalias" : 0,
								"aliases" : [  ],
								"settable" : 0,
								"attachable" : 0,
								"isparam" : 0,
								"deprecated" : 0,
								"touched" : 0,
								"outlet" : 1,
								"type" : "bang"
							}
,
							"value" : 							{
								"attrOrProp" : 2,
								"digest" : "Initial value.",
								"defaultarg" : 1,
								"isalias" : 0,
								"aliases" : [  ],
								"settable" : 1,
								"attachable" : 0,
								"isparam" : 0,
								"deprecated" : 0,
								"touched" : 0,
								"type" : "number",
								"defaultValue" : "0"
							}

						}
,
						"inputs" : [ 							{
								"name" : "segments",
								"type" : "list",
								"digest" : "Target value or target value/ramp time pairs",
								"hot" : 1,
								"docked" : 0
							}
, 							{
								"name" : "time",
								"type" : "number",
								"digest" : "Ramp time",
								"defaultarg" : 2,
								"docked" : 0
							}
 ],
						"outputs" : [ 							{
								"name" : "out",
								"type" : "signal",
								"digest" : "Ramp out",
								"docked" : 0
							}
, 							{
								"name" : "target",
								"type" : "bang",
								"digest" : "Bang when ramp has finished",
								"docked" : 0
							}
 ],
						"helpname" : "line~",
						"aliasOf" : "line~",
						"classname" : "fade~",
						"operator" : 0,
						"versionId" : 2134689829,
						"changesPatcherIO" : 0
					}
,
					"text" : "fade~ 0. 10"
				}

			}
, 			{
				"box" : 				{
					"id" : "obj-73",
					"maxclass" : "flonum",
					"numinlets" : 1,
					"numoutlets" : 2,
					"outlettype" : [ "", "bang" ],
					"parameter_enable" : 0,
					"patching_rect" : [ 360.0, 600.0, 50.0, 23.0 ],
					"rnbo_classname" : "number",
					"rnbo_extra_attributes" : 					{
						"preset" : 0,
						"initialFormat" : "float",
						"order" : "",
						"maximum" : "<none>",
						"minimum" : "<none>"
					}
,
					"rnbo_serial" : 1,
					"rnbo_uniqueid" : "number_obj-73"
				}

			}
, 			{
				"box" : 				{
					"id" : "obj-74",
					"maxclass" : "newobj",
					"numinlets" : 1,
					"numoutlets" : 1,
					"outlettype" : [ "" ],
					"patching_rect" : [ 360.0, 570.0, 39.0, 23.0 ],
					"rnbo_classname" : "atodb",
					"rnbo_extra_attributes" : 					{
						"hot" : 0
					}
,
					"rnbo_serial" : 1,
					"rnbo_uniqueid" : "atodb_obj-74",
					"text" : "atodb"
				}

			}
, 			{
				"box" : 				{
					"fontface" : 0,
					"fontname" : "Lato",
					"fontsize" : 12.0,
					"id" : "obj-70",
					"interval" : 100.0,
					"maxclass" : "number~",
					"mode" : 2,
					"numinlets" : 2,
					"numoutlets" : 2,
					"outlettype" : [ "signal", "float" ],
					"patching_rect" : [ 320.0, 540.0, 59.0, 23.0 ],
					"rnbo_classname" : "number~",
					"rnbo_extra_attributes" : 					{
						"displaymode" : "first",
						"initialMode" : "monitor",
						"interval" : 100.0
					}
,
					"rnbo_serial" : 1,
					"rnbo_uniqueid" : "number~_obj-70",
					"sig" : 0.0
				}

			}
, 			{
				"box" : 				{
					"id" : "obj-5",
					"maxclass" : "newobj",
					"numinlets" : 1,
					"numoutlets" : 1,
					"outlettype" : [ "" ],
					"patching_rect" : [ 320.0, 80.0, 74.0, 23.0 ],
					"rnbo_classname" : "loadmess",
					"rnbo_serial" : 1,
					"rnbo_uniqueid" : "loadmess_obj-5",
					"rnboinfo" : 					{
						"needsInstanceInfo" : 1,
						"argnames" : 						{
							"input" : 							{
								"attrOrProp" : 1,
								"digest" : "Bang to trigger message.",
								"isalias" : 0,
								"aliases" : [  ],
								"settable" : 0,
								"attachable" : 0,
								"isparam" : 0,
								"deprecated" : 0,
								"touched" : 0,
								"inlet" : 1,
								"type" : "bang"
							}
,
							"message" : 							{
								"attrOrProp" : 1,
								"digest" : "Message when patcher is loaded.",
								"defaultarg" : 1,
								"isalias" : 0,
								"aliases" : [  ],
								"settable" : 1,
								"attachable" : 0,
								"isparam" : 0,
								"deprecated" : 0,
								"touched" : 0,
								"outlet" : 1,
								"type" : "list",
								"defaultValue" : ""
							}
,
							"startupbang" : 							{
								"attrOrProp" : 1,
								"digest" : "startupbang",
								"isalias" : 0,
								"aliases" : [  ],
								"attachable" : 0,
								"isparam" : 0,
								"deprecated" : 0,
								"touched" : 0,
								"type" : "bang"
							}

						}
,
						"inputs" : [ 							{
								"name" : "input",
								"type" : "bang",
								"digest" : "Bang to trigger message.",
								"hot" : 1,
								"docked" : 0
							}
 ],
						"outputs" : [ 							{
								"name" : "message",
								"type" : "list",
								"digest" : "Message when patcher is loaded.",
								"defaultarg" : 1,
								"docked" : 0
							}
 ],
						"helpname" : "loadmess",
						"aliasOf" : "loadmess",
						"classname" : "loadmess",
						"operator" : 0,
						"versionId" : -361086158,
						"changesPatcherIO" : 0
					}
,
					"text" : "loadmess #1"
				}

			}
, 			{
				"box" : 				{
					"id" : "obj-99",
					"maxclass" : "flonum",
					"numinlets" : 1,
					"numoutlets" : 2,
					"outlettype" : [ "", "bang" ],
					"parameter_enable" : 0,
					"patching_rect" : [ 250.0, 710.0, 50.0, 23.0 ],
					"rnbo_classname" : "number",
					"rnbo_extra_attributes" : 					{
						"preset" : 0,
						"initialFormat" : "float",
						"order" : "",
						"maximum" : "<none>",
						"minimum" : "<none>"
					}
,
					"rnbo_serial" : 2,
					"rnbo_uniqueid" : "number_obj-99"
				}

			}
, 			{
				"box" : 				{
					"id" : "obj-97",
					"maxclass" : "newobj",
					"numinlets" : 1,
					"numoutlets" : 1,
					"outlettype" : [ "" ],
					"patching_rect" : [ 250.0, 680.0, 39.0, 23.0 ],
					"rnbo_classname" : "atodb",
					"rnbo_extra_attributes" : 					{
						"hot" : 0
					}
,
					"rnbo_serial" : 2,
					"rnbo_uniqueid" : "atodb_obj-97",
					"text" : "atodb"
				}

			}
, 			{
				"box" : 				{
					"id" : "obj-78",
					"maxclass" : "newobj",
					"numinlets" : 1,
					"numoutlets" : 0,
					"patching_rect" : [ 250.0, 740.0, 107.0, 23.0 ],
					"rnbo_classname" : "outport",
					"rnbo_extra_attributes" : 					{
						"meta" : ""
					}
,
					"rnbo_serial" : 1,
					"rnbo_uniqueid" : "outport_obj-78",
					"text" : "outport atten_gate"
				}

			}
, 			{
				"box" : 				{
					"fontface" : 1,
					"id" : "obj-67",
					"maxclass" : "flonum",
					"numinlets" : 1,
					"numoutlets" : 2,
					"outlettype" : [ "", "bang" ],
					"parameter_enable" : 0,
					"patching_rect" : [ 410.0, 350.0, 50.0, 23.0 ],
					"rnbo_classname" : "number",
					"rnbo_extra_attributes" : 					{
						"preset" : 0,
						"initialFormat" : "float",
						"order" : "",
						"maximum" : "<none>",
						"minimum" : "<none>"
					}
,
					"rnbo_serial" : 3,
					"rnbo_uniqueid" : "number_obj-67",
					"textcolor" : [ 0.929412, 0.929412, 0.352941, 1.0 ]
				}

			}
, 			{
				"box" : 				{
					"id" : "obj-15",
					"maxclass" : "newobj",
					"numinlets" : 0,
					"numoutlets" : 1,
					"outlettype" : [ "signal" ],
					"patching_rect" : [ 210.0, 120.0, 35.0, 23.0 ],
					"rnbo_classname" : "in~",
					"rnbo_extra_attributes" : 					{
						"comment" : "",
						"meta" : ""
					}
,
					"rnbo_serial" : 1,
					"rnbo_uniqueid" : "in~_obj-15",
					"rnboinfo" : 					{
						"needsInstanceInfo" : 1,
						"argnames" : 						{
							"out1" : 							{
								"attrOrProp" : 1,
								"digest" : "signal from inlet with index 3",
								"isalias" : 0,
								"aliases" : [  ],
								"settable" : 0,
								"attachable" : 0,
								"isparam" : 0,
								"deprecated" : 0,
								"touched" : 0,
								"outlet" : 1,
								"type" : "signal"
							}
,
							"index" : 							{
								"attrOrProp" : 2,
								"digest" : "inlet number",
								"defaultarg" : 1,
								"isalias" : 0,
								"aliases" : [  ],
								"settable" : 1,
								"attachable" : 0,
								"isparam" : 0,
								"deprecated" : 0,
								"touched" : 0,
								"type" : "number",
								"mandatory" : 1
							}
,
							"comment" : 							{
								"attrOrProp" : 2,
								"digest" : "mouse over comment",
								"isalias" : 0,
								"aliases" : [  ],
								"settable" : 1,
								"attachable" : 0,
								"isparam" : 0,
								"deprecated" : 0,
								"touched" : 0,
								"type" : "symbol"
							}
,
							"meta" : 							{
								"attrOrProp" : 2,
								"digest" : "A JSON formatted string containing metadata for use by the exported code",
								"isalias" : 0,
								"aliases" : [  ],
								"settable" : 1,
								"attachable" : 0,
								"isparam" : 0,
								"deprecated" : 0,
								"touched" : 0,
								"type" : "symbol",
								"defaultValue" : "",
								"label" : "Metadata",
								"displayorder" : 3
							}

						}
,
						"inputs" : [  ],
						"outputs" : [ 							{
								"name" : "out1",
								"type" : "signal",
								"digest" : "signal from inlet with index 3",
								"displayName" : "",
								"docked" : 0
							}
 ],
						"helpname" : "in~",
						"aliasOf" : "in~",
						"classname" : "in~",
						"operator" : 0,
						"versionId" : -1654556303,
						"changesPatcherIO" : 1
					}
,
					"text" : "in~ 3"
				}

			}
, 			{
				"box" : 				{
					"fontface" : 1,
					"id" : "obj-6",
					"maxclass" : "flonum",
					"numinlets" : 1,
					"numoutlets" : 2,
					"outlettype" : [ "", "bang" ],
					"parameter_enable" : 0,
					"patching_rect" : [ 320.0, 110.0, 50.0, 23.0 ],
					"rnbo_classname" : "number",
					"rnbo_extra_attributes" : 					{
						"preset" : 0,
						"initialFormat" : "float",
						"order" : "",
						"maximum" : "<none>",
						"minimum" : "<none>"
					}
,
					"rnbo_serial" : 4,
					"rnbo_uniqueid" : "number_obj-6",
					"textcolor" : [ 0.929412, 0.929412, 0.352941, 1.0 ]
				}

			}
, 			{
				"box" : 				{
					"id" : "obj-110",
					"maxclass" : "newobj",
					"numinlets" : 1,
					"numoutlets" : 1,
					"outlettype" : [ "" ],
					"patching_rect" : [ 410.0, 320.0, 72.0, 23.0 ],
					"rnbo_classname" : "loadmess",
					"rnbo_serial" : 2,
					"rnbo_uniqueid" : "knee",
					"rnboinfo" : 					{
						"needsInstanceInfo" : 1,
						"argnames" : 						{
							"input" : 							{
								"attrOrProp" : 1,
								"digest" : "Bang to trigger message.",
								"isalias" : 0,
								"aliases" : [  ],
								"settable" : 0,
								"attachable" : 0,
								"isparam" : 0,
								"deprecated" : 0,
								"touched" : 0,
								"inlet" : 1,
								"type" : "bang"
							}
,
							"message" : 							{
								"attrOrProp" : 1,
								"digest" : "Message when patcher is loaded.",
								"defaultarg" : 1,
								"isalias" : 0,
								"aliases" : [  ],
								"settable" : 1,
								"attachable" : 0,
								"isparam" : 0,
								"deprecated" : 0,
								"touched" : 0,
								"outlet" : 1,
								"type" : "list",
								"defaultValue" : ""
							}
,
							"startupbang" : 							{
								"attrOrProp" : 1,
								"digest" : "startupbang",
								"isalias" : 0,
								"aliases" : [  ],
								"attachable" : 0,
								"isparam" : 0,
								"deprecated" : 0,
								"touched" : 0,
								"type" : "bang"
							}

						}
,
						"inputs" : [ 							{
								"name" : "input",
								"type" : "bang",
								"digest" : "Bang to trigger message.",
								"hot" : 1,
								"docked" : 0
							}
 ],
						"outputs" : [ 							{
								"name" : "message",
								"type" : "list",
								"digest" : "Message when patcher is loaded.",
								"defaultarg" : 1,
								"docked" : 0
							}
 ],
						"helpname" : "loadmess",
						"aliasOf" : "loadmess",
						"classname" : "loadmess",
						"operator" : 0,
						"versionId" : -361086158,
						"changesPatcherIO" : 0
					}
,
					"text" : "loadmess -3",
					"varname" : "knee"
				}

			}
, 			{
				"box" : 				{
					"id" : "obj-106",
					"maxclass" : "newobj",
					"numinlets" : 0,
					"numoutlets" : 1,
					"outlettype" : [ "" ],
					"patching_rect" : [ 280.0, 320.0, 28.0, 23.0 ],
					"rnbo_classname" : "in",
					"rnbo_extra_attributes" : 					{
						"comment" : "",
						"meta" : ""
					}
,
					"rnbo_serial" : 1,
					"rnbo_uniqueid" : "thresh",
					"rnboinfo" : 					{
						"needsInstanceInfo" : 1,
						"argnames" : 						{
							"index" : 							{
								"attrOrProp" : 2,
								"digest" : "inlet number",
								"defaultarg" : 1,
								"isalias" : 0,
								"aliases" : [  ],
								"settable" : 1,
								"attachable" : 0,
								"isparam" : 0,
								"deprecated" : 0,
								"touched" : 0,
								"type" : "number",
								"mandatory" : 1
							}
,
							"comment" : 							{
								"attrOrProp" : 2,
								"digest" : "mouse over comment",
								"isalias" : 0,
								"aliases" : [  ],
								"settable" : 1,
								"attachable" : 0,
								"isparam" : 0,
								"deprecated" : 0,
								"touched" : 0,
								"type" : "symbol"
							}
,
							"meta" : 							{
								"attrOrProp" : 2,
								"digest" : "A JSON formatted string containing metadata for use by the exported code",
								"isalias" : 0,
								"aliases" : [  ],
								"settable" : 1,
								"attachable" : 0,
								"isparam" : 0,
								"deprecated" : 0,
								"touched" : 0,
								"type" : "symbol",
								"defaultValue" : "",
								"label" : "Metadata",
								"displayorder" : 3
							}

						}
,
						"inputs" : [  ],
						"outputs" : [ 							{
								"name" : "out1",
								"type" : [ "bang", "number", "list" ],
								"digest" : "value from inlet with index 2",
								"displayName" : "",
								"docked" : 0
							}
 ],
						"helpname" : "in",
						"aliasOf" : "in",
						"classname" : "in",
						"operator" : 0,
						"versionId" : 475235762,
						"changesPatcherIO" : 1
					}
,
					"text" : "in 2",
					"varname" : "thresh"
				}

			}
, 			{
				"box" : 				{
					"id" : "obj-101",
					"maxclass" : "newobj",
					"numinlets" : 1,
					"numoutlets" : 1,
					"outlettype" : [ "" ],
					"patching_rect" : [ 410.0, 380.0, 39.0, 23.0 ],
					"rnbo_classname" : "dbtoa",
					"rnbo_extra_attributes" : 					{
						"hot" : 0
					}
,
					"rnbo_serial" : 1,
					"rnbo_uniqueid" : "dbtoa_obj-101",
					"text" : "dbtoa"
				}

			}
, 			{
				"box" : 				{
					"fontface" : 1,
					"id" : "obj-53",
					"maxclass" : "flonum",
					"numinlets" : 1,
					"numoutlets" : 2,
					"outlettype" : [ "", "bang" ],
					"parameter_enable" : 0,
					"patching_rect" : [ 280.0, 350.0, 50.0, 23.0 ],
					"rnbo_classname" : "number",
					"rnbo_extra_attributes" : 					{
						"preset" : 0,
						"initialFormat" : "float",
						"order" : "",
						"maximum" : "<none>",
						"minimum" : "<none>"
					}
,
					"rnbo_serial" : 5,
					"rnbo_uniqueid" : "number_obj-53",
					"textcolor" : [ 0.929412, 0.929412, 0.352941, 1.0 ]
				}

			}
, 			{
				"box" : 				{
					"fontface" : 0,
					"fontname" : "Lato",
					"fontsize" : 12.0,
					"id" : "obj-51",
					"interval" : 100.0,
					"maxclass" : "number~",
					"mode" : 2,
					"numinlets" : 2,
					"numoutlets" : 2,
					"outlettype" : [ "signal", "float" ],
					"patching_rect" : [ 210.0, 650.0, 59.0, 23.0 ],
					"rnbo_classname" : "number~",
					"rnbo_extra_attributes" : 					{
						"displaymode" : "first",
						"initialMode" : "monitor",
						"interval" : 100.0
					}
,
					"rnbo_serial" : 2,
					"rnbo_uniqueid" : "number~_obj-51",
					"sig" : 0.0
				}

			}
, 			{
				"box" : 				{
					"id" : "obj-49",
					"maxclass" : "newobj",
					"numinlets" : 1,
					"numoutlets" : 1,
					"outlettype" : [ "" ],
					"patching_rect" : [ 280.0, 380.0, 39.0, 23.0 ],
					"rnbo_classname" : "dbtoa",
					"rnbo_extra_attributes" : 					{
						"hot" : 0
					}
,
					"rnbo_serial" : 2,
					"rnbo_uniqueid" : "dbtoa_obj-49",
					"text" : "dbtoa"
				}

			}
, 			{
				"box" : 				{
					"id" : "obj-47",
					"maxclass" : "newobj",
					"numinlets" : 2,
					"numoutlets" : 1,
					"outlettype" : [ "signal" ],
					"patching_rect" : [ 50.0, 650.0, 29.5, 23.0 ],
					"rnbo_classname" : "*~",
					"rnbo_serial" : 1,
					"rnbo_uniqueid" : "*~_obj-47",
					"text" : "*~"
				}

			}
, 			{
				"box" : 				{
					"id" : "obj-46",
					"maxclass" : "newobj",
					"numinlets" : 3,
					"numoutlets" : 1,
					"outlettype" : [ "signal" ],
					"patching_rect" : [ 210.0, 590.0, 59.0, 23.0 ],
					"rnbo_classname" : "clip~",
					"rnbo_serial" : 1,
					"rnbo_uniqueid" : "clip~_obj-46",
					"text" : "clip~ 0. 1."
				}

			}
, 			{
				"box" : 				{
					"id" : "obj-45",
					"maxclass" : "newobj",
					"numinlets" : 2,
					"numoutlets" : 1,
					"outlettype" : [ "signal" ],
					"patching_rect" : [ 280.0, 540.0, 29.5, 23.0 ],
					"rnbo_classname" : "-~",
					"rnbo_serial" : 1,
					"rnbo_uniqueid" : "-~_obj-45",
					"text" : "-~"
				}

			}
, 			{
				"box" : 				{
					"id" : "obj-43",
					"maxclass" : "newobj",
					"numinlets" : 2,
					"numoutlets" : 2,
					"outlettype" : [ "signal", "" ],
					"patching_rect" : [ 410.0, 410.0, 69.0, 23.0 ],
					"rnbo_classname" : "fade~",
					"rnbo_serial" : 2,
					"rnbo_uniqueid" : "fade~_obj-43",
					"rnboinfo" : 					{
						"needsInstanceInfo" : 1,
						"argnames" : 						{
							"segments" : 							{
								"attrOrProp" : 1,
								"digest" : "Target value or target value/ramp time pairs",
								"isalias" : 0,
								"aliases" : [ "dest" ],
								"settable" : 1,
								"attachable" : 0,
								"isparam" : 0,
								"deprecated" : 0,
								"touched" : 0,
								"inlet" : 1,
								"type" : "list",
								"defaultValue" : ""
							}
,
							"dest" : 							{
								"attrOrProp" : 1,
								"digest" : "Target value or target value/ramp time pairs",
								"isalias" : 1,
								"aliasOf" : "segments",
								"aliases" : [  ],
								"settable" : 1,
								"attachable" : 0,
								"isparam" : 0,
								"deprecated" : 0,
								"touched" : 0,
								"inlet" : 1,
								"type" : "list",
								"defaultValue" : ""
							}
,
							"time" : 							{
								"attrOrProp" : 1,
								"digest" : "Ramp time",
								"defaultarg" : 2,
								"isalias" : 0,
								"aliases" : [  ],
								"settable" : 1,
								"attachable" : 0,
								"isparam" : 0,
								"deprecated" : 0,
								"touched" : 0,
								"inlet" : 1,
								"type" : "number",
								"defaultValue" : "0"
							}
,
							"keepramp" : 							{
								"attrOrProp" : 1,
								"digest" : "Keep last ramp",
								"isalias" : 0,
								"aliases" : [  ],
								"settable" : 1,
								"attachable" : 1,
								"isparam" : 0,
								"deprecated" : 0,
								"touched" : 0,
								"type" : "bool",
								"defaultValue" : "false"
							}
,
							"out" : 							{
								"attrOrProp" : 1,
								"digest" : "Ramp out",
								"isalias" : 0,
								"aliases" : [  ],
								"settable" : 0,
								"attachable" : 0,
								"isparam" : 0,
								"deprecated" : 0,
								"touched" : 0,
								"outlet" : 1,
								"type" : "signal"
							}
,
							"target" : 							{
								"attrOrProp" : 1,
								"digest" : "Bang when ramp has finished",
								"isalias" : 0,
								"aliases" : [  ],
								"settable" : 0,
								"attachable" : 0,
								"isparam" : 0,
								"deprecated" : 0,
								"touched" : 0,
								"outlet" : 1,
								"type" : "bang"
							}
,
							"value" : 							{
								"attrOrProp" : 2,
								"digest" : "Initial value.",
								"defaultarg" : 1,
								"isalias" : 0,
								"aliases" : [  ],
								"settable" : 1,
								"attachable" : 0,
								"isparam" : 0,
								"deprecated" : 0,
								"touched" : 0,
								"type" : "number",
								"defaultValue" : "0"
							}

						}
,
						"inputs" : [ 							{
								"name" : "segments",
								"type" : "list",
								"digest" : "Target value or target value/ramp time pairs",
								"hot" : 1,
								"docked" : 0
							}
, 							{
								"name" : "time",
								"type" : "number",
								"digest" : "Ramp time",
								"defaultarg" : 2,
								"docked" : 0
							}
 ],
						"outputs" : [ 							{
								"name" : "out",
								"type" : "signal",
								"digest" : "Ramp out",
								"docked" : 0
							}
, 							{
								"name" : "target",
								"type" : "bang",
								"digest" : "Bang when ramp has finished",
								"docked" : 0
							}
 ],
						"helpname" : "line~",
						"aliasOf" : "line~",
						"classname" : "fade~",
						"operator" : 0,
						"versionId" : 2134689829,
						"changesPatcherIO" : 0
					}
,
					"text" : "fade~ 0. 10"
				}

			}
, 			{
				"box" : 				{
					"id" : "obj-42",
					"maxclass" : "newobj",
					"numinlets" : 2,
					"numoutlets" : 1,
					"outlettype" : [ "signal" ],
					"patching_rect" : [ 210.0, 540.0, 29.5, 23.0 ],
					"rnbo_classname" : "/~",
					"rnbo_serial" : 1,
					"rnbo_uniqueid" : "/~_obj-42",
					"text" : "/~"
				}

			}
, 			{
				"box" : 				{
					"id" : "obj-41",
					"maxclass" : "newobj",
					"numinlets" : 2,
					"numoutlets" : 1,
					"outlettype" : [ "signal" ],
					"patching_rect" : [ 210.0, 490.0, 29.5, 23.0 ],
					"rnbo_classname" : "-~",
					"rnbo_serial" : 2,
					"rnbo_uniqueid" : "-~_obj-41",
					"text" : "-~"
				}

			}
, 			{
				"box" : 				{
					"id" : "obj-39",
					"maxclass" : "newobj",
					"numinlets" : 2,
					"numoutlets" : 1,
					"outlettype" : [ "signal" ],
					"patching_rect" : [ 320.0, 490.0, 28.5, 23.0 ],
					"rnbo_classname" : "*~",
					"rnbo_serial" : 2,
					"rnbo_uniqueid" : "*~_obj-39",
					"text" : "*~"
				}

			}
, 			{
				"box" : 				{
					"id" : "obj-71",
					"maxclass" : "newobj",
					"numinlets" : 1,
					"numoutlets" : 1,
					"outlettype" : [ "" ],
					"patching_rect" : [ 450.0, 140.0, 74.0, 23.0 ],
					"rnbo_classname" : "loadmess",
					"rnbo_serial" : 3,
					"rnbo_uniqueid" : "loadmess_obj-71",
					"rnboinfo" : 					{
						"needsInstanceInfo" : 1,
						"argnames" : 						{
							"input" : 							{
								"attrOrProp" : 1,
								"digest" : "Bang to trigger message.",
								"isalias" : 0,
								"aliases" : [  ],
								"settable" : 0,
								"attachable" : 0,
								"isparam" : 0,
								"deprecated" : 0,
								"touched" : 0,
								"inlet" : 1,
								"type" : "bang"
							}
,
							"message" : 							{
								"attrOrProp" : 1,
								"digest" : "Message when patcher is loaded.",
								"defaultarg" : 1,
								"isalias" : 0,
								"aliases" : [  ],
								"settable" : 1,
								"attachable" : 0,
								"isparam" : 0,
								"deprecated" : 0,
								"touched" : 0,
								"outlet" : 1,
								"type" : "list",
								"defaultValue" : ""
							}
,
							"startupbang" : 							{
								"attrOrProp" : 1,
								"digest" : "startupbang",
								"isalias" : 0,
								"aliases" : [  ],
								"attachable" : 0,
								"isparam" : 0,
								"deprecated" : 0,
								"touched" : 0,
								"type" : "bang"
							}

						}
,
						"inputs" : [ 							{
								"name" : "input",
								"type" : "bang",
								"digest" : "Bang to trigger message.",
								"hot" : 1,
								"docked" : 0
							}
 ],
						"outputs" : [ 							{
								"name" : "message",
								"type" : "list",
								"digest" : "Message when patcher is loaded.",
								"defaultarg" : 1,
								"docked" : 0
							}
 ],
						"helpname" : "loadmess",
						"aliasOf" : "loadmess",
						"classname" : "loadmess",
						"operator" : 0,
						"versionId" : -361086158,
						"changesPatcherIO" : 0
					}
,
					"text" : "loadmess #2"
				}

			}
, 			{
				"box" : 				{
					"id" : "obj-30",
					"maxclass" : "flonum",
					"numinlets" : 1,
					"numoutlets" : 2,
					"outlettype" : [ "", "bang" ],
					"parameter_enable" : 0,
					"patching_rect" : [ 450.0, 230.0, 60.0, 23.0 ],
					"rnbo_classname" : "number",
					"rnbo_extra_attributes" : 					{
						"preset" : 0,
						"initialFormat" : "float",
						"order" : "",
						"maximum" : "<none>",
						"minimum" : "<none>"
					}
,
					"rnbo_serial" : 6,
					"rnbo_uniqueid" : "number_obj-30"
				}

			}
, 			{
				"box" : 				{
					"fontface" : 1,
					"id" : "obj-32",
					"maxclass" : "flonum",
					"numinlets" : 1,
					"numoutlets" : 2,
					"outlettype" : [ "", "bang" ],
					"parameter_enable" : 0,
					"patching_rect" : [ 450.0, 170.0, 50.0, 23.0 ],
					"rnbo_classname" : "number",
					"rnbo_extra_attributes" : 					{
						"preset" : 0,
						"initialFormat" : "float",
						"order" : "",
						"maximum" : "<none>",
						"minimum" : "<none>"
					}
,
					"rnbo_serial" : 7,
					"rnbo_uniqueid" : "number_obj-32",
					"textcolor" : [ 0.929412, 0.929412, 0.352941, 1.0 ]
				}

			}
, 			{
				"box" : 				{
					"id" : "obj-33",
					"maxclass" : "newobj",
					"numinlets" : 1,
					"numoutlets" : 1,
					"outlettype" : [ "" ],
					"patching_rect" : [ 450.0, 200.0, 68.0, 23.0 ],
					"rnbo_classname" : "mstosamps",
					"rnbo_extra_attributes" : 					{
						"hot" : 0
					}
,
					"rnbo_serial" : 1,
					"rnbo_uniqueid" : "mstosamps_obj-33",
					"text" : "mstosamps"
				}

			}
, 			{
				"box" : 				{
					"id" : "obj-31",
					"maxclass" : "flonum",
					"numinlets" : 1,
					"numoutlets" : 2,
					"outlettype" : [ "", "bang" ],
					"parameter_enable" : 0,
					"patching_rect" : [ 320.0, 170.0, 60.0, 23.0 ],
					"rnbo_classname" : "number",
					"rnbo_extra_attributes" : 					{
						"preset" : 0,
						"initialFormat" : "float",
						"order" : "",
						"maximum" : "<none>",
						"minimum" : "<none>"
					}
,
					"rnbo_serial" : 8,
					"rnbo_uniqueid" : "number_obj-31"
				}

			}
, 			{
				"box" : 				{
					"id" : "obj-23",
					"maxclass" : "newobj",
					"numinlets" : 1,
					"numoutlets" : 1,
					"outlettype" : [ "" ],
					"patching_rect" : [ 320.0, 140.0, 68.0, 23.0 ],
					"rnbo_classname" : "mstosamps",
					"rnbo_extra_attributes" : 					{
						"hot" : 0
					}
,
					"rnbo_serial" : 2,
					"rnbo_uniqueid" : "mstosamps_obj-23",
					"text" : "mstosamps"
				}

			}
, 			{
				"box" : 				{
					"id" : "obj-27",
					"maxclass" : "newobj",
					"numinlets" : 3,
					"numoutlets" : 1,
					"outlettype" : [ "signal" ],
					"patching_rect" : [ 210.0, 230.0, 82.0, 23.0 ],
					"rnbo_classname" : "rampsmooth~",
					"rnbo_serial" : 1,
					"rnbo_uniqueid" : "rampsmooth~_obj-27",
					"text" : "rampsmooth~"
				}

			}
, 			{
				"box" : 				{
					"id" : "obj-24",
					"maxclass" : "newobj",
					"numinlets" : 1,
					"numoutlets" : 1,
					"outlettype" : [ "signal" ],
					"patching_rect" : [ 210.0, 160.0, 33.0, 23.0 ],
					"rnbo_classname" : "abs~",
					"rnbo_serial" : 1,
					"rnbo_uniqueid" : "abs~_obj-24",
					"text" : "abs~"
				}

			}
, 			{
				"box" : 				{
					"id" : "obj-3",
					"maxclass" : "newobj",
					"numinlets" : 1,
					"numoutlets" : 0,
					"patching_rect" : [ 50.0, 710.0, 43.0, 23.0 ],
					"rnbo_classname" : "out~",
					"rnbo_extra_attributes" : 					{
						"comment" : "",
						"meta" : ""
					}
,
					"rnbo_serial" : 2,
					"rnbo_uniqueid" : "out~_obj-3",
					"rnboinfo" : 					{
						"needsInstanceInfo" : 1,
						"argnames" : 						{
							"in1" : 							{
								"attrOrProp" : 1,
								"digest" : "signal sent to outlet with index 1",
								"isalias" : 0,
								"aliases" : [  ],
								"settable" : 0,
								"attachable" : 0,
								"isparam" : 0,
								"deprecated" : 0,
								"touched" : 0,
								"inlet" : 1,
								"type" : "signal"
							}
,
							"index" : 							{
								"attrOrProp" : 2,
								"digest" : "outlet number",
								"defaultarg" : 1,
								"isalias" : 0,
								"aliases" : [  ],
								"settable" : 1,
								"attachable" : 0,
								"isparam" : 0,
								"deprecated" : 0,
								"touched" : 0,
								"type" : "number",
								"mandatory" : 1
							}
,
							"comment" : 							{
								"attrOrProp" : 2,
								"digest" : "mouse over comment",
								"isalias" : 0,
								"aliases" : [  ],
								"settable" : 1,
								"attachable" : 0,
								"isparam" : 0,
								"deprecated" : 0,
								"touched" : 0,
								"type" : "symbol"
							}
,
							"meta" : 							{
								"attrOrProp" : 2,
								"digest" : "A JSON formatted string containing metadata for use by the exported code",
								"isalias" : 0,
								"aliases" : [  ],
								"settable" : 1,
								"attachable" : 0,
								"isparam" : 0,
								"deprecated" : 0,
								"touched" : 0,
								"type" : "symbol",
								"defaultValue" : "",
								"label" : "Metadata",
								"displayorder" : 3
							}

						}
,
						"inputs" : [ 							{
								"name" : "in1",
								"type" : "signal",
								"digest" : "signal sent to outlet with index 1",
								"displayName" : "",
								"hot" : 1,
								"docked" : 0
							}
 ],
						"outputs" : [  ],
						"helpname" : "out~",
						"aliasOf" : "out~",
						"classname" : "out~",
						"operator" : 0,
						"versionId" : 1989326771,
						"changesPatcherIO" : 1
					}
,
					"text" : "out~ 1"
				}

			}
, 			{
				"box" : 				{
					"id" : "obj-1",
					"maxclass" : "newobj",
					"numinlets" : 0,
					"numoutlets" : 1,
					"outlettype" : [ "signal" ],
					"patching_rect" : [ 50.0, 570.0, 35.0, 23.0 ],
					"rnbo_classname" : "in~",
					"rnbo_extra_attributes" : 					{
						"comment" : "",
						"meta" : ""
					}
,
					"rnbo_serial" : 2,
					"rnbo_uniqueid" : "in~_obj-1",
					"rnboinfo" : 					{
						"needsInstanceInfo" : 1,
						"argnames" : 						{
							"out1" : 							{
								"attrOrProp" : 1,
								"digest" : "signal from inlet with index 1",
								"isalias" : 0,
								"aliases" : [  ],
								"settable" : 0,
								"attachable" : 0,
								"isparam" : 0,
								"deprecated" : 0,
								"touched" : 0,
								"outlet" : 1,
								"type" : "signal"
							}
,
							"index" : 							{
								"attrOrProp" : 2,
								"digest" : "inlet number",
								"defaultarg" : 1,
								"isalias" : 0,
								"aliases" : [  ],
								"settable" : 1,
								"attachable" : 0,
								"isparam" : 0,
								"deprecated" : 0,
								"touched" : 0,
								"type" : "number",
								"mandatory" : 1
							}
,
							"comment" : 							{
								"attrOrProp" : 2,
								"digest" : "mouse over comment",
								"isalias" : 0,
								"aliases" : [  ],
								"settable" : 1,
								"attachable" : 0,
								"isparam" : 0,
								"deprecated" : 0,
								"touched" : 0,
								"type" : "symbol"
							}
,
							"meta" : 							{
								"attrOrProp" : 2,
								"digest" : "A JSON formatted string containing metadata for use by the exported code",
								"isalias" : 0,
								"aliases" : [  ],
								"settable" : 1,
								"attachable" : 0,
								"isparam" : 0,
								"deprecated" : 0,
								"touched" : 0,
								"type" : "symbol",
								"defaultValue" : "",
								"label" : "Metadata",
								"displayorder" : 3
							}

						}
,
						"inputs" : [  ],
						"outputs" : [ 							{
								"name" : "out1",
								"type" : "signal",
								"digest" : "signal from inlet with index 1",
								"displayName" : "",
								"docked" : 0
							}
 ],
						"helpname" : "in~",
						"aliasOf" : "in~",
						"classname" : "in~",
						"operator" : 0,
						"versionId" : -1654556303,
						"changesPatcherIO" : 1
					}
,
					"text" : "in~ 1"
				}

			}
, 			{
				"box" : 				{
					"background" : 1,
					"fontface" : 0,
					"fontname" : "Lato Italic",
					"id" : "obj-7",
					"maxclass" : "comment",
					"numinlets" : 1,
					"numoutlets" : 0,
					"patching_rect" : [ 620.0, 100.0, 242.0, 21.0 ],
					"text" : "(from the \"Dynamics Processing\" MSP tutorials)"
				}

			}
, 			{
				"box" : 				{
					"background" : 1,
					"fontface" : 0,
					"id" : "obj-79",
					"linecount" : 27,
					"maxclass" : "comment",
					"numinlets" : 1,
					"numoutlets" : 0,
					"patching_rect" : [ 620.0, 120.0, 281.0, 395.0 ],
					"text" : "Dynamics processors can be constructed using signal processing algorithms that take an envelope follower output as their control signal. The circuit in this patcher starts on the same premise of a compressor: that of an envelope follower and a threshold.\n\nThe attack and decay controls set how fast the envelope follower allows the envelope to rise and fall based on the incoming signal.\n\nRather than reducing the gain of audio energy that exceeds the threshold, like in a compressor unit, this circuit attenuates signals that fall below it. This type of dynamics compression is called a gate or a \"noise gate\". \n\nUnlike a compressor, the gate has a knee setting instead of a compression ratio. This setting is a proportion of the threshold within which the audio is attenuated rather than cut altogether. We can expect the following results:\n\nSound above threshold are left alone (gain = 1).\nSound below threshold and above <threshold * knee> are scaled between 0 and 1.\nSound below knee are gated out (gain = 0)."
				}

			}
, 			{
				"box" : 				{
					"background" : 1,
					"id" : "obj-77",
					"maxclass" : "comment",
					"numinlets" : 1,
					"numoutlets" : 0,
					"patching_rect" : [ 380.0, 540.0, 21.0, 21.0 ],
					"text" : "lin"
				}

			}
, 			{
				"box" : 				{
					"background" : 1,
					"id" : "obj-76",
					"maxclass" : "comment",
					"numinlets" : 1,
					"numoutlets" : 0,
					"patching_rect" : [ 410.0, 600.0, 23.0, 21.0 ],
					"text" : "dB"
				}

			}
, 			{
				"box" : 				{
					"background" : 1,
					"id" : "obj-75",
					"linecount" : 2,
					"maxclass" : "comment",
					"numinlets" : 1,
					"numoutlets" : 0,
					"patching_rect" : [ 350.0, 500.0, 64.0, 35.0 ],
					"text" : "Threshold * knee"
				}

			}
, 			{
				"box" : 				{
					"background" : 1,
					"bgcolor" : [ 1.0, 0.788235, 0.470588, 1.0 ],
					"fontface" : 1,
					"fontsize" : 10.0,
					"hint" : "To see the properties of a parameter, unlock the patcher, select a param object and click the Inspector button in the patcher toolbar ",
					"id" : "obj-25",
					"maxclass" : "comment",
					"numinlets" : 1,
					"numoutlets" : 0,
					"patching_rect" : [ 720.0, 730.0, 41.0, 18.0 ],
					"text" : "Params"
				}

			}
, 			{
				"box" : 				{
					"background" : 1,
					"fontface" : 1,
					"fontsize" : 10.0,
					"id" : "obj-116",
					"maxclass" : "comment",
					"numinlets" : 1,
					"numoutlets" : 0,
					"patching_rect" : [ 620.0, 730.0, 27.0, 18.0 ],
					"text" : "Tips"
				}

			}
, 			{
				"box" : 				{
					"background" : 1,
					"bgcolor" : [ 1.0, 0.788235, 0.470588, 1.0 ],
					"fontface" : 1,
					"fontsize" : 10.0,
					"hint" : "To copy some elements of the patch without including comments, unlock the patcher window and hit cmd-alt-L (Mac) / ctrl-opt-L (PC) to lock the patcher's background, then make your selection.",
					"id" : "obj-115",
					"maxclass" : "comment",
					"numinlets" : 1,
					"numoutlets" : 0,
					"patching_rect" : [ 684.0, 730.0, 32.0, 18.0 ],
					"text" : "Copy"
				}

			}
, 			{
				"box" : 				{
					"background" : 1,
					"bgcolor" : [ 1.0, 0.788235, 0.470588, 1.0 ],
					"fontface" : 1,
					"fontsize" : 10.0,
					"hint" : "Alt-click (Mac) / opt-click (PC) on an object box while the patcher is unlocked to view an object's help file.",
					"id" : "obj-114",
					"maxclass" : "comment",
					"numinlets" : 1,
					"numoutlets" : 0,
					"patching_rect" : [ 650.0, 730.0, 30.0, 18.0 ],
					"text" : "Help"
				}

			}
, 			{
				"box" : 				{
					"background" : 1,
					"fontface" : 0,
					"fontname" : "Lato",
					"fontsize" : 10.0,
					"id" : "obj-44",
					"maxclass" : "comment",
					"numinlets" : 1,
					"numoutlets" : 0,
					"patching_rect" : [ 650.0, 750.0, 111.0, 18.0 ],
					"text" : "manuel@cycling74.com"
				}

			}
, 			{
				"box" : 				{
					"background" : 1,
					"id" : "obj-36",
					"maxclass" : "comment",
					"numinlets" : 1,
					"numoutlets" : 0,
					"patching_rect" : [ 495.0, 350.0, 29.0, 21.0 ],
					"text" : "(dB)"
				}

			}
, 			{
				"box" : 				{
					"background" : 1,
					"id" : "obj-12",
					"maxclass" : "comment",
					"numinlets" : 1,
					"numoutlets" : 0,
					"patching_rect" : [ 540.0, 170.0, 30.0, 21.0 ],
					"text" : "(ms)"
				}

			}
, 			{
				"box" : 				{
					"background" : 1,
					"fontface" : 1,
					"id" : "obj-11",
					"maxclass" : "comment",
					"numinlets" : 1,
					"numoutlets" : 0,
					"patching_rect" : [ 503.0, 170.0, 42.0, 21.0 ],
					"text" : "Decay"
				}

			}
, 			{
				"box" : 				{
					"background" : 1,
					"id" : "obj-104",
					"maxclass" : "comment",
					"numinlets" : 1,
					"numoutlets" : 0,
					"patching_rect" : [ 270.0, 650.0, 55.0, 21.0 ],
					"text" : "Amp (lin)"
				}

			}
, 			{
				"box" : 				{
					"background" : 1,
					"fontface" : 1,
					"id" : "obj-100",
					"maxclass" : "comment",
					"numinlets" : 1,
					"numoutlets" : 0,
					"patching_rect" : [ 620.0, 80.0, 70.0, 21.0 ],
					"text" : "Description"
				}

			}
, 			{
				"box" : 				{
					"background" : 1,
					"fontface" : 0,
					"fontname" : "Lato Bold",
					"fontsize" : 18.0,
					"id" : "obj-96",
					"maxclass" : "comment",
					"numinlets" : 1,
					"numoutlets" : 0,
					"patching_rect" : [ 620.0, 25.0, 149.0, 28.0 ],
					"text" : "RNBO NoiseGate"
				}

			}
, 			{
				"box" : 				{
					"background" : 1,
					"fontface" : 1,
					"id" : "obj-28",
					"maxclass" : "comment",
					"numinlets" : 1,
					"numoutlets" : 0,
					"patching_rect" : [ 620.0, 50.0, 139.0, 21.0 ],
					"text" : "Classic stereo noise gate"
				}

			}
, 			{
				"box" : 				{
					"background" : 1,
					"id" : "obj-90",
					"linecount" : 4,
					"maxclass" : "comment",
					"numinlets" : 1,
					"numoutlets" : 0,
					"patching_rect" : [ 450.0, 70.0, 150.0, 64.0 ],
					"text" : "Sets how long it will take for the gate to close after the signal has dropped down below the threshold"
				}

			}
, 			{
				"box" : 				{
					"background" : 1,
					"id" : "obj-229",
					"linecount" : 2,
					"maxclass" : "comment",
					"numinlets" : 1,
					"numoutlets" : 0,
					"patching_rect" : [ 310.0, 700.0, 60.0, 35.0 ],
					"text" : "Gain (dB) reduction"
				}

			}
, 			{
				"box" : 				{
					"background" : 1,
					"id" : "obj-83",
					"linecount" : 2,
					"maxclass" : "comment",
					"numinlets" : 1,
					"numoutlets" : 0,
					"patching_rect" : [ 360.0, 740.0, 110.0, 35.0 ],
					"text" : "Forward to rnbo~ rightmost outlet"
				}

			}
, 			{
				"box" : 				{
					"background" : 1,
					"id" : "obj-89",
					"linecount" : 3,
					"maxclass" : "comment",
					"numinlets" : 1,
					"numoutlets" : 0,
					"patching_rect" : [ 295.0, 25.0, 150.0, 50.0 ],
					"text" : "Sets how long it will take for the gate to open after the threshold is reached"
				}

			}
, 			{
				"box" : 				{
					"background" : 1,
					"id" : "obj-88",
					"linecount" : 3,
					"maxclass" : "comment",
					"numinlets" : 1,
					"numoutlets" : 0,
					"patching_rect" : [ 407.0, 265.0, 111.0, 50.0 ],
					"text" : "Sets the sharpness of the gate when it is closed"
				}

			}
, 			{
				"box" : 				{
					"background" : 1,
					"id" : "obj-87",
					"linecount" : 3,
					"maxclass" : "comment",
					"numinlets" : 1,
					"numoutlets" : 0,
					"patching_rect" : [ 255.0, 265.0, 150.0, 50.0 ],
					"text" : "Sets the threshold level that incoming audio must exceed to open the gate"
				}

			}
, 			{
				"box" : 				{
					"background" : 1,
					"id" : "obj-81",
					"linecount" : 4,
					"maxclass" : "comment",
					"numinlets" : 1,
					"numoutlets" : 0,
					"patching_rect" : [ 90.0, 490.0, 110.0, 64.0 ],
					"text" : "Gain = (envelope - (threshold * knee)) / (threshold - (threshold * knee)"
				}

			}
, 			{
				"box" : 				{
					"background" : 1,
					"id" : "obj-72",
					"maxclass" : "comment",
					"numinlets" : 1,
					"numoutlets" : 0,
					"patching_rect" : [ 375.0, 350.0, 29.0, 21.0 ],
					"text" : "(dB)"
				}

			}
, 			{
				"box" : 				{
					"background" : 1,
					"id" : "obj-57",
					"maxclass" : "comment",
					"numinlets" : 1,
					"numoutlets" : 0,
					"patching_rect" : [ 480.0, 410.0, 70.0, 21.0 ],
					"text" : "10 ms ramp"
				}

			}
, 			{
				"box" : 				{
					"background" : 1,
					"fontface" : 1,
					"id" : "obj-29",
					"maxclass" : "comment",
					"numinlets" : 1,
					"numoutlets" : 0,
					"patching_rect" : [ 463.0, 350.0, 36.0, 21.0 ],
					"text" : "Knee"
				}

			}
, 			{
				"box" : 				{
					"background" : 1,
					"id" : "obj-20",
					"linecount" : 2,
					"maxclass" : "comment",
					"numinlets" : 1,
					"numoutlets" : 0,
					"patching_rect" : [ 140.0, 224.0, 60.0, 35.0 ],
					"text" : "Envelope follower"
				}

			}
, 			{
				"box" : 				{
					"background" : 1,
					"fontface" : 1,
					"id" : "obj-22",
					"maxclass" : "comment",
					"numinlets" : 1,
					"numoutlets" : 0,
					"patching_rect" : [ 333.0, 350.0, 45.0, 21.0 ],
					"text" : "Thresh"
				}

			}
, 			{
				"box" : 				{
					"background" : 1,
					"id" : "obj-18",
					"maxclass" : "comment",
					"numinlets" : 1,
					"numoutlets" : 0,
					"patching_rect" : [ 130.0, 100.0, 75.0, 21.0 ],
					"text" : "Sidechaining"
				}

			}
, 			{
				"box" : 				{
					"background" : 1,
					"id" : "obj-203",
					"linecount" : 4,
					"maxclass" : "comment",
					"numinlets" : 1,
					"numoutlets" : 0,
					"patching_rect" : [ 130.0, 130.0, 80.0, 64.0 ],
					"text" : "Follow envelope of loudest of L or R signals"
				}

			}
, 			{
				"box" : 				{
					"background" : 1,
					"id" : "obj-8",
					"maxclass" : "comment",
					"numinlets" : 1,
					"numoutlets" : 0,
					"patching_rect" : [ 410.0, 110.0, 30.0, 21.0 ],
					"text" : "(ms)"
				}

			}
, 			{
				"box" : 				{
					"background" : 1,
					"id" : "obj-17",
					"maxclass" : "comment",
					"numinlets" : 1,
					"numoutlets" : 0,
					"patching_rect" : [ 210.0, 75.0, 74.0, 21.0 ],
					"text" : "Audio in L/R",
					"textjustification" : 1
				}

			}
, 			{
				"box" : 				{
					"background" : 1,
					"fontface" : 1,
					"id" : "obj-208",
					"maxclass" : "comment",
					"numinlets" : 1,
					"numoutlets" : 0,
					"patching_rect" : [ 373.0, 110.0, 44.0, 21.0 ],
					"text" : "Attack"
				}

			}
, 			{
				"box" : 				{
					"background" : 1,
					"id" : "obj-34",
					"maxclass" : "comment",
					"numinlets" : 1,
					"numoutlets" : 0,
					"patching_rect" : [ 510.0, 230.0, 51.0, 21.0 ],
					"text" : "samples"
				}

			}
, 			{
				"box" : 				{
					"background" : 1,
					"id" : "obj-37",
					"maxclass" : "comment",
					"numinlets" : 1,
					"numoutlets" : 0,
					"patching_rect" : [ 380.0, 170.0, 51.0, 21.0 ],
					"text" : "samples"
				}

			}
, 			{
				"box" : 				{
					"background" : 1,
					"id" : "obj-66",
					"maxclass" : "comment",
					"numinlets" : 1,
					"numoutlets" : 0,
					"patching_rect" : [ 50.0, 740.0, 83.0, 21.0 ],
					"text" : "Audio out L/R",
					"textjustification" : 1
				}

			}
, 			{
				"box" : 				{
					"background" : 1,
					"id" : "obj-14",
					"maxclass" : "comment",
					"numinlets" : 1,
					"numoutlets" : 0,
					"patching_rect" : [ 50.0, 545.0, 74.0, 21.0 ],
					"text" : "Audio in L/R",
					"textjustification" : 1
				}

			}
 ],
		"lines" : [ 			{
				"patchline" : 				{
					"destination" : [ "obj-13", 0 ],
					"source" : [ "obj-1", 0 ]
				}

			}
, 			{
				"patchline" : 				{
					"destination" : [ "obj-43", 0 ],
					"source" : [ "obj-101", 0 ]
				}

			}
, 			{
				"patchline" : 				{
					"destination" : [ "obj-53", 0 ],
					"source" : [ "obj-106", 0 ]
				}

			}
, 			{
				"patchline" : 				{
					"destination" : [ "obj-67", 0 ],
					"source" : [ "obj-110", 0 ]
				}

			}
, 			{
				"patchline" : 				{
					"destination" : [ "obj-47", 0 ],
					"source" : [ "obj-13", 0 ]
				}

			}
, 			{
				"patchline" : 				{
					"destination" : [ "obj-24", 0 ],
					"source" : [ "obj-15", 0 ]
				}

			}
, 			{
				"patchline" : 				{
					"destination" : [ "obj-4", 0 ],
					"source" : [ "obj-2", 0 ]
				}

			}
, 			{
				"patchline" : 				{
					"destination" : [ "obj-31", 0 ],
					"source" : [ "obj-23", 0 ]
				}

			}
, 			{
				"patchline" : 				{
					"destination" : [ "obj-27", 0 ],
					"source" : [ "obj-24", 0 ]
				}

			}
, 			{
				"patchline" : 				{
					"destination" : [ "obj-41", 0 ],
					"order" : 0,
					"source" : [ "obj-27", 0 ]
				}

			}
, 			{
				"patchline" : 				{
					"destination" : [ "obj-9", 0 ],
					"order" : 1,
					"source" : [ "obj-27", 0 ]
				}

			}
, 			{
				"patchline" : 				{
					"destination" : [ "obj-27", 2 ],
					"source" : [ "obj-30", 0 ]
				}

			}
, 			{
				"patchline" : 				{
					"destination" : [ "obj-27", 1 ],
					"source" : [ "obj-31", 0 ]
				}

			}
, 			{
				"patchline" : 				{
					"destination" : [ "obj-33", 0 ],
					"source" : [ "obj-32", 0 ]
				}

			}
, 			{
				"patchline" : 				{
					"destination" : [ "obj-30", 0 ],
					"source" : [ "obj-33", 0 ]
				}

			}
, 			{
				"patchline" : 				{
					"destination" : [ "obj-39", 0 ],
					"order" : 0,
					"source" : [ "obj-38", 0 ]
				}

			}
, 			{
				"patchline" : 				{
					"destination" : [ "obj-45", 0 ],
					"order" : 1,
					"source" : [ "obj-38", 0 ]
				}

			}
, 			{
				"patchline" : 				{
					"destination" : [ "obj-41", 1 ],
					"order" : 2,
					"source" : [ "obj-39", 0 ]
				}

			}
, 			{
				"patchline" : 				{
					"destination" : [ "obj-45", 1 ],
					"order" : 1,
					"source" : [ "obj-39", 0 ]
				}

			}
, 			{
				"patchline" : 				{
					"destination" : [ "obj-70", 0 ],
					"order" : 0,
					"source" : [ "obj-39", 0 ]
				}

			}
, 			{
				"patchline" : 				{
					"destination" : [ "obj-42", 0 ],
					"source" : [ "obj-41", 0 ]
				}

			}
, 			{
				"patchline" : 				{
					"destination" : [ "obj-46", 0 ],
					"source" : [ "obj-42", 0 ]
				}

			}
, 			{
				"patchline" : 				{
					"destination" : [ "obj-39", 1 ],
					"source" : [ "obj-43", 0 ]
				}

			}
, 			{
				"patchline" : 				{
					"destination" : [ "obj-42", 1 ],
					"source" : [ "obj-45", 0 ]
				}

			}
, 			{
				"patchline" : 				{
					"destination" : [ "obj-10", 0 ],
					"order" : 1,
					"source" : [ "obj-46", 0 ]
				}

			}
, 			{
				"patchline" : 				{
					"destination" : [ "obj-2", 0 ],
					"order" : 0,
					"source" : [ "obj-46", 0 ]
				}

			}
, 			{
				"patchline" : 				{
					"destination" : [ "obj-47", 1 ],
					"order" : 3,
					"source" : [ "obj-46", 0 ]
				}

			}
, 			{
				"patchline" : 				{
					"destination" : [ "obj-51", 0 ],
					"order" : 2,
					"source" : [ "obj-46", 0 ]
				}

			}
, 			{
				"patchline" : 				{
					"destination" : [ "obj-3", 0 ],
					"source" : [ "obj-47", 0 ]
				}

			}
, 			{
				"patchline" : 				{
					"destination" : [ "obj-38", 0 ],
					"source" : [ "obj-49", 0 ]
				}

			}
, 			{
				"patchline" : 				{
					"destination" : [ "obj-6", 0 ],
					"source" : [ "obj-5", 0 ]
				}

			}
, 			{
				"patchline" : 				{
					"destination" : [ "obj-97", 0 ],
					"source" : [ "obj-51", 1 ]
				}

			}
, 			{
				"patchline" : 				{
					"destination" : [ "obj-49", 0 ],
					"source" : [ "obj-53", 0 ]
				}

			}
, 			{
				"patchline" : 				{
					"destination" : [ "obj-23", 0 ],
					"source" : [ "obj-6", 0 ]
				}

			}
, 			{
				"patchline" : 				{
					"destination" : [ "obj-101", 0 ],
					"source" : [ "obj-67", 0 ]
				}

			}
, 			{
				"patchline" : 				{
					"destination" : [ "obj-74", 0 ],
					"source" : [ "obj-70", 1 ]
				}

			}
, 			{
				"patchline" : 				{
					"destination" : [ "obj-32", 0 ],
					"source" : [ "obj-71", 0 ]
				}

			}
, 			{
				"patchline" : 				{
					"destination" : [ "obj-73", 0 ],
					"source" : [ "obj-74", 0 ]
				}

			}
, 			{
				"patchline" : 				{
					"destination" : [ "obj-99", 0 ],
					"source" : [ "obj-97", 0 ]
				}

			}
, 			{
				"patchline" : 				{
					"destination" : [ "obj-78", 0 ],
					"source" : [ "obj-99", 0 ]
				}

			}
 ]
	}

}
