{
	"patcher" : 	{
		"fileversion" : 1,
		"appversion" : 		{
			"major" : 9,
			"minor" : 0,
			"revision" : 4,
			"architecture" : "x64",
			"modernui" : 1
		}
,
		"classnamespace" : "rnbo",
		"rect" : [ 1097.0, 87.0, 2492.0, 1319.0 ],
		"default_fontname" : "Lato",
		"gridsize" : [ 15.0, 15.0 ],
		"title" : "jb.crossfade",
		"boxes" : [ 			{
				"box" : 				{
					"fontface" : 0,
					"fontname" : "Lato",
					"fontsize" : 12.0,
					"id" : "obj-3",
					"interval" : 100.0,
					"maxclass" : "number~",
					"mode" : 2,
					"numinlets" : 2,
					"numoutlets" : 2,
					"outlettype" : [ "signal", "float" ],
					"patching_rect" : [ 100.0, 1188.0, 56.0, 23.0 ],
					"rnbo_classname" : "number~",
					"rnbo_extra_attributes" : 					{
						"interval" : 100.0,
						"initialMode" : "monitor",
						"displaymode" : "first"
					}
,
					"rnbo_serial" : 2,
					"rnbo_uniqueid" : "number~_obj-3",
					"sig" : 0.0
				}

			}
, 			{
				"box" : 				{
					"bufsize" : 128.0,
					"calccount" : 256.0,
					"id" : "obj-1",
					"maxclass" : "scope~",
					"numinlets" : 2,
					"numoutlets" : 0,
					"patching_rect" : [ 24.0, 1489.0, 130.0, 130.0 ],
					"rnbo_classname" : "scope~",
					"rnbo_extra_attributes" : 					{
						"bufsize" : 128.0,
						"calccount" : 256.0
					}
,
					"rnbo_serial" : 1,
					"rnbo_uniqueid" : "scope~_obj-1"
				}

			}
, 			{
				"box" : 				{
					"id" : "obj-2",
					"maxclass" : "button",
					"numinlets" : 1,
					"numoutlets" : 1,
					"outlettype" : [ "bang" ],
					"parameter_enable" : 0,
					"patching_rect" : [ 372.0, 36.0, 24.0, 24.0 ],
					"rnbo_classname" : "button",
					"rnbo_serial" : 1,
					"rnbo_uniqueid" : "button_obj-2"
				}

			}
, 			{
				"box" : 				{
					"id" : "obj-703",
					"maxclass" : "newobj",
					"numinlets" : 1,
					"numoutlets" : 1,
					"outlettype" : [ "signal" ],
					"patching_rect" : [ 73.0, 997.0, 63.0, 23.0 ],
					"rnbo_classname" : "feedback~",
					"rnbo_serial" : 1,
					"rnbo_uniqueid" : "feedback~_obj-703",
					"rnboinfo" : 					{
						"needsInstanceInfo" : 1,
						"argnames" : 						{
							"input" : 							{
								"attrOrProp" : 1,
								"digest" : "Signal to feed back.",
								"isalias" : 0,
								"aliases" : [  ],
								"settable" : 0,
								"attachable" : 0,
								"isparam" : 0,
								"deprecated" : 0,
								"inlet" : 1,
								"type" : "signal"
							}
,
							"output" : 							{
								"attrOrProp" : 1,
								"digest" : "Signal that was fed back (with one signal buffer delay).",
								"isalias" : 0,
								"aliases" : [  ],
								"settable" : 0,
								"attachable" : 0,
								"isparam" : 0,
								"deprecated" : 0,
								"outlet" : 1,
								"type" : "signal"
							}

						}
,
						"inputs" : [ 							{
								"name" : "input",
								"type" : "signal",
								"digest" : "Signal to feed back.",
								"hot" : 1,
								"docked" : 0
							}
 ],
						"outputs" : [ 							{
								"name" : "output",
								"type" : "signal",
								"digest" : "Signal that was fed back (with one signal buffer delay).",
								"docked" : 0
							}
 ],
						"helpname" : "feedback~",
						"aliasOf" : "feedback~",
						"classname" : "feedback~",
						"operator" : 0,
						"versionId" : -1967948175,
						"changesPatcherIO" : 0
					}
,
					"text" : "feedback~"
				}

			}
, 			{
				"box" : 				{
					"id" : "obj-701",
					"maxclass" : "newobj",
					"numinlets" : 1,
					"numoutlets" : 1,
					"outlettype" : [ "" ],
					"patching_rect" : [ 291.0, 100.0, 74.0, 23.0 ],
					"rnbo_classname" : "loadmess",
					"rnbo_serial" : 1,
					"rnbo_uniqueid" : "loadmess_obj-701",
					"rnboinfo" : 					{
						"needsInstanceInfo" : 1,
						"argnames" : 						{
							"input" : 							{
								"attrOrProp" : 1,
								"digest" : "Bang to trigger message.",
								"isalias" : 0,
								"aliases" : [  ],
								"settable" : 0,
								"attachable" : 0,
								"isparam" : 0,
								"deprecated" : 0,
								"inlet" : 1,
								"type" : "bang"
							}
,
							"message" : 							{
								"attrOrProp" : 1,
								"digest" : "Message when patcher is loaded.",
								"defaultarg" : 1,
								"isalias" : 0,
								"aliases" : [  ],
								"settable" : 1,
								"attachable" : 0,
								"isparam" : 0,
								"deprecated" : 0,
								"outlet" : 1,
								"type" : "list",
								"defaultValue" : ""
							}
,
							"startupbang" : 							{
								"attrOrProp" : 1,
								"digest" : "startupbang",
								"isalias" : 0,
								"aliases" : [  ],
								"attachable" : 0,
								"isparam" : 0,
								"deprecated" : 0,
								"type" : "bang"
							}

						}
,
						"inputs" : [ 							{
								"name" : "input",
								"type" : "bang",
								"digest" : "Bang to trigger message.",
								"hot" : 1,
								"docked" : 0
							}
 ],
						"outputs" : [ 							{
								"name" : "message",
								"type" : "list",
								"digest" : "Message when patcher is loaded.",
								"defaultarg" : 1,
								"docked" : 0
							}
 ],
						"helpname" : "loadmess",
						"aliasOf" : "loadmess",
						"classname" : "loadmess",
						"operator" : 0,
						"versionId" : -361086158,
						"changesPatcherIO" : 0
					}
,
					"text" : "loadmess 10"
				}

			}
, 			{
				"box" : 				{
					"id" : "obj-700",
					"maxclass" : "newobj",
					"numinlets" : 1,
					"numoutlets" : 1,
					"outlettype" : [ "" ],
					"patching_rect" : [ 423.0, 100.0, 74.0, 23.0 ],
					"rnbo_classname" : "loadmess",
					"rnbo_serial" : 2,
					"rnbo_uniqueid" : "loadmess_obj-700",
					"rnboinfo" : 					{
						"needsInstanceInfo" : 1,
						"argnames" : 						{
							"input" : 							{
								"attrOrProp" : 1,
								"digest" : "Bang to trigger message.",
								"isalias" : 0,
								"aliases" : [  ],
								"settable" : 0,
								"attachable" : 0,
								"isparam" : 0,
								"deprecated" : 0,
								"inlet" : 1,
								"type" : "bang"
							}
,
							"message" : 							{
								"attrOrProp" : 1,
								"digest" : "Message when patcher is loaded.",
								"defaultarg" : 1,
								"isalias" : 0,
								"aliases" : [  ],
								"settable" : 1,
								"attachable" : 0,
								"isparam" : 0,
								"deprecated" : 0,
								"outlet" : 1,
								"type" : "list",
								"defaultValue" : ""
							}
,
							"startupbang" : 							{
								"attrOrProp" : 1,
								"digest" : "startupbang",
								"isalias" : 0,
								"aliases" : [  ],
								"attachable" : 0,
								"isparam" : 0,
								"deprecated" : 0,
								"type" : "bang"
							}

						}
,
						"inputs" : [ 							{
								"name" : "input",
								"type" : "bang",
								"digest" : "Bang to trigger message.",
								"hot" : 1,
								"docked" : 0
							}
 ],
						"outputs" : [ 							{
								"name" : "message",
								"type" : "list",
								"digest" : "Message when patcher is loaded.",
								"defaultarg" : 1,
								"docked" : 0
							}
 ],
						"helpname" : "loadmess",
						"aliasOf" : "loadmess",
						"classname" : "loadmess",
						"operator" : 0,
						"versionId" : -361086158,
						"changesPatcherIO" : 0
					}
,
					"text" : "loadmess 90"
				}

			}
, 			{
				"box" : 				{
					"id" : "obj-699",
					"maxclass" : "flonum",
					"numinlets" : 1,
					"numoutlets" : 1,
					"outlettype" : [ "" ],
					"parameter_enable" : 0,
					"patching_rect" : [ 547.0, 817.0, 50.0, 23.0 ],
					"rnbo_classname" : "number",
					"rnbo_extra_attributes" : 					{
						"maximum" : "<none>",
						"minimum" : "<none>",
						"preset" : 0,
						"order" : "",
						"initialFormat" : "float"
					}
,
					"rnbo_serial" : 1,
					"rnbo_uniqueid" : "number_obj-699"
				}

			}
, 			{
				"box" : 				{
					"id" : "obj-697",
					"maxclass" : "flonum",
					"numinlets" : 1,
					"numoutlets" : 1,
					"outlettype" : [ "" ],
					"parameter_enable" : 0,
					"patching_rect" : [ 450.0, 816.0, 50.0, 23.0 ],
					"rnbo_classname" : "number",
					"rnbo_extra_attributes" : 					{
						"maximum" : "<none>",
						"minimum" : "<none>",
						"preset" : 0,
						"order" : "",
						"initialFormat" : "float"
					}
,
					"rnbo_serial" : 2,
					"rnbo_uniqueid" : "number_obj-697"
				}

			}
, 			{
				"box" : 				{
					"id" : "obj-690",
					"maxclass" : "newobj",
					"numinlets" : 2,
					"numoutlets" : 1,
					"outlettype" : [ "" ],
					"patching_rect" : [ 612.0, 759.0, 40.0, 23.0 ],
					"rnbo_classname" : "*",
					"rnbo_extra_attributes" : 					{
						"hot" : 0
					}
,
					"rnbo_serial" : 1,
					"rnbo_uniqueid" : "*_obj-690",
					"text" : "* 0.01"
				}

			}
, 			{
				"box" : 				{
					"id" : "obj-689",
					"maxclass" : "newobj",
					"numinlets" : 2,
					"numoutlets" : 1,
					"outlettype" : [ "" ],
					"patching_rect" : [ 423.0, 759.0, 40.0, 23.0 ],
					"rnbo_classname" : "*",
					"rnbo_extra_attributes" : 					{
						"hot" : 0
					}
,
					"rnbo_serial" : 2,
					"rnbo_uniqueid" : "*_obj-689",
					"text" : "* 0.01"
				}

			}
, 			{
				"box" : 				{
					"id" : "obj-684",
					"maxclass" : "newobj",
					"numinlets" : 2,
					"numoutlets" : 1,
					"outlettype" : [ "signal" ],
					"patching_rect" : [ 546.0, 908.0, 30.0, 23.0 ],
					"rnbo_classname" : "sig~",
					"rnbo_extra_attributes" : 					{
						"unit" : "ms"
					}
,
					"rnbo_serial" : 1,
					"rnbo_uniqueid" : "sig~_obj-684",
					"text" : "sig~"
				}

			}
, 			{
				"box" : 				{
					"id" : "obj-683",
					"maxclass" : "newobj",
					"numinlets" : 2,
					"numoutlets" : 1,
					"outlettype" : [ "signal" ],
					"patching_rect" : [ 442.0, 908.0, 30.0, 23.0 ],
					"rnbo_classname" : "sig~",
					"rnbo_extra_attributes" : 					{
						"unit" : "ms"
					}
,
					"rnbo_serial" : 2,
					"rnbo_uniqueid" : "sig~_obj-683",
					"text" : "sig~"
				}

			}
, 			{
				"box" : 				{
					"id" : "obj-621",
					"maxclass" : "newobj",
					"numinlets" : 1,
					"numoutlets" : 3,
					"outlettype" : [ "", "", "" ],
					"patching_rect" : [ 714.0, 192.0, 68.0, 23.0 ],
					"rnbo_classname" : "change",
					"rnbo_extra_attributes" : 					{
						"mode" : "default"
					}
,
					"rnbo_serial" : 1,
					"rnbo_uniqueid" : "change_obj-621",
					"text" : "change 0.5"
				}

			}
, 			{
				"box" : 				{
					"id" : "obj-622",
					"maxclass" : "newobj",
					"numinlets" : 1,
					"numoutlets" : 3,
					"outlettype" : [ "", "", "" ],
					"patching_rect" : [ 633.0, 192.0, 68.0, 23.0 ],
					"rnbo_classname" : "change",
					"rnbo_extra_attributes" : 					{
						"mode" : "default"
					}
,
					"rnbo_serial" : 2,
					"rnbo_uniqueid" : "change_obj-622",
					"text" : "change 0.5"
				}

			}
, 			{
				"box" : 				{
					"id" : "obj-623",
					"maxclass" : "newobj",
					"numinlets" : 3,
					"numoutlets" : 1,
					"outlettype" : [ "" ],
					"patching_rect" : [ 714.0, 156.0, 53.0, 23.0 ],
					"rnbo_classname" : "clip",
					"rnbo_extra_attributes" : 					{
						"hot" : 0
					}
,
					"rnbo_serial" : 1,
					"rnbo_uniqueid" : "clip_obj-623",
					"text" : "clip 0. 1."
				}

			}
, 			{
				"box" : 				{
					"id" : "obj-624",
					"maxclass" : "newobj",
					"numinlets" : 3,
					"numoutlets" : 1,
					"outlettype" : [ "" ],
					"patching_rect" : [ 633.0, 156.0, 54.0, 23.0 ],
					"rnbo_classname" : "clip",
					"rnbo_extra_attributes" : 					{
						"hot" : 0
					}
,
					"rnbo_serial" : 2,
					"rnbo_uniqueid" : "clip_obj-624",
					"text" : "clip -1 0."
				}

			}
, 			{
				"box" : 				{
					"id" : "obj-1382",
					"maxclass" : "newobj",
					"numinlets" : 0,
					"numoutlets" : 1,
					"outlettype" : [ "" ],
					"patching_rect" : [ 681.0, 102.0, 199.0, 23.0 ],
					"rnbo_classname" : "r",
					"rnbo_serial" : 1,
					"rnbo_uniqueid" : "r_obj-1382",
					"text" : "r \"Envelope Crossfade Position (bi)\""
				}

			}
, 			{
				"box" : 				{
					"bubble" : 1,
					"bubblepoint" : 0.3,
					"bubbleside" : 0,
					"id" : "obj-639",
					"linecount" : 2,
					"maxclass" : "comment",
					"numinlets" : 1,
					"numoutlets" : 0,
					"patching_rect" : [ 795.0, 660.0, 85.0, 54.0 ],
					"text" : "add hi_val up past ceiling"
				}

			}
, 			{
				"box" : 				{
					"bubble" : 1,
					"bubblepoint" : 0.3,
					"bubbleside" : 0,
					"id" : "obj-640",
					"linecount" : 2,
					"maxclass" : "comment",
					"numinlets" : 1,
					"numoutlets" : 0,
					"patching_rect" : [ 672.0, 660.0, 97.500003457069397, 54.0 ],
					"text" : "subtracts hi_val down to floor"
				}

			}
, 			{
				"box" : 				{
					"bubble" : 1,
					"bubblepoint" : 0.3,
					"bubbleside" : 0,
					"id" : "obj-641",
					"linecount" : 2,
					"maxclass" : "comment",
					"numinlets" : 1,
					"numoutlets" : 0,
					"patching_rect" : [ 480.0, 660.0, 75.0, 54.0 ],
					"text" : "add lo_val up to ceiling"
				}

			}
, 			{
				"box" : 				{
					"bubble" : 1,
					"bubblepoint" : 0.9,
					"bubbleside" : 0,
					"id" : "obj-642",
					"linecount" : 2,
					"maxclass" : "comment",
					"numinlets" : 1,
					"numoutlets" : 0,
					"patching_rect" : [ 312.0, 660.0, 97.500003457069397, 54.0 ],
					"text" : "subtracts lo_val down past floor"
				}

			}
, 			{
				"box" : 				{
					"bubble" : 1,
					"bubbleside" : 3,
					"id" : "obj-643",
					"linecount" : 2,
					"maxclass" : "comment",
					"numinlets" : 1,
					"numoutlets" : 0,
					"patching_rect" : [ 221.0, 485.0, 122.500003457069397, 39.0 ],
					"text" : "distance between lo_val and floor"
				}

			}
, 			{
				"box" : 				{
					"bubble" : 1,
					"bubblepoint" : 0.06,
					"bubbleside" : 2,
					"id" : "obj-644",
					"linecount" : 2,
					"maxclass" : "comment",
					"numinlets" : 1,
					"numoutlets" : 0,
					"patching_rect" : [ 531.0, 474.0, 109.0, 54.0 ],
					"text" : "distance between lo_val and ceiling"
				}

			}
, 			{
				"box" : 				{
					"bubble" : 1,
					"bubbleside" : 2,
					"id" : "obj-647",
					"linecount" : 2,
					"maxclass" : "comment",
					"numinlets" : 1,
					"numoutlets" : 0,
					"patching_rect" : [ 440.0, 126.0, 57.0, 54.0 ],
					"text" : "Env. top\n( hi_val )"
				}

			}
, 			{
				"box" : 				{
					"bubble" : 1,
					"bubbleside" : 2,
					"id" : "obj-648",
					"linecount" : 2,
					"maxclass" : "comment",
					"numinlets" : 1,
					"numoutlets" : 0,
					"patching_rect" : [ 307.0, 126.0, 78.0, 54.0 ],
					"text" : "Env. bottom ( lo_val )"
				}

			}
, 			{
				"box" : 				{
					"id" : "obj-695",
					"maxclass" : "newobj",
					"numinlets" : 3,
					"numoutlets" : 1,
					"outlettype" : [ "" ],
					"patching_rect" : [ 612.0, 690.0, 49.0, 23.0 ],
					"rnbo_classname" : "pak",
					"rnbo_extra_attributes" : 					{
						"list" : "",
						"length" : 0.0
					}
,
					"rnbo_serial" : 1,
					"rnbo_uniqueid" : "pak_obj-695",
					"rnboinfo" : 					{
						"needsInstanceInfo" : 1,
						"argnames" : 						{
							"out" : 							{
								"attrOrProp" : 1,
								"digest" : "out",
								"isalias" : 0,
								"aliases" : [  ],
								"attachable" : 0,
								"isparam" : 0,
								"deprecated" : 0,
								"outlet" : 1,
								"type" : "list"
							}
,
							"in1" : 							{
								"attrOrProp" : 1,
								"digest" : "number to be list element 1",
								"defaultarg" : 1,
								"isalias" : 0,
								"aliases" : [  ],
								"settable" : 1,
								"attachable" : 0,
								"isparam" : 0,
								"deprecated" : 0,
								"inlet" : 1,
								"type" : "number",
								"defaultValue" : "0"
							}
,
							"in2" : 							{
								"attrOrProp" : 1,
								"digest" : "number to be list element 2",
								"defaultarg" : 2,
								"isalias" : 0,
								"aliases" : [  ],
								"settable" : 1,
								"attachable" : 0,
								"isparam" : 0,
								"deprecated" : 0,
								"inlet" : 1,
								"type" : "number",
								"defaultValue" : "0"
							}
,
							"in3" : 							{
								"attrOrProp" : 1,
								"digest" : "number to be list element 3",
								"defaultarg" : 3,
								"isalias" : 0,
								"aliases" : [  ],
								"settable" : 1,
								"attachable" : 0,
								"isparam" : 0,
								"deprecated" : 0,
								"inlet" : 1,
								"type" : "number",
								"defaultValue" : "0"
							}
,
							"length" : 							{
								"attrOrProp" : 2,
								"digest" : "how many things to pack",
								"isalias" : 0,
								"aliases" : [  ],
								"settable" : 1,
								"attachable" : 0,
								"isparam" : 0,
								"deprecated" : 0,
								"type" : "number"
							}
,
							"list" : 							{
								"attrOrProp" : 2,
								"digest" : "the list to initialize the {@objectname} object with",
								"isalias" : 0,
								"aliases" : [  ],
								"settable" : 1,
								"attachable" : 0,
								"isparam" : 0,
								"deprecated" : 0,
								"type" : "list"
							}

						}
,
						"inputs" : [ 							{
								"name" : "in1",
								"type" : "number",
								"digest" : "number to be list element 1",
								"defaultarg" : 1,
								"hot" : 1,
								"docked" : 0
							}
, 							{
								"name" : "in2",
								"type" : "number",
								"digest" : "number to be list element 2",
								"defaultarg" : 2,
								"hot" : 1,
								"docked" : 0
							}
, 							{
								"name" : "in3",
								"type" : "number",
								"digest" : "number to be list element 3",
								"defaultarg" : 3,
								"hot" : 1,
								"docked" : 0
							}
 ],
						"outputs" : [ 							{
								"name" : "out",
								"type" : "list",
								"digest" : "out",
								"docked" : 0
							}
 ],
						"helpname" : "pak",
						"aliasOf" : "pack",
						"classname" : "pak",
						"operator" : 0,
						"versionId" : 2113152561,
						"changesPatcherIO" : 0
					}
,
					"text" : "pak f f f"
				}

			}
, 			{
				"box" : 				{
					"id" : "obj-696",
					"maxclass" : "newobj",
					"numinlets" : 1,
					"numoutlets" : 1,
					"outlettype" : [ "" ],
					"patching_rect" : [ 612.0, 722.0, 48.0, 23.0 ],
					"rnbo_classname" : "list.sum",
					"rnbo_extra_attributes" : 					{
						"hot" : 0
					}
,
					"rnbo_serial" : 1,
					"rnbo_uniqueid" : "list.sum_obj-696",
					"text" : "list.sum"
				}

			}
, 			{
				"box" : 				{
					"id" : "obj-694",
					"maxclass" : "newobj",
					"numinlets" : 3,
					"numoutlets" : 1,
					"outlettype" : [ "" ],
					"patching_rect" : [ 423.0, 690.0, 49.0, 23.0 ],
					"rnbo_classname" : "pak",
					"rnbo_extra_attributes" : 					{
						"list" : "",
						"length" : 0.0
					}
,
					"rnbo_serial" : 2,
					"rnbo_uniqueid" : "pak_obj-694",
					"rnboinfo" : 					{
						"needsInstanceInfo" : 1,
						"argnames" : 						{
							"out" : 							{
								"attrOrProp" : 1,
								"digest" : "out",
								"isalias" : 0,
								"aliases" : [  ],
								"attachable" : 0,
								"isparam" : 0,
								"deprecated" : 0,
								"outlet" : 1,
								"type" : "list"
							}
,
							"in1" : 							{
								"attrOrProp" : 1,
								"digest" : "number to be list element 1",
								"defaultarg" : 1,
								"isalias" : 0,
								"aliases" : [  ],
								"settable" : 1,
								"attachable" : 0,
								"isparam" : 0,
								"deprecated" : 0,
								"inlet" : 1,
								"type" : "number",
								"defaultValue" : "0"
							}
,
							"in2" : 							{
								"attrOrProp" : 1,
								"digest" : "number to be list element 2",
								"defaultarg" : 2,
								"isalias" : 0,
								"aliases" : [  ],
								"settable" : 1,
								"attachable" : 0,
								"isparam" : 0,
								"deprecated" : 0,
								"inlet" : 1,
								"type" : "number",
								"defaultValue" : "0"
							}
,
							"in3" : 							{
								"attrOrProp" : 1,
								"digest" : "number to be list element 3",
								"defaultarg" : 3,
								"isalias" : 0,
								"aliases" : [  ],
								"settable" : 1,
								"attachable" : 0,
								"isparam" : 0,
								"deprecated" : 0,
								"inlet" : 1,
								"type" : "number",
								"defaultValue" : "0"
							}
,
							"length" : 							{
								"attrOrProp" : 2,
								"digest" : "how many things to pack",
								"isalias" : 0,
								"aliases" : [  ],
								"settable" : 1,
								"attachable" : 0,
								"isparam" : 0,
								"deprecated" : 0,
								"type" : "number"
							}
,
							"list" : 							{
								"attrOrProp" : 2,
								"digest" : "the list to initialize the {@objectname} object with",
								"isalias" : 0,
								"aliases" : [  ],
								"settable" : 1,
								"attachable" : 0,
								"isparam" : 0,
								"deprecated" : 0,
								"type" : "list"
							}

						}
,
						"inputs" : [ 							{
								"name" : "in1",
								"type" : "number",
								"digest" : "number to be list element 1",
								"defaultarg" : 1,
								"hot" : 1,
								"docked" : 0
							}
, 							{
								"name" : "in2",
								"type" : "number",
								"digest" : "number to be list element 2",
								"defaultarg" : 2,
								"hot" : 1,
								"docked" : 0
							}
, 							{
								"name" : "in3",
								"type" : "number",
								"digest" : "number to be list element 3",
								"defaultarg" : 3,
								"hot" : 1,
								"docked" : 0
							}
 ],
						"outputs" : [ 							{
								"name" : "out",
								"type" : "list",
								"digest" : "out",
								"docked" : 0
							}
 ],
						"helpname" : "pak",
						"aliasOf" : "pack",
						"classname" : "pak",
						"operator" : 0,
						"versionId" : 2113152561,
						"changesPatcherIO" : 0
					}
,
					"text" : "pak f f f"
				}

			}
, 			{
				"box" : 				{
					"id" : "obj-658",
					"maxclass" : "newobj",
					"numinlets" : 1,
					"numoutlets" : 1,
					"outlettype" : [ "" ],
					"patching_rect" : [ 423.0, 722.0, 48.0, 23.0 ],
					"rnbo_classname" : "list.sum",
					"rnbo_extra_attributes" : 					{
						"hot" : 0
					}
,
					"rnbo_serial" : 2,
					"rnbo_uniqueid" : "list.sum_obj-658",
					"text" : "list.sum"
				}

			}
, 			{
				"box" : 				{
					"id" : "obj-670",
					"maxclass" : "newobj",
					"numinlets" : 2,
					"numoutlets" : 1,
					"outlettype" : [ "" ],
					"patching_rect" : [ 346.0, 492.0, 31.0, 23.0 ],
					"rnbo_classname" : "*",
					"rnbo_extra_attributes" : 					{
						"hot" : 0
					}
,
					"rnbo_serial" : 3,
					"rnbo_uniqueid" : "*_obj-670",
					"text" : "* -1."
				}

			}
, 			{
				"box" : 				{
					"id" : "obj-672",
					"maxclass" : "newobj",
					"numinlets" : 2,
					"numoutlets" : 1,
					"outlettype" : [ "" ],
					"patching_rect" : [ 519.0, 521.0, 43.0, 23.0 ],
					"rnbo_classname" : "!-",
					"rnbo_extra_attributes" : 					{
						"hot" : 0
					}
,
					"rnbo_serial" : 1,
					"rnbo_uniqueid" : "!-_obj-672",
					"text" : "!- 100."
				}

			}
, 			{
				"box" : 				{
					"id" : "obj-673",
					"maxclass" : "newobj",
					"numinlets" : 6,
					"numoutlets" : 1,
					"outlettype" : [ "" ],
					"patching_rect" : [ 325.0, 636.0, 111.0, 23.0 ],
					"rnbo_classname" : "scale",
					"rnbo_serial" : 1,
					"rnbo_uniqueid" : "scale_obj-673",
					"text" : "scale 0. -1. 0. -100."
				}

			}
, 			{
				"box" : 				{
					"id" : "obj-674",
					"maxclass" : "newobj",
					"numinlets" : 6,
					"numoutlets" : 1,
					"outlettype" : [ "" ],
					"patching_rect" : [ 452.0, 636.0, 103.0, 23.0 ],
					"rnbo_classname" : "scale",
					"rnbo_serial" : 2,
					"rnbo_uniqueid" : "scale_obj-674",
					"text" : "scale 0. 1. 0. 100."
				}

			}
, 			{
				"box" : 				{
					"bubble" : 1,
					"bubbleside" : 3,
					"id" : "obj-659",
					"linecount" : 2,
					"maxclass" : "comment",
					"numinlets" : 1,
					"numoutlets" : 0,
					"patching_rect" : [ 576.0, 514.0, 122.500003457069397, 39.0 ],
					"text" : "distance between hi_val and floor"
				}

			}
, 			{
				"box" : 				{
					"id" : "obj-660",
					"maxclass" : "newobj",
					"numinlets" : 2,
					"numoutlets" : 1,
					"outlettype" : [ "" ],
					"patching_rect" : [ 700.0, 521.0, 31.0, 23.0 ],
					"rnbo_classname" : "*",
					"rnbo_extra_attributes" : 					{
						"hot" : 0
					}
,
					"rnbo_serial" : 4,
					"rnbo_uniqueid" : "*_obj-660",
					"text" : "* -1."
				}

			}
, 			{
				"box" : 				{
					"bubble" : 1,
					"id" : "obj-661",
					"linecount" : 2,
					"maxclass" : "comment",
					"numinlets" : 1,
					"numoutlets" : 0,
					"patching_rect" : [ 844.0, 451.0, 128.0, 39.0 ],
					"text" : "distance between hi_val and ceiling"
				}

			}
, 			{
				"box" : 				{
					"id" : "obj-662",
					"maxclass" : "newobj",
					"numinlets" : 2,
					"numoutlets" : 1,
					"outlettype" : [ "" ],
					"patching_rect" : [ 799.0, 458.0, 43.0, 23.0 ],
					"rnbo_classname" : "!-",
					"rnbo_extra_attributes" : 					{
						"hot" : 0
					}
,
					"rnbo_serial" : 2,
					"rnbo_uniqueid" : "!-_obj-662",
					"text" : "!- 100."
				}

			}
, 			{
				"box" : 				{
					"id" : "obj-663",
					"maxclass" : "newobj",
					"numinlets" : 6,
					"numoutlets" : 1,
					"outlettype" : [ "" ],
					"patching_rect" : [ 627.0, 636.0, 111.0, 23.0 ],
					"rnbo_classname" : "scale",
					"rnbo_serial" : 3,
					"rnbo_uniqueid" : "scale_obj-663",
					"text" : "scale 0. -1. 0. -100."
				}

			}
, 			{
				"box" : 				{
					"id" : "obj-664",
					"maxclass" : "newobj",
					"numinlets" : 6,
					"numoutlets" : 1,
					"outlettype" : [ "" ],
					"patching_rect" : [ 750.0, 636.0, 103.0, 23.0 ],
					"rnbo_classname" : "scale",
					"rnbo_serial" : 4,
					"rnbo_uniqueid" : "scale_obj-664",
					"text" : "scale 0. 1. 0. 100."
				}

			}
, 			{
				"box" : 				{
					"bgcolor" : [ 0.152941176470588, 0.0, 0.396078431372549, 0.75 ],
					"fontname" : "Monaco",
					"fontsize" : 36.0,
					"hint" : "bottom of envelope's range",
					"htricolor" : [ 1.0, 1.0, 1.0, 1.0 ],
					"id" : "obj-665",
					"maxclass" : "flonum",
					"maximum" : 100.0,
					"minimum" : 0.0,
					"numinlets" : 1,
					"numoutlets" : 1,
					"outlettype" : [ "" ],
					"parameter_enable" : 0,
					"patching_rect" : [ 291.0, 176.0, 126.0, 53.0 ],
					"presentation" : 1,
					"presentation_rect" : [ 675.948503117445398, 341.829182855909949, 104.0, 53.0 ],
					"rnbo_classname" : "number",
					"rnbo_extra_attributes" : 					{
						"maximum" : 100.0,
						"minimum" : 0.0,
						"preset" : 0,
						"order" : "",
						"initialFormat" : "float"
					}
,
					"rnbo_serial" : 3,
					"rnbo_uniqueid" : "env_bottom_",
					"textcolor" : [ 1.0, 0.968627450980392, 0.0, 1.0 ],
					"tricolor" : [ 1.0, 0.968627450980392, 0.0, 1.0 ],
					"varname" : "env_bottom_"
				}

			}
, 			{
				"box" : 				{
					"bgcolor" : [ 0.152941176470588, 0.0, 0.396078431372549, 0.75 ],
					"fontname" : "Monaco",
					"fontsize" : 36.0,
					"hint" : "top of envelope's range",
					"htricolor" : [ 1.0, 1.0, 1.0, 1.0 ],
					"id" : "obj-666",
					"maxclass" : "flonum",
					"maximum" : 100.0,
					"minimum" : 0.0,
					"numinlets" : 1,
					"numoutlets" : 1,
					"outlettype" : [ "" ],
					"parameter_enable" : 0,
					"patching_rect" : [ 423.0, 176.0, 126.0, 53.0 ],
					"presentation" : 1,
					"presentation_rect" : [ 675.948503117445398, 144.162514202421789, 104.0, 53.0 ],
					"rnbo_classname" : "number",
					"rnbo_extra_attributes" : 					{
						"maximum" : 100.0,
						"minimum" : 0.0,
						"preset" : 0,
						"order" : "",
						"initialFormat" : "float"
					}
,
					"rnbo_serial" : 4,
					"rnbo_uniqueid" : "env_top_",
					"textcolor" : [ 1.0, 0.968627450980392, 0.0, 1.0 ],
					"tricolor" : [ 1.0, 0.968627450980392, 0.0, 1.0 ],
					"varname" : "env_top_"
				}

			}
, 			{
				"box" : 				{
					"fontname" : "Arial",
					"fontsize" : 12.0,
					"genpatcher" : 					{
						"patcher" : 						{
							"fileversion" : 1,
							"appversion" : 							{
								"major" : 9,
								"minor" : 0,
								"revision" : 4,
								"architecture" : "x64",
								"modernui" : 1
							}
,
							"classnamespace" : "dsp.gen",
							"rect" : [ 134.0, 159.0, 839.0, 751.0 ],
							"gridsize" : [ 15.0, 15.0 ],
							"boxes" : [ 								{
									"box" : 									{
										"maxclass" : "codebox",
										"patching_rect" : [ 81.0, 57.0, 586.0, 564.0 ],
										"id" : "obj-7",
										"fontsize" : 12.0,
										"numoutlets" : 1,
										"outlettype" : [ "" ],
										"fontname" : "<Monospaced>",
										"fontface" : 0,
										"numinlets" : 1,
										"code" : "// Based on Warren Moore's easing C source code\r\n// https://github.com/warrenm/AHEasing/blob/master/AHEasing/easing.c\r\n\r\n// Modeled after half sine wave\nSineEaseInOut(value)\n{\n\treturn 0.5 * (1 - cos(value * PI));\n}\r\n\r\nout1 = SineEaseInOut(in1);\r\n\r\n\r\n"
									}

								}
, 								{
									"box" : 									{
										"maxclass" : "newobj",
										"text" : "in 1",
										"patching_rect" : [ 81.0, 24.0, 30.0, 22.0 ],
										"id" : "obj-1",
										"fontsize" : 12.0,
										"numoutlets" : 1,
										"outlettype" : [ "" ],
										"fontname" : "Arial",
										"numinlets" : 0
									}

								}
, 								{
									"box" : 									{
										"maxclass" : "newobj",
										"text" : "out 1",
										"patching_rect" : [ 81.0, 633.0, 37.0, 22.0 ],
										"id" : "obj-4",
										"fontsize" : 12.0,
										"numoutlets" : 0,
										"fontname" : "Arial",
										"numinlets" : 1
									}

								}
 ],
							"lines" : [ 								{
									"patchline" : 									{
										"source" : [ "obj-7", 0 ],
										"destination" : [ "obj-4", 0 ]
									}

								}
, 								{
									"patchline" : 									{
										"source" : [ "obj-1", 0 ],
										"destination" : [ "obj-7", 0 ]
									}

								}
 ],
							"originid" : "pat-490"
						}

					}
,
					"id" : "obj-619",
					"maxclass" : "newobj",
					"numinlets" : 1,
					"numoutlets" : 1,
					"outlettype" : [ "signal" ],
					"patching_rect" : [ 134.0, 1704.0, 179.0, 22.0 ],
					"rnbo_classname" : "gen~",
					"rnbo_extra_attributes" : 					{
						"exposeparams" : 0,
						"gencode" : "SineEaseInOut(value) {\n\treturn 0.5 * ((1 - (cos(value * PI))));\n}\n\nexpr_1 = SineEaseInOut(in1);\nout1 = expr_1;",
						"geninlets" : 1,
						"genoutlets" : 1
					}
,
					"rnbo_serial" : 1,
					"rnbo_uniqueid" : "ah.SineEaseInOut.gendsp",
					"rnboinfo" : 					{
						"needsInstanceInfo" : 1,
						"argnames" : 						{
							"in1" : 							{
								"attrOrProp" : 1,
								"digest" : "in1",
								"isalias" : 0,
								"aliases" : [  ],
								"attachable" : 0,
								"isparam" : 0,
								"deprecated" : 0,
								"inlet" : 1,
								"type" : "number"
							}
,
							"reset" : 							{
								"attrOrProp" : 1,
								"digest" : "Reset all param and history objects to initial values",
								"isalias" : 0,
								"aliases" : [  ],
								"attachable" : 1,
								"isparam" : 0,
								"deprecated" : 0,
								"type" : "bang"
							}
,
							"expr" : 							{
								"attrOrProp" : 2,
								"digest" : "a gen expression",
								"isalias" : 0,
								"aliases" : [  ],
								"settable" : 1,
								"attachable" : 0,
								"isparam" : 0,
								"deprecated" : 0,
								"type" : "symbol",
								"doNotShowInMaxInspector" : 1
							}
,
							"file" : 							{
								"attrOrProp" : 2,
								"digest" : "gendsp file to load",
								"isalias" : 0,
								"aliases" : [  ],
								"settable" : 1,
								"attachable" : 0,
								"isparam" : 0,
								"deprecated" : 0,
								"type" : "symbol",
								"doNotShowInMaxInspector" : 1
							}
,
							"title" : 							{
								"attrOrProp" : 2,
								"digest" : "a title",
								"defaultarg" : 1,
								"isalias" : 0,
								"aliases" : [ "t" ],
								"settable" : 1,
								"attachable" : 0,
								"isparam" : 0,
								"deprecated" : 0,
								"type" : "symbol",
								"doNotShowInMaxInspector" : 1
							}
,
							"t" : 							{
								"attrOrProp" : 2,
								"digest" : "a title",
								"defaultarg" : 1,
								"isalias" : 1,
								"aliasOf" : "title",
								"aliases" : [  ],
								"settable" : 1,
								"attachable" : 0,
								"isparam" : 0,
								"deprecated" : 0,
								"type" : "symbol"
							}
,
							"exposeparams" : 							{
								"attrOrProp" : 2,
								"digest" : "Expose gen params as RNBO params.",
								"isalias" : 0,
								"aliases" : [  ],
								"settable" : 1,
								"attachable" : 0,
								"isparam" : 0,
								"deprecated" : 0,
								"type" : "bool",
								"defaultValue" : "false"
							}

						}
,
						"inputs" : [ 							{
								"name" : "in1",
								"type" : "auto",
								"digest" : "in1",
								"hot" : 1,
								"docked" : 0
							}
 ],
						"outputs" : [ 							{
								"name" : "out1",
								"type" : "signal"
							}
 ],
						"helpname" : "gen~",
						"aliasOf" : "gen~",
						"classname" : "gen~",
						"operator" : 0,
						"versionId" : 179904306,
						"changesPatcherIO" : 0
					}
,
					"text" : "gen~ ah.SineEaseInOut.gendsp",
					"varname" : "ah.SineEaseInOut.gendsp"
				}

			}
, 			{
				"box" : 				{
					"id" : "obj-617",
					"maxclass" : "newobj",
					"numinlets" : 3,
					"numoutlets" : 1,
					"outlettype" : [ "signal" ],
					"patching_rect" : [ 747.0, 1365.0, 94.0, 23.0 ],
					"rnbo_classname" : "slide~",
					"rnbo_serial" : 1,
					"rnbo_uniqueid" : "slide~_obj-617",
					"text" : "slide~ 480 4800"
				}

			}
, 			{
				"box" : 				{
					"id" : "obj-618",
					"maxclass" : "newobj",
					"numinlets" : 3,
					"numoutlets" : 1,
					"outlettype" : [ "signal" ],
					"patching_rect" : [ 747.0, 1319.0, 112.0, 23.0 ],
					"rnbo_classname" : "average_rms~",
					"rnbo_serial" : 1,
					"rnbo_uniqueid" : "average_rms~_obj-618",
					"text" : "average_rms~ 4800"
				}

			}
, 			{
				"box" : 				{
					"bgcolor" : [ 0.325490196078431, 0.0, 0.545098039215686, 1.0 ],
					"fontface" : 0,
					"fontname" : "Ableton Sans Medium",
					"fontsize" : 12.0,
					"id" : "obj-222",
					"maxclass" : "comment",
					"numinlets" : 1,
					"numoutlets" : 0,
					"patching_rect" : [ 808.0, 1273.0, 186.0, 21.0 ],
					"text" : "no transient helper for visuals",
					"textcolor" : [ 1.0, 1.0, 1.0, 1.0 ]
				}

			}
, 			{
				"box" : 				{
					"id" : "obj-546",
					"maxclass" : "newobj",
					"numinlets" : 3,
					"numoutlets" : 1,
					"outlettype" : [ "signal" ],
					"patching_rect" : [ 782.0, 1236.5, 54.0, 23.0 ],
					"rnbo_classname" : "clip~",
					"rnbo_serial" : 1,
					"rnbo_uniqueid" : "clip~_obj-546",
					"text" : "clip~ 0 1"
				}

			}
, 			{
				"box" : 				{
					"id" : "obj-547",
					"maxclass" : "newobj",
					"numinlets" : 2,
					"numoutlets" : 1,
					"outlettype" : [ "signal" ],
					"patching_rect" : [ 824.0, 1164.5, 29.5, 23.0 ],
					"rnbo_classname" : "<~",
					"rnbo_serial" : 1,
					"rnbo_uniqueid" : "<~_obj-547",
					"text" : "<~"
				}

			}
, 			{
				"box" : 				{
					"id" : "obj-548",
					"maxclass" : "newobj",
					"numinlets" : 2,
					"numoutlets" : 1,
					"outlettype" : [ "signal" ],
					"patching_rect" : [ 824.0, 1199.5, 38.0, 23.0 ],
					"rnbo_classname" : "gate~",
					"rnbo_extra_attributes" : 					{
						"outputs" : 1.0
					}
,
					"rnbo_serial" : 1,
					"rnbo_uniqueid" : "gate~_obj-548",
					"rnboinfo" : 					{
						"needsInstanceInfo" : 1,
						"argnames" : 						{
							"onoff" : 							{
								"attrOrProp" : 1,
								"digest" : "0 Closes gate, non-zero opens the corresponding gate outlet",
								"isalias" : 0,
								"aliases" : [  ],
								"settable" : 1,
								"attachable" : 0,
								"isparam" : 0,
								"deprecated" : 0,
								"inlet" : 1,
								"type" : "number"
							}
,
							"input" : 							{
								"attrOrProp" : 1,
								"digest" : "Incoming gated signal",
								"isalias" : 0,
								"aliases" : [  ],
								"settable" : 0,
								"attachable" : 0,
								"isparam" : 0,
								"deprecated" : 0,
								"inlet" : 1,
								"type" : "signal"
							}
,
							"out1" : 							{
								"attrOrProp" : 1,
								"digest" : "out1",
								"isalias" : 0,
								"aliases" : [  ],
								"attachable" : 0,
								"isparam" : 0,
								"deprecated" : 0,
								"outlet" : 1,
								"type" : "signal"
							}
,
							"outputs" : 							{
								"attrOrProp" : 2,
								"digest" : "Number of outlets",
								"defaultarg" : 1,
								"isalias" : 0,
								"aliases" : [  ],
								"settable" : 1,
								"attachable" : 0,
								"isparam" : 0,
								"deprecated" : 0,
								"type" : "number",
								"defaultValue" : "1"
							}

						}
,
						"inputs" : [ 							{
								"name" : "onoff",
								"type" : "auto",
								"digest" : "0 Closes gate, non-zero opens the corresponding gate outlet",
								"hot" : 1,
								"docked" : 0
							}
, 							{
								"name" : "input",
								"type" : "signal",
								"digest" : "Incoming gated signal",
								"docked" : 0
							}
 ],
						"outputs" : [ 							{
								"name" : "out1",
								"type" : "signal",
								"digest" : "out1",
								"docked" : 0
							}
 ],
						"helpname" : "gate~",
						"aliasOf" : "gate~",
						"classname" : "gate~",
						"operator" : 0,
						"versionId" : 1654863393,
						"changesPatcherIO" : 0
					}
,
					"text" : "gate~"
				}

			}
, 			{
				"box" : 				{
					"id" : "obj-549",
					"maxclass" : "newobj",
					"numinlets" : 2,
					"numoutlets" : 1,
					"outlettype" : [ "signal" ],
					"patching_rect" : [ 781.0, 1199.5, 38.0, 23.0 ],
					"rnbo_classname" : "gate~",
					"rnbo_extra_attributes" : 					{
						"outputs" : 1.0
					}
,
					"rnbo_serial" : 2,
					"rnbo_uniqueid" : "gate~_obj-549",
					"rnboinfo" : 					{
						"needsInstanceInfo" : 1,
						"argnames" : 						{
							"onoff" : 							{
								"attrOrProp" : 1,
								"digest" : "0 Closes gate, non-zero opens the corresponding gate outlet",
								"isalias" : 0,
								"aliases" : [  ],
								"settable" : 1,
								"attachable" : 0,
								"isparam" : 0,
								"deprecated" : 0,
								"inlet" : 1,
								"type" : "number"
							}
,
							"input" : 							{
								"attrOrProp" : 1,
								"digest" : "Incoming gated signal",
								"isalias" : 0,
								"aliases" : [  ],
								"settable" : 0,
								"attachable" : 0,
								"isparam" : 0,
								"deprecated" : 0,
								"inlet" : 1,
								"type" : "signal"
							}
,
							"out1" : 							{
								"attrOrProp" : 1,
								"digest" : "out1",
								"isalias" : 0,
								"aliases" : [  ],
								"attachable" : 0,
								"isparam" : 0,
								"deprecated" : 0,
								"outlet" : 1,
								"type" : "signal"
							}
,
							"outputs" : 							{
								"attrOrProp" : 2,
								"digest" : "Number of outlets",
								"defaultarg" : 1,
								"isalias" : 0,
								"aliases" : [  ],
								"settable" : 1,
								"attachable" : 0,
								"isparam" : 0,
								"deprecated" : 0,
								"type" : "number",
								"defaultValue" : "1"
							}

						}
,
						"inputs" : [ 							{
								"name" : "onoff",
								"type" : "auto",
								"digest" : "0 Closes gate, non-zero opens the corresponding gate outlet",
								"hot" : 1,
								"docked" : 0
							}
, 							{
								"name" : "input",
								"type" : "signal",
								"digest" : "Incoming gated signal",
								"docked" : 0
							}
 ],
						"outputs" : [ 							{
								"name" : "out1",
								"type" : "signal",
								"digest" : "out1",
								"docked" : 0
							}
 ],
						"helpname" : "gate~",
						"aliasOf" : "gate~",
						"classname" : "gate~",
						"operator" : 0,
						"versionId" : 1654863393,
						"changesPatcherIO" : 0
					}
,
					"text" : "gate~"
				}

			}
, 			{
				"box" : 				{
					"id" : "obj-550",
					"maxclass" : "newobj",
					"numinlets" : 2,
					"numoutlets" : 1,
					"outlettype" : [ "signal" ],
					"patching_rect" : [ 781.0, 1164.5, 29.5, 23.0 ],
					"rnbo_classname" : ">~",
					"rnbo_serial" : 1,
					"rnbo_uniqueid" : ">~_obj-550",
					"text" : ">~"
				}

			}
, 			{
				"box" : 				{
					"id" : "obj-552",
					"maxclass" : "newobj",
					"numinlets" : 3,
					"numoutlets" : 1,
					"outlettype" : [ "signal" ],
					"patching_rect" : [ 747.0, 1273.0, 54.0, 23.0 ],
					"rnbo_classname" : "clip~",
					"rnbo_serial" : 2,
					"rnbo_uniqueid" : "clip~_obj-552",
					"text" : "clip~ 0 1"
				}

			}
, 			{
				"box" : 				{
					"id" : "obj-555",
					"maxclass" : "newobj",
					"numinlets" : 3,
					"numoutlets" : 1,
					"outlettype" : [ "" ],
					"patching_rect" : [ 747.0, 1466.0, 61.0, 23.0 ],
					"rnbo_classname" : "clamp",
					"rnbo_extra_attributes" : 					{
						"hot" : 0
					}
,
					"rnbo_serial" : 1,
					"rnbo_uniqueid" : "clamp_obj-555",
					"text" : "clamp 0 1"
				}

			}
, 			{
				"box" : 				{
					"bgcolor" : [ 0.325490196078431, 0.0, 0.545098039215686, 1.0 ],
					"fontface" : 0,
					"fontname" : "Ableton Sans Medium",
					"fontsize" : 12.0,
					"id" : "obj-556",
					"maxclass" : "comment",
					"numinlets" : 1,
					"numoutlets" : 0,
					"patching_rect" : [ 815.0, 1466.0, 116.0, 21.0 ],
					"text" : "crossfade 0-1",
					"textcolor" : [ 1.0, 1.0, 1.0, 1.0 ],
					"textjustification" : 1
				}

			}
, 			{
				"box" : 				{
					"id" : "obj-567",
					"maxclass" : "newobj",
					"numinlets" : 6,
					"numoutlets" : 1,
					"outlettype" : [ "signal" ],
					"patching_rect" : [ 747.0, 1419.0, 82.0, 23.0 ],
					"rnbo_classname" : "scale~",
					"rnbo_serial" : 1,
					"rnbo_uniqueid" : "scale~_obj-567",
					"text" : "scale~ 0 1 0 1"
				}

			}
, 			{
				"box" : 				{
					"id" : "obj-571",
					"maxclass" : "newobj",
					"numinlets" : 3,
					"numoutlets" : 1,
					"outlettype" : [ "signal" ],
					"patching_rect" : [ 73.0, 1096.0, 87.0, 23.0 ],
					"rnbo_classname" : "slide~",
					"rnbo_serial" : 8,
					"rnbo_uniqueid" : "slide~_obj-571",
					"text" : "slide~ 0 24000"
				}

			}
, 			{
				"box" : 				{
					"id" : "obj-575",
					"maxclass" : "newobj",
					"numinlets" : 2,
					"numoutlets" : 1,
					"outlettype" : [ "signal" ],
					"patching_rect" : [ 73.0, 1059.0, 48.0, 23.0 ],
					"rnbo_classname" : "gate~",
					"rnbo_serial" : 3,
					"rnbo_uniqueid" : "gate~_obj-575",
					"rnboinfo" : 					{
						"needsInstanceInfo" : 1,
						"argnames" : 						{
							"onoff" : 							{
								"attrOrProp" : 1,
								"digest" : "0 Closes gate, non-zero opens the corresponding gate outlet",
								"isalias" : 0,
								"aliases" : [  ],
								"settable" : 1,
								"attachable" : 0,
								"isparam" : 0,
								"deprecated" : 0,
								"inlet" : 1,
								"type" : "number"
							}
,
							"input" : 							{
								"attrOrProp" : 1,
								"digest" : "Incoming gated signal",
								"isalias" : 0,
								"aliases" : [  ],
								"settable" : 0,
								"attachable" : 0,
								"isparam" : 0,
								"deprecated" : 0,
								"inlet" : 1,
								"type" : "signal"
							}
,
							"out1" : 							{
								"attrOrProp" : 1,
								"digest" : "out1",
								"isalias" : 0,
								"aliases" : [  ],
								"attachable" : 0,
								"isparam" : 0,
								"deprecated" : 0,
								"outlet" : 1,
								"type" : "signal"
							}
,
							"outputs" : 							{
								"attrOrProp" : 2,
								"digest" : "Number of outlets",
								"defaultarg" : 1,
								"isalias" : 0,
								"aliases" : [  ],
								"settable" : 1,
								"attachable" : 0,
								"isparam" : 0,
								"deprecated" : 0,
								"type" : "number",
								"defaultValue" : "1"
							}

						}
,
						"inputs" : [ 							{
								"name" : "onoff",
								"type" : "auto",
								"digest" : "0 Closes gate, non-zero opens the corresponding gate outlet",
								"hot" : 1,
								"docked" : 0
							}
, 							{
								"name" : "input",
								"type" : "signal",
								"digest" : "Incoming gated signal",
								"docked" : 0
							}
 ],
						"outputs" : [ 							{
								"name" : "out1",
								"type" : "signal",
								"digest" : "out1",
								"docked" : 0
							}
 ],
						"helpname" : "gate~",
						"aliasOf" : "gate~",
						"classname" : "gate~",
						"operator" : 0,
						"versionId" : 1654863393,
						"changesPatcherIO" : 0
					}
,
					"text" : "gate~ 1"
				}

			}
, 			{
				"box" : 				{
					"id" : "obj-581",
					"maxclass" : "newobj",
					"numinlets" : 2,
					"numoutlets" : 1,
					"outlettype" : [ "signal" ],
					"patching_rect" : [ 196.0, 1139.0, 32.0, 23.0 ],
					"rnbo_classname" : "+~",
					"rnbo_serial" : 1,
					"rnbo_uniqueid" : "+~_obj-581",
					"text" : "+~ 0"
				}

			}
, 			{
				"box" : 				{
					"bgcolor" : [ 0.325490196078431, 0.0, 0.545098039215686, 1.0 ],
					"fontface" : 0,
					"fontname" : "Ableton Sans Medium",
					"fontsize" : 12.0,
					"id" : "obj-584",
					"maxclass" : "comment",
					"numinlets" : 1,
					"numoutlets" : 0,
					"patching_rect" : [ 264.0, 1451.0, 116.0, 21.0 ],
					"text" : "crossfade 0-1",
					"textcolor" : [ 1.0, 1.0, 1.0, 1.0 ],
					"textjustification" : 1
				}

			}
, 			{
				"box" : 				{
					"id" : "obj-586",
					"maxclass" : "newobj",
					"numinlets" : 3,
					"numoutlets" : 1,
					"outlettype" : [ "signal" ],
					"patching_rect" : [ 270.0, 1187.0, 54.0, 23.0 ],
					"rnbo_classname" : "clip~",
					"rnbo_serial" : 3,
					"rnbo_uniqueid" : "clip~_obj-586",
					"text" : "clip~ 0 1"
				}

			}
, 			{
				"box" : 				{
					"bgcolor" : [ 0.325490196078431, 0.0, 0.545098039215686, 1.0 ],
					"fontface" : 0,
					"fontname" : "Ableton Sans Medium",
					"fontsize" : 12.0,
					"id" : "obj-587",
					"linecount" : 4,
					"maxclass" : "comment",
					"numinlets" : 1,
					"numoutlets" : 0,
					"patching_rect" : [ 50.0, 1236.5, 133.0, 64.0 ],
					"text" : "clip the top of the env so it can decay more quickly. Note that smoothing is post-clip",
					"textcolor" : [ 1.0, 1.0, 1.0, 1.0 ]
				}

			}
, 			{
				"box" : 				{
					"id" : "obj-589",
					"maxclass" : "newobj",
					"numinlets" : 3,
					"numoutlets" : 1,
					"outlettype" : [ "signal" ],
					"patching_rect" : [ 442.0, 956.0, 87.0, 23.0 ],
					"rnbo_classname" : "slide~",
					"rnbo_serial" : 3,
					"rnbo_uniqueid" : "slide~_obj-589",
					"text" : "slide~ 480 480"
				}

			}
, 			{
				"box" : 				{
					"id" : "obj-590",
					"maxclass" : "newobj",
					"numinlets" : 3,
					"numoutlets" : 1,
					"outlettype" : [ "signal" ],
					"patching_rect" : [ 546.0, 956.0, 87.0, 23.0 ],
					"rnbo_classname" : "slide~",
					"rnbo_serial" : 4,
					"rnbo_uniqueid" : "slide~_obj-590",
					"text" : "slide~ 480 480"
				}

			}
, 			{
				"box" : 				{
					"id" : "obj-591",
					"maxclass" : "newobj",
					"numinlets" : 2,
					"numoutlets" : 1,
					"outlettype" : [ "signal" ],
					"patching_rect" : [ 320.0, 1107.0, 29.5, 23.0 ],
					"rnbo_classname" : "<~",
					"rnbo_serial" : 2,
					"rnbo_uniqueid" : "<~_obj-591",
					"text" : "<~"
				}

			}
, 			{
				"box" : 				{
					"id" : "obj-592",
					"maxclass" : "newobj",
					"numinlets" : 2,
					"numoutlets" : 1,
					"outlettype" : [ "signal" ],
					"patching_rect" : [ 320.0, 1142.0, 38.0, 23.0 ],
					"rnbo_classname" : "gate~",
					"rnbo_extra_attributes" : 					{
						"outputs" : 1.0
					}
,
					"rnbo_serial" : 4,
					"rnbo_uniqueid" : "gate~_obj-592",
					"rnboinfo" : 					{
						"needsInstanceInfo" : 1,
						"argnames" : 						{
							"onoff" : 							{
								"attrOrProp" : 1,
								"digest" : "0 Closes gate, non-zero opens the corresponding gate outlet",
								"isalias" : 0,
								"aliases" : [  ],
								"settable" : 1,
								"attachable" : 0,
								"isparam" : 0,
								"deprecated" : 0,
								"inlet" : 1,
								"type" : "number"
							}
,
							"input" : 							{
								"attrOrProp" : 1,
								"digest" : "Incoming gated signal",
								"isalias" : 0,
								"aliases" : [  ],
								"settable" : 0,
								"attachable" : 0,
								"isparam" : 0,
								"deprecated" : 0,
								"inlet" : 1,
								"type" : "signal"
							}
,
							"out1" : 							{
								"attrOrProp" : 1,
								"digest" : "out1",
								"isalias" : 0,
								"aliases" : [  ],
								"attachable" : 0,
								"isparam" : 0,
								"deprecated" : 0,
								"outlet" : 1,
								"type" : "signal"
							}
,
							"outputs" : 							{
								"attrOrProp" : 2,
								"digest" : "Number of outlets",
								"defaultarg" : 1,
								"isalias" : 0,
								"aliases" : [  ],
								"settable" : 1,
								"attachable" : 0,
								"isparam" : 0,
								"deprecated" : 0,
								"type" : "number",
								"defaultValue" : "1"
							}

						}
,
						"inputs" : [ 							{
								"name" : "onoff",
								"type" : "auto",
								"digest" : "0 Closes gate, non-zero opens the corresponding gate outlet",
								"hot" : 1,
								"docked" : 0
							}
, 							{
								"name" : "input",
								"type" : "signal",
								"digest" : "Incoming gated signal",
								"docked" : 0
							}
 ],
						"outputs" : [ 							{
								"name" : "out1",
								"type" : "signal",
								"digest" : "out1",
								"docked" : 0
							}
 ],
						"helpname" : "gate~",
						"aliasOf" : "gate~",
						"classname" : "gate~",
						"operator" : 0,
						"versionId" : 1654863393,
						"changesPatcherIO" : 0
					}
,
					"text" : "gate~"
				}

			}
, 			{
				"box" : 				{
					"id" : "obj-593",
					"maxclass" : "newobj",
					"numinlets" : 2,
					"numoutlets" : 1,
					"outlettype" : [ "signal" ],
					"patching_rect" : [ 277.0, 1142.0, 38.0, 23.0 ],
					"rnbo_classname" : "gate~",
					"rnbo_extra_attributes" : 					{
						"outputs" : 1.0
					}
,
					"rnbo_serial" : 5,
					"rnbo_uniqueid" : "gate~_obj-593",
					"rnboinfo" : 					{
						"needsInstanceInfo" : 1,
						"argnames" : 						{
							"onoff" : 							{
								"attrOrProp" : 1,
								"digest" : "0 Closes gate, non-zero opens the corresponding gate outlet",
								"isalias" : 0,
								"aliases" : [  ],
								"settable" : 1,
								"attachable" : 0,
								"isparam" : 0,
								"deprecated" : 0,
								"inlet" : 1,
								"type" : "number"
							}
,
							"input" : 							{
								"attrOrProp" : 1,
								"digest" : "Incoming gated signal",
								"isalias" : 0,
								"aliases" : [  ],
								"settable" : 0,
								"attachable" : 0,
								"isparam" : 0,
								"deprecated" : 0,
								"inlet" : 1,
								"type" : "signal"
							}
,
							"out1" : 							{
								"attrOrProp" : 1,
								"digest" : "out1",
								"isalias" : 0,
								"aliases" : [  ],
								"attachable" : 0,
								"isparam" : 0,
								"deprecated" : 0,
								"outlet" : 1,
								"type" : "signal"
							}
,
							"outputs" : 							{
								"attrOrProp" : 2,
								"digest" : "Number of outlets",
								"defaultarg" : 1,
								"isalias" : 0,
								"aliases" : [  ],
								"settable" : 1,
								"attachable" : 0,
								"isparam" : 0,
								"deprecated" : 0,
								"type" : "number",
								"defaultValue" : "1"
							}

						}
,
						"inputs" : [ 							{
								"name" : "onoff",
								"type" : "auto",
								"digest" : "0 Closes gate, non-zero opens the corresponding gate outlet",
								"hot" : 1,
								"docked" : 0
							}
, 							{
								"name" : "input",
								"type" : "signal",
								"digest" : "Incoming gated signal",
								"docked" : 0
							}
 ],
						"outputs" : [ 							{
								"name" : "out1",
								"type" : "signal",
								"digest" : "out1",
								"docked" : 0
							}
 ],
						"helpname" : "gate~",
						"aliasOf" : "gate~",
						"classname" : "gate~",
						"operator" : 0,
						"versionId" : 1654863393,
						"changesPatcherIO" : 0
					}
,
					"text" : "gate~"
				}

			}
, 			{
				"box" : 				{
					"id" : "obj-594",
					"maxclass" : "newobj",
					"numinlets" : 2,
					"numoutlets" : 1,
					"outlettype" : [ "signal" ],
					"patching_rect" : [ 277.0, 1107.0, 29.5, 23.0 ],
					"rnbo_classname" : ">~",
					"rnbo_serial" : 2,
					"rnbo_uniqueid" : ">~_obj-594",
					"text" : ">~"
				}

			}
, 			{
				"box" : 				{
					"id" : "obj-595",
					"maxclass" : "newobj",
					"numinlets" : 2,
					"numoutlets" : 1,
					"outlettype" : [ "signal" ],
					"patching_rect" : [ 213.5, 1187.0, 40.0, 23.0 ],
					"rnbo_classname" : "sig~",
					"rnbo_extra_attributes" : 					{
						"unit" : "ms"
					}
,
					"rnbo_serial" : 3,
					"rnbo_uniqueid" : "sig~_obj-595",
					"text" : "sig~ 0"
				}

			}
, 			{
				"box" : 				{
					"id" : "obj-600",
					"maxclass" : "newobj",
					"numinlets" : 3,
					"numoutlets" : 1,
					"outlettype" : [ "signal" ],
					"patching_rect" : [ 196.0, 1240.0, 54.0, 23.0 ],
					"rnbo_classname" : "clip~",
					"rnbo_serial" : 4,
					"rnbo_uniqueid" : "clip~_obj-600",
					"text" : "clip~ 0 1"
				}

			}
, 			{
				"box" : 				{
					"id" : "obj-602",
					"maxclass" : "newobj",
					"numinlets" : 3,
					"numoutlets" : 1,
					"outlettype" : [ "signal" ],
					"patching_rect" : [ 196.0, 1451.0, 67.0, 23.0 ],
					"rnbo_classname" : "clamp~",
					"rnbo_serial" : 1,
					"rnbo_uniqueid" : "clamp~_obj-602",
					"text" : "clamp~ 0 1"
				}

			}
, 			{
				"box" : 				{
					"id" : "obj-603",
					"maxclass" : "newobj",
					"numinlets" : 2,
					"numoutlets" : 1,
					"outlettype" : [ "signal" ],
					"patching_rect" : [ 389.75, 1362.0, 40.0, 23.0 ],
					"rnbo_classname" : "sig~",
					"rnbo_extra_attributes" : 					{
						"unit" : "ms"
					}
,
					"rnbo_serial" : 4,
					"rnbo_uniqueid" : "sig~_obj-603",
					"text" : "sig~ 1"
				}

			}
, 			{
				"box" : 				{
					"id" : "obj-604",
					"maxclass" : "newobj",
					"numinlets" : 2,
					"numoutlets" : 1,
					"outlettype" : [ "signal" ],
					"patching_rect" : [ 340.75, 1362.0, 40.0, 23.0 ],
					"rnbo_classname" : "sig~",
					"rnbo_extra_attributes" : 					{
						"unit" : "ms"
					}
,
					"rnbo_serial" : 5,
					"rnbo_uniqueid" : "sig~_obj-604",
					"text" : "sig~ 0"
				}

			}
, 			{
				"box" : 				{
					"id" : "obj-605",
					"maxclass" : "newobj",
					"numinlets" : 6,
					"numoutlets" : 1,
					"outlettype" : [ "signal" ],
					"patching_rect" : [ 196.0, 1403.0, 261.1875, 23.0 ],
					"rnbo_classname" : "scale~",
					"rnbo_serial" : 2,
					"rnbo_uniqueid" : "scale~_obj-605",
					"text" : "scale~ 0 1 0 1"
				}

			}
, 			{
				"box" : 				{
					"id" : "obj-535",
					"maxclass" : "newobj",
					"numinlets" : 0,
					"numoutlets" : 1,
					"outlettype" : [ "signal" ],
					"patching_rect" : [ 73.0, 956.0, 110.0, 23.0 ],
					"rnbo_classname" : "r~",
					"rnbo_serial" : 1,
					"rnbo_uniqueid" : "r~_obj-535",
					"text" : "r~ noisegate_active"
				}

			}
, 			{
				"box" : 				{
					"id" : "obj-534",
					"maxclass" : "newobj",
					"numinlets" : 3,
					"numoutlets" : 1,
					"outlettype" : [ "signal" ],
					"patching_rect" : [ 196.0, 1349.0, 87.0, 23.0 ],
					"rnbo_classname" : "slide~",
					"rnbo_serial" : 9,
					"rnbo_uniqueid" : "slide~_obj-534",
					"text" : "slide~ 0 24000"
				}

			}
, 			{
				"box" : 				{
					"id" : "obj-533",
					"maxclass" : "newobj",
					"numinlets" : 3,
					"numoutlets" : 1,
					"outlettype" : [ "signal" ],
					"patching_rect" : [ 196.0, 1299.0, 112.0, 23.0 ],
					"rnbo_classname" : "average_rms~",
					"rnbo_serial" : 2,
					"rnbo_uniqueid" : "average_rms~_obj-533",
					"text" : "average_rms~ 4800"
				}

			}
, 			{
				"box" : 				{
					"id" : "obj-532",
					"maxclass" : "comment",
					"numinlets" : 1,
					"numoutlets" : 0,
					"patching_rect" : [ 281.0, 942.0, 111.0, 21.0 ],
					"text" : "crossfade env sens"
				}

			}
, 			{
				"box" : 				{
					"id" : "obj-530",
					"maxclass" : "newobj",
					"numinlets" : 1,
					"numoutlets" : 1,
					"outlettype" : [ "" ],
					"patching_rect" : [ 285.0, 969.0, 67.0, 23.0 ],
					"rnbo_classname" : "loadmess",
					"rnbo_serial" : 3,
					"rnbo_uniqueid" : "loadmess_obj-530",
					"rnboinfo" : 					{
						"needsInstanceInfo" : 1,
						"argnames" : 						{
							"input" : 							{
								"attrOrProp" : 1,
								"digest" : "Bang to trigger message.",
								"isalias" : 0,
								"aliases" : [  ],
								"settable" : 0,
								"attachable" : 0,
								"isparam" : 0,
								"deprecated" : 0,
								"inlet" : 1,
								"type" : "bang"
							}
,
							"message" : 							{
								"attrOrProp" : 1,
								"digest" : "Message when patcher is loaded.",
								"defaultarg" : 1,
								"isalias" : 0,
								"aliases" : [  ],
								"settable" : 1,
								"attachable" : 0,
								"isparam" : 0,
								"deprecated" : 0,
								"outlet" : 1,
								"type" : "list",
								"defaultValue" : ""
							}
,
							"startupbang" : 							{
								"attrOrProp" : 1,
								"digest" : "startupbang",
								"isalias" : 0,
								"aliases" : [  ],
								"attachable" : 0,
								"isparam" : 0,
								"deprecated" : 0,
								"type" : "bang"
							}

						}
,
						"inputs" : [ 							{
								"name" : "input",
								"type" : "bang",
								"digest" : "Bang to trigger message.",
								"hot" : 1,
								"docked" : 0
							}
 ],
						"outputs" : [ 							{
								"name" : "message",
								"type" : "list",
								"digest" : "Message when patcher is loaded.",
								"defaultarg" : 1,
								"docked" : 0
							}
 ],
						"helpname" : "loadmess",
						"aliasOf" : "loadmess",
						"classname" : "loadmess",
						"operator" : 0,
						"versionId" : -361086158,
						"changesPatcherIO" : 0
					}
,
					"text" : "loadmess 1"
				}

			}
, 			{
				"box" : 				{
					"id" : "obj-529",
					"maxclass" : "newobj",
					"numinlets" : 2,
					"numoutlets" : 1,
					"outlettype" : [ "signal" ],
					"patching_rect" : [ 209.0, 969.0, 31.0, 23.0 ],
					"rnbo_classname" : "*~",
					"rnbo_serial" : 1,
					"rnbo_uniqueid" : "*~_obj-529",
					"text" : "*~ 1"
				}

			}
, 			{
				"box" : 				{
					"fontsize" : 12.0,
					"id" : "obj-528",
					"maxclass" : "newobj",
					"numinlets" : 0,
					"numoutlets" : 1,
					"outlettype" : [ "signal" ],
					"patching_rect" : [ 209.0, 912.0, 109.0, 23.0 ],
					"rnbo_classname" : "r~",
					"rnbo_serial" : 2,
					"rnbo_uniqueid" : "r~_obj-528",
					"text" : "r~ env_pre-smooth"
				}

			}
, 			{
				"box" : 				{
					"id" : "obj-504",
					"maxclass" : "newobj",
					"numinlets" : 2,
					"numoutlets" : 1,
					"outlettype" : [ "signal" ],
					"patching_rect" : [ 196.0, 1537.0, 75.0, 23.0 ],
					"rnbo_classname" : "*~",
					"rnbo_serial" : 2,
					"rnbo_uniqueid" : "*~_obj-504",
					"text" : "*~ 3.141593"
				}

			}
, 			{
				"box" : 				{
					"id" : "obj-506",
					"maxclass" : "newobj",
					"numinlets" : 1,
					"numoutlets" : 1,
					"outlettype" : [ "signal" ],
					"patching_rect" : [ 350.0, 1665.0, 34.0, 23.0 ],
					"rnbo_classname" : "cos~",
					"rnbo_serial" : 1,
					"rnbo_uniqueid" : "cos~_obj-506",
					"text" : "cos~"
				}

			}
, 			{
				"box" : 				{
					"id" : "obj-507",
					"maxclass" : "newobj",
					"numinlets" : 2,
					"numoutlets" : 1,
					"outlettype" : [ "signal" ],
					"patching_rect" : [ 350.0, 1628.0, 77.0, 23.0 ],
					"rnbo_classname" : "+~",
					"rnbo_serial" : 2,
					"rnbo_uniqueid" : "+~_obj-507",
					"text" : "+~ 4.712389"
				}

			}
, 			{
				"box" : 				{
					"id" : "obj-518",
					"maxclass" : "newobj",
					"numinlets" : 2,
					"numoutlets" : 1,
					"outlettype" : [ "signal" ],
					"patching_rect" : [ 155.0, 1835.0, 30.0, 23.0 ],
					"rnbo_classname" : "*~",
					"rnbo_serial" : 3,
					"rnbo_uniqueid" : "*~_obj-518",
					"text" : "*~"
				}

			}
, 			{
				"box" : 				{
					"id" : "obj-520",
					"maxclass" : "newobj",
					"numinlets" : 2,
					"numoutlets" : 1,
					"outlettype" : [ "signal" ],
					"patching_rect" : [ 260.0, 1835.0, 30.0, 23.0 ],
					"rnbo_classname" : "*~",
					"rnbo_serial" : 4,
					"rnbo_uniqueid" : "*~_obj-520",
					"text" : "*~"
				}

			}
, 			{
				"box" : 				{
					"fontname" : "Arial",
					"fontsize" : 12.0,
					"genpatcher" : 					{
						"patcher" : 						{
							"fileversion" : 1,
							"appversion" : 							{
								"major" : 9,
								"minor" : 0,
								"revision" : 4,
								"architecture" : "x64",
								"modernui" : 1
							}
,
							"classnamespace" : "dsp.gen",
							"rect" : [ 134.0, 159.0, 839.0, 751.0 ],
							"gridsize" : [ 15.0, 15.0 ],
							"boxes" : [ 								{
									"box" : 									{
										"maxclass" : "codebox",
										"patching_rect" : [ 81.0, 57.0, 586.0, 564.0 ],
										"id" : "obj-7",
										"fontsize" : 12.0,
										"numoutlets" : 1,
										"outlettype" : [ "" ],
										"fontname" : "<Monospaced>",
										"fontface" : 0,
										"numinlets" : 1,
										"code" : "// Based on Warren Moore's easing C source code\r\n// https://github.com/warrenm/AHEasing/blob/master/AHEasing/easing.c\r\n\r\n// Modeled after half sine wave\nSineEaseInOut(value)\n{\n\treturn 0.5 * (1 - cos(value * PI));\n}\r\n\r\nout1 = SineEaseInOut(in1);\r\n\r\n\r\n"
									}

								}
, 								{
									"box" : 									{
										"maxclass" : "newobj",
										"text" : "in 1",
										"patching_rect" : [ 81.0, 24.0, 30.0, 22.0 ],
										"id" : "obj-1",
										"fontsize" : 12.0,
										"numoutlets" : 1,
										"outlettype" : [ "" ],
										"fontname" : "Arial",
										"numinlets" : 0
									}

								}
, 								{
									"box" : 									{
										"maxclass" : "newobj",
										"text" : "out 1",
										"patching_rect" : [ 81.0, 633.0, 37.0, 22.0 ],
										"id" : "obj-4",
										"fontsize" : 12.0,
										"numoutlets" : 0,
										"fontname" : "Arial",
										"numinlets" : 1
									}

								}
 ],
							"lines" : [ 								{
									"patchline" : 									{
										"source" : [ "obj-1", 0 ],
										"destination" : [ "obj-7", 0 ]
									}

								}
, 								{
									"patchline" : 									{
										"source" : [ "obj-7", 0 ],
										"destination" : [ "obj-4", 0 ]
									}

								}
 ],
							"originid" : "pat-492"
						}

					}
,
					"id" : "obj-522",
					"maxclass" : "newobj",
					"numinlets" : 1,
					"numoutlets" : 1,
					"outlettype" : [ "signal" ],
					"patching_rect" : [ 350.0, 1704.0, 179.0, 22.0 ],
					"rnbo_classname" : "gen~",
					"rnbo_extra_attributes" : 					{
						"exposeparams" : 0,
						"gencode" : "SineEaseInOut(value) {\n\treturn 0.5 * ((1 - (cos(value * PI))));\n}\n\nexpr_1 = SineEaseInOut(in1);\nout1 = expr_1;",
						"geninlets" : 1,
						"genoutlets" : 1
					}
,
					"rnbo_serial" : 2,
					"rnbo_uniqueid" : "ah.SineEaseInOut.gendsp[1]",
					"rnboinfo" : 					{
						"needsInstanceInfo" : 1,
						"argnames" : 						{
							"in1" : 							{
								"attrOrProp" : 1,
								"digest" : "in1",
								"isalias" : 0,
								"aliases" : [  ],
								"settable" : 1,
								"attachable" : 0,
								"isparam" : 0,
								"deprecated" : 0,
								"inlet" : 1,
								"type" : "number"
							}
,
							"reset" : 							{
								"attrOrProp" : 1,
								"digest" : "Reset all param and history objects to initial values",
								"isalias" : 0,
								"aliases" : [  ],
								"attachable" : 1,
								"isparam" : 0,
								"deprecated" : 0,
								"type" : "bang"
							}
,
							"out1" : 							{
								"attrOrProp" : 1,
								"digest" : "out1",
								"isalias" : 0,
								"aliases" : [  ],
								"attachable" : 0,
								"isparam" : 0,
								"deprecated" : 0,
								"outlet" : 1,
								"type" : "signal"
							}
,
							"expr" : 							{
								"attrOrProp" : 2,
								"digest" : "a gen expression",
								"isalias" : 0,
								"aliases" : [  ],
								"settable" : 1,
								"attachable" : 0,
								"isparam" : 0,
								"deprecated" : 0,
								"type" : "symbol",
								"doNotShowInMaxInspector" : 1
							}
,
							"file" : 							{
								"attrOrProp" : 2,
								"digest" : "gendsp file to load",
								"isalias" : 0,
								"aliases" : [  ],
								"settable" : 1,
								"attachable" : 0,
								"isparam" : 0,
								"deprecated" : 0,
								"type" : "symbol",
								"doNotShowInMaxInspector" : 1
							}
,
							"title" : 							{
								"attrOrProp" : 2,
								"digest" : "a title",
								"defaultarg" : 1,
								"isalias" : 0,
								"aliases" : [ "t" ],
								"settable" : 1,
								"attachable" : 0,
								"isparam" : 0,
								"deprecated" : 0,
								"type" : "symbol",
								"doNotShowInMaxInspector" : 1
							}
,
							"t" : 							{
								"attrOrProp" : 2,
								"digest" : "a title",
								"defaultarg" : 1,
								"isalias" : 1,
								"aliasOf" : "title",
								"aliases" : [  ],
								"settable" : 1,
								"attachable" : 0,
								"isparam" : 0,
								"deprecated" : 0,
								"type" : "symbol"
							}
,
							"exposeparams" : 							{
								"attrOrProp" : 2,
								"digest" : "Expose gen params as RNBO params.",
								"isalias" : 0,
								"aliases" : [  ],
								"settable" : 1,
								"attachable" : 0,
								"isparam" : 0,
								"deprecated" : 0,
								"type" : "bool",
								"defaultValue" : "false"
							}

						}
,
						"inputs" : [ 							{
								"name" : "in1",
								"type" : "auto",
								"digest" : "in1",
								"hot" : 1,
								"docked" : 0
							}
 ],
						"outputs" : [ 							{
								"name" : "out1",
								"type" : "signal",
								"digest" : "out1",
								"docked" : 0
							}
 ],
						"helpname" : "gen~",
						"aliasOf" : "gen~",
						"classname" : "gen~",
						"operator" : 0,
						"versionId" : 179904306,
						"changesPatcherIO" : 0
					}
,
					"text" : "gen~ ah.SineEaseInOut.gendsp",
					"varname" : "ah.SineEaseInOut.gendsp[1]"
				}

			}
, 			{
				"box" : 				{
					"id" : "obj-523",
					"maxclass" : "newobj",
					"numinlets" : 2,
					"numoutlets" : 1,
					"outlettype" : [ "signal" ],
					"patching_rect" : [ 196.0, 1495.0, 40.0, 23.0 ],
					"rnbo_classname" : "*~",
					"rnbo_serial" : 5,
					"rnbo_uniqueid" : "*~_obj-523",
					"text" : "*~ 0.5"
				}

			}
, 			{
				"box" : 				{
					"id" : "obj-524",
					"maxclass" : "newobj",
					"numinlets" : 1,
					"numoutlets" : 1,
					"outlettype" : [ "signal" ],
					"patching_rect" : [ 134.0, 1665.0, 34.0, 23.0 ],
					"rnbo_classname" : "cos~",
					"rnbo_serial" : 2,
					"rnbo_uniqueid" : "cos~_obj-524",
					"text" : "cos~"
				}

			}
, 			{
				"box" : 				{
					"id" : "obj-705",
					"maxclass" : "newobj",
					"numinlets" : 0,
					"numoutlets" : 1,
					"outlettype" : [ "signal" ],
					"patching_rect" : [ 103.0, 1779.0, 35.0, 23.0 ],
					"rnbo_classname" : "in~",
					"rnbo_extra_attributes" : 					{
						"meta" : "",
						"comment" : ""
					}
,
					"rnbo_serial" : 1,
					"rnbo_uniqueid" : "in~_obj-705",
					"rnboinfo" : 					{
						"needsInstanceInfo" : 1,
						"argnames" : 						{
							"out1" : 							{
								"attrOrProp" : 1,
								"digest" : "signal from inlet with index 1",
								"isalias" : 0,
								"aliases" : [  ],
								"settable" : 0,
								"attachable" : 0,
								"isparam" : 0,
								"deprecated" : 0,
								"outlet" : 1,
								"type" : "signal"
							}
,
							"index" : 							{
								"attrOrProp" : 2,
								"digest" : "inlet number",
								"defaultarg" : 1,
								"isalias" : 0,
								"aliases" : [  ],
								"settable" : 1,
								"attachable" : 0,
								"isparam" : 0,
								"deprecated" : 0,
								"type" : "number",
								"mandatory" : 1
							}
,
							"comment" : 							{
								"attrOrProp" : 2,
								"digest" : "mouse over comment",
								"isalias" : 0,
								"aliases" : [  ],
								"settable" : 1,
								"attachable" : 0,
								"isparam" : 0,
								"deprecated" : 0,
								"type" : "symbol"
							}
,
							"meta" : 							{
								"attrOrProp" : 2,
								"digest" : "A JSON formatted string containing metadata for use by the exported code",
								"isalias" : 0,
								"aliases" : [  ],
								"settable" : 1,
								"attachable" : 0,
								"isparam" : 0,
								"deprecated" : 0,
								"type" : "symbol",
								"defaultValue" : "",
								"label" : "Metadata",
								"displayorder" : 3
							}

						}
,
						"inputs" : [  ],
						"outputs" : [ 							{
								"name" : "out1",
								"type" : "signal",
								"digest" : "signal from inlet with index 1",
								"displayName" : "",
								"docked" : 0
							}
 ],
						"helpname" : "in~",
						"aliasOf" : "in~",
						"classname" : "in~",
						"operator" : 0,
						"versionId" : -176007711,
						"changesPatcherIO" : 1
					}
,
					"text" : "in~ 1"
				}

			}
, 			{
				"box" : 				{
					"id" : "obj-706",
					"maxclass" : "newobj",
					"numinlets" : 0,
					"numoutlets" : 1,
					"outlettype" : [ "signal" ],
					"patching_rect" : [ 208.0, 1779.0, 35.0, 23.0 ],
					"rnbo_classname" : "in~",
					"rnbo_extra_attributes" : 					{
						"meta" : "",
						"comment" : ""
					}
,
					"rnbo_serial" : 2,
					"rnbo_uniqueid" : "in~_obj-706",
					"rnboinfo" : 					{
						"needsInstanceInfo" : 1,
						"argnames" : 						{
							"out1" : 							{
								"attrOrProp" : 1,
								"digest" : "signal from inlet with index 2",
								"isalias" : 0,
								"aliases" : [  ],
								"settable" : 0,
								"attachable" : 0,
								"isparam" : 0,
								"deprecated" : 0,
								"outlet" : 1,
								"type" : "signal"
							}
,
							"index" : 							{
								"attrOrProp" : 2,
								"digest" : "inlet number",
								"defaultarg" : 1,
								"isalias" : 0,
								"aliases" : [  ],
								"settable" : 1,
								"attachable" : 0,
								"isparam" : 0,
								"deprecated" : 0,
								"type" : "number",
								"mandatory" : 1
							}
,
							"comment" : 							{
								"attrOrProp" : 2,
								"digest" : "mouse over comment",
								"isalias" : 0,
								"aliases" : [  ],
								"settable" : 1,
								"attachable" : 0,
								"isparam" : 0,
								"deprecated" : 0,
								"type" : "symbol"
							}
,
							"meta" : 							{
								"attrOrProp" : 2,
								"digest" : "A JSON formatted string containing metadata for use by the exported code",
								"isalias" : 0,
								"aliases" : [  ],
								"settable" : 1,
								"attachable" : 0,
								"isparam" : 0,
								"deprecated" : 0,
								"type" : "symbol",
								"defaultValue" : "",
								"label" : "Metadata",
								"displayorder" : 3
							}

						}
,
						"inputs" : [  ],
						"outputs" : [ 							{
								"name" : "out1",
								"type" : "signal",
								"digest" : "signal from inlet with index 2",
								"displayName" : "",
								"docked" : 0
							}
 ],
						"helpname" : "in~",
						"aliasOf" : "in~",
						"classname" : "in~",
						"operator" : 0,
						"versionId" : -176007711,
						"changesPatcherIO" : 1
					}
,
					"text" : "in~ 2"
				}

			}
, 			{
				"box" : 				{
					"id" : "obj-707",
					"maxclass" : "newobj",
					"numinlets" : 1,
					"numoutlets" : 0,
					"patching_rect" : [ 202.0, 1918.0, 43.0, 23.0 ],
					"rnbo_classname" : "out~",
					"rnbo_extra_attributes" : 					{
						"meta" : "",
						"comment" : ""
					}
,
					"rnbo_serial" : 1,
					"rnbo_uniqueid" : "out~_obj-707",
					"rnboinfo" : 					{
						"needsInstanceInfo" : 1,
						"argnames" : 						{
							"in1" : 							{
								"attrOrProp" : 1,
								"digest" : "signal sent to outlet with index 1",
								"isalias" : 0,
								"aliases" : [  ],
								"settable" : 0,
								"attachable" : 0,
								"isparam" : 0,
								"deprecated" : 0,
								"inlet" : 1,
								"type" : "signal"
							}
,
							"index" : 							{
								"attrOrProp" : 2,
								"digest" : "outlet number",
								"defaultarg" : 1,
								"isalias" : 0,
								"aliases" : [  ],
								"settable" : 1,
								"attachable" : 0,
								"isparam" : 0,
								"deprecated" : 0,
								"type" : "number",
								"mandatory" : 1
							}
,
							"comment" : 							{
								"attrOrProp" : 2,
								"digest" : "mouse over comment",
								"isalias" : 0,
								"aliases" : [  ],
								"settable" : 1,
								"attachable" : 0,
								"isparam" : 0,
								"deprecated" : 0,
								"type" : "symbol"
							}
,
							"meta" : 							{
								"attrOrProp" : 2,
								"digest" : "A JSON formatted string containing metadata for use by the exported code",
								"isalias" : 0,
								"aliases" : [  ],
								"settable" : 1,
								"attachable" : 0,
								"isparam" : 0,
								"deprecated" : 0,
								"type" : "symbol",
								"defaultValue" : "",
								"label" : "Metadata",
								"displayorder" : 3
							}

						}
,
						"inputs" : [ 							{
								"name" : "in1",
								"type" : "signal",
								"digest" : "signal sent to outlet with index 1",
								"displayName" : "",
								"hot" : 1,
								"docked" : 0
							}
 ],
						"outputs" : [  ],
						"helpname" : "out~",
						"aliasOf" : "out~",
						"classname" : "out~",
						"operator" : 0,
						"versionId" : 374499139,
						"changesPatcherIO" : 1
					}
,
					"text" : "out~ 1"
				}

			}
 ],
		"lines" : [ 			{
				"patchline" : 				{
					"destination" : [ "obj-623", 0 ],
					"order" : 0,
					"source" : [ "obj-1382", 0 ]
				}

			}
, 			{
				"patchline" : 				{
					"destination" : [ "obj-624", 0 ],
					"order" : 1,
					"source" : [ "obj-1382", 0 ]
				}

			}
, 			{
				"patchline" : 				{
					"destination" : [ "obj-700", 0 ],
					"order" : 0,
					"source" : [ "obj-2", 0 ]
				}

			}
, 			{
				"patchline" : 				{
					"destination" : [ "obj-701", 0 ],
					"order" : 1,
					"source" : [ "obj-2", 0 ]
				}

			}
, 			{
				"patchline" : 				{
					"destination" : [ "obj-507", 0 ],
					"order" : 0,
					"source" : [ "obj-504", 0 ]
				}

			}
, 			{
				"patchline" : 				{
					"destination" : [ "obj-524", 0 ],
					"order" : 1,
					"source" : [ "obj-504", 0 ]
				}

			}
, 			{
				"patchline" : 				{
					"destination" : [ "obj-522", 0 ],
					"source" : [ "obj-506", 0 ]
				}

			}
, 			{
				"patchline" : 				{
					"destination" : [ "obj-506", 0 ],
					"source" : [ "obj-507", 0 ]
				}

			}
, 			{
				"patchline" : 				{
					"destination" : [ "obj-707", 0 ],
					"source" : [ "obj-518", 0 ]
				}

			}
, 			{
				"patchline" : 				{
					"destination" : [ "obj-707", 0 ],
					"source" : [ "obj-520", 0 ]
				}

			}
, 			{
				"patchline" : 				{
					"destination" : [ "obj-520", 1 ],
					"source" : [ "obj-522", 0 ]
				}

			}
, 			{
				"patchline" : 				{
					"destination" : [ "obj-504", 0 ],
					"source" : [ "obj-523", 0 ]
				}

			}
, 			{
				"patchline" : 				{
					"destination" : [ "obj-619", 0 ],
					"source" : [ "obj-524", 0 ]
				}

			}
, 			{
				"patchline" : 				{
					"destination" : [ "obj-529", 0 ],
					"source" : [ "obj-528", 0 ]
				}

			}
, 			{
				"patchline" : 				{
					"destination" : [ "obj-552", 0 ],
					"order" : 0,
					"source" : [ "obj-529", 0 ]
				}

			}
, 			{
				"patchline" : 				{
					"destination" : [ "obj-581", 1 ],
					"order" : 1,
					"source" : [ "obj-529", 0 ]
				}

			}
, 			{
				"patchline" : 				{
					"destination" : [ "obj-529", 1 ],
					"source" : [ "obj-530", 0 ]
				}

			}
, 			{
				"patchline" : 				{
					"destination" : [ "obj-534", 0 ],
					"source" : [ "obj-533", 0 ]
				}

			}
, 			{
				"patchline" : 				{
					"destination" : [ "obj-605", 0 ],
					"source" : [ "obj-534", 0 ]
				}

			}
, 			{
				"patchline" : 				{
					"destination" : [ "obj-703", 0 ],
					"source" : [ "obj-535", 0 ]
				}

			}
, 			{
				"patchline" : 				{
					"destination" : [ "obj-552", 2 ],
					"source" : [ "obj-546", 0 ]
				}

			}
, 			{
				"patchline" : 				{
					"color" : [ 0.114903390407562, 0.068398237228394, 0.700752258300781, 1.0 ],
					"destination" : [ "obj-548", 0 ],
					"source" : [ "obj-547", 0 ]
				}

			}
, 			{
				"patchline" : 				{
					"destination" : [ "obj-546", 0 ],
					"source" : [ "obj-548", 0 ]
				}

			}
, 			{
				"patchline" : 				{
					"destination" : [ "obj-546", 0 ],
					"source" : [ "obj-549", 0 ]
				}

			}
, 			{
				"patchline" : 				{
					"color" : [ 0.701977908611298, 0.683618903160095, 0.075521625578403, 1.0 ],
					"destination" : [ "obj-549", 0 ],
					"source" : [ "obj-550", 0 ]
				}

			}
, 			{
				"patchline" : 				{
					"destination" : [ "obj-618", 0 ],
					"source" : [ "obj-552", 0 ]
				}

			}
, 			{
				"patchline" : 				{
					"destination" : [ "obj-555", 0 ],
					"source" : [ "obj-567", 0 ]
				}

			}
, 			{
				"patchline" : 				{
					"destination" : [ "obj-581", 0 ],
					"source" : [ "obj-571", 0 ]
				}

			}
, 			{
				"patchline" : 				{
					"destination" : [ "obj-571", 0 ],
					"source" : [ "obj-575", 0 ]
				}

			}
, 			{
				"patchline" : 				{
					"destination" : [ "obj-600", 0 ],
					"source" : [ "obj-581", 0 ]
				}

			}
, 			{
				"patchline" : 				{
					"destination" : [ "obj-575", 1 ],
					"midpoints" : [ 279.5, 1222.00359060659548, 259.372083012264056, 1222.00359060659548, 259.372083012264056, 1174.00359060659548, 171.372083012264056, 1174.00359060659548, 171.372083012264056, 1043.00359060659548, 111.5, 1043.00359060659548 ],
					"order" : 1,
					"source" : [ "obj-586", 0 ]
				}

			}
, 			{
				"patchline" : 				{
					"destination" : [ "obj-600", 2 ],
					"order" : 0,
					"source" : [ "obj-586", 0 ]
				}

			}
, 			{
				"patchline" : 				{
					"color" : [ 0.114903390407562, 0.068398237228394, 0.700752258300781, 1.0 ],
					"destination" : [ "obj-547", 1 ],
					"order" : 1,
					"source" : [ "obj-589", 0 ]
				}

			}
, 			{
				"patchline" : 				{
					"color" : [ 0.114903390407562, 0.068398237228394, 0.700752258300781, 1.0 ],
					"destination" : [ "obj-548", 1 ],
					"order" : 0,
					"source" : [ "obj-589", 0 ]
				}

			}
, 			{
				"patchline" : 				{
					"color" : [ 0.114903390407562, 0.068398237228394, 0.700752258300781, 1.0 ],
					"destination" : [ "obj-550", 1 ],
					"order" : 2,
					"source" : [ "obj-589", 0 ]
				}

			}
, 			{
				"patchline" : 				{
					"destination" : [ "obj-567", 1 ],
					"order" : 3,
					"source" : [ "obj-589", 0 ]
				}

			}
, 			{
				"patchline" : 				{
					"color" : [ 0.114903390407562, 0.068398237228394, 0.700752258300781, 1.0 ],
					"destination" : [ "obj-591", 1 ],
					"order" : 5,
					"source" : [ "obj-589", 0 ]
				}

			}
, 			{
				"patchline" : 				{
					"color" : [ 0.114903390407562, 0.068398237228394, 0.700752258300781, 1.0 ],
					"destination" : [ "obj-592", 1 ],
					"order" : 4,
					"source" : [ "obj-589", 0 ]
				}

			}
, 			{
				"patchline" : 				{
					"color" : [ 0.114903390407562, 0.068398237228394, 0.700752258300781, 1.0 ],
					"destination" : [ "obj-594", 1 ],
					"order" : 6,
					"source" : [ "obj-589", 0 ]
				}

			}
, 			{
				"patchline" : 				{
					"color" : [ 0.114903390407562, 0.068398237228394, 0.700752258300781, 1.0 ],
					"destination" : [ "obj-605", 1 ],
					"order" : 7,
					"source" : [ "obj-589", 0 ]
				}

			}
, 			{
				"patchline" : 				{
					"color" : [ 0.701977908611298, 0.683618903160095, 0.075521625578403, 1.0 ],
					"destination" : [ "obj-547", 0 ],
					"order" : 0,
					"source" : [ "obj-590", 0 ]
				}

			}
, 			{
				"patchline" : 				{
					"color" : [ 0.701977908611298, 0.683618903160095, 0.075521625578403, 1.0 ],
					"destination" : [ "obj-549", 1 ],
					"order" : 1,
					"source" : [ "obj-590", 0 ]
				}

			}
, 			{
				"patchline" : 				{
					"color" : [ 0.701977908611298, 0.683618903160095, 0.075521625578403, 1.0 ],
					"destination" : [ "obj-550", 0 ],
					"order" : 2,
					"source" : [ "obj-590", 0 ]
				}

			}
, 			{
				"patchline" : 				{
					"destination" : [ "obj-567", 2 ],
					"order" : 3,
					"source" : [ "obj-590", 0 ]
				}

			}
, 			{
				"patchline" : 				{
					"color" : [ 0.701977908611298, 0.683618903160095, 0.075521625578403, 1.0 ],
					"destination" : [ "obj-591", 0 ],
					"order" : 4,
					"source" : [ "obj-590", 0 ]
				}

			}
, 			{
				"patchline" : 				{
					"color" : [ 0.701977908611298, 0.683618903160095, 0.075521625578403, 1.0 ],
					"destination" : [ "obj-593", 1 ],
					"order" : 5,
					"source" : [ "obj-590", 0 ]
				}

			}
, 			{
				"patchline" : 				{
					"color" : [ 0.701977908611298, 0.683618903160095, 0.075521625578403, 1.0 ],
					"destination" : [ "obj-594", 0 ],
					"order" : 7,
					"source" : [ "obj-590", 0 ]
				}

			}
, 			{
				"patchline" : 				{
					"color" : [ 0.701977908611298, 0.683618903160095, 0.075521625578403, 1.0 ],
					"destination" : [ "obj-605", 2 ],
					"order" : 6,
					"source" : [ "obj-590", 0 ]
				}

			}
, 			{
				"patchline" : 				{
					"color" : [ 0.114903390407562, 0.068398237228394, 0.700752258300781, 1.0 ],
					"destination" : [ "obj-592", 0 ],
					"source" : [ "obj-591", 0 ]
				}

			}
, 			{
				"patchline" : 				{
					"destination" : [ "obj-586", 0 ],
					"source" : [ "obj-592", 0 ]
				}

			}
, 			{
				"patchline" : 				{
					"destination" : [ "obj-586", 0 ],
					"source" : [ "obj-593", 0 ]
				}

			}
, 			{
				"patchline" : 				{
					"color" : [ 0.701977908611298, 0.683618903160095, 0.075521625578403, 1.0 ],
					"destination" : [ "obj-593", 0 ],
					"source" : [ "obj-594", 0 ]
				}

			}
, 			{
				"patchline" : 				{
					"destination" : [ "obj-600", 1 ],
					"source" : [ "obj-595", 0 ]
				}

			}
, 			{
				"patchline" : 				{
					"destination" : [ "obj-3", 0 ],
					"order" : 1,
					"source" : [ "obj-600", 0 ]
				}

			}
, 			{
				"patchline" : 				{
					"destination" : [ "obj-533", 0 ],
					"order" : 0,
					"source" : [ "obj-600", 0 ]
				}

			}
, 			{
				"patchline" : 				{
					"destination" : [ "obj-1", 0 ],
					"order" : 1,
					"source" : [ "obj-602", 0 ]
				}

			}
, 			{
				"patchline" : 				{
					"destination" : [ "obj-523", 0 ],
					"order" : 0,
					"source" : [ "obj-602", 0 ]
				}

			}
, 			{
				"patchline" : 				{
					"destination" : [ "obj-605", 4 ],
					"source" : [ "obj-603", 0 ]
				}

			}
, 			{
				"patchline" : 				{
					"destination" : [ "obj-605", 3 ],
					"source" : [ "obj-604", 0 ]
				}

			}
, 			{
				"patchline" : 				{
					"destination" : [ "obj-602", 0 ],
					"source" : [ "obj-605", 0 ]
				}

			}
, 			{
				"patchline" : 				{
					"destination" : [ "obj-567", 0 ],
					"source" : [ "obj-617", 0 ]
				}

			}
, 			{
				"patchline" : 				{
					"destination" : [ "obj-617", 0 ],
					"source" : [ "obj-618", 0 ]
				}

			}
, 			{
				"patchline" : 				{
					"destination" : [ "obj-518", 1 ],
					"source" : [ "obj-619", 0 ]
				}

			}
, 			{
				"patchline" : 				{
					"color" : [ 0.129302591085434, 0.823479175567627, 0.814016103744507, 1.0 ],
					"destination" : [ "obj-664", 0 ],
					"order" : 0,
					"source" : [ "obj-621", 0 ]
				}

			}
, 			{
				"patchline" : 				{
					"color" : [ 0.692200303077698, 0.0, 0.051212161779404, 1.0 ],
					"destination" : [ "obj-674", 0 ],
					"order" : 1,
					"source" : [ "obj-621", 0 ]
				}

			}
, 			{
				"patchline" : 				{
					"color" : [ 0.129302591085434, 0.823479175567627, 0.814016103744507, 1.0 ],
					"destination" : [ "obj-663", 0 ],
					"order" : 0,
					"source" : [ "obj-622", 0 ]
				}

			}
, 			{
				"patchline" : 				{
					"color" : [ 0.692200303077698, 0.0, 0.051212161779404, 1.0 ],
					"destination" : [ "obj-673", 0 ],
					"order" : 1,
					"source" : [ "obj-622", 0 ]
				}

			}
, 			{
				"patchline" : 				{
					"destination" : [ "obj-621", 0 ],
					"source" : [ "obj-623", 0 ]
				}

			}
, 			{
				"patchline" : 				{
					"destination" : [ "obj-622", 0 ],
					"source" : [ "obj-624", 0 ]
				}

			}
, 			{
				"patchline" : 				{
					"destination" : [ "obj-689", 0 ],
					"source" : [ "obj-658", 0 ]
				}

			}
, 			{
				"patchline" : 				{
					"color" : [ 0.129302591085434, 0.823479175567627, 0.814016103744507, 1.0 ],
					"destination" : [ "obj-663", 4 ],
					"order" : 0,
					"source" : [ "obj-660", 0 ]
				}

			}
, 			{
				"patchline" : 				{
					"color" : [ 0.129302591085434, 0.823479175567627, 0.814016103744507, 1.0 ],
					"destination" : [ "obj-673", 4 ],
					"order" : 1,
					"source" : [ "obj-660", 0 ]
				}

			}
, 			{
				"patchline" : 				{
					"color" : [ 0.129302591085434, 0.823479175567627, 0.814016103744507, 1.0 ],
					"destination" : [ "obj-695", 1 ],
					"source" : [ "obj-663", 0 ]
				}

			}
, 			{
				"patchline" : 				{
					"color" : [ 0.129302591085434, 0.823479175567627, 0.814016103744507, 1.0 ],
					"destination" : [ "obj-695", 2 ],
					"source" : [ "obj-664", 0 ]
				}

			}
, 			{
				"patchline" : 				{
					"color" : [ 0.692200303077698, 0.0, 0.051212161779404, 1.0 ],
					"destination" : [ "obj-670", 0 ],
					"order" : 2,
					"source" : [ "obj-665", 0 ]
				}

			}
, 			{
				"patchline" : 				{
					"color" : [ 0.692200303077698, 0.0, 0.051212161779404, 1.0 ],
					"destination" : [ "obj-672", 0 ],
					"order" : 0,
					"source" : [ "obj-665", 0 ]
				}

			}
, 			{
				"patchline" : 				{
					"color" : [ 0.692200303077698, 0.0, 0.051212161779404, 1.0 ],
					"destination" : [ "obj-694", 0 ],
					"midpoints" : [ 300.5, 675.542988590181267, 432.5, 675.542988590181267 ],
					"order" : 1,
					"source" : [ "obj-665", 0 ]
				}

			}
, 			{
				"patchline" : 				{
					"color" : [ 0.129302591085434, 0.823479175567627, 0.814016103744507, 1.0 ],
					"destination" : [ "obj-660", 0 ],
					"order" : 1,
					"source" : [ "obj-666", 0 ]
				}

			}
, 			{
				"patchline" : 				{
					"color" : [ 0.129302591085434, 0.823479175567627, 0.814016103744507, 1.0 ],
					"destination" : [ "obj-662", 0 ],
					"order" : 0,
					"source" : [ "obj-666", 0 ]
				}

			}
, 			{
				"patchline" : 				{
					"color" : [ 0.129302591085434, 0.823479175567627, 0.814016103744507, 1.0 ],
					"destination" : [ "obj-695", 0 ],
					"midpoints" : [ 432.5, 567.542988590181267, 505.249998807907104, 567.542988590181267, 505.249998807907104, 621.542988590181267, 589.249998807907104, 621.542988590181267, 589.249998807907104, 671.542988590181267, 621.5, 671.542988590181267 ],
					"order" : 2,
					"source" : [ "obj-666", 0 ]
				}

			}
, 			{
				"patchline" : 				{
					"color" : [ 0.692200303077698, 0.0, 0.051212161779404, 1.0 ],
					"destination" : [ "obj-664", 4 ],
					"order" : 0,
					"source" : [ "obj-672", 0 ]
				}

			}
, 			{
				"patchline" : 				{
					"color" : [ 0.692200303077698, 0.0, 0.051212161779404, 1.0 ],
					"destination" : [ "obj-674", 4 ],
					"order" : 1,
					"source" : [ "obj-672", 0 ]
				}

			}
, 			{
				"patchline" : 				{
					"color" : [ 0.692200303077698, 0.0, 0.051212161779404, 1.0 ],
					"destination" : [ "obj-694", 1 ],
					"source" : [ "obj-673", 0 ]
				}

			}
, 			{
				"patchline" : 				{
					"color" : [ 0.692200303077698, 0.0, 0.051212161779404, 1.0 ],
					"destination" : [ "obj-694", 2 ],
					"source" : [ "obj-674", 0 ]
				}

			}
, 			{
				"patchline" : 				{
					"destination" : [ "obj-589", 0 ],
					"source" : [ "obj-683", 0 ]
				}

			}
, 			{
				"patchline" : 				{
					"destination" : [ "obj-590", 0 ],
					"source" : [ "obj-684", 0 ]
				}

			}
, 			{
				"patchline" : 				{
					"destination" : [ "obj-683", 0 ],
					"order" : 1,
					"source" : [ "obj-689", 0 ]
				}

			}
, 			{
				"patchline" : 				{
					"destination" : [ "obj-697", 0 ],
					"order" : 0,
					"source" : [ "obj-689", 0 ]
				}

			}
, 			{
				"patchline" : 				{
					"destination" : [ "obj-684", 0 ],
					"order" : 0,
					"source" : [ "obj-690", 0 ]
				}

			}
, 			{
				"patchline" : 				{
					"destination" : [ "obj-699", 0 ],
					"order" : 1,
					"source" : [ "obj-690", 0 ]
				}

			}
, 			{
				"patchline" : 				{
					"destination" : [ "obj-658", 0 ],
					"source" : [ "obj-694", 0 ]
				}

			}
, 			{
				"patchline" : 				{
					"destination" : [ "obj-696", 0 ],
					"source" : [ "obj-695", 0 ]
				}

			}
, 			{
				"patchline" : 				{
					"destination" : [ "obj-690", 0 ],
					"source" : [ "obj-696", 0 ]
				}

			}
, 			{
				"patchline" : 				{
					"destination" : [ "obj-666", 0 ],
					"source" : [ "obj-700", 0 ]
				}

			}
, 			{
				"patchline" : 				{
					"destination" : [ "obj-665", 0 ],
					"source" : [ "obj-701", 0 ]
				}

			}
, 			{
				"patchline" : 				{
					"destination" : [ "obj-575", 0 ],
					"source" : [ "obj-703", 0 ]
				}

			}
, 			{
				"patchline" : 				{
					"destination" : [ "obj-518", 0 ],
					"source" : [ "obj-705", 0 ]
				}

			}
, 			{
				"patchline" : 				{
					"destination" : [ "obj-520", 0 ],
					"source" : [ "obj-706", 0 ]
				}

			}
 ],
		"originid" : "pat-488"
	}

}
