{
	"patcher" : 	{
		"fileversion" : 1,
		"appversion" : 		{
			"major" : 9,
			"minor" : 0,
			"revision" : 4,
			"architecture" : "x64",
			"modernui" : 1
		}
,
		"classnamespace" : "rnbo",
		"rect" : [ 84.0, 131.0, 1849.0, 1093.0 ],
		"default_fontname" : "Lato",
		"gridsize" : [ 15.0, 15.0 ],
		"title" : "jb.deadzone",
		"boxes" : [ 			{
				"box" : 				{
					"id" : "obj-14",
					"maxclass" : "newobj",
					"numinlets" : 2,
					"numoutlets" : 1,
					"outlettype" : [ "" ],
					"patching_rect" : [ 858.0, 905.0, 29.5, 23.0 ],
					"rnbo_classname" : "i",
					"rnbo_extra_attributes" : 					{
						"initial" : 0.0
					}
,
					"rnbo_serial" : 8,
					"rnbo_uniqueid" : "i_obj-14",
					"text" : "i"
				}

			}
, 			{
				"box" : 				{
					"id" : "obj-13",
					"maxclass" : "newobj",
					"numinlets" : 2,
					"numoutlets" : 1,
					"outlettype" : [ "" ],
					"patching_rect" : [ 333.0, 898.0, 29.5, 23.0 ],
					"rnbo_classname" : "i",
					"rnbo_extra_attributes" : 					{
						"initial" : 0.0
					}
,
					"rnbo_serial" : 7,
					"rnbo_uniqueid" : "i_obj-13",
					"text" : "i"
				}

			}
, 			{
				"box" : 				{
					"id" : "obj-11",
					"maxclass" : "newobj",
					"numinlets" : 2,
					"numoutlets" : 1,
					"outlettype" : [ "" ],
					"patching_rect" : [ 1023.0, 507.0, 29.5, 23.0 ],
					"rnbo_classname" : "i",
					"rnbo_extra_attributes" : 					{
						"initial" : 0.0
					}
,
					"rnbo_serial" : 5,
					"rnbo_uniqueid" : "i_obj-11",
					"text" : "i"
				}

			}
, 			{
				"box" : 				{
					"id" : "obj-9",
					"maxclass" : "newobj",
					"numinlets" : 3,
					"numoutlets" : 1,
					"outlettype" : [ "" ],
					"patching_rect" : [ 778.0, 541.0, 75.0, 23.0 ],
					"rnbo_classname" : "clip",
					"rnbo_extra_attributes" : 					{
						"hot" : 0
					}
,
					"rnbo_serial" : 8,
					"rnbo_uniqueid" : "clip_obj-9",
					"text" : "clip 0 32767"
				}

			}
, 			{
				"box" : 				{
					"id" : "obj-10",
					"maxclass" : "newobj",
					"numinlets" : 2,
					"numoutlets" : 1,
					"outlettype" : [ "" ],
					"patching_rect" : [ 778.0, 507.0, 29.5, 23.0 ],
					"rnbo_classname" : "i",
					"rnbo_extra_attributes" : 					{
						"initial" : 0.0
					}
,
					"rnbo_serial" : 4,
					"rnbo_uniqueid" : "i_obj-10",
					"text" : "i"
				}

			}
, 			{
				"box" : 				{
					"id" : "obj-7",
					"maxclass" : "newobj",
					"numinlets" : 3,
					"numoutlets" : 1,
					"outlettype" : [ "" ],
					"patching_rect" : [ 276.0, 537.0, 75.0, 23.0 ],
					"rnbo_classname" : "clip",
					"rnbo_extra_attributes" : 					{
						"hot" : 0
					}
,
					"rnbo_serial" : 7,
					"rnbo_uniqueid" : "clip_obj-7",
					"text" : "clip 0 32767"
				}

			}
, 			{
				"box" : 				{
					"id" : "obj-4",
					"maxclass" : "newobj",
					"numinlets" : 2,
					"numoutlets" : 1,
					"outlettype" : [ "" ],
					"patching_rect" : [ 521.0, 507.0, 29.5, 23.0 ],
					"rnbo_classname" : "i",
					"rnbo_extra_attributes" : 					{
						"initial" : 0.0
					}
,
					"rnbo_serial" : 2,
					"rnbo_uniqueid" : "i_obj-4",
					"text" : "i"
				}

			}
, 			{
				"box" : 				{
					"id" : "obj-3",
					"maxclass" : "newobj",
					"numinlets" : 2,
					"numoutlets" : 1,
					"outlettype" : [ "" ],
					"patching_rect" : [ 276.0, 503.0, 29.5, 23.0 ],
					"rnbo_classname" : "i",
					"rnbo_extra_attributes" : 					{
						"initial" : 0.0
					}
,
					"rnbo_serial" : 3,
					"rnbo_uniqueid" : "i_obj-3",
					"text" : "i"
				}

			}
, 			{
				"box" : 				{
					"id" : "obj-342",
					"maxclass" : "newobj",
					"numinlets" : 1,
					"numoutlets" : 3,
					"outlettype" : [ "", "", "" ],
					"patching_rect" : [ 1258.0, 514.0, 61.0, 23.0 ],
					"rnbo_classname" : "change",
					"rnbo_extra_attributes" : 					{
						"mode" : "default"
					}
,
					"rnbo_serial" : 1,
					"rnbo_uniqueid" : "change_obj-342",
					"text" : "change -1"
				}

			}
, 			{
				"box" : 				{
					"id" : "obj-341",
					"maxclass" : "newobj",
					"numinlets" : 1,
					"numoutlets" : 3,
					"outlettype" : [ "", "", "" ],
					"patching_rect" : [ 106.0, 507.0, 61.0, 23.0 ],
					"rnbo_classname" : "change",
					"rnbo_extra_attributes" : 					{
						"mode" : "default"
					}
,
					"rnbo_serial" : 2,
					"rnbo_uniqueid" : "change_obj-341",
					"text" : "change -1"
				}

			}
, 			{
				"box" : 				{
					"color" : [ 0.454901960784314, 0.0, 1.0, 1.0 ],
					"fontsize" : 12.0,
					"id" : "obj-339",
					"maxclass" : "newobj",
					"numinlets" : 1,
					"numoutlets" : 0,
					"patching_rect" : [ 106.0, 541.0, 111.0, 23.0 ],
					"rnbo_classname" : "s",
					"rnbo_serial" : 1,
					"rnbo_uniqueid" : "s_obj-339",
					"text" : "s #1H_in_deadzone"
				}

			}
, 			{
				"box" : 				{
					"id" : "obj-334",
					"maxclass" : "newobj",
					"numinlets" : 2,
					"numoutlets" : 1,
					"outlettype" : [ "" ],
					"patching_rect" : [ 106.0, 474.0, 66.0, 23.0 ],
					"rnbo_classname" : "&&",
					"rnbo_serial" : 1,
					"rnbo_uniqueid" : "&&_obj-334",
					"text" : "&& @hot 1"
				}

			}
, 			{
				"box" : 				{
					"id" : "obj-333",
					"maxclass" : "newobj",
					"numinlets" : 2,
					"numoutlets" : 1,
					"outlettype" : [ "" ],
					"patching_rect" : [ 1258.0, 481.0, 66.0, 23.0 ],
					"rnbo_classname" : "&&",
					"rnbo_serial" : 2,
					"rnbo_uniqueid" : "&&_obj-333",
					"text" : "&& @hot 1"
				}

			}
, 			{
				"box" : 				{
					"id" : "obj-330",
					"maxclass" : "newobj",
					"numinlets" : 2,
					"numoutlets" : 1,
					"outlettype" : [ "" ],
					"patching_rect" : [ 1249.0, 435.0, 56.0, 23.0 ],
					"rnbo_classname" : "<",
					"rnbo_serial" : 1,
					"rnbo_uniqueid" : "<_obj-330",
					"text" : "< @hot 1"
				}

			}
, 			{
				"box" : 				{
					"id" : "obj-332",
					"maxclass" : "newobj",
					"numinlets" : 2,
					"numoutlets" : 1,
					"outlettype" : [ "" ],
					"patching_rect" : [ 1315.0, 435.0, 56.0, 23.0 ],
					"rnbo_classname" : ">",
					"rnbo_serial" : 1,
					"rnbo_uniqueid" : ">_obj-332",
					"text" : "> @hot 1"
				}

			}
, 			{
				"box" : 				{
					"id" : "obj-329",
					"maxclass" : "newobj",
					"numinlets" : 2,
					"numoutlets" : 1,
					"outlettype" : [ "" ],
					"patching_rect" : [ 97.0, 427.0, 56.0, 23.0 ],
					"rnbo_classname" : "<",
					"rnbo_serial" : 2,
					"rnbo_uniqueid" : "<_obj-329",
					"text" : "< @hot 1"
				}

			}
, 			{
				"box" : 				{
					"id" : "obj-328",
					"maxclass" : "newobj",
					"numinlets" : 2,
					"numoutlets" : 1,
					"outlettype" : [ "" ],
					"patching_rect" : [ 163.0, 427.0, 56.0, 23.0 ],
					"rnbo_classname" : ">",
					"rnbo_serial" : 2,
					"rnbo_uniqueid" : ">_obj-328",
					"text" : "> @hot 1"
				}

			}
, 			{
				"box" : 				{
					"id" : "obj-327",
					"maxclass" : "newobj",
					"numinlets" : 1,
					"numoutlets" : 3,
					"outlettype" : [ "", "", "" ],
					"patching_rect" : [ 333.0, 934.0, 61.0, 23.0 ],
					"rnbo_classname" : "change",
					"rnbo_extra_attributes" : 					{
						"mode" : "default"
					}
,
					"rnbo_serial" : 3,
					"rnbo_uniqueid" : "change_obj-327",
					"text" : "change -1"
				}

			}
, 			{
				"box" : 				{
					"id" : "obj-324",
					"maxclass" : "newobj",
					"numinlets" : 1,
					"numoutlets" : 3,
					"outlettype" : [ "", "", "" ],
					"patching_rect" : [ 858.0, 934.0, 61.0, 23.0 ],
					"rnbo_classname" : "change",
					"rnbo_extra_attributes" : 					{
						"mode" : "default"
					}
,
					"rnbo_serial" : 4,
					"rnbo_uniqueid" : "change_obj-324",
					"text" : "change -1"
				}

			}
, 			{
				"box" : 				{
					"id" : "obj-322",
					"maxclass" : "newobj",
					"numinlets" : 1,
					"numoutlets" : 1,
					"outlettype" : [ "" ],
					"patching_rect" : [ 597.0, 765.0, 74.0, 23.0 ],
					"rnbo_classname" : "loadmess",
					"rnbo_serial" : 1,
					"rnbo_uniqueid" : "loadmess_obj-322",
					"rnboinfo" : 					{
						"needsInstanceInfo" : 1,
						"argnames" : 						{
							"input" : 							{
								"attrOrProp" : 1,
								"digest" : "Bang to trigger message.",
								"isalias" : 0,
								"aliases" : [  ],
								"settable" : 0,
								"attachable" : 0,
								"isparam" : 0,
								"deprecated" : 0,
								"inlet" : 1,
								"type" : "bang"
							}
,
							"message" : 							{
								"attrOrProp" : 1,
								"digest" : "Message when patcher is loaded.",
								"defaultarg" : 1,
								"isalias" : 0,
								"aliases" : [  ],
								"settable" : 1,
								"attachable" : 0,
								"isparam" : 0,
								"deprecated" : 0,
								"outlet" : 1,
								"type" : "list",
								"defaultValue" : ""
							}
,
							"startupbang" : 							{
								"attrOrProp" : 1,
								"digest" : "startupbang",
								"isalias" : 0,
								"aliases" : [  ],
								"attachable" : 0,
								"isparam" : 0,
								"deprecated" : 0,
								"type" : "bang"
							}

						}
,
						"inputs" : [ 							{
								"name" : "input",
								"type" : "bang",
								"digest" : "Bang to trigger message.",
								"hot" : 1,
								"docked" : 0
							}
 ],
						"outputs" : [ 							{
								"name" : "message",
								"type" : "list",
								"digest" : "Message when patcher is loaded.",
								"defaultarg" : 1,
								"docked" : 0
							}
 ],
						"helpname" : "loadmess",
						"aliasOf" : "loadmess",
						"classname" : "loadmess",
						"operator" : 0,
						"versionId" : -361086158,
						"changesPatcherIO" : 0
					}
,
					"text" : "loadmess 12"
				}

			}
, 			{
				"box" : 				{
					"id" : "obj-293",
					"maxclass" : "newobj",
					"numinlets" : 2,
					"numoutlets" : 1,
					"outlettype" : [ "" ],
					"patching_rect" : [ 597.0, 840.0, 41.0, 23.0 ],
					"rnbo_classname" : "!/",
					"rnbo_extra_attributes" : 					{
						"hot" : 0
					}
,
					"rnbo_serial" : 1,
					"rnbo_uniqueid" : "!/_obj-293",
					"text" : "!/ 100"
				}

			}
, 			{
				"box" : 				{
					"id" : "obj-291",
					"linecount" : 2,
					"maxclass" : "comment",
					"numinlets" : 1,
					"numoutlets" : 0,
					"patching_rect" : [ 651.0, 797.0, 94.0, 35.0 ],
					"text" : "deadzone reach percentage"
				}

			}
, 			{
				"box" : 				{
					"format" : 0,
					"id" : "obj-292",
					"maxclass" : "number",
					"numinlets" : 1,
					"numoutlets" : 1,
					"outlettype" : [ "" ],
					"parameter_enable" : 0,
					"patching_rect" : [ 597.0, 803.0, 50.0, 23.0 ],
					"rnbo_classname" : "number",
					"rnbo_extra_attributes" : 					{
						"minimum" : "<none>",
						"maximum" : "<none>",
						"initialFormat" : "integer",
						"order" : "",
						"preset" : 0
					}
,
					"rnbo_serial" : 1,
					"rnbo_uniqueid" : "number_obj-292"
				}

			}
, 			{
				"box" : 				{
					"id" : "obj-290",
					"maxclass" : "newobj",
					"numinlets" : 2,
					"numoutlets" : 1,
					"outlettype" : [ "" ],
					"patching_rect" : [ 333.0, 821.0, 29.5, 23.0 ],
					"rnbo_classname" : "*",
					"rnbo_extra_attributes" : 					{
						"hot" : 0
					}
,
					"rnbo_serial" : 1,
					"rnbo_uniqueid" : "*_obj-290",
					"text" : "* 1."
				}

			}
, 			{
				"box" : 				{
					"id" : "obj-289",
					"maxclass" : "newobj",
					"numinlets" : 2,
					"numoutlets" : 1,
					"outlettype" : [ "" ],
					"patching_rect" : [ 858.0, 833.0, 29.5, 23.0 ],
					"rnbo_classname" : "*",
					"rnbo_extra_attributes" : 					{
						"hot" : 0
					}
,
					"rnbo_serial" : 2,
					"rnbo_uniqueid" : "*_obj-289",
					"text" : "* 1"
				}

			}
, 			{
				"box" : 				{
					"id" : "obj-288",
					"maxclass" : "newobj",
					"numinlets" : 3,
					"numoutlets" : 1,
					"outlettype" : [ "" ],
					"patching_rect" : [ 333.0, 861.0, 47.0, 23.0 ],
					"rnbo_classname" : "clip",
					"rnbo_extra_attributes" : 					{
						"hot" : 0
					}
,
					"rnbo_serial" : 1,
					"rnbo_uniqueid" : "clip_obj-288",
					"text" : "clip 0 1"
				}

			}
, 			{
				"box" : 				{
					"id" : "obj-286",
					"maxclass" : "newobj",
					"numinlets" : 3,
					"numoutlets" : 1,
					"outlettype" : [ "" ],
					"patching_rect" : [ 858.0, 873.0, 47.0, 23.0 ],
					"rnbo_classname" : "clip",
					"rnbo_extra_attributes" : 					{
						"hot" : 0
					}
,
					"rnbo_serial" : 2,
					"rnbo_uniqueid" : "clip_obj-286",
					"text" : "clip 0 1"
				}

			}
, 			{
				"box" : 				{
					"id" : "obj-285",
					"maxclass" : "newobj",
					"numinlets" : 2,
					"numoutlets" : 1,
					"outlettype" : [ "" ],
					"patching_rect" : [ 853.0, 219.0, 54.0, 23.0 ],
					"rnbo_classname" : "-",
					"rnbo_serial" : 1,
					"rnbo_uniqueid" : "-_obj-285",
					"text" : "- @hot 1"
				}

			}
, 			{
				"box" : 				{
					"id" : "obj-284",
					"maxclass" : "newobj",
					"numinlets" : 2,
					"numoutlets" : 1,
					"outlettype" : [ "" ],
					"patching_rect" : [ 518.0, 215.0, 54.0, 23.0 ],
					"rnbo_classname" : "-",
					"rnbo_serial" : 2,
					"rnbo_uniqueid" : "-_obj-284",
					"text" : "- @hot 1"
				}

			}
, 			{
				"box" : 				{
					"format" : 0,
					"id" : "obj-283",
					"maxclass" : "number",
					"numinlets" : 1,
					"numoutlets" : 1,
					"outlettype" : [ "" ],
					"parameter_enable" : 0,
					"patching_rect" : [ 853.0, 253.0, 50.0, 23.0 ],
					"rnbo_classname" : "number",
					"rnbo_extra_attributes" : 					{
						"minimum" : "<none>",
						"maximum" : "<none>",
						"initialFormat" : "integer",
						"order" : "",
						"preset" : 0
					}
,
					"rnbo_serial" : 2,
					"rnbo_uniqueid" : "number_obj-283"
				}

			}
, 			{
				"box" : 				{
					"format" : 0,
					"id" : "obj-282",
					"maxclass" : "number",
					"numinlets" : 1,
					"numoutlets" : 1,
					"outlettype" : [ "" ],
					"parameter_enable" : 0,
					"patching_rect" : [ 518.0, 249.0, 50.0, 23.0 ],
					"rnbo_classname" : "number",
					"rnbo_extra_attributes" : 					{
						"minimum" : "<none>",
						"maximum" : "<none>",
						"initialFormat" : "integer",
						"order" : "",
						"preset" : 0
					}
,
					"rnbo_serial" : 3,
					"rnbo_uniqueid" : "number_obj-282"
				}

			}
, 			{
				"box" : 				{
					"id" : "obj-279",
					"linecount" : 2,
					"maxclass" : "comment",
					"numinlets" : 1,
					"numoutlets" : 0,
					"patching_rect" : [ 385.0, 773.0, 127.0, 35.0 ],
					"text" : "distance from horizontal deadzone"
				}

			}
, 			{
				"box" : 				{
					"format" : 0,
					"id" : "obj-280",
					"maxclass" : "number",
					"numinlets" : 1,
					"numoutlets" : 1,
					"outlettype" : [ "" ],
					"parameter_enable" : 0,
					"patching_rect" : [ 333.0, 779.0, 50.0, 23.0 ],
					"rnbo_classname" : "number",
					"rnbo_extra_attributes" : 					{
						"minimum" : "<none>",
						"maximum" : "<none>",
						"initialFormat" : "integer",
						"order" : "",
						"preset" : 0
					}
,
					"rnbo_serial" : 4,
					"rnbo_uniqueid" : "number_obj-280"
				}

			}
, 			{
				"box" : 				{
					"id" : "obj-277",
					"maxclass" : "newobj",
					"numinlets" : 6,
					"numoutlets" : 1,
					"outlettype" : [ "" ],
					"patching_rect" : [ 524.0, 659.0, 130.0, 23.0 ],
					"rnbo_classname" : "scale",
					"rnbo_serial" : 1,
					"rnbo_uniqueid" : "scale_obj-277",
					"text" : "scale 32768 65536 0 0"
				}

			}
, 			{
				"box" : 				{
					"id" : "obj-278",
					"maxclass" : "newobj",
					"numinlets" : 6,
					"numoutlets" : 1,
					"outlettype" : [ "" ],
					"patching_rect" : [ 194.0, 659.0, 103.0, 23.0 ],
					"rnbo_classname" : "scale",
					"rnbo_serial" : 2,
					"rnbo_uniqueid" : "scale_obj-278",
					"text" : "scale 0 32768 0 0"
				}

			}
, 			{
				"box" : 				{
					"id" : "obj-276",
					"linecount" : 2,
					"maxclass" : "comment",
					"numinlets" : 1,
					"numoutlets" : 0,
					"patching_rect" : [ 911.0, 784.0, 104.0, 35.0 ],
					"text" : "distance from vertical deadzone"
				}

			}
, 			{
				"box" : 				{
					"id" : "obj-274",
					"maxclass" : "newobj",
					"numinlets" : 6,
					"numoutlets" : 1,
					"outlettype" : [ "" ],
					"patching_rect" : [ 1065.0, 633.0, 130.0, 23.0 ],
					"rnbo_classname" : "scale",
					"rnbo_serial" : 3,
					"rnbo_uniqueid" : "scale_obj-274",
					"text" : "scale 32768 65536 0 0"
				}

			}
, 			{
				"box" : 				{
					"format" : 0,
					"id" : "obj-273",
					"maxclass" : "number",
					"numinlets" : 1,
					"numoutlets" : 1,
					"outlettype" : [ "" ],
					"parameter_enable" : 0,
					"patching_rect" : [ 858.0, 790.0, 50.0, 23.0 ],
					"rnbo_classname" : "number",
					"rnbo_extra_attributes" : 					{
						"minimum" : "<none>",
						"maximum" : "<none>",
						"initialFormat" : "integer",
						"order" : "",
						"preset" : 0
					}
,
					"rnbo_serial" : 5,
					"rnbo_uniqueid" : "number_obj-273"
				}

			}
, 			{
				"box" : 				{
					"id" : "obj-271",
					"maxclass" : "newobj",
					"numinlets" : 6,
					"numoutlets" : 1,
					"outlettype" : [ "" ],
					"patching_rect" : [ 708.0, 633.0, 103.0, 23.0 ],
					"rnbo_classname" : "scale",
					"rnbo_serial" : 4,
					"rnbo_uniqueid" : "scale_obj-271",
					"text" : "scale 0 32768 0 0"
				}

			}
, 			{
				"box" : 				{
					"id" : "obj-269",
					"maxclass" : "newobj",
					"numinlets" : 2,
					"numoutlets" : 1,
					"outlettype" : [ "" ],
					"patching_rect" : [ 894.0, 304.0, 53.0, 23.0 ],
					"rnbo_classname" : "+",
					"rnbo_extra_attributes" : 					{
						"hot" : 0
					}
,
					"rnbo_serial" : 1,
					"rnbo_uniqueid" : "+_obj-269",
					"text" : "+ 32768"
				}

			}
, 			{
				"box" : 				{
					"id" : "obj-270",
					"maxclass" : "newobj",
					"numinlets" : 2,
					"numoutlets" : 1,
					"outlettype" : [ "" ],
					"patching_rect" : [ 817.0, 304.0, 54.0, 23.0 ],
					"rnbo_classname" : "!-",
					"rnbo_extra_attributes" : 					{
						"hot" : 0
					}
,
					"rnbo_serial" : 1,
					"rnbo_uniqueid" : "!-_obj-270",
					"text" : "!- 32768"
				}

			}
, 			{
				"box" : 				{
					"color" : [ 0.454901960784314, 0.0, 1.0, 1.0 ],
					"id" : "obj-267",
					"maxclass" : "newobj",
					"numinlets" : 1,
					"numoutlets" : 0,
					"patching_rect" : [ 894.0, 651.0, 123.0, 23.0 ],
					"rnbo_classname" : "s",
					"rnbo_serial" : 2,
					"rnbo_uniqueid" : "s_obj-267",
					"text" : "s #1V_post-deadzone"
				}

			}
, 			{
				"box" : 				{
					"color" : [ 0.454901960784314, 0.0, 1.0, 1.0 ],
					"id" : "obj-268",
					"maxclass" : "newobj",
					"numinlets" : 1,
					"numoutlets" : 0,
					"patching_rect" : [ 356.0, 648.0, 124.0, 23.0 ],
					"rnbo_classname" : "s",
					"rnbo_serial" : 3,
					"rnbo_uniqueid" : "s_obj-268",
					"text" : "s #1H_post-deadzone"
				}

			}
, 			{
				"box" : 				{
					"id" : "obj-265",
					"maxclass" : "newobj",
					"numinlets" : 3,
					"numoutlets" : 1,
					"outlettype" : [ "" ],
					"patching_rect" : [ 1023.0, 427.0, 75.0, 23.0 ],
					"rnbo_classname" : "clip",
					"rnbo_extra_attributes" : 					{
						"hot" : 0
					}
,
					"rnbo_serial" : 3,
					"rnbo_uniqueid" : "clip_obj-265",
					"text" : "clip 0 65536"
				}

			}
, 			{
				"box" : 				{
					"id" : "obj-266",
					"maxclass" : "newobj",
					"numinlets" : 3,
					"numoutlets" : 1,
					"outlettype" : [ "" ],
					"patching_rect" : [ 778.0, 427.0, 40.0, 23.0 ],
					"rnbo_classname" : "clip",
					"rnbo_extra_attributes" : 					{
						"hot" : 0
					}
,
					"rnbo_serial" : 4,
					"rnbo_uniqueid" : "clip_obj-266",
					"text" : "clip 0"
				}

			}
, 			{
				"box" : 				{
					"id" : "obj-264",
					"maxclass" : "newobj",
					"numinlets" : 1,
					"numoutlets" : 3,
					"outlettype" : [ "", "", "" ],
					"patching_rect" : [ 778.0, 571.0, 61.0, 23.0 ],
					"rnbo_classname" : "change",
					"rnbo_extra_attributes" : 					{
						"mode" : "default"
					}
,
					"rnbo_serial" : 5,
					"rnbo_uniqueid" : "change_obj-264",
					"text" : "change -1"
				}

			}
, 			{
				"box" : 				{
					"id" : "obj-263",
					"maxclass" : "newobj",
					"numinlets" : 1,
					"numoutlets" : 1,
					"outlettype" : [ "" ],
					"patching_rect" : [ 678.0, 108.0, 95.0, 23.0 ],
					"rnbo_classname" : "loadmess",
					"rnbo_serial" : 2,
					"rnbo_uniqueid" : "loadmess_obj-263",
					"rnboinfo" : 					{
						"needsInstanceInfo" : 1,
						"argnames" : 						{
							"input" : 							{
								"attrOrProp" : 1,
								"digest" : "Bang to trigger message.",
								"isalias" : 0,
								"aliases" : [  ],
								"settable" : 0,
								"attachable" : 0,
								"isparam" : 0,
								"deprecated" : 0,
								"inlet" : 1,
								"type" : "bang"
							}
,
							"message" : 							{
								"attrOrProp" : 1,
								"digest" : "Message when patcher is loaded.",
								"defaultarg" : 1,
								"isalias" : 0,
								"aliases" : [  ],
								"settable" : 1,
								"attachable" : 0,
								"isparam" : 0,
								"deprecated" : 0,
								"outlet" : 1,
								"type" : "list",
								"defaultValue" : ""
							}
,
							"startupbang" : 							{
								"attrOrProp" : 1,
								"digest" : "startupbang",
								"isalias" : 0,
								"aliases" : [  ],
								"attachable" : 0,
								"isparam" : 0,
								"deprecated" : 0,
								"type" : "bang"
							}

						}
,
						"inputs" : [ 							{
								"name" : "input",
								"type" : "bang",
								"digest" : "Bang to trigger message.",
								"hot" : 1,
								"docked" : 0
							}
 ],
						"outputs" : [ 							{
								"name" : "message",
								"type" : "list",
								"digest" : "Message when patcher is loaded.",
								"defaultarg" : 1,
								"docked" : 0
							}
 ],
						"helpname" : "loadmess",
						"aliasOf" : "loadmess",
						"classname" : "loadmess",
						"operator" : 0,
						"versionId" : -361086158,
						"changesPatcherIO" : 0
					}
,
					"text" : "loadmess 10000"
				}

			}
, 			{
				"box" : 				{
					"id" : "obj-261",
					"maxclass" : "newobj",
					"numinlets" : 1,
					"numoutlets" : 3,
					"outlettype" : [ "", "", "" ],
					"patching_rect" : [ 521.0, 571.0, 61.0, 23.0 ],
					"rnbo_classname" : "change",
					"rnbo_extra_attributes" : 					{
						"mode" : "default"
					}
,
					"rnbo_serial" : 6,
					"rnbo_uniqueid" : "change_obj-261",
					"text" : "change -1"
				}

			}
, 			{
				"box" : 				{
					"id" : "obj-247",
					"maxclass" : "newobj",
					"numinlets" : 2,
					"numoutlets" : 1,
					"outlettype" : [ "" ],
					"patching_rect" : [ 554.0, 300.0, 53.0, 23.0 ],
					"rnbo_classname" : "+",
					"rnbo_extra_attributes" : 					{
						"hot" : 0
					}
,
					"rnbo_serial" : 2,
					"rnbo_uniqueid" : "+_obj-247",
					"text" : "+ 32768"
				}

			}
, 			{
				"box" : 				{
					"id" : "obj-246",
					"maxclass" : "comment",
					"numinlets" : 1,
					"numoutlets" : 0,
					"patching_rect" : [ 733.0, 150.0, 86.0, 21.0 ],
					"text" : "deadzone size"
				}

			}
, 			{
				"box" : 				{
					"format" : 0,
					"id" : "obj-244",
					"maxclass" : "number",
					"numinlets" : 1,
					"numoutlets" : 1,
					"outlettype" : [ "" ],
					"parameter_enable" : 0,
					"patching_rect" : [ 678.0, 149.0, 50.0, 23.0 ],
					"rnbo_classname" : "number",
					"rnbo_extra_attributes" : 					{
						"minimum" : "<none>",
						"maximum" : "<none>",
						"initialFormat" : "integer",
						"order" : "",
						"preset" : 0
					}
,
					"rnbo_serial" : 6,
					"rnbo_uniqueid" : "number_obj-244"
				}

			}
, 			{
				"box" : 				{
					"id" : "obj-242",
					"maxclass" : "newobj",
					"numinlets" : 2,
					"numoutlets" : 1,
					"outlettype" : [ "" ],
					"patching_rect" : [ 477.0, 300.0, 54.0, 23.0 ],
					"rnbo_classname" : "!-",
					"rnbo_extra_attributes" : 					{
						"hot" : 0
					}
,
					"rnbo_serial" : 2,
					"rnbo_uniqueid" : "!-_obj-242",
					"text" : "!- 32768"
				}

			}
, 			{
				"box" : 				{
					"id" : "obj-241",
					"maxclass" : "newobj",
					"numinlets" : 3,
					"numoutlets" : 1,
					"outlettype" : [ "" ],
					"patching_rect" : [ 521.0, 427.0, 75.0, 23.0 ],
					"rnbo_classname" : "clip",
					"rnbo_extra_attributes" : 					{
						"hot" : 0
					}
,
					"rnbo_serial" : 5,
					"rnbo_uniqueid" : "clip_obj-241",
					"text" : "clip 0 65536"
				}

			}
, 			{
				"box" : 				{
					"id" : "obj-240",
					"maxclass" : "newobj",
					"numinlets" : 3,
					"numoutlets" : 1,
					"outlettype" : [ "" ],
					"patching_rect" : [ 276.0, 439.0, 40.0, 23.0 ],
					"rnbo_classname" : "clip",
					"rnbo_extra_attributes" : 					{
						"hot" : 0
					}
,
					"rnbo_serial" : 6,
					"rnbo_uniqueid" : "clip_obj-240",
					"text" : "clip 0"
				}

			}
, 			{
				"box" : 				{
					"format" : 0,
					"id" : "obj-232",
					"maxclass" : "number",
					"numinlets" : 1,
					"numoutlets" : 1,
					"outlettype" : [ "" ],
					"parameter_enable" : 0,
					"patching_rect" : [ 356.0, 610.0, 50.0, 23.0 ],
					"rnbo_classname" : "number",
					"rnbo_extra_attributes" : 					{
						"minimum" : "<none>",
						"maximum" : "<none>",
						"initialFormat" : "integer",
						"order" : "",
						"preset" : 0
					}
,
					"rnbo_serial" : 7,
					"rnbo_uniqueid" : "number_obj-232"
				}

			}
, 			{
				"box" : 				{
					"id" : "obj-231",
					"maxclass" : "newobj",
					"numinlets" : 1,
					"numoutlets" : 3,
					"outlettype" : [ "", "", "" ],
					"patching_rect" : [ 276.0, 571.0, 61.0, 23.0 ],
					"rnbo_classname" : "change",
					"rnbo_extra_attributes" : 					{
						"mode" : "default"
					}
,
					"rnbo_serial" : 7,
					"rnbo_uniqueid" : "change_obj-231",
					"text" : "change -1"
				}

			}
, 			{
				"box" : 				{
					"id" : "obj-229",
					"maxclass" : "newobj",
					"numinlets" : 1,
					"numoutlets" : 3,
					"outlettype" : [ "", "", "" ],
					"patching_rect" : [ 1023.0, 559.0, 61.0, 23.0 ],
					"rnbo_classname" : "change",
					"rnbo_extra_attributes" : 					{
						"mode" : "default"
					}
,
					"rnbo_serial" : 8,
					"rnbo_uniqueid" : "change_obj-229",
					"text" : "change -1"
				}

			}
, 			{
				"box" : 				{
					"format" : 0,
					"id" : "obj-227",
					"maxclass" : "number",
					"numinlets" : 1,
					"numoutlets" : 1,
					"outlettype" : [ "" ],
					"parameter_enable" : 0,
					"patching_rect" : [ 894.0, 613.0, 50.0, 23.0 ],
					"rnbo_classname" : "number",
					"rnbo_extra_attributes" : 					{
						"minimum" : "<none>",
						"maximum" : "<none>",
						"initialFormat" : "integer",
						"order" : "",
						"preset" : 0
					}
,
					"rnbo_serial" : 8,
					"rnbo_uniqueid" : "number_obj-227"
				}

			}
, 			{
				"box" : 				{
					"id" : "obj-218",
					"maxclass" : "comment",
					"numinlets" : 1,
					"numoutlets" : 0,
					"patching_rect" : [ 742.0, 475.0, 34.0, 21.0 ],
					"text" : "up"
				}

			}
, 			{
				"box" : 				{
					"id" : "obj-219",
					"maxclass" : "comment",
					"numinlets" : 1,
					"numoutlets" : 0,
					"patching_rect" : [ 982.0, 475.0, 39.0, 21.0 ],
					"text" : "down"
				}

			}
, 			{
				"box" : 				{
					"id" : "obj-220",
					"maxclass" : "newobj",
					"numinlets" : 6,
					"numoutlets" : 1,
					"outlettype" : [ "" ],
					"patching_rect" : [ 1023.0, 474.0, 186.0, 23.0 ],
					"rnbo_classname" : "scale",
					"rnbo_serial" : 5,
					"rnbo_uniqueid" : "scale_obj-220",
					"text" : "scale 32768 65536 32768 65536"
				}

			}
, 			{
				"box" : 				{
					"id" : "obj-221",
					"maxclass" : "comment",
					"numinlets" : 1,
					"numoutlets" : 0,
					"patching_rect" : [ 1106.0, 381.0, 121.0, 21.0 ],
					"text" : "deadzone upper limit"
				}

			}
, 			{
				"box" : 				{
					"format" : 0,
					"id" : "obj-222",
					"maxclass" : "number",
					"numinlets" : 1,
					"numoutlets" : 1,
					"outlettype" : [ "" ],
					"parameter_enable" : 0,
					"patching_rect" : [ 1056.0, 380.0, 50.0, 23.0 ],
					"rnbo_classname" : "number",
					"rnbo_extra_attributes" : 					{
						"minimum" : "<none>",
						"maximum" : "<none>",
						"initialFormat" : "integer",
						"order" : "",
						"preset" : 0
					}
,
					"rnbo_serial" : 9,
					"rnbo_uniqueid" : "number_obj-222"
				}

			}
, 			{
				"box" : 				{
					"id" : "obj-223",
					"maxclass" : "comment",
					"numinlets" : 1,
					"numoutlets" : 0,
					"patching_rect" : [ 872.0, 381.0, 121.0, 21.0 ],
					"text" : "deadzone lower limit"
				}

			}
, 			{
				"box" : 				{
					"format" : 0,
					"id" : "obj-224",
					"maxclass" : "number",
					"numinlets" : 1,
					"numoutlets" : 1,
					"outlettype" : [ "" ],
					"parameter_enable" : 0,
					"patching_rect" : [ 822.0, 380.0, 50.0, 23.0 ],
					"rnbo_classname" : "number",
					"rnbo_extra_attributes" : 					{
						"minimum" : "<none>",
						"maximum" : "<none>",
						"initialFormat" : "integer",
						"order" : "",
						"preset" : 0
					}
,
					"rnbo_serial" : 10,
					"rnbo_uniqueid" : "number_obj-224"
				}

			}
, 			{
				"box" : 				{
					"id" : "obj-225",
					"maxclass" : "newobj",
					"numinlets" : 6,
					"numoutlets" : 1,
					"outlettype" : [ "" ],
					"patching_rect" : [ 778.0, 474.0, 130.0, 23.0 ],
					"rnbo_classname" : "scale",
					"rnbo_serial" : 6,
					"rnbo_uniqueid" : "scale_obj-225",
					"text" : "scale 0 32768 0 32768"
				}

			}
, 			{
				"box" : 				{
					"id" : "obj-210",
					"maxclass" : "comment",
					"numinlets" : 1,
					"numoutlets" : 0,
					"patching_rect" : [ 240.0, 475.0, 34.0, 21.0 ],
					"text" : "left"
				}

			}
, 			{
				"box" : 				{
					"id" : "obj-208",
					"maxclass" : "comment",
					"numinlets" : 1,
					"numoutlets" : 0,
					"patching_rect" : [ 485.0, 475.0, 34.0, 21.0 ],
					"text" : "right"
				}

			}
, 			{
				"box" : 				{
					"id" : "obj-206",
					"maxclass" : "newobj",
					"numinlets" : 6,
					"numoutlets" : 1,
					"outlettype" : [ "" ],
					"patching_rect" : [ 521.0, 474.0, 186.0, 23.0 ],
					"rnbo_classname" : "scale",
					"rnbo_serial" : 7,
					"rnbo_uniqueid" : "scale_obj-206",
					"text" : "scale 32768 65536 32768 65536"
				}

			}
, 			{
				"box" : 				{
					"id" : "obj-204",
					"maxclass" : "comment",
					"numinlets" : 1,
					"numoutlets" : 0,
					"patching_rect" : [ 604.0, 381.0, 121.0, 21.0 ],
					"text" : "deadzone upper limit"
				}

			}
, 			{
				"box" : 				{
					"format" : 0,
					"id" : "obj-205",
					"maxclass" : "number",
					"numinlets" : 1,
					"numoutlets" : 1,
					"outlettype" : [ "" ],
					"parameter_enable" : 0,
					"patching_rect" : [ 554.0, 380.0, 50.0, 23.0 ],
					"rnbo_classname" : "number",
					"rnbo_extra_attributes" : 					{
						"minimum" : "<none>",
						"maximum" : "<none>",
						"initialFormat" : "integer",
						"order" : "",
						"preset" : 0
					}
,
					"rnbo_serial" : 11,
					"rnbo_uniqueid" : "number_obj-205"
				}

			}
, 			{
				"box" : 				{
					"id" : "obj-203",
					"maxclass" : "comment",
					"numinlets" : 1,
					"numoutlets" : 0,
					"patching_rect" : [ 370.399999999999977, 358.0, 121.0, 21.0 ],
					"text" : "deadzone lower limit"
				}

			}
, 			{
				"box" : 				{
					"format" : 0,
					"id" : "obj-201",
					"maxclass" : "number",
					"numinlets" : 1,
					"numoutlets" : 1,
					"outlettype" : [ "" ],
					"parameter_enable" : 0,
					"patching_rect" : [ 320.399999999999977, 357.0, 50.0, 23.0 ],
					"rnbo_classname" : "number",
					"rnbo_extra_attributes" : 					{
						"minimum" : "<none>",
						"maximum" : "<none>",
						"initialFormat" : "integer",
						"order" : "",
						"preset" : 0
					}
,
					"rnbo_serial" : 12,
					"rnbo_uniqueid" : "number_obj-201"
				}

			}
, 			{
				"box" : 				{
					"id" : "obj-197",
					"maxclass" : "newobj",
					"numinlets" : 6,
					"numoutlets" : 1,
					"outlettype" : [ "" ],
					"patching_rect" : [ 276.0, 474.0, 130.0, 23.0 ],
					"rnbo_classname" : "scale",
					"rnbo_serial" : 8,
					"rnbo_uniqueid" : "scale_obj-197",
					"text" : "scale 0 32768 0 32768"
				}

			}
, 			{
				"box" : 				{
					"color" : [ 0.454901960784314, 0.0, 1.0, 1.0 ],
					"id" : "obj-195",
					"maxclass" : "newobj",
					"numinlets" : 0,
					"numoutlets" : 1,
					"outlettype" : [ "" ],
					"patching_rect" : [ 953.0, 149.0, 112.0, 23.0 ],
					"rnbo_classname" : "r",
					"rnbo_serial" : 1,
					"rnbo_uniqueid" : "r_obj-195",
					"text" : "r #1V_predeadzone"
				}

			}
, 			{
				"box" : 				{
					"color" : [ 0.454901960784314, 0.0, 1.0, 1.0 ],
					"id" : "obj-196",
					"maxclass" : "newobj",
					"numinlets" : 0,
					"numoutlets" : 1,
					"outlettype" : [ "" ],
					"patching_rect" : [ 357.0, 149.0, 113.0, 23.0 ],
					"rnbo_classname" : "r",
					"rnbo_serial" : 2,
					"rnbo_uniqueid" : "r_obj-196",
					"text" : "r #1H_predeadzone"
				}

			}
, 			{
				"box" : 				{
					"color" : [ 0.454901960784314, 0.0, 1.0, 1.0 ],
					"fontsize" : 12.0,
					"id" : "obj-199",
					"maxclass" : "newobj",
					"numinlets" : 1,
					"numoutlets" : 0,
					"patching_rect" : [ 1258.0, 546.0, 110.0, 23.0 ],
					"rnbo_classname" : "s",
					"rnbo_serial" : 4,
					"rnbo_uniqueid" : "s_obj-199",
					"text" : "s #1V_in_deadzone"
				}

			}
 ],
		"lines" : [ 			{
				"patchline" : 				{
					"destination" : [ "obj-9", 0 ],
					"source" : [ "obj-10", 0 ]
				}

			}
, 			{
				"patchline" : 				{
					"destination" : [ "obj-229", 0 ],
					"source" : [ "obj-11", 0 ]
				}

			}
, 			{
				"patchline" : 				{
					"destination" : [ "obj-327", 0 ],
					"source" : [ "obj-13", 0 ]
				}

			}
, 			{
				"patchline" : 				{
					"destination" : [ "obj-324", 0 ],
					"source" : [ "obj-14", 0 ]
				}

			}
, 			{
				"patchline" : 				{
					"destination" : [ "obj-265", 0 ],
					"midpoints" : [ 962.5, 348.0, 1032.5, 348.0 ],
					"order" : 2,
					"source" : [ "obj-195", 0 ]
				}

			}
, 			{
				"patchline" : 				{
					"destination" : [ "obj-266", 0 ],
					"midpoints" : [ 962.5, 348.0, 787.5, 348.0 ],
					"order" : 3,
					"source" : [ "obj-195", 0 ]
				}

			}
, 			{
				"patchline" : 				{
					"destination" : [ "obj-330", 0 ],
					"order" : 1,
					"source" : [ "obj-195", 0 ]
				}

			}
, 			{
				"patchline" : 				{
					"destination" : [ "obj-332", 0 ],
					"order" : 0,
					"source" : [ "obj-195", 0 ]
				}

			}
, 			{
				"patchline" : 				{
					"destination" : [ "obj-240", 0 ],
					"midpoints" : [ 366.5, 350.0, 285.5, 350.0 ],
					"order" : 1,
					"source" : [ "obj-196", 0 ]
				}

			}
, 			{
				"patchline" : 				{
					"destination" : [ "obj-241", 0 ],
					"midpoints" : [ 366.5, 350.0, 530.5, 350.0 ],
					"order" : 0,
					"source" : [ "obj-196", 0 ]
				}

			}
, 			{
				"patchline" : 				{
					"destination" : [ "obj-328", 0 ],
					"order" : 2,
					"source" : [ "obj-196", 0 ]
				}

			}
, 			{
				"patchline" : 				{
					"destination" : [ "obj-329", 0 ],
					"order" : 3,
					"source" : [ "obj-196", 0 ]
				}

			}
, 			{
				"patchline" : 				{
					"destination" : [ "obj-3", 0 ],
					"source" : [ "obj-197", 0 ]
				}

			}
, 			{
				"patchline" : 				{
					"destination" : [ "obj-197", 2 ],
					"order" : 0,
					"source" : [ "obj-201", 0 ]
				}

			}
, 			{
				"patchline" : 				{
					"destination" : [ "obj-240", 2 ],
					"order" : 1,
					"source" : [ "obj-201", 0 ]
				}

			}
, 			{
				"patchline" : 				{
					"destination" : [ "obj-328", 1 ],
					"order" : 2,
					"source" : [ "obj-201", 0 ]
				}

			}
, 			{
				"patchline" : 				{
					"destination" : [ "obj-206", 1 ],
					"order" : 0,
					"source" : [ "obj-205", 0 ]
				}

			}
, 			{
				"patchline" : 				{
					"destination" : [ "obj-241", 1 ],
					"order" : 1,
					"source" : [ "obj-205", 0 ]
				}

			}
, 			{
				"patchline" : 				{
					"destination" : [ "obj-329", 1 ],
					"order" : 2,
					"source" : [ "obj-205", 0 ]
				}

			}
, 			{
				"patchline" : 				{
					"destination" : [ "obj-4", 0 ],
					"source" : [ "obj-206", 0 ]
				}

			}
, 			{
				"patchline" : 				{
					"destination" : [ "obj-11", 0 ],
					"source" : [ "obj-220", 0 ]
				}

			}
, 			{
				"patchline" : 				{
					"destination" : [ "obj-220", 1 ],
					"order" : 1,
					"source" : [ "obj-222", 0 ]
				}

			}
, 			{
				"patchline" : 				{
					"destination" : [ "obj-265", 1 ],
					"order" : 2,
					"source" : [ "obj-222", 0 ]
				}

			}
, 			{
				"patchline" : 				{
					"destination" : [ "obj-330", 1 ],
					"order" : 0,
					"source" : [ "obj-222", 0 ]
				}

			}
, 			{
				"patchline" : 				{
					"destination" : [ "obj-225", 2 ],
					"order" : 1,
					"source" : [ "obj-224", 0 ]
				}

			}
, 			{
				"patchline" : 				{
					"destination" : [ "obj-266", 2 ],
					"order" : 2,
					"source" : [ "obj-224", 0 ]
				}

			}
, 			{
				"patchline" : 				{
					"destination" : [ "obj-332", 1 ],
					"order" : 0,
					"source" : [ "obj-224", 0 ]
				}

			}
, 			{
				"patchline" : 				{
					"destination" : [ "obj-10", 0 ],
					"source" : [ "obj-225", 0 ]
				}

			}
, 			{
				"patchline" : 				{
					"destination" : [ "obj-267", 0 ],
					"source" : [ "obj-227", 0 ]
				}

			}
, 			{
				"patchline" : 				{
					"destination" : [ "obj-227", 0 ],
					"order" : 1,
					"source" : [ "obj-229", 0 ]
				}

			}
, 			{
				"patchline" : 				{
					"destination" : [ "obj-274", 0 ],
					"order" : 0,
					"source" : [ "obj-229", 0 ]
				}

			}
, 			{
				"patchline" : 				{
					"destination" : [ "obj-232", 0 ],
					"order" : 0,
					"source" : [ "obj-231", 0 ]
				}

			}
, 			{
				"patchline" : 				{
					"destination" : [ "obj-278", 0 ],
					"order" : 1,
					"source" : [ "obj-231", 0 ]
				}

			}
, 			{
				"patchline" : 				{
					"destination" : [ "obj-268", 0 ],
					"source" : [ "obj-232", 0 ]
				}

			}
, 			{
				"patchline" : 				{
					"destination" : [ "obj-197", 0 ],
					"source" : [ "obj-240", 0 ]
				}

			}
, 			{
				"patchline" : 				{
					"destination" : [ "obj-206", 0 ],
					"source" : [ "obj-241", 0 ]
				}

			}
, 			{
				"patchline" : 				{
					"destination" : [ "obj-201", 0 ],
					"source" : [ "obj-242", 0 ]
				}

			}
, 			{
				"patchline" : 				{
					"color" : [ 0.133270308375359, 1.0, 0.542792856693268, 0.326530612244898 ],
					"destination" : [ "obj-271", 3 ],
					"order" : 3,
					"source" : [ "obj-244", 0 ]
				}

			}
, 			{
				"patchline" : 				{
					"color" : [ 0.133270308375359, 1.0, 0.542792856693268, 0.326530612244898 ],
					"destination" : [ "obj-274", 4 ],
					"order" : 0,
					"source" : [ "obj-244", 0 ]
				}

			}
, 			{
				"patchline" : 				{
					"color" : [ 0.133270308375359, 1.0, 0.542792856693268, 0.326530612244898 ],
					"destination" : [ "obj-277", 4 ],
					"order" : 4,
					"source" : [ "obj-244", 0 ]
				}

			}
, 			{
				"patchline" : 				{
					"color" : [ 0.133270308375359, 1.0, 0.542792856693268, 0.326530612244898 ],
					"destination" : [ "obj-278", 3 ],
					"order" : 7,
					"source" : [ "obj-244", 0 ]
				}

			}
, 			{
				"patchline" : 				{
					"color" : [ 0.133270308375359, 1.0, 0.542792856693268, 0.326530612244898 ],
					"destination" : [ "obj-284", 0 ],
					"order" : 5,
					"source" : [ "obj-244", 0 ]
				}

			}
, 			{
				"patchline" : 				{
					"color" : [ 0.133270308375359, 1.0, 0.542792856693268, 0.326530612244898 ],
					"destination" : [ "obj-285", 0 ],
					"order" : 2,
					"source" : [ "obj-244", 0 ]
				}

			}
, 			{
				"patchline" : 				{
					"color" : [ 0.133270308375359, 1.0, 0.542792856693268, 0.326530612244898 ],
					"destination" : [ "obj-286", 2 ],
					"order" : 1,
					"source" : [ "obj-244", 0 ]
				}

			}
, 			{
				"patchline" : 				{
					"color" : [ 0.133270308375359, 1.0, 0.542792856693268, 0.326530612244898 ],
					"destination" : [ "obj-288", 2 ],
					"order" : 6,
					"source" : [ "obj-244", 0 ]
				}

			}
, 			{
				"patchline" : 				{
					"destination" : [ "obj-205", 0 ],
					"source" : [ "obj-247", 0 ]
				}

			}
, 			{
				"patchline" : 				{
					"destination" : [ "obj-232", 0 ],
					"order" : 1,
					"source" : [ "obj-261", 0 ]
				}

			}
, 			{
				"patchline" : 				{
					"destination" : [ "obj-277", 0 ],
					"order" : 0,
					"source" : [ "obj-261", 0 ]
				}

			}
, 			{
				"patchline" : 				{
					"destination" : [ "obj-244", 0 ],
					"source" : [ "obj-263", 0 ]
				}

			}
, 			{
				"patchline" : 				{
					"destination" : [ "obj-227", 0 ],
					"order" : 0,
					"source" : [ "obj-264", 0 ]
				}

			}
, 			{
				"patchline" : 				{
					"destination" : [ "obj-271", 0 ],
					"order" : 1,
					"source" : [ "obj-264", 0 ]
				}

			}
, 			{
				"patchline" : 				{
					"destination" : [ "obj-220", 0 ],
					"source" : [ "obj-265", 0 ]
				}

			}
, 			{
				"patchline" : 				{
					"destination" : [ "obj-225", 0 ],
					"source" : [ "obj-266", 0 ]
				}

			}
, 			{
				"patchline" : 				{
					"destination" : [ "obj-222", 0 ],
					"source" : [ "obj-269", 0 ]
				}

			}
, 			{
				"patchline" : 				{
					"destination" : [ "obj-224", 0 ],
					"source" : [ "obj-270", 0 ]
				}

			}
, 			{
				"patchline" : 				{
					"destination" : [ "obj-273", 0 ],
					"source" : [ "obj-271", 0 ]
				}

			}
, 			{
				"patchline" : 				{
					"destination" : [ "obj-289", 0 ],
					"source" : [ "obj-273", 0 ]
				}

			}
, 			{
				"patchline" : 				{
					"destination" : [ "obj-273", 0 ],
					"source" : [ "obj-274", 0 ]
				}

			}
, 			{
				"patchline" : 				{
					"destination" : [ "obj-280", 0 ],
					"source" : [ "obj-277", 0 ]
				}

			}
, 			{
				"patchline" : 				{
					"destination" : [ "obj-280", 0 ],
					"source" : [ "obj-278", 0 ]
				}

			}
, 			{
				"patchline" : 				{
					"destination" : [ "obj-290", 0 ],
					"source" : [ "obj-280", 0 ]
				}

			}
, 			{
				"patchline" : 				{
					"destination" : [ "obj-242", 0 ],
					"order" : 1,
					"source" : [ "obj-282", 0 ]
				}

			}
, 			{
				"patchline" : 				{
					"destination" : [ "obj-247", 0 ],
					"order" : 0,
					"source" : [ "obj-282", 0 ]
				}

			}
, 			{
				"patchline" : 				{
					"destination" : [ "obj-269", 0 ],
					"order" : 0,
					"source" : [ "obj-283", 0 ]
				}

			}
, 			{
				"patchline" : 				{
					"destination" : [ "obj-270", 0 ],
					"order" : 1,
					"source" : [ "obj-283", 0 ]
				}

			}
, 			{
				"patchline" : 				{
					"destination" : [ "obj-282", 0 ],
					"source" : [ "obj-284", 0 ]
				}

			}
, 			{
				"patchline" : 				{
					"destination" : [ "obj-283", 0 ],
					"source" : [ "obj-285", 0 ]
				}

			}
, 			{
				"patchline" : 				{
					"destination" : [ "obj-14", 0 ],
					"source" : [ "obj-286", 0 ]
				}

			}
, 			{
				"patchline" : 				{
					"destination" : [ "obj-13", 0 ],
					"source" : [ "obj-288", 0 ]
				}

			}
, 			{
				"patchline" : 				{
					"destination" : [ "obj-286", 0 ],
					"source" : [ "obj-289", 0 ]
				}

			}
, 			{
				"patchline" : 				{
					"destination" : [ "obj-288", 0 ],
					"source" : [ "obj-290", 0 ]
				}

			}
, 			{
				"patchline" : 				{
					"destination" : [ "obj-293", 0 ],
					"source" : [ "obj-292", 0 ]
				}

			}
, 			{
				"patchline" : 				{
					"destination" : [ "obj-289", 1 ],
					"order" : 0,
					"source" : [ "obj-293", 0 ]
				}

			}
, 			{
				"patchline" : 				{
					"destination" : [ "obj-290", 1 ],
					"order" : 1,
					"source" : [ "obj-293", 0 ]
				}

			}
, 			{
				"patchline" : 				{
					"destination" : [ "obj-7", 0 ],
					"source" : [ "obj-3", 0 ]
				}

			}
, 			{
				"patchline" : 				{
					"destination" : [ "obj-292", 0 ],
					"source" : [ "obj-322", 0 ]
				}

			}
, 			{
				"patchline" : 				{
					"destination" : [ "obj-284", 1 ],
					"midpoints" : [ 867.5, 988.0, 1063.0, 988.0, 1063.0, 730.0, 1408.0, 730.0, 1408.0, 265.0, 1131.0, 265.0, 1131.0, 81.0, 562.5, 81.0 ],
					"source" : [ "obj-324", 0 ]
				}

			}
, 			{
				"patchline" : 				{
					"destination" : [ "obj-285", 1 ],
					"midpoints" : [ 342.5, 978.0, 189.0, 978.0, 189.0, 727.0, 75.0, 727.0, 75.0, 226.0, 280.0, 226.0, 280.0, 65.0, 897.5, 65.0 ],
					"source" : [ "obj-327", 0 ]
				}

			}
, 			{
				"patchline" : 				{
					"destination" : [ "obj-334", 1 ],
					"source" : [ "obj-328", 0 ]
				}

			}
, 			{
				"patchline" : 				{
					"destination" : [ "obj-334", 0 ],
					"source" : [ "obj-329", 0 ]
				}

			}
, 			{
				"patchline" : 				{
					"destination" : [ "obj-333", 0 ],
					"source" : [ "obj-330", 0 ]
				}

			}
, 			{
				"patchline" : 				{
					"destination" : [ "obj-333", 1 ],
					"source" : [ "obj-332", 0 ]
				}

			}
, 			{
				"patchline" : 				{
					"destination" : [ "obj-342", 0 ],
					"source" : [ "obj-333", 0 ]
				}

			}
, 			{
				"patchline" : 				{
					"destination" : [ "obj-341", 0 ],
					"source" : [ "obj-334", 0 ]
				}

			}
, 			{
				"patchline" : 				{
					"destination" : [ "obj-339", 0 ],
					"source" : [ "obj-341", 0 ]
				}

			}
, 			{
				"patchline" : 				{
					"destination" : [ "obj-199", 0 ],
					"source" : [ "obj-342", 0 ]
				}

			}
, 			{
				"patchline" : 				{
					"destination" : [ "obj-261", 0 ],
					"source" : [ "obj-4", 0 ]
				}

			}
, 			{
				"patchline" : 				{
					"destination" : [ "obj-231", 0 ],
					"source" : [ "obj-7", 0 ]
				}

			}
, 			{
				"patchline" : 				{
					"destination" : [ "obj-264", 0 ],
					"source" : [ "obj-9", 0 ]
				}

			}
 ],
		"originid" : "pat-9366"
	}

}
