{
	"patcher" : 	{
		"fileversion" : 1,
		"appversion" : 		{
			"major" : 9,
			"minor" : 0,
			"revision" : 4,
			"architecture" : "x64",
			"modernui" : 1
		}
,
		"classnamespace" : "rnbo",
		"rect" : [ 34.0, 87.0, 1934.0, 1319.0 ],
		"default_fontname" : "Lato",
		"gridsize" : [ 15.0, 15.0 ],
		"title" : "jb.diagonally",
		"boxes" : [ 			{
				"box" : 				{
					"id" : "obj-50",
					"maxclass" : "newobj",
					"numinlets" : 1,
					"numoutlets" : 1,
					"outlettype" : [ "" ],
					"patching_rect" : [ 1183.0, 1689.0, 74.0, 23.0 ],
					"rnbo_classname" : "loadmess",
					"rnbo_serial" : 1,
					"rnbo_uniqueid" : "loadmess_obj-50",
					"rnboinfo" : 					{
						"needsInstanceInfo" : 1,
						"argnames" : 						{
							"input" : 							{
								"attrOrProp" : 1,
								"digest" : "Bang to trigger message.",
								"isalias" : 0,
								"aliases" : [  ],
								"settable" : 0,
								"attachable" : 0,
								"isparam" : 0,
								"deprecated" : 0,
								"inlet" : 1,
								"type" : "bang"
							}
,
							"message" : 							{
								"attrOrProp" : 1,
								"digest" : "Message when patcher is loaded.",
								"defaultarg" : 1,
								"isalias" : 0,
								"aliases" : [  ],
								"settable" : 1,
								"attachable" : 0,
								"isparam" : 0,
								"deprecated" : 0,
								"outlet" : 1,
								"type" : "list",
								"defaultValue" : ""
							}
,
							"startupbang" : 							{
								"attrOrProp" : 1,
								"digest" : "startupbang",
								"isalias" : 0,
								"aliases" : [  ],
								"attachable" : 0,
								"isparam" : 0,
								"deprecated" : 0,
								"type" : "bang"
							}

						}
,
						"inputs" : [ 							{
								"name" : "input",
								"type" : "bang",
								"digest" : "Bang to trigger message.",
								"hot" : 1,
								"docked" : 0
							}
 ],
						"outputs" : [ 							{
								"name" : "message",
								"type" : "list",
								"digest" : "Message when patcher is loaded.",
								"defaultarg" : 1,
								"docked" : 0
							}
 ],
						"helpname" : "loadmess",
						"aliasOf" : "loadmess",
						"classname" : "loadmess",
						"operator" : 0,
						"versionId" : -361086158,
						"changesPatcherIO" : 0
					}
,
					"text" : "loadmess 60"
				}

			}
, 			{
				"box" : 				{
					"id" : "obj-49",
					"linecount" : 5,
					"maxclass" : "comment",
					"numinlets" : 1,
					"numoutlets" : 0,
					"patching_rect" : [ 1107.0, 1609.0, 150.0, 78.0 ],
					"text" : "if 2) After releasing a diagonal, this is the amount of time you have to release ↑ → ↓ ← before they trigger."
				}

			}
, 			{
				"box" : 				{
					"id" : "obj-47",
					"maxclass" : "newobj",
					"numinlets" : 1,
					"numoutlets" : 1,
					"outlettype" : [ "" ],
					"patching_rect" : [ 1202.0, 1422.0, 67.0, 23.0 ],
					"rnbo_classname" : "loadmess",
					"rnbo_serial" : 2,
					"rnbo_uniqueid" : "loadmess_obj-47",
					"rnboinfo" : 					{
						"needsInstanceInfo" : 1,
						"argnames" : 						{
							"input" : 							{
								"attrOrProp" : 1,
								"digest" : "Bang to trigger message.",
								"isalias" : 0,
								"aliases" : [  ],
								"settable" : 0,
								"attachable" : 0,
								"isparam" : 0,
								"deprecated" : 0,
								"inlet" : 1,
								"type" : "bang"
							}
,
							"message" : 							{
								"attrOrProp" : 1,
								"digest" : "Message when patcher is loaded.",
								"defaultarg" : 1,
								"isalias" : 0,
								"aliases" : [  ],
								"settable" : 1,
								"attachable" : 0,
								"isparam" : 0,
								"deprecated" : 0,
								"outlet" : 1,
								"type" : "list",
								"defaultValue" : ""
							}
,
							"startupbang" : 							{
								"attrOrProp" : 1,
								"digest" : "startupbang",
								"isalias" : 0,
								"aliases" : [  ],
								"attachable" : 0,
								"isparam" : 0,
								"deprecated" : 0,
								"type" : "bang"
							}

						}
,
						"inputs" : [ 							{
								"name" : "input",
								"type" : "bang",
								"digest" : "Bang to trigger message.",
								"hot" : 1,
								"docked" : 0
							}
 ],
						"outputs" : [ 							{
								"name" : "message",
								"type" : "list",
								"digest" : "Message when patcher is loaded.",
								"defaultarg" : 1,
								"docked" : 0
							}
 ],
						"helpname" : "loadmess",
						"aliasOf" : "loadmess",
						"classname" : "loadmess",
						"operator" : 0,
						"versionId" : -361086158,
						"changesPatcherIO" : 0
					}
,
					"text" : "loadmess 1"
				}

			}
, 			{
				"box" : 				{
					"id" : "obj-46",
					"linecount" : 9,
					"maxclass" : "comment",
					"numinlets" : 1,
					"numoutlets" : 0,
					"patching_rect" : [ 1107.0, 1454.0, 209.0, 136.0 ],
					"text" : "This determines how diagonals are triggered.\n\n1) Latch: after triggering a diagonal, ↑ → ↓ ← can not trigger without first releasing the dpad\n\n2) Delay: ↑ → ↓ ← can trigger after a diagonal without releasing the dpad"
				}

			}
, 			{
				"box" : 				{
					"id" : "obj-44",
					"maxclass" : "newobj",
					"numinlets" : 1,
					"numoutlets" : 1,
					"outlettype" : [ "" ],
					"patching_rect" : [ 80.0, 1037.0, 67.0, 23.0 ],
					"rnbo_classname" : "loadmess",
					"rnbo_serial" : 3,
					"rnbo_uniqueid" : "loadmess_obj-44",
					"rnboinfo" : 					{
						"needsInstanceInfo" : 1,
						"argnames" : 						{
							"input" : 							{
								"attrOrProp" : 1,
								"digest" : "Bang to trigger message.",
								"isalias" : 0,
								"aliases" : [  ],
								"settable" : 0,
								"attachable" : 0,
								"isparam" : 0,
								"deprecated" : 0,
								"inlet" : 1,
								"type" : "bang"
							}
,
							"message" : 							{
								"attrOrProp" : 1,
								"digest" : "Message when patcher is loaded.",
								"defaultarg" : 1,
								"isalias" : 0,
								"aliases" : [  ],
								"settable" : 1,
								"attachable" : 0,
								"isparam" : 0,
								"deprecated" : 0,
								"outlet" : 1,
								"type" : "list",
								"defaultValue" : ""
							}
,
							"startupbang" : 							{
								"attrOrProp" : 1,
								"digest" : "startupbang",
								"isalias" : 0,
								"aliases" : [  ],
								"attachable" : 0,
								"isparam" : 0,
								"deprecated" : 0,
								"type" : "bang"
							}

						}
,
						"inputs" : [ 							{
								"name" : "input",
								"type" : "bang",
								"digest" : "Bang to trigger message.",
								"hot" : 1,
								"docked" : 0
							}
 ],
						"outputs" : [ 							{
								"name" : "message",
								"type" : "list",
								"digest" : "Message when patcher is loaded.",
								"defaultarg" : 1,
								"docked" : 0
							}
 ],
						"helpname" : "loadmess",
						"aliasOf" : "loadmess",
						"classname" : "loadmess",
						"operator" : 0,
						"versionId" : -361086158,
						"changesPatcherIO" : 0
					}
,
					"text" : "loadmess 6"
				}

			}
, 			{
				"box" : 				{
					"format" : 0,
					"id" : "obj-43",
					"maxclass" : "number",
					"numinlets" : 1,
					"numoutlets" : 1,
					"outlettype" : [ "" ],
					"parameter_enable" : 0,
					"patching_rect" : [ 80.0, 1072.0, 50.0, 23.0 ],
					"rnbo_classname" : "number",
					"rnbo_extra_attributes" : 					{
						"maximum" : "<none>",
						"minimum" : "<none>",
						"initialFormat" : "integer",
						"preset" : 0,
						"order" : ""
					}
,
					"rnbo_serial" : 1,
					"rnbo_uniqueid" : "number_obj-43"
				}

			}
, 			{
				"box" : 				{
					"id" : "obj-41",
					"linecount" : 4,
					"maxclass" : "comment",
					"numinlets" : 1,
					"numoutlets" : 0,
					"patching_rect" : [ 22.0, 953.0, 159.0, 64.0 ],
					"text" : "Before triggering a diagonal, this is the amount of time that ↑ → ↓ ← can be pressed before they trigger."
				}

			}
, 			{
				"box" : 				{
					"id" : "obj-1274",
					"maxclass" : "comment",
					"numinlets" : 1,
					"numoutlets" : 0,
					"patching_rect" : [ 358.0, 697.0, 102.0, 21.0 ],
					"text" : "is dpad pressed"
				}

			}
, 			{
				"box" : 				{
					"id" : "obj-1262",
					"maxclass" : "newobj",
					"numinlets" : 2,
					"numoutlets" : 1,
					"outlettype" : [ "" ],
					"patching_rect" : [ 321.0, 696.0, 29.5, 23.0 ],
					"rnbo_classname" : "!=",
					"rnbo_extra_attributes" : 					{
						"hot" : 0
					}
,
					"rnbo_serial" : 1,
					"rnbo_uniqueid" : "!=_obj-1262",
					"text" : "!= 0"
				}

			}
, 			{
				"box" : 				{
					"id" : "obj-1259",
					"maxclass" : "newobj",
					"numinlets" : 1,
					"numoutlets" : 1,
					"outlettype" : [ "" ],
					"patching_rect" : [ 321.0, 662.0, 48.0, 23.0 ],
					"rnbo_classname" : "list.sum",
					"rnbo_extra_attributes" : 					{
						"hot" : 0
					}
,
					"rnbo_serial" : 1,
					"rnbo_uniqueid" : "list.sum_obj-1259",
					"text" : "list.sum"
				}

			}
, 			{
				"box" : 				{
					"id" : "obj-1256",
					"maxclass" : "newobj",
					"numinlets" : 4,
					"numoutlets" : 1,
					"outlettype" : [ "" ],
					"patching_rect" : [ 321.0, 631.0, 52.0, 23.0 ],
					"rnbo_classname" : "pak",
					"rnbo_extra_attributes" : 					{
						"length" : 0.0,
						"list" : ""
					}
,
					"rnbo_serial" : 1,
					"rnbo_uniqueid" : "pak_obj-1256",
					"rnboinfo" : 					{
						"needsInstanceInfo" : 1,
						"argnames" : 						{
							"out" : 							{
								"attrOrProp" : 1,
								"digest" : "out",
								"isalias" : 0,
								"aliases" : [  ],
								"attachable" : 0,
								"isparam" : 0,
								"deprecated" : 0,
								"outlet" : 1,
								"type" : "list"
							}
,
							"in1" : 							{
								"attrOrProp" : 1,
								"digest" : "number to be list element 1",
								"defaultarg" : 1,
								"isalias" : 0,
								"aliases" : [  ],
								"settable" : 1,
								"attachable" : 0,
								"isparam" : 0,
								"deprecated" : 0,
								"inlet" : 1,
								"type" : "number",
								"defaultValue" : "0"
							}
,
							"in2" : 							{
								"attrOrProp" : 1,
								"digest" : "number to be list element 2",
								"defaultarg" : 2,
								"isalias" : 0,
								"aliases" : [  ],
								"settable" : 1,
								"attachable" : 0,
								"isparam" : 0,
								"deprecated" : 0,
								"inlet" : 1,
								"type" : "number",
								"defaultValue" : "0"
							}
,
							"in3" : 							{
								"attrOrProp" : 1,
								"digest" : "number to be list element 3",
								"defaultarg" : 3,
								"isalias" : 0,
								"aliases" : [  ],
								"settable" : 1,
								"attachable" : 0,
								"isparam" : 0,
								"deprecated" : 0,
								"inlet" : 1,
								"type" : "number",
								"defaultValue" : "0"
							}
,
							"in4" : 							{
								"attrOrProp" : 1,
								"digest" : "number to be list element 4",
								"defaultarg" : 4,
								"isalias" : 0,
								"aliases" : [  ],
								"settable" : 1,
								"attachable" : 0,
								"isparam" : 0,
								"deprecated" : 0,
								"inlet" : 1,
								"type" : "number",
								"defaultValue" : "0"
							}
,
							"length" : 							{
								"attrOrProp" : 2,
								"digest" : "how many things to pack",
								"isalias" : 0,
								"aliases" : [  ],
								"settable" : 1,
								"attachable" : 0,
								"isparam" : 0,
								"deprecated" : 0,
								"type" : "number"
							}
,
							"list" : 							{
								"attrOrProp" : 2,
								"digest" : "the list to initialize the {@objectname} object with",
								"isalias" : 0,
								"aliases" : [  ],
								"settable" : 1,
								"attachable" : 0,
								"isparam" : 0,
								"deprecated" : 0,
								"type" : "list"
							}

						}
,
						"inputs" : [ 							{
								"name" : "in1",
								"type" : "number",
								"digest" : "number to be list element 1",
								"defaultarg" : 1,
								"hot" : 1,
								"docked" : 0
							}
, 							{
								"name" : "in2",
								"type" : "number",
								"digest" : "number to be list element 2",
								"defaultarg" : 2,
								"hot" : 1,
								"docked" : 0
							}
, 							{
								"name" : "in3",
								"type" : "number",
								"digest" : "number to be list element 3",
								"defaultarg" : 3,
								"hot" : 1,
								"docked" : 0
							}
, 							{
								"name" : "in4",
								"type" : "number",
								"digest" : "number to be list element 4",
								"defaultarg" : 4,
								"hot" : 1,
								"docked" : 0
							}
 ],
						"outputs" : [ 							{
								"name" : "out",
								"type" : "list",
								"digest" : "out",
								"docked" : 0
							}
 ],
						"helpname" : "pak",
						"aliasOf" : "pack",
						"classname" : "pak",
						"operator" : 0,
						"versionId" : 2113152561,
						"changesPatcherIO" : 0
					}
,
					"text" : "pak i i i i"
				}

			}
, 			{
				"box" : 				{
					"id" : "obj-1210",
					"maxclass" : "newobj",
					"numinlets" : 2,
					"numoutlets" : 1,
					"outlettype" : [ "" ],
					"patching_rect" : [ 793.0, 495.0, 30.0, 23.0 ],
					"rnbo_classname" : "i",
					"rnbo_extra_attributes" : 					{
						"initial" : 0.0
					}
,
					"rnbo_serial" : 1,
					"rnbo_uniqueid" : "i_obj-1210",
					"text" : "i"
				}

			}
, 			{
				"box" : 				{
					"id" : "obj-1209",
					"maxclass" : "newobj",
					"numinlets" : 2,
					"numoutlets" : 1,
					"outlettype" : [ "" ],
					"patching_rect" : [ 749.0, 495.0, 30.0, 23.0 ],
					"rnbo_classname" : "i",
					"rnbo_extra_attributes" : 					{
						"initial" : 0.0
					}
,
					"rnbo_serial" : 2,
					"rnbo_uniqueid" : "i_obj-1209",
					"text" : "i"
				}

			}
, 			{
				"box" : 				{
					"id" : "obj-1208",
					"maxclass" : "newobj",
					"numinlets" : 2,
					"numoutlets" : 1,
					"outlettype" : [ "" ],
					"patching_rect" : [ 706.0, 496.0, 30.0, 23.0 ],
					"rnbo_classname" : "i",
					"rnbo_extra_attributes" : 					{
						"initial" : 0.0
					}
,
					"rnbo_serial" : 3,
					"rnbo_uniqueid" : "i_obj-1208",
					"text" : "i"
				}

			}
, 			{
				"box" : 				{
					"id" : "obj-1202",
					"maxclass" : "newobj",
					"numinlets" : 2,
					"numoutlets" : 1,
					"outlettype" : [ "" ],
					"patching_rect" : [ 662.0, 496.0, 30.0, 23.0 ],
					"rnbo_classname" : "i",
					"rnbo_extra_attributes" : 					{
						"initial" : 0.0
					}
,
					"rnbo_serial" : 4,
					"rnbo_uniqueid" : "i_obj-1202",
					"text" : "i"
				}

			}
, 			{
				"box" : 				{
					"id" : "obj-823",
					"maxclass" : "newobj",
					"numinlets" : 3,
					"numoutlets" : 1,
					"outlettype" : [ "" ],
					"patching_rect" : [ 1143.0, 1173.0, 47.0, 23.0 ],
					"rnbo_classname" : "clip",
					"rnbo_extra_attributes" : 					{
						"hot" : 0
					}
,
					"rnbo_serial" : 1,
					"rnbo_uniqueid" : "clip_obj-823",
					"text" : "clip 0 1"
				}

			}
, 			{
				"box" : 				{
					"id" : "obj-825",
					"maxclass" : "newobj",
					"numinlets" : 1,
					"numoutlets" : 1,
					"outlettype" : [ "" ],
					"patching_rect" : [ 1143.0, 1140.0, 48.0, 23.0 ],
					"rnbo_classname" : "list.sum",
					"rnbo_extra_attributes" : 					{
						"hot" : 0
					}
,
					"rnbo_serial" : 2,
					"rnbo_uniqueid" : "list.sum_obj-825",
					"text" : "list.sum"
				}

			}
, 			{
				"box" : 				{
					"id" : "obj-826",
					"maxclass" : "newobj",
					"numinlets" : 4,
					"numoutlets" : 1,
					"outlettype" : [ "" ],
					"patching_rect" : [ 1143.0, 1106.0, 81.0, 23.0 ],
					"rnbo_classname" : "pak",
					"rnbo_extra_attributes" : 					{
						"length" : 0.0,
						"list" : ""
					}
,
					"rnbo_serial" : 2,
					"rnbo_uniqueid" : "pak_obj-826",
					"rnboinfo" : 					{
						"needsInstanceInfo" : 1,
						"argnames" : 						{
							"out" : 							{
								"attrOrProp" : 1,
								"digest" : "out",
								"isalias" : 0,
								"aliases" : [  ],
								"attachable" : 0,
								"isparam" : 0,
								"deprecated" : 0,
								"outlet" : 1,
								"type" : "list"
							}
,
							"in1" : 							{
								"attrOrProp" : 1,
								"digest" : "number to be list element 1",
								"defaultarg" : 1,
								"isalias" : 0,
								"aliases" : [  ],
								"settable" : 1,
								"attachable" : 0,
								"isparam" : 0,
								"deprecated" : 0,
								"inlet" : 1,
								"type" : "number",
								"defaultValue" : "0"
							}
,
							"in2" : 							{
								"attrOrProp" : 1,
								"digest" : "number to be list element 2",
								"defaultarg" : 2,
								"isalias" : 0,
								"aliases" : [  ],
								"settable" : 1,
								"attachable" : 0,
								"isparam" : 0,
								"deprecated" : 0,
								"inlet" : 1,
								"type" : "number",
								"defaultValue" : "0"
							}
,
							"in3" : 							{
								"attrOrProp" : 1,
								"digest" : "number to be list element 3",
								"defaultarg" : 3,
								"isalias" : 0,
								"aliases" : [  ],
								"settable" : 1,
								"attachable" : 0,
								"isparam" : 0,
								"deprecated" : 0,
								"inlet" : 1,
								"type" : "number",
								"defaultValue" : "0"
							}
,
							"in4" : 							{
								"attrOrProp" : 1,
								"digest" : "number to be list element 4",
								"defaultarg" : 4,
								"isalias" : 0,
								"aliases" : [  ],
								"settable" : 1,
								"attachable" : 0,
								"isparam" : 0,
								"deprecated" : 0,
								"inlet" : 1,
								"type" : "number",
								"defaultValue" : "0"
							}
,
							"length" : 							{
								"attrOrProp" : 2,
								"digest" : "how many things to pack",
								"isalias" : 0,
								"aliases" : [  ],
								"settable" : 1,
								"attachable" : 0,
								"isparam" : 0,
								"deprecated" : 0,
								"type" : "number"
							}
,
							"list" : 							{
								"attrOrProp" : 2,
								"digest" : "the list to initialize the {@objectname} object with",
								"isalias" : 0,
								"aliases" : [  ],
								"settable" : 1,
								"attachable" : 0,
								"isparam" : 0,
								"deprecated" : 0,
								"type" : "list"
							}

						}
,
						"inputs" : [ 							{
								"name" : "in1",
								"type" : "number",
								"digest" : "number to be list element 1",
								"defaultarg" : 1,
								"hot" : 1,
								"docked" : 0
							}
, 							{
								"name" : "in2",
								"type" : "number",
								"digest" : "number to be list element 2",
								"defaultarg" : 2,
								"hot" : 1,
								"docked" : 0
							}
, 							{
								"name" : "in3",
								"type" : "number",
								"digest" : "number to be list element 3",
								"defaultarg" : 3,
								"hot" : 1,
								"docked" : 0
							}
, 							{
								"name" : "in4",
								"type" : "number",
								"digest" : "number to be list element 4",
								"defaultarg" : 4,
								"hot" : 1,
								"docked" : 0
							}
 ],
						"outputs" : [ 							{
								"name" : "out",
								"type" : "list",
								"digest" : "out",
								"docked" : 0
							}
 ],
						"helpname" : "pak",
						"aliasOf" : "pack",
						"classname" : "pak",
						"operator" : 0,
						"versionId" : 2113152561,
						"changesPatcherIO" : 0
					}
,
					"text" : "pak i i i i"
				}

			}
, 			{
				"box" : 				{
					"id" : "obj-819",
					"maxclass" : "newobj",
					"numinlets" : 2,
					"numoutlets" : 1,
					"outlettype" : [ "" ],
					"patching_rect" : [ 835.0, 866.0, 29.5, 23.0 ],
					"rnbo_classname" : "!=",
					"rnbo_extra_attributes" : 					{
						"hot" : 0
					}
,
					"rnbo_serial" : 2,
					"rnbo_uniqueid" : "!=_obj-819",
					"text" : "!= 0"
				}

			}
, 			{
				"box" : 				{
					"id" : "obj-817",
					"maxclass" : "newobj",
					"numinlets" : 1,
					"numoutlets" : 1,
					"outlettype" : [ "" ],
					"patching_rect" : [ 835.0, 823.0, 48.0, 23.0 ],
					"rnbo_classname" : "list.sum",
					"rnbo_extra_attributes" : 					{
						"hot" : 0
					}
,
					"rnbo_serial" : 3,
					"rnbo_uniqueid" : "list.sum_obj-817",
					"text" : "list.sum"
				}

			}
, 			{
				"box" : 				{
					"id" : "obj-816",
					"maxclass" : "newobj",
					"numinlets" : 4,
					"numoutlets" : 1,
					"outlettype" : [ "" ],
					"patching_rect" : [ 835.0, 779.0, 52.0, 23.0 ],
					"rnbo_classname" : "pak",
					"rnbo_extra_attributes" : 					{
						"length" : 0.0,
						"list" : ""
					}
,
					"rnbo_serial" : 3,
					"rnbo_uniqueid" : "pak_obj-816",
					"rnboinfo" : 					{
						"needsInstanceInfo" : 1,
						"argnames" : 						{
							"out" : 							{
								"attrOrProp" : 1,
								"digest" : "out",
								"isalias" : 0,
								"aliases" : [  ],
								"attachable" : 0,
								"isparam" : 0,
								"deprecated" : 0,
								"outlet" : 1,
								"type" : "list"
							}
,
							"in1" : 							{
								"attrOrProp" : 1,
								"digest" : "number to be list element 1",
								"defaultarg" : 1,
								"isalias" : 0,
								"aliases" : [  ],
								"settable" : 1,
								"attachable" : 0,
								"isparam" : 0,
								"deprecated" : 0,
								"inlet" : 1,
								"type" : "number",
								"defaultValue" : "0"
							}
,
							"in2" : 							{
								"attrOrProp" : 1,
								"digest" : "number to be list element 2",
								"defaultarg" : 2,
								"isalias" : 0,
								"aliases" : [  ],
								"settable" : 1,
								"attachable" : 0,
								"isparam" : 0,
								"deprecated" : 0,
								"inlet" : 1,
								"type" : "number",
								"defaultValue" : "0"
							}
,
							"in3" : 							{
								"attrOrProp" : 1,
								"digest" : "number to be list element 3",
								"defaultarg" : 3,
								"isalias" : 0,
								"aliases" : [  ],
								"settable" : 1,
								"attachable" : 0,
								"isparam" : 0,
								"deprecated" : 0,
								"inlet" : 1,
								"type" : "number",
								"defaultValue" : "0"
							}
,
							"in4" : 							{
								"attrOrProp" : 1,
								"digest" : "number to be list element 4",
								"defaultarg" : 4,
								"isalias" : 0,
								"aliases" : [  ],
								"settable" : 1,
								"attachable" : 0,
								"isparam" : 0,
								"deprecated" : 0,
								"inlet" : 1,
								"type" : "number",
								"defaultValue" : "0"
							}
,
							"length" : 							{
								"attrOrProp" : 2,
								"digest" : "how many things to pack",
								"isalias" : 0,
								"aliases" : [  ],
								"settable" : 1,
								"attachable" : 0,
								"isparam" : 0,
								"deprecated" : 0,
								"type" : "number"
							}
,
							"list" : 							{
								"attrOrProp" : 2,
								"digest" : "the list to initialize the {@objectname} object with",
								"isalias" : 0,
								"aliases" : [  ],
								"settable" : 1,
								"attachable" : 0,
								"isparam" : 0,
								"deprecated" : 0,
								"type" : "list"
							}

						}
,
						"inputs" : [ 							{
								"name" : "in1",
								"type" : "number",
								"digest" : "number to be list element 1",
								"defaultarg" : 1,
								"hot" : 1,
								"docked" : 0
							}
, 							{
								"name" : "in2",
								"type" : "number",
								"digest" : "number to be list element 2",
								"defaultarg" : 2,
								"hot" : 1,
								"docked" : 0
							}
, 							{
								"name" : "in3",
								"type" : "number",
								"digest" : "number to be list element 3",
								"defaultarg" : 3,
								"hot" : 1,
								"docked" : 0
							}
, 							{
								"name" : "in4",
								"type" : "number",
								"digest" : "number to be list element 4",
								"defaultarg" : 4,
								"hot" : 1,
								"docked" : 0
							}
 ],
						"outputs" : [ 							{
								"name" : "out",
								"type" : "list",
								"digest" : "out",
								"docked" : 0
							}
 ],
						"helpname" : "pak",
						"aliasOf" : "pack",
						"classname" : "pak",
						"operator" : 0,
						"versionId" : 2113152561,
						"changesPatcherIO" : 0
					}
,
					"text" : "pak i i i i"
				}

			}
, 			{
				"box" : 				{
					"id" : "obj-795",
					"maxclass" : "newobj",
					"numinlets" : 3,
					"numoutlets" : 1,
					"outlettype" : [ "" ],
					"patching_rect" : [ 1001.0, 1388.0, 93.440072142974259, 23.0 ],
					"rnbo_classname" : "switch",
					"rnbo_serial" : 1,
					"rnbo_uniqueid" : "switch_obj-795",
					"rnboinfo" : 					{
						"needsInstanceInfo" : 1,
						"argnames" : 						{
							"onoff" : 							{
								"attrOrProp" : 1,
								"digest" : "0 Turns switch Off, Non-zero Selects Input, Bang Reports Inlet.",
								"defaultarg" : 2,
								"isalias" : 0,
								"aliases" : [  ],
								"settable" : 1,
								"attachable" : 0,
								"isparam" : 0,
								"deprecated" : 0,
								"inlet" : 1,
								"type" : "number",
								"defaultValue" : "0"
							}
,
							"inputs" : 							{
								"attrOrProp" : 2,
								"digest" : "Number of inputs.",
								"defaultarg" : 1,
								"isalias" : 0,
								"aliases" : [  ],
								"settable" : 1,
								"attachable" : 0,
								"isparam" : 0,
								"deprecated" : 0,
								"type" : "number",
								"defaultValue" : "2"
							}

						}
,
						"inputs" : [ 							{
								"name" : "onoff",
								"type" : "number",
								"digest" : "0 Turns switch Off, Non-zero Selects Input, Bang Reports Inlet.",
								"defaultarg" : 2,
								"hot" : 1,
								"docked" : 0
							}
, 							{
								"name" : "in1",
								"type" : [ "bang", "number", "list" ],
								"digest" : "Switch Input 1",
								"hot" : 1,
								"docked" : 0
							}
, 							{
								"name" : "in2",
								"type" : [ "bang", "number", "list" ],
								"digest" : "Switch Input 2",
								"hot" : 1,
								"docked" : 0
							}
 ],
						"outputs" : [ 							{
								"name" : "out",
								"type" : [ "bang", "number", "list" ],
								"digest" : "Messages from selected input.",
								"docked" : 0
							}
 ],
						"helpname" : "switch",
						"aliasOf" : "switch",
						"classname" : "switch",
						"operator" : 0,
						"versionId" : 1043375357,
						"changesPatcherIO" : 0
					}
,
					"text" : "switch 2 1"
				}

			}
, 			{
				"box" : 				{
					"id" : "obj-794",
					"maxclass" : "newobj",
					"numinlets" : 1,
					"numoutlets" : 1,
					"outlettype" : [ "" ],
					"patching_rect" : [ 890.0, 1268.0, 23.0, 23.0 ],
					"rnbo_classname" : "t",
					"rnbo_serial" : 1,
					"rnbo_uniqueid" : "t_obj-794",
					"rnboinfo" : 					{
						"needsInstanceInfo" : 1,
						"argnames" : 						{
							"out1" : 							{
								"attrOrProp" : 1,
								"digest" : "Output order 1 (number).",
								"defaultarg" : 1,
								"isalias" : 0,
								"aliases" : [  ],
								"attachable" : 0,
								"isparam" : 0,
								"deprecated" : 0,
								"outlet" : 1,
								"type" : "number"
							}
,
							"triggers" : 							{
								"attrOrProp" : 2,
								"digest" : "The number of arguments determines the number of outlets. \t\t\t\t\t\tEach outlet sends out either a whole number, float, bang or list, \t\t\t\t\t\tas identified by symbol arguments (i, f, b, l). \t\t\t\t\t\tIf there are no arguments, there are two outlets, both of which send a float.",
								"defaultarg" : 1,
								"isalias" : 0,
								"aliases" : [  ],
								"settable" : 1,
								"attachable" : 0,
								"isparam" : 0,
								"deprecated" : 0,
								"type" : "list"
							}

						}
,
						"inputs" : [ 							{
								"name" : "input",
								"type" : [ "bang", "number", "list" ],
								"digest" : "input to distribute",
								"hot" : 1,
								"docked" : 0
							}
 ],
						"outputs" : [ 							{
								"name" : "out1",
								"type" : "number",
								"digest" : "Output order 1 (number).",
								"defaultarg" : 1,
								"docked" : 0
							}
 ],
						"helpname" : "trigger",
						"aliasOf" : "trigger",
						"classname" : "t",
						"operator" : 0,
						"versionId" : -1133428571,
						"changesPatcherIO" : 0
					}
,
					"text" : "t 1"
				}

			}
, 			{
				"box" : 				{
					"id" : "obj-154",
					"maxclass" : "newobj",
					"numinlets" : 1,
					"numoutlets" : 0,
					"patching_rect" : [ 873.0, 1006.0, 97.0, 23.0 ],
					"rnbo_classname" : "s",
					"rnbo_serial" : 1,
					"rnbo_uniqueid" : "s_obj-154",
					"text" : "s dpad_released"
				}

			}
, 			{
				"box" : 				{
					"id" : "obj-467",
					"maxclass" : "newobj",
					"numinlets" : 1,
					"numoutlets" : 3,
					"outlettype" : [ "", "", "" ],
					"patching_rect" : [ 1250.0, 821.0, 62.0, 23.0 ],
					"rnbo_classname" : "change",
					"rnbo_extra_attributes" : 					{
						"mode" : "default"
					}
,
					"rnbo_serial" : 1,
					"rnbo_uniqueid" : "change_obj-467",
					"text" : "change -1"
				}

			}
, 			{
				"box" : 				{
					"id" : "obj-466",
					"maxclass" : "newobj",
					"numinlets" : 1,
					"numoutlets" : 3,
					"outlettype" : [ "", "", "" ],
					"patching_rect" : [ 1397.0, 821.0, 62.0, 23.0 ],
					"rnbo_classname" : "change",
					"rnbo_extra_attributes" : 					{
						"mode" : "default"
					}
,
					"rnbo_serial" : 2,
					"rnbo_uniqueid" : "change_obj-466",
					"text" : "change -1"
				}

			}
, 			{
				"box" : 				{
					"id" : "obj-465",
					"maxclass" : "newobj",
					"numinlets" : 1,
					"numoutlets" : 3,
					"outlettype" : [ "", "", "" ],
					"patching_rect" : [ 1391.0, 696.0, 62.0, 23.0 ],
					"rnbo_classname" : "change",
					"rnbo_extra_attributes" : 					{
						"mode" : "default"
					}
,
					"rnbo_serial" : 3,
					"rnbo_uniqueid" : "change_obj-465",
					"text" : "change -1"
				}

			}
, 			{
				"box" : 				{
					"id" : "obj-464",
					"maxclass" : "newobj",
					"numinlets" : 1,
					"numoutlets" : 3,
					"outlettype" : [ "", "", "" ],
					"patching_rect" : [ 1237.0, 696.0, 62.0, 23.0 ],
					"rnbo_classname" : "change",
					"rnbo_extra_attributes" : 					{
						"mode" : "default"
					}
,
					"rnbo_serial" : 4,
					"rnbo_uniqueid" : "change_obj-464",
					"text" : "change -1"
				}

			}
, 			{
				"box" : 				{
					"id" : "obj-175",
					"maxclass" : "newobj",
					"numinlets" : 1,
					"numoutlets" : 3,
					"outlettype" : [ "", "", "" ],
					"patching_rect" : [ 702.0, 1763.0, 62.0, 23.0 ],
					"rnbo_classname" : "change",
					"rnbo_extra_attributes" : 					{
						"mode" : "default"
					}
,
					"rnbo_serial" : 5,
					"rnbo_uniqueid" : "change_obj-175",
					"text" : "change -1"
				}

			}
, 			{
				"box" : 				{
					"id" : "obj-165",
					"maxclass" : "newobj",
					"numinlets" : 1,
					"numoutlets" : 3,
					"outlettype" : [ "", "", "" ],
					"patching_rect" : [ 642.0, 1746.0, 62.0, 23.0 ],
					"rnbo_classname" : "change",
					"rnbo_extra_attributes" : 					{
						"mode" : "default"
					}
,
					"rnbo_serial" : 6,
					"rnbo_uniqueid" : "change_obj-165",
					"text" : "change -1"
				}

			}
, 			{
				"box" : 				{
					"id" : "obj-164",
					"maxclass" : "newobj",
					"numinlets" : 1,
					"numoutlets" : 3,
					"outlettype" : [ "", "", "" ],
					"patching_rect" : [ 583.0, 1732.0, 62.0, 23.0 ],
					"rnbo_classname" : "change",
					"rnbo_extra_attributes" : 					{
						"mode" : "default"
					}
,
					"rnbo_serial" : 7,
					"rnbo_uniqueid" : "change_obj-164",
					"text" : "change -1"
				}

			}
, 			{
				"box" : 				{
					"id" : "obj-163",
					"maxclass" : "newobj",
					"numinlets" : 1,
					"numoutlets" : 3,
					"outlettype" : [ "", "", "" ],
					"patching_rect" : [ 524.0, 1722.0, 62.0, 23.0 ],
					"rnbo_classname" : "change",
					"rnbo_extra_attributes" : 					{
						"mode" : "default"
					}
,
					"rnbo_serial" : 8,
					"rnbo_uniqueid" : "change_obj-163",
					"text" : "change -1"
				}

			}
, 			{
				"box" : 				{
					"fontface" : 1,
					"fontname" : "Ableton Sans Light",
					"fontsize" : 16.0,
					"id" : "obj-430",
					"maxclass" : "comment",
					"numinlets" : 0,
					"numoutlets" : 0,
					"patching_rect" : [ 55.0, 925.0, 93.0, 26.0 ],
					"suppressinlet" : 1,
					"text" : "↗ ↘ ↙ ↖",
					"textcolor" : [ 1.0, 1.0, 1.0, 1.0 ],
					"textjustification" : 1
				}

			}
, 			{
				"box" : 				{
					"id" : "obj-302",
					"maxclass" : "newobj",
					"numinlets" : 0,
					"numoutlets" : 1,
					"outlettype" : [ "" ],
					"patching_rect" : [ 792.0, 363.0, 28.0, 23.0 ],
					"rnbo_classname" : "r",
					"rnbo_serial" : 1,
					"rnbo_uniqueid" : "r_obj-302",
					"text" : "r ←"
				}

			}
, 			{
				"box" : 				{
					"id" : "obj-303",
					"maxclass" : "newobj",
					"numinlets" : 0,
					"numoutlets" : 1,
					"outlettype" : [ "" ],
					"patching_rect" : [ 750.0, 363.0, 25.0, 23.0 ],
					"rnbo_classname" : "r",
					"rnbo_serial" : 2,
					"rnbo_uniqueid" : "r_obj-303",
					"text" : "r ↓"
				}

			}
, 			{
				"box" : 				{
					"id" : "obj-304",
					"maxclass" : "newobj",
					"numinlets" : 0,
					"numoutlets" : 1,
					"outlettype" : [ "" ],
					"patching_rect" : [ 702.0, 363.0, 28.0, 23.0 ],
					"rnbo_classname" : "r",
					"rnbo_serial" : 3,
					"rnbo_uniqueid" : "r_obj-304",
					"text" : "r →"
				}

			}
, 			{
				"box" : 				{
					"id" : "obj-305",
					"maxclass" : "newobj",
					"numinlets" : 0,
					"numoutlets" : 1,
					"outlettype" : [ "" ],
					"patching_rect" : [ 661.0, 363.0, 25.0, 23.0 ],
					"rnbo_classname" : "r",
					"rnbo_serial" : 4,
					"rnbo_uniqueid" : "r_obj-305",
					"text" : "r ↑"
				}

			}
, 			{
				"box" : 				{
					"id" : "obj-306",
					"maxclass" : "newobj",
					"numinlets" : 1,
					"numoutlets" : 1,
					"outlettype" : [ "" ],
					"patching_rect" : [ 475.0, 1072.0, 50.0, 23.0 ],
					"rnbo_classname" : "set",
					"rnbo_serial" : 1,
					"rnbo_uniqueid" : "set_obj-306",
					"rnboinfo" : 					{
						"needsInstanceInfo" : 1,
						"argnames" : 						{
							"name" : 							{
								"attrOrProp" : 2,
								"digest" : "attribute/param to control",
								"defaultarg" : 1,
								"isalias" : 0,
								"aliases" : [  ],
								"settable" : 1,
								"attachable" : 0,
								"isparam" : 0,
								"deprecated" : 0,
								"type" : "symbol",
								"mandatory" : 1
							}

						}
,
						"inputs" : [ 							{
								"name" : "input",
								"type" : [ "bang", "number", "list", "signal" ],
								"digest" : "attribute or parameter value (bang, number, list)",
								"hot" : 1,
								"docked" : 0
							}
 ],
						"outputs" : [ 							{
								"name" : "output",
								"type" : [ "bang", "number", "list", "signal" ],
								"digest" : "connect to first inlet of gen or subpatcher",
								"docked" : 0
							}
 ],
						"helpname" : "set",
						"aliasOf" : "set",
						"classname" : "set",
						"operator" : 0,
						"versionId" : 2121358407,
						"changesPatcherIO" : 0
					}
,
					"text" : "set stop"
				}

			}
, 			{
				"box" : 				{
					"id" : "obj-307",
					"maxclass" : "newobj",
					"numinlets" : 1,
					"numoutlets" : 1,
					"outlettype" : [ "" ],
					"patching_rect" : [ 373.0, 1072.0, 50.0, 23.0 ],
					"rnbo_classname" : "set",
					"rnbo_serial" : 2,
					"rnbo_uniqueid" : "set_obj-307",
					"rnboinfo" : 					{
						"needsInstanceInfo" : 1,
						"argnames" : 						{
							"name" : 							{
								"attrOrProp" : 2,
								"digest" : "attribute/param to control",
								"defaultarg" : 1,
								"isalias" : 0,
								"aliases" : [  ],
								"settable" : 1,
								"attachable" : 0,
								"isparam" : 0,
								"deprecated" : 0,
								"type" : "symbol",
								"mandatory" : 1
							}

						}
,
						"inputs" : [ 							{
								"name" : "input",
								"type" : [ "bang", "number", "list", "signal" ],
								"digest" : "attribute or parameter value (bang, number, list)",
								"hot" : 1,
								"docked" : 0
							}
 ],
						"outputs" : [ 							{
								"name" : "output",
								"type" : [ "bang", "number", "list", "signal" ],
								"digest" : "connect to first inlet of gen or subpatcher",
								"docked" : 0
							}
 ],
						"helpname" : "set",
						"aliasOf" : "set",
						"classname" : "set",
						"operator" : 0,
						"versionId" : 2121358407,
						"changesPatcherIO" : 0
					}
,
					"text" : "set stop"
				}

			}
, 			{
				"box" : 				{
					"id" : "obj-308",
					"maxclass" : "newobj",
					"numinlets" : 1,
					"numoutlets" : 1,
					"outlettype" : [ "" ],
					"patching_rect" : [ 271.0, 1072.0, 50.0, 23.0 ],
					"rnbo_classname" : "set",
					"rnbo_serial" : 3,
					"rnbo_uniqueid" : "set_obj-308",
					"rnboinfo" : 					{
						"needsInstanceInfo" : 1,
						"argnames" : 						{
							"name" : 							{
								"attrOrProp" : 2,
								"digest" : "attribute/param to control",
								"defaultarg" : 1,
								"isalias" : 0,
								"aliases" : [  ],
								"settable" : 1,
								"attachable" : 0,
								"isparam" : 0,
								"deprecated" : 0,
								"type" : "symbol",
								"mandatory" : 1
							}

						}
,
						"inputs" : [ 							{
								"name" : "input",
								"type" : [ "bang", "number", "list", "signal" ],
								"digest" : "attribute or parameter value (bang, number, list)",
								"hot" : 1,
								"docked" : 0
							}
 ],
						"outputs" : [ 							{
								"name" : "output",
								"type" : [ "bang", "number", "list", "signal" ],
								"digest" : "connect to first inlet of gen or subpatcher",
								"docked" : 0
							}
 ],
						"helpname" : "set",
						"aliasOf" : "set",
						"classname" : "set",
						"operator" : 0,
						"versionId" : 2121358407,
						"changesPatcherIO" : 0
					}
,
					"text" : "set stop"
				}

			}
, 			{
				"box" : 				{
					"id" : "obj-309",
					"maxclass" : "newobj",
					"numinlets" : 1,
					"numoutlets" : 1,
					"outlettype" : [ "" ],
					"patching_rect" : [ 169.0, 1072.0, 50.0, 23.0 ],
					"rnbo_classname" : "set",
					"rnbo_serial" : 4,
					"rnbo_uniqueid" : "set_obj-309",
					"rnboinfo" : 					{
						"needsInstanceInfo" : 1,
						"argnames" : 						{
							"name" : 							{
								"attrOrProp" : 2,
								"digest" : "attribute/param to control",
								"defaultarg" : 1,
								"isalias" : 0,
								"aliases" : [  ],
								"settable" : 1,
								"attachable" : 0,
								"isparam" : 0,
								"deprecated" : 0,
								"type" : "symbol",
								"mandatory" : 1
							}

						}
,
						"inputs" : [ 							{
								"name" : "input",
								"type" : [ "bang", "number", "list", "signal" ],
								"digest" : "attribute or parameter value (bang, number, list)",
								"hot" : 1,
								"docked" : 0
							}
 ],
						"outputs" : [ 							{
								"name" : "output",
								"type" : [ "bang", "number", "list", "signal" ],
								"digest" : "connect to first inlet of gen or subpatcher",
								"docked" : 0
							}
 ],
						"helpname" : "set",
						"aliasOf" : "set",
						"classname" : "set",
						"operator" : 0,
						"versionId" : 2121358407,
						"changesPatcherIO" : 0
					}
,
					"text" : "set stop"
				}

			}
, 			{
				"box" : 				{
					"id" : "obj-310",
					"maxclass" : "newobj",
					"numinlets" : 2,
					"numoutlets" : 1,
					"outlettype" : [ "" ],
					"patching_rect" : [ 529.0, 1136.0, 46.0, 23.0 ],
					"rnbo_classname" : "delay",
					"rnbo_serial" : 1,
					"rnbo_uniqueid" : "delay_obj-310",
					"text" : "delay 0"
				}

			}
, 			{
				"box" : 				{
					"id" : "obj-311",
					"maxclass" : "newobj",
					"numinlets" : 2,
					"numoutlets" : 1,
					"outlettype" : [ "" ],
					"patching_rect" : [ 427.0, 1136.0, 46.0, 23.0 ],
					"rnbo_classname" : "delay",
					"rnbo_serial" : 2,
					"rnbo_uniqueid" : "delay_obj-311",
					"text" : "delay 0"
				}

			}
, 			{
				"box" : 				{
					"id" : "obj-312",
					"maxclass" : "newobj",
					"numinlets" : 2,
					"numoutlets" : 1,
					"outlettype" : [ "" ],
					"patching_rect" : [ 324.0, 1136.0, 46.0, 23.0 ],
					"rnbo_classname" : "delay",
					"rnbo_serial" : 3,
					"rnbo_uniqueid" : "delay_obj-312",
					"text" : "delay 0"
				}

			}
, 			{
				"box" : 				{
					"id" : "obj-313",
					"maxclass" : "newobj",
					"numinlets" : 2,
					"numoutlets" : 1,
					"outlettype" : [ "" ],
					"patching_rect" : [ 222.0, 1136.0, 46.0, 23.0 ],
					"rnbo_classname" : "delay",
					"rnbo_serial" : 4,
					"rnbo_uniqueid" : "delay_obj-313",
					"text" : "delay 0"
				}

			}
, 			{
				"box" : 				{
					"id" : "obj-314",
					"maxclass" : "newobj",
					"numinlets" : 3,
					"numoutlets" : 3,
					"outlettype" : [ "", "", "" ],
					"patching_rect" : [ 517.0, 1012.0, 44.0, 23.0 ],
					"rnbo_classname" : "sel",
					"rnbo_serial" : 1,
					"rnbo_uniqueid" : "sel_obj-314",
					"rnboinfo" : 					{
						"needsInstanceInfo" : 1,
						"argnames" : 						{
							"input" : 							{
								"attrOrProp" : 1,
								"digest" : "Number to test",
								"isalias" : 0,
								"aliases" : [  ],
								"attachable" : 0,
								"isparam" : 0,
								"deprecated" : 0,
								"inlet" : 1,
								"type" : "number"
							}
,
							"test1" : 							{
								"attrOrProp" : 1,
								"digest" : "Set Value (1) to Match",
								"defaultarg" : 1,
								"isalias" : 0,
								"aliases" : [  ],
								"settable" : 1,
								"attachable" : 0,
								"isparam" : 0,
								"deprecated" : 0,
								"inlet" : 1,
								"type" : "number",
								"defaultValue" : "0"
							}
,
							"test2" : 							{
								"attrOrProp" : 1,
								"digest" : "Set Value (2) to Match",
								"defaultarg" : 2,
								"isalias" : 0,
								"aliases" : [  ],
								"settable" : 1,
								"attachable" : 0,
								"isparam" : 0,
								"deprecated" : 0,
								"inlet" : 1,
								"type" : "number",
								"defaultValue" : "1"
							}
,
							"match1" : 							{
								"attrOrProp" : 1,
								"digest" : "Bang if input matches 0",
								"isalias" : 0,
								"aliases" : [  ],
								"attachable" : 0,
								"isparam" : 0,
								"deprecated" : 0,
								"outlet" : 1,
								"type" : "bang"
							}
,
							"match2" : 							{
								"attrOrProp" : 1,
								"digest" : "Bang if input matches 1",
								"isalias" : 0,
								"aliases" : [  ],
								"attachable" : 0,
								"isparam" : 0,
								"deprecated" : 0,
								"outlet" : 1,
								"type" : "bang"
							}
,
							"nomatch" : 							{
								"attrOrProp" : 1,
								"digest" : "Input if Input Doesn't Match",
								"isalias" : 0,
								"aliases" : [  ],
								"attachable" : 0,
								"isparam" : 0,
								"deprecated" : 0,
								"outlet" : 1,
								"type" : "number",
								"defaultValue" : "0"
							}

						}
,
						"inputs" : [ 							{
								"name" : "input",
								"type" : [ "number", "bang" ],
								"digest" : "Number to test",
								"hot" : 1,
								"docked" : 0
							}
, 							{
								"name" : "test1",
								"type" : "number",
								"digest" : "Set Value (1) to Match",
								"defaultarg" : 1,
								"docked" : 0
							}
, 							{
								"name" : "test2",
								"type" : "number",
								"digest" : "Set Value (2) to Match",
								"defaultarg" : 2,
								"docked" : 0
							}
 ],
						"outputs" : [ 							{
								"name" : "match1",
								"type" : "bang",
								"digest" : "Bang if input matches 0",
								"docked" : 0
							}
, 							{
								"name" : "match2",
								"type" : "bang",
								"digest" : "Bang if input matches 1",
								"docked" : 0
							}
, 							{
								"name" : "nomatch",
								"type" : [ "number", "bang" ],
								"digest" : "Input if Input Doesn't Match",
								"docked" : 0
							}
 ],
						"helpname" : "select",
						"aliasOf" : "select",
						"classname" : "sel",
						"operator" : 0,
						"versionId" : 902197102,
						"changesPatcherIO" : 0
					}
,
					"text" : "sel 0 1"
				}

			}
, 			{
				"box" : 				{
					"id" : "obj-315",
					"maxclass" : "newobj",
					"numinlets" : 3,
					"numoutlets" : 3,
					"outlettype" : [ "", "", "" ],
					"patching_rect" : [ 414.0, 1012.0, 44.0, 23.0 ],
					"rnbo_classname" : "sel",
					"rnbo_serial" : 2,
					"rnbo_uniqueid" : "sel_obj-315",
					"rnboinfo" : 					{
						"needsInstanceInfo" : 1,
						"argnames" : 						{
							"input" : 							{
								"attrOrProp" : 1,
								"digest" : "Number to test",
								"isalias" : 0,
								"aliases" : [  ],
								"attachable" : 0,
								"isparam" : 0,
								"deprecated" : 0,
								"inlet" : 1,
								"type" : "number"
							}
,
							"test1" : 							{
								"attrOrProp" : 1,
								"digest" : "Set Value (1) to Match",
								"defaultarg" : 1,
								"isalias" : 0,
								"aliases" : [  ],
								"settable" : 1,
								"attachable" : 0,
								"isparam" : 0,
								"deprecated" : 0,
								"inlet" : 1,
								"type" : "number",
								"defaultValue" : "0"
							}
,
							"test2" : 							{
								"attrOrProp" : 1,
								"digest" : "Set Value (2) to Match",
								"defaultarg" : 2,
								"isalias" : 0,
								"aliases" : [  ],
								"settable" : 1,
								"attachable" : 0,
								"isparam" : 0,
								"deprecated" : 0,
								"inlet" : 1,
								"type" : "number",
								"defaultValue" : "1"
							}
,
							"match1" : 							{
								"attrOrProp" : 1,
								"digest" : "Bang if input matches 0",
								"isalias" : 0,
								"aliases" : [  ],
								"attachable" : 0,
								"isparam" : 0,
								"deprecated" : 0,
								"outlet" : 1,
								"type" : "bang"
							}
,
							"match2" : 							{
								"attrOrProp" : 1,
								"digest" : "Bang if input matches 1",
								"isalias" : 0,
								"aliases" : [  ],
								"attachable" : 0,
								"isparam" : 0,
								"deprecated" : 0,
								"outlet" : 1,
								"type" : "bang"
							}
,
							"nomatch" : 							{
								"attrOrProp" : 1,
								"digest" : "Input if Input Doesn't Match",
								"isalias" : 0,
								"aliases" : [  ],
								"attachable" : 0,
								"isparam" : 0,
								"deprecated" : 0,
								"outlet" : 1,
								"type" : "number",
								"defaultValue" : "0"
							}

						}
,
						"inputs" : [ 							{
								"name" : "input",
								"type" : [ "number", "bang" ],
								"digest" : "Number to test",
								"hot" : 1,
								"docked" : 0
							}
, 							{
								"name" : "test1",
								"type" : "number",
								"digest" : "Set Value (1) to Match",
								"defaultarg" : 1,
								"docked" : 0
							}
, 							{
								"name" : "test2",
								"type" : "number",
								"digest" : "Set Value (2) to Match",
								"defaultarg" : 2,
								"docked" : 0
							}
 ],
						"outputs" : [ 							{
								"name" : "match1",
								"type" : "bang",
								"digest" : "Bang if input matches 0",
								"docked" : 0
							}
, 							{
								"name" : "match2",
								"type" : "bang",
								"digest" : "Bang if input matches 1",
								"docked" : 0
							}
, 							{
								"name" : "nomatch",
								"type" : [ "number", "bang" ],
								"digest" : "Input if Input Doesn't Match",
								"docked" : 0
							}
 ],
						"helpname" : "select",
						"aliasOf" : "select",
						"classname" : "sel",
						"operator" : 0,
						"versionId" : 902197102,
						"changesPatcherIO" : 0
					}
,
					"text" : "sel 0 1"
				}

			}
, 			{
				"box" : 				{
					"id" : "obj-316",
					"maxclass" : "newobj",
					"numinlets" : 3,
					"numoutlets" : 3,
					"outlettype" : [ "", "", "" ],
					"patching_rect" : [ 312.0, 1012.0, 44.0, 23.0 ],
					"rnbo_classname" : "sel",
					"rnbo_serial" : 3,
					"rnbo_uniqueid" : "sel_obj-316",
					"rnboinfo" : 					{
						"needsInstanceInfo" : 1,
						"argnames" : 						{
							"input" : 							{
								"attrOrProp" : 1,
								"digest" : "Number to test",
								"isalias" : 0,
								"aliases" : [  ],
								"attachable" : 0,
								"isparam" : 0,
								"deprecated" : 0,
								"inlet" : 1,
								"type" : "number"
							}
,
							"test1" : 							{
								"attrOrProp" : 1,
								"digest" : "Set Value (1) to Match",
								"defaultarg" : 1,
								"isalias" : 0,
								"aliases" : [  ],
								"settable" : 1,
								"attachable" : 0,
								"isparam" : 0,
								"deprecated" : 0,
								"inlet" : 1,
								"type" : "number",
								"defaultValue" : "0"
							}
,
							"test2" : 							{
								"attrOrProp" : 1,
								"digest" : "Set Value (2) to Match",
								"defaultarg" : 2,
								"isalias" : 0,
								"aliases" : [  ],
								"settable" : 1,
								"attachable" : 0,
								"isparam" : 0,
								"deprecated" : 0,
								"inlet" : 1,
								"type" : "number",
								"defaultValue" : "1"
							}
,
							"match1" : 							{
								"attrOrProp" : 1,
								"digest" : "Bang if input matches 0",
								"isalias" : 0,
								"aliases" : [  ],
								"attachable" : 0,
								"isparam" : 0,
								"deprecated" : 0,
								"outlet" : 1,
								"type" : "bang"
							}
,
							"match2" : 							{
								"attrOrProp" : 1,
								"digest" : "Bang if input matches 1",
								"isalias" : 0,
								"aliases" : [  ],
								"attachable" : 0,
								"isparam" : 0,
								"deprecated" : 0,
								"outlet" : 1,
								"type" : "bang"
							}
,
							"nomatch" : 							{
								"attrOrProp" : 1,
								"digest" : "Input if Input Doesn't Match",
								"isalias" : 0,
								"aliases" : [  ],
								"attachable" : 0,
								"isparam" : 0,
								"deprecated" : 0,
								"outlet" : 1,
								"type" : "number",
								"defaultValue" : "0"
							}

						}
,
						"inputs" : [ 							{
								"name" : "input",
								"type" : [ "number", "bang" ],
								"digest" : "Number to test",
								"hot" : 1,
								"docked" : 0
							}
, 							{
								"name" : "test1",
								"type" : "number",
								"digest" : "Set Value (1) to Match",
								"defaultarg" : 1,
								"docked" : 0
							}
, 							{
								"name" : "test2",
								"type" : "number",
								"digest" : "Set Value (2) to Match",
								"defaultarg" : 2,
								"docked" : 0
							}
 ],
						"outputs" : [ 							{
								"name" : "match1",
								"type" : "bang",
								"digest" : "Bang if input matches 0",
								"docked" : 0
							}
, 							{
								"name" : "match2",
								"type" : "bang",
								"digest" : "Bang if input matches 1",
								"docked" : 0
							}
, 							{
								"name" : "nomatch",
								"type" : [ "number", "bang" ],
								"digest" : "Input if Input Doesn't Match",
								"docked" : 0
							}
 ],
						"helpname" : "select",
						"aliasOf" : "select",
						"classname" : "sel",
						"operator" : 0,
						"versionId" : 902197102,
						"changesPatcherIO" : 0
					}
,
					"text" : "sel 0 1"
				}

			}
, 			{
				"box" : 				{
					"id" : "obj-317",
					"maxclass" : "newobj",
					"numinlets" : 3,
					"numoutlets" : 3,
					"outlettype" : [ "", "", "" ],
					"patching_rect" : [ 209.0, 1012.0, 44.0, 23.0 ],
					"rnbo_classname" : "sel",
					"rnbo_serial" : 4,
					"rnbo_uniqueid" : "sel_obj-317",
					"rnboinfo" : 					{
						"needsInstanceInfo" : 1,
						"argnames" : 						{
							"input" : 							{
								"attrOrProp" : 1,
								"digest" : "Number to test",
								"isalias" : 0,
								"aliases" : [  ],
								"attachable" : 0,
								"isparam" : 0,
								"deprecated" : 0,
								"inlet" : 1,
								"type" : "number"
							}
,
							"test1" : 							{
								"attrOrProp" : 1,
								"digest" : "Set Value (1) to Match",
								"defaultarg" : 1,
								"isalias" : 0,
								"aliases" : [  ],
								"settable" : 1,
								"attachable" : 0,
								"isparam" : 0,
								"deprecated" : 0,
								"inlet" : 1,
								"type" : "number",
								"defaultValue" : "0"
							}
,
							"test2" : 							{
								"attrOrProp" : 1,
								"digest" : "Set Value (2) to Match",
								"defaultarg" : 2,
								"isalias" : 0,
								"aliases" : [  ],
								"settable" : 1,
								"attachable" : 0,
								"isparam" : 0,
								"deprecated" : 0,
								"inlet" : 1,
								"type" : "number",
								"defaultValue" : "1"
							}
,
							"match1" : 							{
								"attrOrProp" : 1,
								"digest" : "Bang if input matches 0",
								"isalias" : 0,
								"aliases" : [  ],
								"attachable" : 0,
								"isparam" : 0,
								"deprecated" : 0,
								"outlet" : 1,
								"type" : "bang"
							}
,
							"match2" : 							{
								"attrOrProp" : 1,
								"digest" : "Bang if input matches 1",
								"isalias" : 0,
								"aliases" : [  ],
								"attachable" : 0,
								"isparam" : 0,
								"deprecated" : 0,
								"outlet" : 1,
								"type" : "bang"
							}
,
							"nomatch" : 							{
								"attrOrProp" : 1,
								"digest" : "Input if Input Doesn't Match",
								"isalias" : 0,
								"aliases" : [  ],
								"attachable" : 0,
								"isparam" : 0,
								"deprecated" : 0,
								"outlet" : 1,
								"type" : "number",
								"defaultValue" : "0"
							}

						}
,
						"inputs" : [ 							{
								"name" : "input",
								"type" : [ "number", "bang" ],
								"digest" : "Number to test",
								"hot" : 1,
								"docked" : 0
							}
, 							{
								"name" : "test1",
								"type" : "number",
								"digest" : "Set Value (1) to Match",
								"defaultarg" : 1,
								"docked" : 0
							}
, 							{
								"name" : "test2",
								"type" : "number",
								"digest" : "Set Value (2) to Match",
								"defaultarg" : 2,
								"docked" : 0
							}
 ],
						"outputs" : [ 							{
								"name" : "match1",
								"type" : "bang",
								"digest" : "Bang if input matches 0",
								"docked" : 0
							}
, 							{
								"name" : "match2",
								"type" : "bang",
								"digest" : "Bang if input matches 1",
								"docked" : 0
							}
, 							{
								"name" : "nomatch",
								"type" : [ "number", "bang" ],
								"digest" : "Input if Input Doesn't Match",
								"docked" : 0
							}
 ],
						"helpname" : "select",
						"aliasOf" : "select",
						"classname" : "sel",
						"operator" : 0,
						"versionId" : 902197102,
						"changesPatcherIO" : 0
					}
,
					"text" : "sel 0 1"
				}

			}
, 			{
				"box" : 				{
					"fontname" : "Ableton Sans Light",
					"id" : "obj-323",
					"maxclass" : "comment",
					"numinlets" : 0,
					"numoutlets" : 0,
					"patching_rect" : [ 873.0, 954.0, 150.0, 21.0 ],
					"suppressinlet" : 1,
					"text" : "bang when dpad released"
				}

			}
, 			{
				"box" : 				{
					"fontname" : "Ableton Sans Light",
					"id" : "obj-325",
					"linecount" : 3,
					"maxclass" : "comment",
					"numinlets" : 0,
					"numoutlets" : 0,
					"patching_rect" : [ 338.0, 1358.0, 151.0, 50.0 ],
					"suppressinlet" : 1,
					"text" : "when diagonal pressed, set \"up down left right\" to 0 and close gate"
				}

			}
, 			{
				"box" : 				{
					"fontname" : "Ableton Sans Light",
					"id" : "obj-326",
					"linecount" : 3,
					"maxclass" : "comment",
					"numinlets" : 0,
					"numoutlets" : 0,
					"patching_rect" : [ 787.0, 1185.0, 150.0, 50.0 ],
					"suppressinlet" : 1,
					"text" : "open gate and bang out current state of \"up down left right\""
				}

			}
, 			{
				"box" : 				{
					"id" : "obj-331",
					"maxclass" : "newobj",
					"numinlets" : 3,
					"numoutlets" : 3,
					"outlettype" : [ "", "", "" ],
					"patching_rect" : [ 1143.0, 1239.0, 44.0, 23.0 ],
					"rnbo_classname" : "sel",
					"rnbo_serial" : 5,
					"rnbo_uniqueid" : "sel_obj-331",
					"rnboinfo" : 					{
						"needsInstanceInfo" : 1,
						"argnames" : 						{
							"input" : 							{
								"attrOrProp" : 1,
								"digest" : "Number to test",
								"isalias" : 0,
								"aliases" : [  ],
								"attachable" : 0,
								"isparam" : 0,
								"deprecated" : 0,
								"inlet" : 1,
								"type" : "number"
							}
,
							"test1" : 							{
								"attrOrProp" : 1,
								"digest" : "Set Value (1) to Match",
								"defaultarg" : 1,
								"isalias" : 0,
								"aliases" : [  ],
								"settable" : 1,
								"attachable" : 0,
								"isparam" : 0,
								"deprecated" : 0,
								"inlet" : 1,
								"type" : "number",
								"defaultValue" : "0"
							}
,
							"test2" : 							{
								"attrOrProp" : 1,
								"digest" : "Set Value (2) to Match",
								"defaultarg" : 2,
								"isalias" : 0,
								"aliases" : [  ],
								"settable" : 1,
								"attachable" : 0,
								"isparam" : 0,
								"deprecated" : 0,
								"inlet" : 1,
								"type" : "number",
								"defaultValue" : "1"
							}
,
							"match1" : 							{
								"attrOrProp" : 1,
								"digest" : "Bang if input matches 0",
								"isalias" : 0,
								"aliases" : [  ],
								"attachable" : 0,
								"isparam" : 0,
								"deprecated" : 0,
								"outlet" : 1,
								"type" : "bang"
							}
,
							"match2" : 							{
								"attrOrProp" : 1,
								"digest" : "Bang if input matches 1",
								"isalias" : 0,
								"aliases" : [  ],
								"attachable" : 0,
								"isparam" : 0,
								"deprecated" : 0,
								"outlet" : 1,
								"type" : "bang"
							}
,
							"nomatch" : 							{
								"attrOrProp" : 1,
								"digest" : "Input if Input Doesn't Match",
								"isalias" : 0,
								"aliases" : [  ],
								"attachable" : 0,
								"isparam" : 0,
								"deprecated" : 0,
								"outlet" : 1,
								"type" : "number",
								"defaultValue" : "0"
							}

						}
,
						"inputs" : [ 							{
								"name" : "input",
								"type" : [ "number", "bang" ],
								"digest" : "Number to test",
								"hot" : 1,
								"docked" : 0
							}
, 							{
								"name" : "test1",
								"type" : "number",
								"digest" : "Set Value (1) to Match",
								"defaultarg" : 1,
								"docked" : 0
							}
, 							{
								"name" : "test2",
								"type" : "number",
								"digest" : "Set Value (2) to Match",
								"defaultarg" : 2,
								"docked" : 0
							}
 ],
						"outputs" : [ 							{
								"name" : "match1",
								"type" : "bang",
								"digest" : "Bang if input matches 0",
								"docked" : 0
							}
, 							{
								"name" : "match2",
								"type" : "bang",
								"digest" : "Bang if input matches 1",
								"docked" : 0
							}
, 							{
								"name" : "nomatch",
								"type" : [ "number", "bang" ],
								"digest" : "Input if Input Doesn't Match",
								"docked" : 0
							}
 ],
						"helpname" : "select",
						"aliasOf" : "select",
						"classname" : "sel",
						"operator" : 0,
						"versionId" : 902197102,
						"changesPatcherIO" : 0
					}
,
					"text" : "sel 0 1"
				}

			}
, 			{
				"box" : 				{
					"id" : "obj-335",
					"maxclass" : "newobj",
					"numinlets" : 2,
					"numoutlets" : 1,
					"outlettype" : [ "" ],
					"patching_rect" : [ 1143.0, 1275.0, 46.0, 23.0 ],
					"rnbo_classname" : "delay",
					"rnbo_serial" : 5,
					"rnbo_uniqueid" : "delay_obj-335",
					"text" : "delay 0"
				}

			}
, 			{
				"box" : 				{
					"id" : "obj-336",
					"maxclass" : "newobj",
					"numinlets" : 2,
					"numoutlets" : 1,
					"outlettype" : [ "" ],
					"patching_rect" : [ 719.0, 1335.0, 29.5, 23.0 ],
					"rnbo_classname" : "i",
					"rnbo_extra_attributes" : 					{
						"initial" : 0.0
					}
,
					"rnbo_serial" : 5,
					"rnbo_uniqueid" : "i_obj-336",
					"text" : "i"
				}

			}
, 			{
				"box" : 				{
					"id" : "obj-337",
					"maxclass" : "newobj",
					"numinlets" : 2,
					"numoutlets" : 1,
					"outlettype" : [ "" ],
					"patching_rect" : [ 670.0, 1335.0, 29.5, 23.0 ],
					"rnbo_classname" : "i",
					"rnbo_extra_attributes" : 					{
						"initial" : 0.0
					}
,
					"rnbo_serial" : 6,
					"rnbo_uniqueid" : "i_obj-337",
					"text" : "i"
				}

			}
, 			{
				"box" : 				{
					"id" : "obj-338",
					"maxclass" : "newobj",
					"numinlets" : 2,
					"numoutlets" : 1,
					"outlettype" : [ "" ],
					"patching_rect" : [ 617.0, 1334.0, 29.5, 23.0 ],
					"rnbo_classname" : "i",
					"rnbo_extra_attributes" : 					{
						"initial" : 0.0
					}
,
					"rnbo_serial" : 7,
					"rnbo_uniqueid" : "i_obj-338",
					"text" : "i"
				}

			}
, 			{
				"box" : 				{
					"id" : "obj-340",
					"maxclass" : "newobj",
					"numinlets" : 2,
					"numoutlets" : 1,
					"outlettype" : [ "" ],
					"patching_rect" : [ 562.0, 1334.0, 29.5, 23.0 ],
					"rnbo_classname" : "i",
					"rnbo_extra_attributes" : 					{
						"initial" : 0.0
					}
,
					"rnbo_serial" : 8,
					"rnbo_uniqueid" : "i_obj-340",
					"text" : "i"
				}

			}
, 			{
				"box" : 				{
					"id" : "obj-344",
					"maxclass" : "newobj",
					"numinlets" : 3,
					"numoutlets" : 1,
					"outlettype" : [ "" ],
					"patching_rect" : [ 1064.0, 1332.0, 93.440072142974259, 23.0 ],
					"rnbo_classname" : "switch",
					"rnbo_serial" : 2,
					"rnbo_uniqueid" : "switch_obj-344",
					"rnboinfo" : 					{
						"needsInstanceInfo" : 1,
						"argnames" : 						{
							"onoff" : 							{
								"attrOrProp" : 1,
								"digest" : "0 Turns switch Off, Non-zero Selects Input, Bang Reports Inlet.",
								"defaultarg" : 2,
								"isalias" : 0,
								"aliases" : [  ],
								"settable" : 1,
								"attachable" : 0,
								"isparam" : 0,
								"deprecated" : 0,
								"inlet" : 1,
								"type" : "number",
								"defaultValue" : "0"
							}
,
							"inputs" : 							{
								"attrOrProp" : 2,
								"digest" : "Number of inputs.",
								"defaultarg" : 1,
								"isalias" : 0,
								"aliases" : [  ],
								"settable" : 1,
								"attachable" : 0,
								"isparam" : 0,
								"deprecated" : 0,
								"type" : "number",
								"defaultValue" : "2"
							}

						}
,
						"inputs" : [ 							{
								"name" : "onoff",
								"type" : "number",
								"digest" : "0 Turns switch Off, Non-zero Selects Input, Bang Reports Inlet.",
								"defaultarg" : 2,
								"hot" : 1,
								"docked" : 0
							}
, 							{
								"name" : "in1",
								"type" : [ "bang", "number", "list" ],
								"digest" : "Switch Input 1",
								"hot" : 1,
								"docked" : 0
							}
, 							{
								"name" : "in2",
								"type" : [ "bang", "number", "list" ],
								"digest" : "Switch Input 2",
								"hot" : 1,
								"docked" : 0
							}
 ],
						"outputs" : [ 							{
								"name" : "out",
								"type" : [ "bang", "number", "list" ],
								"digest" : "Messages from selected input.",
								"docked" : 0
							}
 ],
						"helpname" : "switch",
						"aliasOf" : "switch",
						"classname" : "switch",
						"operator" : 0,
						"versionId" : 1043375357,
						"changesPatcherIO" : 0
					}
,
					"text" : "switch 2 1"
				}

			}
, 			{
				"box" : 				{
					"id" : "obj-345",
					"maxclass" : "newobj",
					"numinlets" : 2,
					"numoutlets" : 2,
					"outlettype" : [ "", "" ],
					"patching_rect" : [ 835.0, 953.0, 34.0, 23.0 ],
					"rnbo_classname" : "sel",
					"rnbo_serial" : 6,
					"rnbo_uniqueid" : "sel_obj-345",
					"rnboinfo" : 					{
						"needsInstanceInfo" : 1,
						"argnames" : 						{
							"input" : 							{
								"attrOrProp" : 1,
								"digest" : "Number to test",
								"isalias" : 0,
								"aliases" : [  ],
								"attachable" : 0,
								"isparam" : 0,
								"deprecated" : 0,
								"inlet" : 1,
								"type" : "number"
							}
,
							"test1" : 							{
								"attrOrProp" : 1,
								"digest" : "Set Value (1) to Match",
								"defaultarg" : 1,
								"isalias" : 0,
								"aliases" : [  ],
								"settable" : 1,
								"attachable" : 0,
								"isparam" : 0,
								"deprecated" : 0,
								"inlet" : 1,
								"type" : "number",
								"defaultValue" : "0"
							}
,
							"match1" : 							{
								"attrOrProp" : 1,
								"digest" : "Bang if input matches 0",
								"isalias" : 0,
								"aliases" : [  ],
								"attachable" : 0,
								"isparam" : 0,
								"deprecated" : 0,
								"outlet" : 1,
								"type" : "bang"
							}
,
							"nomatch" : 							{
								"attrOrProp" : 1,
								"digest" : "Input if Input Doesn't Match",
								"isalias" : 0,
								"aliases" : [  ],
								"attachable" : 0,
								"isparam" : 0,
								"deprecated" : 0,
								"outlet" : 1,
								"type" : "number",
								"defaultValue" : "0"
							}

						}
,
						"inputs" : [ 							{
								"name" : "input",
								"type" : [ "number", "bang" ],
								"digest" : "Number to test",
								"hot" : 1,
								"docked" : 0
							}
, 							{
								"name" : "test1",
								"type" : "number",
								"digest" : "Set Value (1) to Match",
								"defaultarg" : 1,
								"docked" : 0
							}
 ],
						"outputs" : [ 							{
								"name" : "match1",
								"type" : "bang",
								"digest" : "Bang if input matches 0",
								"docked" : 0
							}
, 							{
								"name" : "nomatch",
								"type" : [ "number", "bang" ],
								"digest" : "Input if Input Doesn't Match",
								"docked" : 0
							}
 ],
						"helpname" : "select",
						"aliasOf" : "select",
						"classname" : "sel",
						"operator" : 0,
						"versionId" : 902197102,
						"changesPatcherIO" : 0
					}
,
					"text" : "sel 0"
				}

			}
, 			{
				"box" : 				{
					"id" : "obj-346",
					"maxclass" : "newobj",
					"numinlets" : 1,
					"numoutlets" : 3,
					"outlettype" : [ "", "", "" ],
					"patching_rect" : [ 1143.0, 1206.0, 62.0, 23.0 ],
					"rnbo_classname" : "change",
					"rnbo_extra_attributes" : 					{
						"mode" : "default"
					}
,
					"rnbo_serial" : 9,
					"rnbo_uniqueid" : "change_obj-346",
					"text" : "change -1"
				}

			}
, 			{
				"box" : 				{
					"fontname" : "Ableton Sans Light",
					"id" : "obj-347",
					"maxclass" : "comment",
					"numinlets" : 0,
					"numoutlets" : 0,
					"patching_rect" : [ 1205.0, 1207.0, 147.624118707984962, 21.0 ],
					"suppressinlet" : 1,
					"text" : "is dpad diagonal pressed?"
				}

			}
, 			{
				"box" : 				{
					"id" : "obj-254",
					"maxclass" : "newobj",
					"numinlets" : 1,
					"numoutlets" : 0,
					"patching_rect" : [ 1391.0, 730.0, 43.0, 23.0 ],
					"rnbo_classname" : "s",
					"rnbo_serial" : 2,
					"rnbo_uniqueid" : "s_obj-254",
					"text" : "s U-R_"
				}

			}
, 			{
				"box" : 				{
					"id" : "obj-352",
					"maxclass" : "newobj",
					"numinlets" : 1,
					"numoutlets" : 0,
					"patching_rect" : [ 1237.0, 734.0, 42.0, 23.0 ],
					"rnbo_classname" : "s",
					"rnbo_serial" : 3,
					"rnbo_uniqueid" : "s_obj-352",
					"text" : "s U-L_"
				}

			}
, 			{
				"box" : 				{
					"id" : "obj-256",
					"maxclass" : "newobj",
					"numinlets" : 1,
					"numoutlets" : 0,
					"patching_rect" : [ 1397.0, 853.0, 43.0, 23.0 ],
					"rnbo_classname" : "s",
					"rnbo_serial" : 4,
					"rnbo_uniqueid" : "s_obj-256",
					"text" : "s D-R_"
				}

			}
, 			{
				"box" : 				{
					"id" : "obj-353",
					"maxclass" : "newobj",
					"numinlets" : 1,
					"numoutlets" : 0,
					"patching_rect" : [ 1250.0, 853.0, 42.0, 23.0 ],
					"rnbo_classname" : "s",
					"rnbo_serial" : 5,
					"rnbo_uniqueid" : "s_obj-353",
					"text" : "s D-L_"
				}

			}
, 			{
				"box" : 				{
					"id" : "obj-361",
					"maxclass" : "newobj",
					"numinlets" : 1,
					"numoutlets" : 3,
					"outlettype" : [ "", "", "" ],
					"patching_rect" : [ 835.0, 909.0, 62.0, 23.0 ],
					"rnbo_classname" : "change",
					"rnbo_extra_attributes" : 					{
						"mode" : "default"
					}
,
					"rnbo_serial" : 10,
					"rnbo_uniqueid" : "change_obj-361",
					"text" : "change -1"
				}

			}
, 			{
				"box" : 				{
					"fontname" : "Ableton Sans Light",
					"id" : "obj-362",
					"maxclass" : "comment",
					"numinlets" : 0,
					"numoutlets" : 0,
					"patching_rect" : [ 902.0, 910.0, 100.0, 21.0 ],
					"suppressinlet" : 1,
					"text" : "is dpad pressed?"
				}

			}
, 			{
				"box" : 				{
					"id" : "obj-368",
					"maxclass" : "newobj",
					"numinlets" : 1,
					"numoutlets" : 2,
					"outlettype" : [ "", "" ],
					"patching_rect" : [ 845.0, 1224.0, 33.0, 23.0 ],
					"rnbo_classname" : "t",
					"rnbo_serial" : 2,
					"rnbo_uniqueid" : "t_obj-368",
					"rnboinfo" : 					{
						"needsInstanceInfo" : 1,
						"argnames" : 						{
							"out1" : 							{
								"attrOrProp" : 1,
								"digest" : "Output order 2 (bang).",
								"defaultarg" : 1,
								"isalias" : 0,
								"aliases" : [  ],
								"attachable" : 0,
								"isparam" : 0,
								"deprecated" : 0,
								"outlet" : 1,
								"type" : "bang"
							}
,
							"out2" : 							{
								"attrOrProp" : 1,
								"digest" : "Output order 1 (number).",
								"defaultarg" : 2,
								"isalias" : 0,
								"aliases" : [  ],
								"attachable" : 0,
								"isparam" : 0,
								"deprecated" : 0,
								"outlet" : 1,
								"type" : "number"
							}
,
							"triggers" : 							{
								"attrOrProp" : 2,
								"digest" : "The number of arguments determines the number of outlets. \t\t\t\t\t\tEach outlet sends out either a whole number, float, bang or list, \t\t\t\t\t\tas identified by symbol arguments (i, f, b, l). \t\t\t\t\t\tIf there are no arguments, there are two outlets, both of which send a float.",
								"defaultarg" : 1,
								"isalias" : 0,
								"aliases" : [  ],
								"settable" : 1,
								"attachable" : 0,
								"isparam" : 0,
								"deprecated" : 0,
								"type" : "list"
							}

						}
,
						"inputs" : [ 							{
								"name" : "input",
								"type" : [ "bang", "number", "list" ],
								"digest" : "input to distribute",
								"hot" : 1,
								"docked" : 0
							}
 ],
						"outputs" : [ 							{
								"name" : "out1",
								"type" : "bang",
								"digest" : "Output order 2 (bang).",
								"defaultarg" : 1,
								"docked" : 0
							}
, 							{
								"name" : "out2",
								"type" : "number",
								"digest" : "Output order 1 (number).",
								"defaultarg" : 2,
								"docked" : 0
							}
 ],
						"helpname" : "trigger",
						"aliasOf" : "trigger",
						"classname" : "t",
						"operator" : 0,
						"versionId" : -1133428571,
						"changesPatcherIO" : 0
					}
,
					"text" : "t b 1"
				}

			}
, 			{
				"box" : 				{
					"id" : "obj-369",
					"maxclass" : "newobj",
					"numinlets" : 1,
					"numoutlets" : 2,
					"outlettype" : [ "", "" ],
					"patching_rect" : [ 469.0, 1388.0, 33.0, 23.0 ],
					"rnbo_classname" : "t",
					"rnbo_serial" : 3,
					"rnbo_uniqueid" : "t_obj-369",
					"rnboinfo" : 					{
						"needsInstanceInfo" : 1,
						"argnames" : 						{
							"out1" : 							{
								"attrOrProp" : 1,
								"digest" : "Output order 2 (number).",
								"defaultarg" : 1,
								"isalias" : 0,
								"aliases" : [  ],
								"attachable" : 0,
								"isparam" : 0,
								"deprecated" : 0,
								"outlet" : 1,
								"type" : "number"
							}
,
							"out2" : 							{
								"attrOrProp" : 1,
								"digest" : "Output order 1 (number).",
								"defaultarg" : 2,
								"isalias" : 0,
								"aliases" : [  ],
								"attachable" : 0,
								"isparam" : 0,
								"deprecated" : 0,
								"outlet" : 1,
								"type" : "number"
							}
,
							"triggers" : 							{
								"attrOrProp" : 2,
								"digest" : "The number of arguments determines the number of outlets. \t\t\t\t\t\tEach outlet sends out either a whole number, float, bang or list, \t\t\t\t\t\tas identified by symbol arguments (i, f, b, l). \t\t\t\t\t\tIf there are no arguments, there are two outlets, both of which send a float.",
								"defaultarg" : 1,
								"isalias" : 0,
								"aliases" : [  ],
								"settable" : 1,
								"attachable" : 0,
								"isparam" : 0,
								"deprecated" : 0,
								"type" : "list"
							}

						}
,
						"inputs" : [ 							{
								"name" : "input",
								"type" : [ "bang", "number", "list" ],
								"digest" : "input to distribute",
								"hot" : 1,
								"docked" : 0
							}
 ],
						"outputs" : [ 							{
								"name" : "out1",
								"type" : "number",
								"digest" : "Output order 2 (number).",
								"defaultarg" : 1,
								"docked" : 0
							}
, 							{
								"name" : "out2",
								"type" : "number",
								"digest" : "Output order 1 (number).",
								"defaultarg" : 2,
								"docked" : 0
							}
 ],
						"helpname" : "trigger",
						"aliasOf" : "trigger",
						"classname" : "t",
						"operator" : 0,
						"versionId" : -1133428571,
						"changesPatcherIO" : 0
					}
,
					"text" : "t 0 0"
				}

			}
, 			{
				"box" : 				{
					"id" : "obj-370",
					"maxclass" : "newobj",
					"numinlets" : 2,
					"numoutlets" : 1,
					"outlettype" : [ "" ],
					"patching_rect" : [ 702.0, 1664.0, 52.0, 23.0 ],
					"rnbo_classname" : "gate",
					"rnbo_serial" : 1,
					"rnbo_uniqueid" : "gate_obj-370",
					"rnboinfo" : 					{
						"needsInstanceInfo" : 1,
						"argnames" : 						{
							"onoff" : 							{
								"attrOrProp" : 1,
								"digest" : "0 Closes gate, non-zero opens the corresponding gate outlet",
								"defaultarg" : 2,
								"isalias" : 0,
								"aliases" : [  ],
								"settable" : 1,
								"attachable" : 0,
								"isparam" : 0,
								"deprecated" : 0,
								"inlet" : 1,
								"type" : "number",
								"defaultValue" : "0"
							}
,
							"outputs" : 							{
								"attrOrProp" : 2,
								"digest" : "Number of outlets",
								"defaultarg" : 1,
								"isalias" : 0,
								"aliases" : [  ],
								"settable" : 1,
								"attachable" : 0,
								"isparam" : 0,
								"deprecated" : 0,
								"type" : "number",
								"defaultValue" : "1"
							}

						}
,
						"inputs" : [ 							{
								"name" : "onoff",
								"type" : "number",
								"digest" : "0 Closes gate, non-zero opens the corresponding gate outlet",
								"defaultarg" : 2,
								"docked" : 0
							}
, 							{
								"name" : "input",
								"type" : [ "bang", "number", "list" ],
								"digest" : "Incoming gated message",
								"hot" : 1,
								"docked" : 0
							}
 ],
						"outputs" : [ 							{
								"name" : "out1",
								"type" : [ "bang", "number", "list" ],
								"digest" : "Gated Output 1",
								"docked" : 0
							}
 ],
						"helpname" : "gate",
						"aliasOf" : "gate",
						"classname" : "gate",
						"operator" : 0,
						"versionId" : 1220277655,
						"changesPatcherIO" : 0
					}
,
					"text" : "gate 1 1"
				}

			}
, 			{
				"box" : 				{
					"id" : "obj-371",
					"maxclass" : "newobj",
					"numinlets" : 2,
					"numoutlets" : 1,
					"outlettype" : [ "" ],
					"patching_rect" : [ 642.0, 1664.0, 52.0, 23.0 ],
					"rnbo_classname" : "gate",
					"rnbo_serial" : 2,
					"rnbo_uniqueid" : "gate_obj-371",
					"rnboinfo" : 					{
						"needsInstanceInfo" : 1,
						"argnames" : 						{
							"onoff" : 							{
								"attrOrProp" : 1,
								"digest" : "0 Closes gate, non-zero opens the corresponding gate outlet",
								"defaultarg" : 2,
								"isalias" : 0,
								"aliases" : [  ],
								"settable" : 1,
								"attachable" : 0,
								"isparam" : 0,
								"deprecated" : 0,
								"inlet" : 1,
								"type" : "number",
								"defaultValue" : "0"
							}
,
							"outputs" : 							{
								"attrOrProp" : 2,
								"digest" : "Number of outlets",
								"defaultarg" : 1,
								"isalias" : 0,
								"aliases" : [  ],
								"settable" : 1,
								"attachable" : 0,
								"isparam" : 0,
								"deprecated" : 0,
								"type" : "number",
								"defaultValue" : "1"
							}

						}
,
						"inputs" : [ 							{
								"name" : "onoff",
								"type" : "number",
								"digest" : "0 Closes gate, non-zero opens the corresponding gate outlet",
								"defaultarg" : 2,
								"docked" : 0
							}
, 							{
								"name" : "input",
								"type" : [ "bang", "number", "list" ],
								"digest" : "Incoming gated message",
								"hot" : 1,
								"docked" : 0
							}
 ],
						"outputs" : [ 							{
								"name" : "out1",
								"type" : [ "bang", "number", "list" ],
								"digest" : "Gated Output 1",
								"docked" : 0
							}
 ],
						"helpname" : "gate",
						"aliasOf" : "gate",
						"classname" : "gate",
						"operator" : 0,
						"versionId" : 1220277655,
						"changesPatcherIO" : 0
					}
,
					"text" : "gate 1 1"
				}

			}
, 			{
				"box" : 				{
					"id" : "obj-373",
					"maxclass" : "newobj",
					"numinlets" : 2,
					"numoutlets" : 1,
					"outlettype" : [ "" ],
					"patching_rect" : [ 583.0, 1664.0, 52.0, 23.0 ],
					"rnbo_classname" : "gate",
					"rnbo_serial" : 3,
					"rnbo_uniqueid" : "gate_obj-373",
					"rnboinfo" : 					{
						"needsInstanceInfo" : 1,
						"argnames" : 						{
							"onoff" : 							{
								"attrOrProp" : 1,
								"digest" : "0 Closes gate, non-zero opens the corresponding gate outlet",
								"defaultarg" : 2,
								"isalias" : 0,
								"aliases" : [  ],
								"settable" : 1,
								"attachable" : 0,
								"isparam" : 0,
								"deprecated" : 0,
								"inlet" : 1,
								"type" : "number",
								"defaultValue" : "0"
							}
,
							"outputs" : 							{
								"attrOrProp" : 2,
								"digest" : "Number of outlets",
								"defaultarg" : 1,
								"isalias" : 0,
								"aliases" : [  ],
								"settable" : 1,
								"attachable" : 0,
								"isparam" : 0,
								"deprecated" : 0,
								"type" : "number",
								"defaultValue" : "1"
							}

						}
,
						"inputs" : [ 							{
								"name" : "onoff",
								"type" : "number",
								"digest" : "0 Closes gate, non-zero opens the corresponding gate outlet",
								"defaultarg" : 2,
								"docked" : 0
							}
, 							{
								"name" : "input",
								"type" : [ "bang", "number", "list" ],
								"digest" : "Incoming gated message",
								"hot" : 1,
								"docked" : 0
							}
 ],
						"outputs" : [ 							{
								"name" : "out1",
								"type" : [ "bang", "number", "list" ],
								"digest" : "Gated Output 1",
								"docked" : 0
							}
 ],
						"helpname" : "gate",
						"aliasOf" : "gate",
						"classname" : "gate",
						"operator" : 0,
						"versionId" : 1220277655,
						"changesPatcherIO" : 0
					}
,
					"text" : "gate 1 1"
				}

			}
, 			{
				"box" : 				{
					"id" : "obj-374",
					"maxclass" : "newobj",
					"numinlets" : 2,
					"numoutlets" : 1,
					"outlettype" : [ "" ],
					"patching_rect" : [ 524.0, 1664.0, 52.0, 23.0 ],
					"rnbo_classname" : "gate",
					"rnbo_serial" : 4,
					"rnbo_uniqueid" : "gate_obj-374",
					"rnboinfo" : 					{
						"needsInstanceInfo" : 1,
						"argnames" : 						{
							"onoff" : 							{
								"attrOrProp" : 1,
								"digest" : "0 Closes gate, non-zero opens the corresponding gate outlet",
								"defaultarg" : 2,
								"isalias" : 0,
								"aliases" : [  ],
								"settable" : 1,
								"attachable" : 0,
								"isparam" : 0,
								"deprecated" : 0,
								"inlet" : 1,
								"type" : "number",
								"defaultValue" : "0"
							}
,
							"outputs" : 							{
								"attrOrProp" : 2,
								"digest" : "Number of outlets",
								"defaultarg" : 1,
								"isalias" : 0,
								"aliases" : [  ],
								"settable" : 1,
								"attachable" : 0,
								"isparam" : 0,
								"deprecated" : 0,
								"type" : "number",
								"defaultValue" : "1"
							}

						}
,
						"inputs" : [ 							{
								"name" : "onoff",
								"type" : "number",
								"digest" : "0 Closes gate, non-zero opens the corresponding gate outlet",
								"defaultarg" : 2,
								"docked" : 0
							}
, 							{
								"name" : "input",
								"type" : [ "bang", "number", "list" ],
								"digest" : "Incoming gated message",
								"hot" : 1,
								"docked" : 0
							}
 ],
						"outputs" : [ 							{
								"name" : "out1",
								"type" : [ "bang", "number", "list" ],
								"digest" : "Gated Output 1",
								"docked" : 0
							}
 ],
						"helpname" : "gate",
						"aliasOf" : "gate",
						"classname" : "gate",
						"operator" : 0,
						"versionId" : 1220277655,
						"changesPatcherIO" : 0
					}
,
					"text" : "gate 1 1"
				}

			}
, 			{
				"box" : 				{
					"id" : "obj-375",
					"maxclass" : "newobj",
					"numinlets" : 1,
					"numoutlets" : 0,
					"patching_rect" : [ 688.0, 1834.0, 40.0, 23.0 ],
					"rnbo_classname" : "s",
					"rnbo_serial" : 6,
					"rnbo_uniqueid" : "s_obj-375",
					"text" : "s left_"
				}

			}
, 			{
				"box" : 				{
					"id" : "obj-376",
					"maxclass" : "newobj",
					"numinlets" : 1,
					"numoutlets" : 0,
					"patching_rect" : [ 583.0, 1834.0, 47.0, 23.0 ],
					"rnbo_classname" : "s",
					"rnbo_serial" : 7,
					"rnbo_uniqueid" : "s_obj-376",
					"text" : "s right_"
				}

			}
, 			{
				"box" : 				{
					"id" : "obj-377",
					"maxclass" : "newobj",
					"numinlets" : 1,
					"numoutlets" : 0,
					"patching_rect" : [ 532.0, 1834.0, 36.0, 23.0 ],
					"rnbo_classname" : "s",
					"rnbo_serial" : 8,
					"rnbo_uniqueid" : "s_obj-377",
					"text" : "s up_"
				}

			}
, 			{
				"box" : 				{
					"id" : "obj-378",
					"maxclass" : "newobj",
					"numinlets" : 1,
					"numoutlets" : 0,
					"patching_rect" : [ 633.0, 1834.0, 52.0, 23.0 ],
					"rnbo_classname" : "s",
					"rnbo_serial" : 9,
					"rnbo_uniqueid" : "s_obj-378",
					"text" : "s down_"
				}

			}
, 			{
				"box" : 				{
					"id" : "obj-386",
					"maxclass" : "newobj",
					"numinlets" : 2,
					"numoutlets" : 1,
					"outlettype" : [ "" ],
					"patching_rect" : [ 1384.0, 788.0, 66.0, 23.0 ],
					"rnbo_classname" : "&&",
					"rnbo_serial" : 1,
					"rnbo_uniqueid" : "&&_obj-386",
					"text" : "&& @hot 1"
				}

			}
, 			{
				"box" : 				{
					"id" : "obj-391",
					"maxclass" : "newobj",
					"numinlets" : 2,
					"numoutlets" : 1,
					"outlettype" : [ "" ],
					"patching_rect" : [ 1235.0, 788.0, 66.0, 23.0 ],
					"rnbo_classname" : "&&",
					"rnbo_serial" : 2,
					"rnbo_uniqueid" : "&&_obj-391",
					"text" : "&& @hot 1"
				}

			}
, 			{
				"box" : 				{
					"id" : "obj-396",
					"maxclass" : "newobj",
					"numinlets" : 2,
					"numoutlets" : 1,
					"outlettype" : [ "" ],
					"patching_rect" : [ 1370.0, 658.0, 66.0, 23.0 ],
					"rnbo_classname" : "&&",
					"rnbo_serial" : 3,
					"rnbo_uniqueid" : "&&_obj-396",
					"text" : "&& @hot 1"
				}

			}
, 			{
				"box" : 				{
					"id" : "obj-400",
					"maxclass" : "newobj",
					"numinlets" : 2,
					"numoutlets" : 1,
					"outlettype" : [ "" ],
					"patching_rect" : [ 1223.0, 658.0, 66.0, 23.0 ],
					"rnbo_classname" : "&&",
					"rnbo_serial" : 4,
					"rnbo_uniqueid" : "&&_obj-400",
					"text" : "&& @hot 1"
				}

			}
 ],
		"lines" : [ 			{
				"patchline" : 				{
					"destination" : [ "obj-317", 0 ],
					"order" : 4,
					"source" : [ "obj-1202", 0 ]
				}

			}
, 			{
				"patchline" : 				{
					"color" : [ 1.0, 0.302127450704575, 0.0, 1.0 ],
					"destination" : [ "obj-340", 1 ],
					"order" : 3,
					"source" : [ "obj-1202", 0 ]
				}

			}
, 			{
				"patchline" : 				{
					"color" : [ 0.0, 0.578666567802429, 0.928664982318878, 1.0 ],
					"destination" : [ "obj-396", 0 ],
					"order" : 0,
					"source" : [ "obj-1202", 0 ]
				}

			}
, 			{
				"patchline" : 				{
					"color" : [ 0.0, 0.578666567802429, 0.928664982318878, 1.0 ],
					"destination" : [ "obj-400", 0 ],
					"order" : 1,
					"source" : [ "obj-1202", 0 ]
				}

			}
, 			{
				"patchline" : 				{
					"color" : [ 0.0, 0.919573843479156, 0.497355699539185, 1.0 ],
					"destination" : [ "obj-816", 0 ],
					"order" : 2,
					"source" : [ "obj-1202", 0 ]
				}

			}
, 			{
				"patchline" : 				{
					"destination" : [ "obj-316", 0 ],
					"order" : 4,
					"source" : [ "obj-1208", 0 ]
				}

			}
, 			{
				"patchline" : 				{
					"color" : [ 1.0, 0.302127450704575, 0.0, 1.0 ],
					"destination" : [ "obj-338", 1 ],
					"order" : 3,
					"source" : [ "obj-1208", 0 ]
				}

			}
, 			{
				"patchline" : 				{
					"color" : [ 0.0, 0.578666567802429, 0.928664982318878, 1.0 ],
					"destination" : [ "obj-386", 1 ],
					"order" : 0,
					"source" : [ "obj-1208", 0 ]
				}

			}
, 			{
				"patchline" : 				{
					"color" : [ 0.0, 0.578666567802429, 0.928664982318878, 1.0 ],
					"destination" : [ "obj-396", 1 ],
					"order" : 1,
					"source" : [ "obj-1208", 0 ]
				}

			}
, 			{
				"patchline" : 				{
					"color" : [ 0.0, 0.919573843479156, 0.497355699539185, 1.0 ],
					"destination" : [ "obj-816", 1 ],
					"order" : 2,
					"source" : [ "obj-1208", 0 ]
				}

			}
, 			{
				"patchline" : 				{
					"destination" : [ "obj-315", 0 ],
					"order" : 4,
					"source" : [ "obj-1209", 0 ]
				}

			}
, 			{
				"patchline" : 				{
					"color" : [ 1.0, 0.302127450704575, 0.0, 1.0 ],
					"destination" : [ "obj-337", 1 ],
					"order" : 3,
					"source" : [ "obj-1209", 0 ]
				}

			}
, 			{
				"patchline" : 				{
					"color" : [ 0.0, 0.578666567802429, 0.928664982318878, 1.0 ],
					"destination" : [ "obj-386", 0 ],
					"order" : 0,
					"source" : [ "obj-1209", 0 ]
				}

			}
, 			{
				"patchline" : 				{
					"color" : [ 0.0, 0.578666567802429, 0.928664982318878, 1.0 ],
					"destination" : [ "obj-391", 0 ],
					"order" : 1,
					"source" : [ "obj-1209", 0 ]
				}

			}
, 			{
				"patchline" : 				{
					"color" : [ 0.0, 0.919573843479156, 0.497355699539185, 1.0 ],
					"destination" : [ "obj-816", 2 ],
					"order" : 2,
					"source" : [ "obj-1209", 0 ]
				}

			}
, 			{
				"patchline" : 				{
					"destination" : [ "obj-314", 0 ],
					"order" : 4,
					"source" : [ "obj-1210", 0 ]
				}

			}
, 			{
				"patchline" : 				{
					"color" : [ 1.0, 0.302127450704575, 0.0, 1.0 ],
					"destination" : [ "obj-336", 1 ],
					"order" : 3,
					"source" : [ "obj-1210", 0 ]
				}

			}
, 			{
				"patchline" : 				{
					"color" : [ 0.0, 0.578666567802429, 0.928664982318878, 1.0 ],
					"destination" : [ "obj-391", 1 ],
					"order" : 0,
					"source" : [ "obj-1210", 0 ]
				}

			}
, 			{
				"patchline" : 				{
					"color" : [ 0.0, 0.578666567802429, 0.928664982318878, 1.0 ],
					"destination" : [ "obj-400", 1 ],
					"order" : 1,
					"source" : [ "obj-1210", 0 ]
				}

			}
, 			{
				"patchline" : 				{
					"color" : [ 0.0, 0.919573843479156, 0.497355699539185, 1.0 ],
					"destination" : [ "obj-816", 3 ],
					"order" : 2,
					"source" : [ "obj-1210", 0 ]
				}

			}
, 			{
				"patchline" : 				{
					"destination" : [ "obj-1259", 0 ],
					"source" : [ "obj-1256", 0 ]
				}

			}
, 			{
				"patchline" : 				{
					"destination" : [ "obj-1262", 0 ],
					"source" : [ "obj-1259", 0 ]
				}

			}
, 			{
				"patchline" : 				{
					"destination" : [ "obj-377", 0 ],
					"source" : [ "obj-163", 0 ]
				}

			}
, 			{
				"patchline" : 				{
					"destination" : [ "obj-376", 0 ],
					"source" : [ "obj-164", 0 ]
				}

			}
, 			{
				"patchline" : 				{
					"destination" : [ "obj-378", 0 ],
					"source" : [ "obj-165", 0 ]
				}

			}
, 			{
				"patchline" : 				{
					"destination" : [ "obj-375", 0 ],
					"source" : [ "obj-175", 0 ]
				}

			}
, 			{
				"patchline" : 				{
					"color" : [ 0.992228150367737, 0.611332654953003, 0.034400086849928, 1.0 ],
					"destination" : [ "obj-1210", 0 ],
					"order" : 0,
					"source" : [ "obj-302", 0 ]
				}

			}
, 			{
				"patchline" : 				{
					"destination" : [ "obj-1256", 3 ],
					"order" : 1,
					"source" : [ "obj-302", 0 ]
				}

			}
, 			{
				"patchline" : 				{
					"color" : [ 0.992228150367737, 0.611332654953003, 0.034400086849928, 1.0 ],
					"destination" : [ "obj-1209", 0 ],
					"order" : 0,
					"source" : [ "obj-303", 0 ]
				}

			}
, 			{
				"patchline" : 				{
					"destination" : [ "obj-1256", 2 ],
					"order" : 1,
					"source" : [ "obj-303", 0 ]
				}

			}
, 			{
				"patchline" : 				{
					"color" : [ 0.992228150367737, 0.611332654953003, 0.034400086849928, 1.0 ],
					"destination" : [ "obj-1208", 0 ],
					"order" : 0,
					"source" : [ "obj-304", 0 ]
				}

			}
, 			{
				"patchline" : 				{
					"destination" : [ "obj-1256", 1 ],
					"order" : 1,
					"source" : [ "obj-304", 0 ]
				}

			}
, 			{
				"patchline" : 				{
					"color" : [ 0.992228150367737, 0.611332654953003, 0.034400086849928, 1.0 ],
					"destination" : [ "obj-1202", 0 ],
					"order" : 0,
					"source" : [ "obj-305", 0 ]
				}

			}
, 			{
				"patchline" : 				{
					"destination" : [ "obj-1256", 0 ],
					"order" : 1,
					"source" : [ "obj-305", 0 ]
				}

			}
, 			{
				"patchline" : 				{
					"destination" : [ "obj-310", 0 ],
					"source" : [ "obj-306", 0 ]
				}

			}
, 			{
				"patchline" : 				{
					"destination" : [ "obj-311", 0 ],
					"source" : [ "obj-307", 0 ]
				}

			}
, 			{
				"patchline" : 				{
					"destination" : [ "obj-312", 0 ],
					"source" : [ "obj-308", 0 ]
				}

			}
, 			{
				"patchline" : 				{
					"destination" : [ "obj-313", 0 ],
					"source" : [ "obj-309", 0 ]
				}

			}
, 			{
				"patchline" : 				{
					"destination" : [ "obj-336", 0 ],
					"source" : [ "obj-310", 0 ]
				}

			}
, 			{
				"patchline" : 				{
					"destination" : [ "obj-337", 0 ],
					"source" : [ "obj-311", 0 ]
				}

			}
, 			{
				"patchline" : 				{
					"destination" : [ "obj-338", 0 ],
					"source" : [ "obj-312", 0 ]
				}

			}
, 			{
				"patchline" : 				{
					"destination" : [ "obj-340", 0 ],
					"source" : [ "obj-313", 0 ]
				}

			}
, 			{
				"patchline" : 				{
					"destination" : [ "obj-306", 0 ],
					"order" : 1,
					"source" : [ "obj-314", 0 ]
				}

			}
, 			{
				"patchline" : 				{
					"destination" : [ "obj-310", 0 ],
					"source" : [ "obj-314", 1 ]
				}

			}
, 			{
				"patchline" : 				{
					"destination" : [ "obj-336", 0 ],
					"order" : 0,
					"source" : [ "obj-314", 0 ]
				}

			}
, 			{
				"patchline" : 				{
					"destination" : [ "obj-307", 0 ],
					"order" : 1,
					"source" : [ "obj-315", 0 ]
				}

			}
, 			{
				"patchline" : 				{
					"destination" : [ "obj-311", 0 ],
					"source" : [ "obj-315", 1 ]
				}

			}
, 			{
				"patchline" : 				{
					"destination" : [ "obj-337", 0 ],
					"order" : 0,
					"source" : [ "obj-315", 0 ]
				}

			}
, 			{
				"patchline" : 				{
					"destination" : [ "obj-308", 0 ],
					"order" : 1,
					"source" : [ "obj-316", 0 ]
				}

			}
, 			{
				"patchline" : 				{
					"destination" : [ "obj-312", 0 ],
					"source" : [ "obj-316", 1 ]
				}

			}
, 			{
				"patchline" : 				{
					"destination" : [ "obj-338", 0 ],
					"order" : 0,
					"source" : [ "obj-316", 0 ]
				}

			}
, 			{
				"patchline" : 				{
					"destination" : [ "obj-309", 0 ],
					"order" : 1,
					"source" : [ "obj-317", 0 ]
				}

			}
, 			{
				"patchline" : 				{
					"destination" : [ "obj-313", 0 ],
					"source" : [ "obj-317", 1 ]
				}

			}
, 			{
				"patchline" : 				{
					"destination" : [ "obj-340", 0 ],
					"order" : 0,
					"source" : [ "obj-317", 0 ]
				}

			}
, 			{
				"patchline" : 				{
					"destination" : [ "obj-335", 0 ],
					"source" : [ "obj-331", 0 ]
				}

			}
, 			{
				"patchline" : 				{
					"color" : [ 0.0, 0.0, 0.0, 1.0 ],
					"destination" : [ "obj-369", 0 ],
					"source" : [ "obj-331", 1 ]
				}

			}
, 			{
				"patchline" : 				{
					"destination" : [ "obj-344", 2 ],
					"source" : [ "obj-335", 0 ]
				}

			}
, 			{
				"patchline" : 				{
					"destination" : [ "obj-370", 1 ],
					"source" : [ "obj-336", 0 ]
				}

			}
, 			{
				"patchline" : 				{
					"destination" : [ "obj-371", 1 ],
					"source" : [ "obj-337", 0 ]
				}

			}
, 			{
				"patchline" : 				{
					"destination" : [ "obj-373", 1 ],
					"source" : [ "obj-338", 0 ]
				}

			}
, 			{
				"patchline" : 				{
					"destination" : [ "obj-374", 1 ],
					"source" : [ "obj-340", 0 ]
				}

			}
, 			{
				"patchline" : 				{
					"color" : [ 0.0, 0.0, 0.0, 1.0 ],
					"destination" : [ "obj-368", 0 ],
					"source" : [ "obj-344", 0 ]
				}

			}
, 			{
				"patchline" : 				{
					"destination" : [ "obj-154", 0 ],
					"order" : 1,
					"source" : [ "obj-345", 0 ]
				}

			}
, 			{
				"patchline" : 				{
					"destination" : [ "obj-795", 1 ],
					"order" : 0,
					"source" : [ "obj-345", 0 ]
				}

			}
, 			{
				"patchline" : 				{
					"destination" : [ "obj-331", 0 ],
					"source" : [ "obj-346", 0 ]
				}

			}
, 			{
				"patchline" : 				{
					"destination" : [ "obj-345", 0 ],
					"source" : [ "obj-361", 0 ]
				}

			}
, 			{
				"patchline" : 				{
					"color" : [ 0.078892976045609, 0.950161218643188, 0.0, 1.0 ],
					"destination" : [ "obj-336", 0 ],
					"order" : 0,
					"source" : [ "obj-368", 0 ]
				}

			}
, 			{
				"patchline" : 				{
					"color" : [ 0.078892976045609, 0.950161218643188, 0.0, 1.0 ],
					"destination" : [ "obj-337", 0 ],
					"order" : 1,
					"source" : [ "obj-368", 0 ]
				}

			}
, 			{
				"patchline" : 				{
					"color" : [ 0.078892976045609, 0.950161218643188, 0.0, 1.0 ],
					"destination" : [ "obj-338", 0 ],
					"order" : 2,
					"source" : [ "obj-368", 0 ]
				}

			}
, 			{
				"patchline" : 				{
					"color" : [ 0.078892976045609, 0.950161218643188, 0.0, 1.0 ],
					"destination" : [ "obj-340", 0 ],
					"order" : 3,
					"source" : [ "obj-368", 0 ]
				}

			}
, 			{
				"patchline" : 				{
					"color" : [ 0.0, 0.898168623447418, 0.0, 1.0 ],
					"destination" : [ "obj-370", 0 ],
					"order" : 0,
					"source" : [ "obj-368", 1 ]
				}

			}
, 			{
				"patchline" : 				{
					"color" : [ 0.0, 0.898168623447418, 0.0, 1.0 ],
					"destination" : [ "obj-371", 0 ],
					"order" : 1,
					"source" : [ "obj-368", 1 ]
				}

			}
, 			{
				"patchline" : 				{
					"color" : [ 0.0, 0.898168623447418, 0.0, 1.0 ],
					"destination" : [ "obj-373", 0 ],
					"order" : 2,
					"source" : [ "obj-368", 1 ]
				}

			}
, 			{
				"patchline" : 				{
					"color" : [ 0.0, 0.898168623447418, 0.0, 1.0 ],
					"destination" : [ "obj-374", 0 ],
					"order" : 3,
					"source" : [ "obj-368", 1 ]
				}

			}
, 			{
				"patchline" : 				{
					"color" : [ 0.955564498901367, 0.0, 0.591408789157867, 1.0 ],
					"destination" : [ "obj-370", 1 ],
					"order" : 0,
					"source" : [ "obj-369", 1 ]
				}

			}
, 			{
				"patchline" : 				{
					"color" : [ 0.0, 0.747880160808563, 0.878081679344177, 1.0 ],
					"destination" : [ "obj-370", 0 ],
					"order" : 0,
					"source" : [ "obj-369", 0 ]
				}

			}
, 			{
				"patchline" : 				{
					"color" : [ 0.955564498901367, 0.0, 0.591408789157867, 1.0 ],
					"destination" : [ "obj-371", 1 ],
					"order" : 1,
					"source" : [ "obj-369", 1 ]
				}

			}
, 			{
				"patchline" : 				{
					"color" : [ 0.0, 0.747880160808563, 0.878081679344177, 1.0 ],
					"destination" : [ "obj-371", 0 ],
					"order" : 1,
					"source" : [ "obj-369", 0 ]
				}

			}
, 			{
				"patchline" : 				{
					"color" : [ 0.955564498901367, 0.0, 0.591408789157867, 1.0 ],
					"destination" : [ "obj-373", 1 ],
					"order" : 2,
					"source" : [ "obj-369", 1 ]
				}

			}
, 			{
				"patchline" : 				{
					"color" : [ 0.0, 0.747880160808563, 0.878081679344177, 1.0 ],
					"destination" : [ "obj-373", 0 ],
					"order" : 2,
					"source" : [ "obj-369", 0 ]
				}

			}
, 			{
				"patchline" : 				{
					"color" : [ 0.955564498901367, 0.0, 0.591408789157867, 1.0 ],
					"destination" : [ "obj-374", 1 ],
					"order" : 3,
					"source" : [ "obj-369", 1 ]
				}

			}
, 			{
				"patchline" : 				{
					"color" : [ 0.0, 0.747880160808563, 0.878081679344177, 1.0 ],
					"destination" : [ "obj-374", 0 ],
					"order" : 3,
					"source" : [ "obj-369", 0 ]
				}

			}
, 			{
				"patchline" : 				{
					"destination" : [ "obj-175", 0 ],
					"source" : [ "obj-370", 0 ]
				}

			}
, 			{
				"patchline" : 				{
					"destination" : [ "obj-165", 0 ],
					"source" : [ "obj-371", 0 ]
				}

			}
, 			{
				"patchline" : 				{
					"destination" : [ "obj-164", 0 ],
					"source" : [ "obj-373", 0 ]
				}

			}
, 			{
				"patchline" : 				{
					"destination" : [ "obj-163", 0 ],
					"source" : [ "obj-374", 0 ]
				}

			}
, 			{
				"patchline" : 				{
					"destination" : [ "obj-466", 0 ],
					"order" : 0,
					"source" : [ "obj-386", 0 ]
				}

			}
, 			{
				"patchline" : 				{
					"color" : [ 0.939239263534546, 0.906713008880615, 0.0, 1.0 ],
					"destination" : [ "obj-826", 3 ],
					"order" : 1,
					"source" : [ "obj-386", 0 ]
				}

			}
, 			{
				"patchline" : 				{
					"destination" : [ "obj-467", 0 ],
					"order" : 0,
					"source" : [ "obj-391", 0 ]
				}

			}
, 			{
				"patchline" : 				{
					"color" : [ 0.939239263534546, 0.906713008880615, 0.0, 1.0 ],
					"destination" : [ "obj-826", 1 ],
					"order" : 1,
					"source" : [ "obj-391", 0 ]
				}

			}
, 			{
				"patchline" : 				{
					"destination" : [ "obj-465", 0 ],
					"order" : 0,
					"source" : [ "obj-396", 0 ]
				}

			}
, 			{
				"patchline" : 				{
					"color" : [ 0.939239263534546, 0.906713008880615, 0.0, 1.0 ],
					"destination" : [ "obj-826", 2 ],
					"order" : 1,
					"source" : [ "obj-396", 0 ]
				}

			}
, 			{
				"patchline" : 				{
					"destination" : [ "obj-464", 0 ],
					"order" : 0,
					"source" : [ "obj-400", 0 ]
				}

			}
, 			{
				"patchline" : 				{
					"color" : [ 0.939239263534546, 0.906713008880615, 0.0, 1.0 ],
					"destination" : [ "obj-826", 0 ],
					"order" : 1,
					"source" : [ "obj-400", 0 ]
				}

			}
, 			{
				"patchline" : 				{
					"destination" : [ "obj-310", 1 ],
					"order" : 0,
					"source" : [ "obj-43", 0 ]
				}

			}
, 			{
				"patchline" : 				{
					"destination" : [ "obj-311", 1 ],
					"order" : 1,
					"source" : [ "obj-43", 0 ]
				}

			}
, 			{
				"patchline" : 				{
					"destination" : [ "obj-312", 1 ],
					"order" : 2,
					"source" : [ "obj-43", 0 ]
				}

			}
, 			{
				"patchline" : 				{
					"destination" : [ "obj-313", 1 ],
					"order" : 3,
					"source" : [ "obj-43", 0 ]
				}

			}
, 			{
				"patchline" : 				{
					"destination" : [ "obj-43", 0 ],
					"source" : [ "obj-44", 0 ]
				}

			}
, 			{
				"patchline" : 				{
					"destination" : [ "obj-352", 0 ],
					"source" : [ "obj-464", 0 ]
				}

			}
, 			{
				"patchline" : 				{
					"destination" : [ "obj-254", 0 ],
					"source" : [ "obj-465", 0 ]
				}

			}
, 			{
				"patchline" : 				{
					"destination" : [ "obj-256", 0 ],
					"source" : [ "obj-466", 0 ]
				}

			}
, 			{
				"patchline" : 				{
					"destination" : [ "obj-353", 0 ],
					"source" : [ "obj-467", 0 ]
				}

			}
, 			{
				"patchline" : 				{
					"destination" : [ "obj-344", 0 ],
					"order" : 0,
					"source" : [ "obj-47", 0 ]
				}

			}
, 			{
				"patchline" : 				{
					"destination" : [ "obj-795", 0 ],
					"order" : 1,
					"source" : [ "obj-47", 0 ]
				}

			}
, 			{
				"patchline" : 				{
					"destination" : [ "obj-335", 1 ],
					"midpoints" : [ 1192.5, 1723.0, 1325.5, 1723.0, 1325.5, 1266.0, 1179.5, 1266.0 ],
					"source" : [ "obj-50", 0 ]
				}

			}
, 			{
				"patchline" : 				{
					"color" : [ 0.0, 0.898168623447418, 0.0, 1.0 ],
					"destination" : [ "obj-370", 0 ],
					"order" : 0,
					"source" : [ "obj-794", 0 ]
				}

			}
, 			{
				"patchline" : 				{
					"color" : [ 0.0, 0.898168623447418, 0.0, 1.0 ],
					"destination" : [ "obj-371", 0 ],
					"order" : 1,
					"source" : [ "obj-794", 0 ]
				}

			}
, 			{
				"patchline" : 				{
					"color" : [ 0.0, 0.898168623447418, 0.0, 1.0 ],
					"destination" : [ "obj-373", 0 ],
					"order" : 2,
					"source" : [ "obj-794", 0 ]
				}

			}
, 			{
				"patchline" : 				{
					"color" : [ 0.0, 0.898168623447418, 0.0, 1.0 ],
					"destination" : [ "obj-374", 0 ],
					"order" : 3,
					"source" : [ "obj-794", 0 ]
				}

			}
, 			{
				"patchline" : 				{
					"destination" : [ "obj-794", 0 ],
					"source" : [ "obj-795", 0 ]
				}

			}
, 			{
				"patchline" : 				{
					"destination" : [ "obj-817", 0 ],
					"source" : [ "obj-816", 0 ]
				}

			}
, 			{
				"patchline" : 				{
					"destination" : [ "obj-819", 0 ],
					"source" : [ "obj-817", 0 ]
				}

			}
, 			{
				"patchline" : 				{
					"destination" : [ "obj-361", 0 ],
					"source" : [ "obj-819", 0 ]
				}

			}
, 			{
				"patchline" : 				{
					"destination" : [ "obj-346", 0 ],
					"source" : [ "obj-823", 0 ]
				}

			}
, 			{
				"patchline" : 				{
					"destination" : [ "obj-823", 0 ],
					"source" : [ "obj-825", 0 ]
				}

			}
, 			{
				"patchline" : 				{
					"destination" : [ "obj-825", 0 ],
					"source" : [ "obj-826", 0 ]
				}

			}
 ],
		"originid" : "pat-238"
	}

}
