{
    "patcher": {
        "fileversion": 1,
        "appversion": {
            "major": 9,
            "minor": 1,
            "revision": 4,
            "architecture": "x64",
            "modernui": 1
        },
        "classnamespace": "rnbo",
        "rect": [ 256.0, 87.0, 705.0, 1300.0 ],
        "default_fontname": "Lato",
        "title": "jb.envelope",
        "boxes": [
            {
                "box": {
                    "bufsize": 128.0,
                    "calccount": 256.0,
                    "id": "obj-150",
                    "maxclass": "scope~",
                    "numinlets": 2,
                    "numoutlets": 0,
                    "patching_rect": [ 308.5, 375.0, 503.0, 135.0 ],
                    "range": [ 0.0, 2.0 ],
                    "rnbo_classname": "scope~",
                    "rnbo_extra_attributes": {
                        "bufsize": 128.0,
                        "calccount": 256.0
                    },
                    "rnbo_serial": 4,
                    "rnbo_uniqueid": "scope~_obj-150"
                }
            },
            {
                "box": {
                    "id": "obj-33",
                    "maxclass": "flonum",
                    "numinlets": 1,
                    "numoutlets": 2,
                    "outlettype": [ "", "bang" ],
                    "parameter_enable": 0,
                    "patching_rect": [ 173.0, 357.0, 50.0, 23.0 ],
                    "rnbo_classname": "number",
                    "rnbo_extra_attributes": {
                        "preset": 0,
                        "initialFormat": "float",
                        "maximum": "<none>",
                        "minimum": "<none>",
                        "order": ""
                    },
                    "rnbo_serial": 11,
                    "rnbo_uniqueid": "number_obj-33"
                }
            },
            {
                "box": {
                    "format": 0,
                    "id": "obj-28",
                    "maxclass": "number",
                    "numinlets": 1,
                    "numoutlets": 2,
                    "outlettype": [ "", "bang" ],
                    "parameter_enable": 0,
                    "patching_rect": [ 375.5, 185.0, 50.0, 23.0 ],
                    "rnbo_classname": "number",
                    "rnbo_extra_attributes": {
                        "preset": 0,
                        "initialFormat": "integer",
                        "maximum": "<none>",
                        "minimum": "<none>",
                        "order": ""
                    },
                    "rnbo_serial": 1,
                    "rnbo_uniqueid": "number_obj-28"
                }
            },
            {
                "box": {
                    "id": "obj-25",
                    "maxclass": "newobj",
                    "numinlets": 2,
                    "numoutlets": 1,
                    "outlettype": [ "" ],
                    "patching_rect": [ 288.5, 227.0, 64.0, 23.0 ],
                    "rnbo_classname": "-",
                    "rnbo_serial": 1,
                    "rnbo_uniqueid": "-_obj-25",
                    "text": "- 2 @hot 1"
                }
            },
            {
                "box": {
                    "format": 0,
                    "id": "obj-23",
                    "maxclass": "number",
                    "numinlets": 1,
                    "numoutlets": 2,
                    "outlettype": [ "", "bang" ],
                    "parameter_enable": 0,
                    "patching_rect": [ 216.0, 188.0, 50.0, 23.0 ],
                    "rnbo_classname": "number",
                    "rnbo_extra_attributes": {
                        "preset": 0,
                        "initialFormat": "integer",
                        "maximum": "<none>",
                        "minimum": "<none>",
                        "order": ""
                    },
                    "rnbo_serial": 2,
                    "rnbo_uniqueid": "number_obj-23"
                }
            },
            {
                "box": {
                    "format": 0,
                    "id": "obj-29",
                    "maxclass": "number",
                    "numinlets": 1,
                    "numoutlets": 2,
                    "outlettype": [ "", "bang" ],
                    "parameter_enable": 0,
                    "patching_rect": [ 154.0, 188.0, 50.0, 23.0 ],
                    "rnbo_classname": "number",
                    "rnbo_extra_attributes": {
                        "preset": 0,
                        "initialFormat": "integer",
                        "maximum": "<none>",
                        "minimum": "<none>",
                        "order": ""
                    },
                    "rnbo_serial": 3,
                    "rnbo_uniqueid": "number_obj-29"
                }
            },
            {
                "box": {
                    "format": 0,
                    "id": "obj-27",
                    "maxclass": "number",
                    "numinlets": 1,
                    "numoutlets": 2,
                    "outlettype": [ "", "bang" ],
                    "parameter_enable": 0,
                    "patching_rect": [ 308.5, 185.0, 50.0, 23.0 ],
                    "rnbo_classname": "number",
                    "rnbo_extra_attributes": {
                        "preset": 0,
                        "initialFormat": "integer",
                        "maximum": "<none>",
                        "minimum": "<none>",
                        "order": ""
                    },
                    "rnbo_serial": 4,
                    "rnbo_uniqueid": "number_obj-27"
                }
            },
            {
                "box": {
                    "id": "obj-53",
                    "maxclass": "newobj",
                    "numinlets": 0,
                    "numoutlets": 1,
                    "outlettype": [ "" ],
                    "patching_rect": [ 288.5, 152.0, 111.0, 23.0 ],
                    "rnbo_classname": "r",
                    "rnbo_serial": 1,
                    "rnbo_uniqueid": "r_obj-53",
                    "text": "r init_limiter_thresh"
                }
            },
            {
                "box": {
                    "id": "obj-32",
                    "maxclass": "newobj",
                    "numinlets": 2,
                    "numoutlets": 1,
                    "outlettype": [ "" ],
                    "patching_rect": [ 134.0, 226.0, 76.0, 23.0 ],
                    "rnbo_classname": "+",
                    "rnbo_serial": 1,
                    "rnbo_uniqueid": "+_obj-32",
                    "text": "+ 1.5 @hot 1"
                }
            },
            {
                "box": {
                    "id": "obj-6",
                    "maxclass": "newobj",
                    "numinlets": 1,
                    "numoutlets": 1,
                    "outlettype": [ "signal" ],
                    "patching_rect": [ 49.0, 152.0, 46.0, 23.0 ],
                    "rnbo_classname": "atodb~",
                    "rnbo_serial": 1,
                    "rnbo_uniqueid": "atodb~_obj-6",
                    "text": "atodb~"
                }
            },
            {
                "box": {
                    "id": "obj-24",
                    "maxclass": "toggle",
                    "numinlets": 1,
                    "numoutlets": 1,
                    "outlettype": [ "int" ],
                    "parameter_enable": 0,
                    "patching_rect": [ 572.0, 704.0, 24.0, 24.0 ],
                    "rnbo_classname": "toggle",
                    "rnbo_extra_attributes": {
                        "preset": 0,
                        "order": ""
                    },
                    "rnbo_serial": 1,
                    "rnbo_uniqueid": "toggle_obj-24"
                }
            },
            {
                "box": {
                    "id": "obj-22",
                    "maxclass": "newobj",
                    "numinlets": 2,
                    "numoutlets": 1,
                    "outlettype": [ "" ],
                    "patching_rect": [ 572.0, 737.0, 57.0, 23.0 ],
                    "rnbo_classname": "metro",
                    "rnbo_extra_attributes": {
                        "lock": 0.0
                    },
                    "rnbo_serial": 1,
                    "rnbo_uniqueid": "metro_obj-22",
                    "text": "metro 16"
                }
            },
            {
                "box": {
                    "format": 0,
                    "id": "obj-21",
                    "maxclass": "number",
                    "numinlets": 1,
                    "numoutlets": 2,
                    "outlettype": [ "", "bang" ],
                    "parameter_enable": 0,
                    "patching_rect": [ 564.0, 625.0, 50.0, 23.0 ],
                    "rnbo_classname": "number",
                    "rnbo_extra_attributes": {
                        "preset": 0,
                        "initialFormat": "integer",
                        "maximum": "<none>",
                        "minimum": "<none>",
                        "order": ""
                    },
                    "rnbo_serial": 5,
                    "rnbo_uniqueid": "number_obj-21"
                }
            },
            {
                "box": {
                    "format": 0,
                    "id": "obj-20",
                    "maxclass": "number",
                    "numinlets": 1,
                    "numoutlets": 2,
                    "outlettype": [ "", "bang" ],
                    "parameter_enable": 0,
                    "patching_rect": [ 514.0, 610.0, 50.0, 23.0 ],
                    "rnbo_classname": "number",
                    "rnbo_extra_attributes": {
                        "preset": 0,
                        "initialFormat": "integer",
                        "maximum": "<none>",
                        "minimum": "<none>",
                        "order": ""
                    },
                    "rnbo_serial": 6,
                    "rnbo_uniqueid": "number_obj-20"
                }
            },
            {
                "box": {
                    "format": 0,
                    "id": "obj-19",
                    "maxclass": "number",
                    "numinlets": 1,
                    "numoutlets": 2,
                    "outlettype": [ "", "bang" ],
                    "parameter_enable": 0,
                    "patching_rect": [ 464.0, 595.0, 50.0, 23.0 ],
                    "rnbo_classname": "number",
                    "rnbo_extra_attributes": {
                        "preset": 0,
                        "initialFormat": "integer",
                        "maximum": "<none>",
                        "minimum": "<none>",
                        "order": ""
                    },
                    "rnbo_serial": 7,
                    "rnbo_uniqueid": "number_obj-19"
                }
            },
            {
                "box": {
                    "format": 0,
                    "id": "obj-18",
                    "maxclass": "number",
                    "numinlets": 1,
                    "numoutlets": 2,
                    "outlettype": [ "", "bang" ],
                    "parameter_enable": 0,
                    "patching_rect": [ 414.0, 580.0, 50.0, 23.0 ],
                    "rnbo_classname": "number",
                    "rnbo_extra_attributes": {
                        "preset": 0,
                        "initialFormat": "integer",
                        "maximum": "<none>",
                        "minimum": "<none>",
                        "order": ""
                    },
                    "rnbo_serial": 8,
                    "rnbo_uniqueid": "number_obj-18"
                }
            },
            {
                "box": {
                    "format": 0,
                    "id": "obj-17",
                    "maxclass": "number",
                    "numinlets": 1,
                    "numoutlets": 2,
                    "outlettype": [ "", "bang" ],
                    "parameter_enable": 0,
                    "patching_rect": [ 364.0, 565.0, 50.0, 23.0 ],
                    "rnbo_classname": "number",
                    "rnbo_extra_attributes": {
                        "preset": 0,
                        "initialFormat": "integer",
                        "maximum": "<none>",
                        "minimum": "<none>",
                        "order": ""
                    },
                    "rnbo_serial": 9,
                    "rnbo_uniqueid": "number_obj-17"
                }
            },
            {
                "box": {
                    "format": 0,
                    "id": "obj-16",
                    "maxclass": "number",
                    "numinlets": 1,
                    "numoutlets": 2,
                    "outlettype": [ "", "bang" ],
                    "parameter_enable": 0,
                    "patching_rect": [ 314.0, 550.0, 50.0, 23.0 ],
                    "rnbo_classname": "number",
                    "rnbo_extra_attributes": {
                        "preset": 0,
                        "initialFormat": "integer",
                        "maximum": "<none>",
                        "minimum": "<none>",
                        "order": ""
                    },
                    "rnbo_serial": 10,
                    "rnbo_uniqueid": "number_obj-16"
                }
            },
            {
                "box": {
                    "id": "obj-13",
                    "maxclass": "newobj",
                    "numinlets": 2,
                    "numoutlets": 1,
                    "outlettype": [ "" ],
                    "patching_rect": [ 499.0, 811.0, 63.0, 23.0 ],
                    "rnbo_classname": "snapshot~",
                    "rnbo_extra_attributes": {
                        "mode": 0.0
                    },
                    "rnbo_serial": 1,
                    "rnbo_uniqueid": "snapshot~_obj-13",
                    "text": "snapshot~"
                }
            },
            {
                "box": {
                    "id": "obj-12",
                    "maxclass": "newobj",
                    "numinlets": 2,
                    "numoutlets": 1,
                    "outlettype": [ "" ],
                    "patching_rect": [ 469.0, 779.0, 63.0, 23.0 ],
                    "rnbo_classname": "snapshot~",
                    "rnbo_extra_attributes": {
                        "mode": 0.0
                    },
                    "rnbo_serial": 2,
                    "rnbo_uniqueid": "snapshot~_obj-12",
                    "text": "snapshot~"
                }
            },
            {
                "box": {
                    "floatoutput": 1,
                    "id": "obj-11",
                    "maxclass": "slider",
                    "min": 0.0,
                    "mult": 1.0,
                    "numinlets": 1,
                    "numoutlets": 1,
                    "outlettype": [ "" ],
                    "parameter_enable": 0,
                    "patching_rect": [ 496.0, 854.0, 20.0, 140.0 ],
                    "rnbo_classname": "slider",
                    "rnbo_extra_attributes": {
                        "value": 0.0,
                        "preset": 0,
                        "mult": 1.0,
                        "min": 0.0,
                        "floatoutput": 1,
                        "size": 2.5,
                        "order": ""
                    },
                    "rnbo_serial": 1,
                    "rnbo_uniqueid": "slider_obj-11",
                    "size": 2.5
                }
            },
            {
                "box": {
                    "floatoutput": 1,
                    "id": "obj-10",
                    "maxclass": "slider",
                    "min": 0.0,
                    "mult": 1.0,
                    "numinlets": 1,
                    "numoutlets": 1,
                    "outlettype": [ "" ],
                    "parameter_enable": 0,
                    "patching_rect": [ 473.0, 855.0, 20.0, 140.0 ],
                    "rnbo_classname": "slider",
                    "rnbo_extra_attributes": {
                        "value": 0.0,
                        "preset": 0,
                        "mult": 1.0,
                        "min": 0.0,
                        "floatoutput": 1,
                        "size": 2.5,
                        "order": ""
                    },
                    "rnbo_serial": 2,
                    "rnbo_uniqueid": "slider_obj-10",
                    "size": 2.5
                }
            },
            {
                "box": {
                    "floatoutput": 1,
                    "id": "obj-7",
                    "maxclass": "slider",
                    "min": 0.0,
                    "mult": 1.0,
                    "numinlets": 1,
                    "numoutlets": 1,
                    "outlettype": [ "" ],
                    "parameter_enable": 0,
                    "patching_rect": [ 450.0, 855.0, 20.0, 140.0 ],
                    "rnbo_classname": "slider",
                    "rnbo_extra_attributes": {
                        "value": 0.0,
                        "preset": 0,
                        "mult": 1.0,
                        "min": 0.0,
                        "floatoutput": 1,
                        "size": 2.5,
                        "order": ""
                    },
                    "rnbo_serial": 3,
                    "rnbo_uniqueid": "slider_obj-7",
                    "size": 2.5
                }
            },
            {
                "box": {
                    "id": "obj-3",
                    "maxclass": "newobj",
                    "numinlets": 2,
                    "numoutlets": 1,
                    "outlettype": [ "" ],
                    "patching_rect": [ 443.0, 747.0, 63.0, 23.0 ],
                    "rnbo_classname": "snapshot~",
                    "rnbo_extra_attributes": {
                        "mode": 0.0
                    },
                    "rnbo_serial": 3,
                    "rnbo_uniqueid": "snapshot~_obj-3",
                    "text": "snapshot~"
                }
            },
            {
                "box": {
                    "id": "obj-5",
                    "linecount": 5,
                    "maxclass": "comment",
                    "numinlets": 1,
                    "numoutlets": 0,
                    "patching_rect": [ 211.0, 830.0, 150.0, 78.0 ],
                    "text": "https://cycling74.com/forums/rolling-buffer-is-it-even-possible/replies/1#reply-61902eab6d1db253b896d2e2"
                }
            },
            {
                "box": {
                    "id": "obj-14",
                    "maxclass": "newobj",
                    "numinlets": 2,
                    "numoutlets": 1,
                    "outlettype": [ "signal" ],
                    "patching_rect": [ 188.0, 644.0, 56.0, 23.0 ],
                    "rnbo_classname": "+~",
                    "rnbo_serial": 1,
                    "rnbo_uniqueid": "+~_obj-14",
                    "text": "+~ 0.001"
                }
            },
            {
                "box": {
                    "id": "obj-9",
                    "maxclass": "newobj",
                    "numinlets": 2,
                    "numoutlets": 1,
                    "outlettype": [ "signal" ],
                    "patching_rect": [ 216.0, 739.0, 43.0, 23.0 ],
                    "rnbo_classname": "+~",
                    "rnbo_serial": 2,
                    "rnbo_uniqueid": "+~_obj-9",
                    "text": "+~ 0.3"
                }
            },
            {
                "box": {
                    "id": "obj-8",
                    "maxclass": "newobj",
                    "numinlets": 3,
                    "numoutlets": 1,
                    "outlettype": [ "signal" ],
                    "patching_rect": [ 188.0, 691.0, 101.0, 23.0 ],
                    "rnbo_classname": "slide~",
                    "rnbo_serial": 1,
                    "rnbo_uniqueid": "slide~_obj-8",
                    "text": "slide~ 2400 4800"
                }
            },
            {
                "box": {
                    "id": "obj-2",
                    "maxclass": "newobj",
                    "numinlets": 3,
                    "numoutlets": 1,
                    "outlettype": [ "signal" ],
                    "patching_rect": [ 159.0, 786.0, 76.0, 23.0 ],
                    "rnbo_classname": "thresh~",
                    "rnbo_serial": 1,
                    "rnbo_uniqueid": "thresh~_obj-2",
                    "text": "thresh~ 0. 1."
                }
            },
            {
                "box": {
                    "id": "obj-36",
                    "maxclass": "newobj",
                    "numinlets": 1,
                    "numoutlets": 0,
                    "patching_rect": [ 280.0, 921.0, 128.0, 23.0 ],
                    "rnbo_classname": "s~",
                    "rnbo_serial": 1,
                    "rnbo_uniqueid": "s~_obj-36",
                    "text": "s~ phaseresetpredelta"
                }
            },
            {
                "box": {
                    "id": "obj-4",
                    "maxclass": "newobj",
                    "numinlets": 1,
                    "numoutlets": 0,
                    "patching_rect": [ 159.0, 921.0, 84.0, 23.0 ],
                    "rnbo_classname": "s~",
                    "rnbo_serial": 2,
                    "rnbo_uniqueid": "s~_obj-4",
                    "text": "s~ phasereset"
                }
            },
            {
                "box": {
                    "fontname": "Arial",
                    "fontsize": 12.0,
                    "id": "obj-655",
                    "maxclass": "newobj",
                    "numinlets": 1,
                    "numoutlets": 2,
                    "outlettype": [ "", "" ],
                    "patching_rect": [ 54.0, 878.0, 44.0, 22.0 ],
                    "rnbo_classname": "edge~",
                    "rnbo_serial": 1,
                    "rnbo_uniqueid": "edge~_obj-655",
                    "text": "edge~"
                }
            },
            {
                "box": {
                    "fontname": "Arial",
                    "fontsize": 12.0,
                    "id": "obj-656",
                    "maxclass": "newobj",
                    "numinlets": 2,
                    "numoutlets": 1,
                    "outlettype": [ "signal" ],
                    "patching_rect": [ 159.0, 878.0, 38.0, 22.0 ],
                    "rnbo_classname": ">~",
                    "rnbo_serial": 1,
                    "rnbo_uniqueid": ">~_obj-656",
                    "text": ">~ 0."
                }
            },
            {
                "box": {
                    "fontface": 0,
                    "fontname": "Arial",
                    "fontsize": 12.0,
                    "id": "obj-120",
                    "maxclass": "newobj",
                    "numinlets": 1,
                    "numoutlets": 1,
                    "outlettype": [ "signal" ],
                    "patching_rect": [ 159.0, 835.0, 44.0, 22.0 ],
                    "rnbo_classname": "delta~",
                    "rnbo_serial": 1,
                    "rnbo_uniqueid": "delta~_obj-120",
                    "text": "delta~"
                }
            },
            {
                "box": {
                    "fontname": "Arial",
                    "fontsize": 12.0,
                    "id": "obj-222",
                    "maxclass": "newobj",
                    "numinlets": 3,
                    "numoutlets": 1,
                    "outlettype": [ "signal" ],
                    "patching_rect": [ 159.0, 597.0, 94.0, 22.0 ],
                    "rnbo_classname": "slide~",
                    "rnbo_serial": 2,
                    "rnbo_uniqueid": "slide~_obj-222",
                    "text": "slide~ 48 24000"
                }
            },
            {
                "box": {
                    "bgcolor": [ 0.07843137254902, 0.07843137254902, 0.07843137254902, 1.0 ],
                    "color": [ 0.101960784313725, 0.796078431372549, 0.258823529411765, 1.0 ],
                    "id": "obj-400",
                    "maxclass": "newobj",
                    "numinlets": 1,
                    "numoutlets": 0,
                    "patching_rect": [ 54.0, 921.0, 77.0, 23.0 ],
                    "rnbo_classname": "s",
                    "rnbo_serial": 1,
                    "rnbo_uniqueid": "s_obj-400",
                    "text": "s phasereset",
                    "textcolor": [ 0.647058823529412, 1.0, 0.725490196078431, 1.0 ]
                }
            },
            {
                "box": {
                    "id": "obj-1",
                    "maxclass": "newobj",
                    "numinlets": 3,
                    "numoutlets": 1,
                    "outlettype": [ "signal" ],
                    "patching_rect": [ 49.0, 358.0, 54.0, 23.0 ],
                    "rnbo_classname": "clip~",
                    "rnbo_serial": 4,
                    "rnbo_uniqueid": "clip~_obj-1",
                    "text": "clip~ 0 5"
                }
            },
            {
                "box": {
                    "fontsize": 12.0,
                    "id": "obj-137",
                    "maxclass": "newobj",
                    "numinlets": 1,
                    "numoutlets": 0,
                    "patching_rect": [ 78.0, 110.0, 100.0, 23.0 ],
                    "rnbo_classname": "s~",
                    "rnbo_serial": 3,
                    "rnbo_uniqueid": "s~_obj-137",
                    "text": "s~ env_pre-atodb"
                }
            },
            {
                "box": {
                    "id": "obj-133",
                    "maxclass": "newobj",
                    "numinlets": 0,
                    "numoutlets": 1,
                    "outlettype": [ "" ],
                    "patching_rect": [ 134.0, 152.0, 115.0, 23.0 ],
                    "rnbo_classname": "r",
                    "rnbo_serial": 2,
                    "rnbo_uniqueid": "r_obj-133",
                    "text": "r \"noise gate thresh\""
                }
            },
            {
                "box": {
                    "id": "obj-954",
                    "maxclass": "newobj",
                    "numinlets": 6,
                    "numoutlets": 1,
                    "outlettype": [ "signal" ],
                    "patching_rect": [ 49.0, 300.0, 104.0, 23.0 ],
                    "rnbo_classname": "scale~",
                    "rnbo_serial": 1,
                    "rnbo_uniqueid": "scale~_obj-954",
                    "text": "scale~ -60 -14 0 1"
                }
            },
            {
                "box": {
                    "fontname": "Ableton Sans Light",
                    "id": "obj-704",
                    "linecount": 6,
                    "maxclass": "comment",
                    "numinlets": 0,
                    "numoutlets": 0,
                    "patching_rect": [ 299.0, 5.0, 220.0, 93.0 ],
                    "suppressinlet": 1,
                    "text": "tuba_env is sent to:\n    1. Visuals\n    2. Noise Gate\n    3. Crossfade\n    4. Mod Params: floor, ceiling, spread\n    5. Transient Detector"
                }
            },
            {
                "box": {
                    "fontsize": 12.0,
                    "id": "obj-162",
                    "maxclass": "newobj",
                    "numinlets": 1,
                    "numoutlets": 0,
                    "patching_rect": [ 151.0, 431.0, 110.0, 23.0 ],
                    "rnbo_classname": "s~",
                    "rnbo_serial": 5,
                    "rnbo_uniqueid": "s~_obj-162",
                    "text": "s~ env_pre-smooth"
                }
            },
            {
                "box": {
                    "id": "obj-489",
                    "maxclass": "newobj",
                    "numinlets": 1,
                    "numoutlets": 1,
                    "outlettype": [ "signal" ],
                    "patching_rect": [ 49.0, 73.0, 35.333334386348724, 23.0 ],
                    "rnbo_classname": "abs~",
                    "rnbo_serial": 1,
                    "rnbo_uniqueid": "abs~_obj-489",
                    "text": "abs~"
                }
            },
            {
                "box": {
                    "id": "obj-158",
                    "maxclass": "newobj",
                    "numinlets": 0,
                    "numoutlets": 1,
                    "outlettype": [ "signal" ],
                    "patching_rect": [ 49.0, 38.0, 35.0, 23.0 ],
                    "rnbo_classname": "in~",
                    "rnbo_extra_attributes": {
                        "comment": "",
                        "meta": ""
                    },
                    "rnbo_serial": 1,
                    "rnbo_uniqueid": "in~_obj-158",
                    "rnboinfo": {
                        "needsInstanceInfo": 1,
                        "argnames": {
                            "out1": {
                                "attrOrProp": 1,
                                "digest": "signal from inlet with index 1",
                                "isalias": 0,
                                "aliases": [],
                                "settable": 0,
                                "attachable": 0,
                                "isparam": 0,
                                "deprecated": 0,
                                "touched": 0,
                                "outlet": 1,
                                "type": "signal"
                            },
                            "index": {
                                "attrOrProp": 2,
                                "digest": "inlet number",
                                "defaultarg": 1,
                                "isalias": 0,
                                "aliases": [],
                                "settable": 1,
                                "attachable": 0,
                                "isparam": 0,
                                "deprecated": 0,
                                "touched": 0,
                                "type": "number",
                                "mandatory": 1
                            },
                            "comment": {
                                "attrOrProp": 2,
                                "digest": "mouse over comment",
                                "isalias": 0,
                                "aliases": [],
                                "settable": 1,
                                "attachable": 0,
                                "isparam": 0,
                                "deprecated": 0,
                                "touched": 0,
                                "type": "symbol"
                            },
                            "meta": {
                                "attrOrProp": 2,
                                "digest": "A JSON formatted string containing metadata for use by the exported code",
                                "isalias": 0,
                                "aliases": [],
                                "settable": 1,
                                "attachable": 0,
                                "isparam": 0,
                                "deprecated": 0,
                                "touched": 0,
                                "type": "symbol",
                                "defaultValue": "",
                                "label": "Metadata",
                                "displayorder": 3
                            }
                        },
                        "inputs": [],
                        "outputs": [
                            {
                                "name": "out1",
                                "type": "signal",
                                "digest": "signal from inlet with index 1",
                                "displayName": "",
                                "docked": 0
                            }
                        ],
                        "helpname": "in~",
                        "aliasOf": "in~",
                        "classname": "in~",
                        "operator": 0,
                        "versionId": -1654556303,
                        "changesPatcherIO": 1
                    },
                    "text": "in~ 1"
                }
            }
        ],
        "lines": [
            {
                "patchline": {
                    "destination": [ "obj-150", 0 ],
                    "order": 0,
                    "source": [ "obj-1", 0 ]
                }
            },
            {
                "patchline": {
                    "destination": [ "obj-162", 0 ],
                    "order": 2,
                    "source": [ "obj-1", 0 ]
                }
            },
            {
                "patchline": {
                    "destination": [ "obj-222", 0 ],
                    "order": 1,
                    "source": [ "obj-1", 0 ]
                }
            },
            {
                "patchline": {
                    "destination": [ "obj-10", 0 ],
                    "source": [ "obj-12", 0 ]
                }
            },
            {
                "patchline": {
                    "destination": [ "obj-656", 0 ],
                    "source": [ "obj-120", 0 ]
                }
            },
            {
                "patchline": {
                    "destination": [ "obj-11", 0 ],
                    "source": [ "obj-13", 0 ]
                }
            },
            {
                "patchline": {
                    "destination": [ "obj-29", 0 ],
                    "order": 0,
                    "source": [ "obj-133", 0 ]
                }
            },
            {
                "patchline": {
                    "destination": [ "obj-32", 0 ],
                    "order": 1,
                    "source": [ "obj-133", 0 ]
                }
            },
            {
                "patchline": {
                    "destination": [ "obj-8", 0 ],
                    "source": [ "obj-14", 0 ]
                }
            },
            {
                "patchline": {
                    "destination": [ "obj-489", 0 ],
                    "source": [ "obj-158", 0 ]
                }
            },
            {
                "patchline": {
                    "destination": [ "obj-222", 1 ],
                    "source": [ "obj-16", 0 ]
                }
            },
            {
                "patchline": {
                    "destination": [ "obj-222", 2 ],
                    "source": [ "obj-17", 0 ]
                }
            },
            {
                "patchline": {
                    "destination": [ "obj-14", 1 ],
                    "source": [ "obj-18", 0 ]
                }
            },
            {
                "patchline": {
                    "destination": [ "obj-8", 1 ],
                    "source": [ "obj-19", 0 ]
                }
            },
            {
                "patchline": {
                    "destination": [ "obj-120", 0 ],
                    "order": 1,
                    "source": [ "obj-2", 0 ]
                }
            },
            {
                "patchline": {
                    "destination": [ "obj-36", 0 ],
                    "midpoints": [ 168.5, 822.0, 289.5, 822.0 ],
                    "order": 0,
                    "source": [ "obj-2", 0 ]
                }
            },
            {
                "patchline": {
                    "destination": [ "obj-655", 0 ],
                    "midpoints": [ 168.5, 822.0, 63.5, 822.0 ],
                    "order": 2,
                    "source": [ "obj-2", 0 ]
                }
            },
            {
                "patchline": {
                    "destination": [ "obj-8", 2 ],
                    "source": [ "obj-20", 0 ]
                }
            },
            {
                "patchline": {
                    "destination": [ "obj-9", 1 ],
                    "source": [ "obj-21", 0 ]
                }
            },
            {
                "patchline": {
                    "destination": [ "obj-12", 0 ],
                    "order": 1,
                    "source": [ "obj-22", 0 ]
                }
            },
            {
                "patchline": {
                    "destination": [ "obj-13", 0 ],
                    "order": 0,
                    "source": [ "obj-22", 0 ]
                }
            },
            {
                "patchline": {
                    "destination": [ "obj-3", 0 ],
                    "order": 2,
                    "source": [ "obj-22", 0 ]
                }
            },
            {
                "patchline": {
                    "destination": [ "obj-14", 0 ],
                    "order": 1,
                    "source": [ "obj-222", 0 ]
                }
            },
            {
                "patchline": {
                    "destination": [ "obj-2", 0 ],
                    "order": 2,
                    "source": [ "obj-222", 0 ]
                }
            },
            {
                "patchline": {
                    "destination": [ "obj-3", 0 ],
                    "order": 0,
                    "source": [ "obj-222", 0 ]
                }
            },
            {
                "patchline": {
                    "destination": [ "obj-32", 1 ],
                    "source": [ "obj-23", 0 ]
                }
            },
            {
                "patchline": {
                    "destination": [ "obj-22", 0 ],
                    "source": [ "obj-24", 0 ]
                }
            },
            {
                "patchline": {
                    "destination": [ "obj-954", 2 ],
                    "source": [ "obj-25", 0 ]
                }
            },
            {
                "patchline": {
                    "destination": [ "obj-25", 1 ],
                    "source": [ "obj-28", 0 ]
                }
            },
            {
                "patchline": {
                    "destination": [ "obj-7", 0 ],
                    "source": [ "obj-3", 0 ]
                }
            },
            {
                "patchline": {
                    "destination": [ "obj-954", 1 ],
                    "source": [ "obj-32", 0 ]
                }
            },
            {
                "patchline": {
                    "destination": [ "obj-1", 2 ],
                    "source": [ "obj-33", 0 ]
                }
            },
            {
                "patchline": {
                    "destination": [ "obj-137", 0 ],
                    "order": 0,
                    "source": [ "obj-489", 0 ]
                }
            },
            {
                "patchline": {
                    "destination": [ "obj-6", 0 ],
                    "order": 1,
                    "source": [ "obj-489", 0 ]
                }
            },
            {
                "patchline": {
                    "destination": [ "obj-25", 0 ],
                    "order": 1,
                    "source": [ "obj-53", 0 ]
                }
            },
            {
                "patchline": {
                    "destination": [ "obj-27", 0 ],
                    "order": 0,
                    "source": [ "obj-53", 0 ]
                }
            },
            {
                "patchline": {
                    "destination": [ "obj-954", 0 ],
                    "source": [ "obj-6", 0 ]
                }
            },
            {
                "patchline": {
                    "destination": [ "obj-400", 0 ],
                    "source": [ "obj-655", 0 ]
                }
            },
            {
                "patchline": {
                    "destination": [ "obj-4", 0 ],
                    "source": [ "obj-656", 0 ]
                }
            },
            {
                "patchline": {
                    "destination": [ "obj-12", 0 ],
                    "order": 0,
                    "source": [ "obj-8", 0 ]
                }
            },
            {
                "patchline": {
                    "destination": [ "obj-2", 1 ],
                    "order": 2,
                    "source": [ "obj-8", 0 ]
                }
            },
            {
                "patchline": {
                    "destination": [ "obj-9", 0 ],
                    "order": 1,
                    "source": [ "obj-8", 0 ]
                }
            },
            {
                "patchline": {
                    "destination": [ "obj-13", 0 ],
                    "order": 0,
                    "source": [ "obj-9", 0 ]
                }
            },
            {
                "patchline": {
                    "destination": [ "obj-2", 2 ],
                    "order": 1,
                    "source": [ "obj-9", 0 ]
                }
            },
            {
                "patchline": {
                    "destination": [ "obj-1", 0 ],
                    "source": [ "obj-954", 0 ]
                }
            }
        ]
    }
}