{
	"patcher" : 	{
		"fileversion" : 1,
		"appversion" : 		{
			"major" : 9,
			"minor" : 1,
			"revision" : 0,
			"architecture" : "x64",
			"modernui" : 1
		}
,
		"classnamespace" : "rnbo",
		"rect" : [ 34.0, 87.0, 2031.0, 1319.0 ],
		"default_fontname" : "Lato",
		"gridsize" : [ 15.0, 15.0 ],
		"title" : "jb.kickduck",
		"boxes" : [ 			{
				"box" : 				{
					"code" : "// https://cycling74.com/forums/math-behind-function-curve#reply-63e9aa007fd8db00146eabc8\r\n// this emulates max's function object with three, countem, three curved lines\r\nx = in1;\n\nfirstY = in2;\nfirstX = in3;\n\nmidY = in4;\nmidX = in5;\nfirstCurve = in6;\n\nendY = in7;\nendX = in8;\nsecondCurve = in9;\n\nfinalY = in10;\nfinalX = in11;\nthirdCurve = in12;\n\nif (x < midX) {\n    // First segment (first point to middle point)\n    tmpRange = midY - firstY;\n    tmpDomain = midX - firstX;\n    \n    if (abs(firstCurve) < 0.001) {\n        out1 = ((x - firstX) / tmpDomain) * tmpRange + firstY;\n    }\n    \n    if (firstCurve < 0.0) {\n        gx = (midX - x) / tmpDomain;\n        hp = pow((1e-20 - firstCurve) * 1.2, 0.41) * 0.91;\n        fp = hp / (1.0 - hp);\n        gp = (exp(fp * gx) - 1.0) / (exp(fp) - 1.0);\n        \n        out1 = midY - gp * tmpRange;\n    } else {\n        gx = (x - firstX) / tmpDomain;\n        hp = pow((firstCurve + 1e-20) * 1.2, 0.41) * 0.91;\n        fp = hp / (1.0 - hp);\n        gp = (exp(fp * gx) - 1.0) / (exp(fp) - 1.0);\n        \n        out1 = gp * tmpRange + firstY;\n    }\n} \nelse if (x < endX) {\n    // Second segment (middle point to end point)\n    tmpRange = endY - midY;\n    tmpDomain = endX - midX;\n\n    if (abs(secondCurve) < 0.001) {\n        out1 = ((x - midX) / tmpDomain) * tmpRange + midY;\n    }\n    \n    if (secondCurve < 0.0) {\n        gx = (endX - x) / tmpDomain;\n        hp = pow((1e-20 - secondCurve) * 1.2, 0.41) * 0.91;\n        fp = hp / (1.0 - hp);\n        gp = (exp(fp * gx) - 1.0) / (exp(fp) - 1.0);\n        \n        out1 = endY - gp * tmpRange;\n    } else {\n        gx = (x - midX) / tmpDomain;\n        hp = pow((secondCurve + 1e-20) * 1.2, 0.41) * 0.91;\n        fp = hp / (1.0 - hp);\n        gp = (exp(fp * gx) - 1.0) / (exp(fp) - 1.0);\n        \n        out1 = gp * tmpRange + midY;    \n    }\n}\nelse {\n    // Third segment (end point to final point)\n    tmpRange = finalY - endY;\n    tmpDomain = finalX - endX;\n\n    if (abs(thirdCurve) < 0.001) {\n        out1 = ((x - endX) / tmpDomain) * tmpRange + endY;\n    }\n    \n    if (thirdCurve < 0.0) {\n        gx = (finalX - x) / tmpDomain;\n        hp = pow((1e-20 - thirdCurve) * 1.2, 0.41) * 0.91;\n        fp = hp / (1.0 - hp);\n        gp = (exp(fp * gx) - 1.0) / (exp(fp) - 1.0);\n        \n        out1 = finalY - gp * tmpRange;\n    } else {\n        gx = (x - endX) / tmpDomain;\n        hp = pow((thirdCurve + 1e-20) * 1.2, 0.41) * 0.91;\n        fp = hp / (1.0 - hp);\n        gp = (exp(fp * gx) - 1.0) / (exp(fp) - 1.0);\n        \n        out1 = gp * tmpRange + endY;    \n    }\n}",
					"fontface" : 0,
					"fontname" : "<Monospaced>",
					"fontsize" : 12.0,
					"id" : "obj-80",
					"maxclass" : "codebox~",
					"numinlets" : 12,
					"numoutlets" : 1,
					"outlettype" : [ "signal" ],
					"patching_rect" : [ 261.0, 751.0, 526.0, 296.0 ],
					"rnbo_classname" : "codebox~",
					"rnbo_extra_attributes" : 					{
						"code" : "// https://cycling74.com/forums/math-behind-function-curve#reply-63e9aa007fd8db00146eabc8\r\n// this emulates max's function object with three, countem, three curved lines\r\nx = in1;\n\nfirstY = in2;\nfirstX = in3;\n\nmidY = in4;\nmidX = in5;\nfirstCurve = in6;\n\nendY = in7;\nendX = in8;\nsecondCurve = in9;\n\nfinalY = in10;\nfinalX = in11;\nthirdCurve = in12;\n\nif (x < midX) {\n    // First segment (first point to middle point)\n    tmpRange = midY - firstY;\n    tmpDomain = midX - firstX;\n    \n    if (abs(firstCurve) < 0.001) {\n        out1 = ((x - firstX) / tmpDomain) * tmpRange + firstY;\n    }\n    \n    if (firstCurve < 0.0) {\n        gx = (midX - x) / tmpDomain;\n        hp = pow((1e-20 - firstCurve) * 1.2, 0.41) * 0.91;\n        fp = hp / (1.0 - hp);\n        gp = (exp(fp * gx) - 1.0) / (exp(fp) - 1.0);\n        \n        out1 = midY - gp * tmpRange;\n    } else {\n        gx = (x - firstX) / tmpDomain;\n        hp = pow((firstCurve + 1e-20) * 1.2, 0.41) * 0.91;\n        fp = hp / (1.0 - hp);\n        gp = (exp(fp * gx) - 1.0) / (exp(fp) - 1.0);\n        \n        out1 = gp * tmpRange + firstY;\n    }\n} \nelse if (x < endX) {\n    // Second segment (middle point to end point)\n    tmpRange = endY - midY;\n    tmpDomain = endX - midX;\n\n    if (abs(secondCurve) < 0.001) {\n        out1 = ((x - midX) / tmpDomain) * tmpRange + midY;\n    }\n    \n    if (secondCurve < 0.0) {\n        gx = (endX - x) / tmpDomain;\n        hp = pow((1e-20 - secondCurve) * 1.2, 0.41) * 0.91;\n        fp = hp / (1.0 - hp);\n        gp = (exp(fp * gx) - 1.0) / (exp(fp) - 1.0);\n        \n        out1 = endY - gp * tmpRange;\n    } else {\n        gx = (x - midX) / tmpDomain;\n        hp = pow((secondCurve + 1e-20) * 1.2, 0.41) * 0.91;\n        fp = hp / (1.0 - hp);\n        gp = (exp(fp * gx) - 1.0) / (exp(fp) - 1.0);\n        \n        out1 = gp * tmpRange + midY;    \n    }\n}\nelse {\n    // Third segment (end point to final point)\n    tmpRange = finalY - endY;\n    tmpDomain = finalX - endX;\n\n    if (abs(thirdCurve) < 0.001) {\n        out1 = ((x - endX) / tmpDomain) * tmpRange + endY;\n    }\n    \n    if (thirdCurve < 0.0) {\n        gx = (finalX - x) / tmpDomain;\n        hp = pow((1e-20 - thirdCurve) * 1.2, 0.41) * 0.91;\n        fp = hp / (1.0 - hp);\n        gp = (exp(fp * gx) - 1.0) / (exp(fp) - 1.0);\n        \n        out1 = finalY - gp * tmpRange;\n    } else {\n        gx = (x - endX) / tmpDomain;\n        hp = pow((thirdCurve + 1e-20) * 1.2, 0.41) * 0.91;\n        fp = hp / (1.0 - hp);\n        gp = (exp(fp * gx) - 1.0) / (exp(fp) - 1.0);\n        \n        out1 = gp * tmpRange + endY;    \n    }\n}",
						"safemath" : 1,
						"expr" : "",
						"nocache" : 0
					}
,
					"rnbo_serial" : 6,
					"rnbo_uniqueid" : "codebox~_obj-80",
					"rnboinfo" : 					{
						"needsInstanceInfo" : 1,
						"argnames" : 						{
							"reset" : 							{
								"attrOrProp" : 1,
								"digest" : "Reset all state and params to initial values",
								"isalias" : 0,
								"aliases" : [  ],
								"attachable" : 1,
								"isparam" : 0,
								"deprecated" : 0,
								"touched" : 0,
								"type" : "bang"
							}
,
							"in1" : 							{
								"attrOrProp" : 1,
								"digest" : "in1",
								"isalias" : 0,
								"aliases" : [  ],
								"settable" : 1,
								"attachable" : 0,
								"isparam" : 0,
								"deprecated" : 0,
								"touched" : 0,
								"inlet" : 1,
								"type" : "number"
							}
,
							"in2" : 							{
								"attrOrProp" : 1,
								"digest" : "in2",
								"isalias" : 0,
								"aliases" : [  ],
								"settable" : 1,
								"attachable" : 0,
								"isparam" : 0,
								"deprecated" : 0,
								"touched" : 0,
								"inlet" : 1,
								"type" : "number"
							}
,
							"in3" : 							{
								"attrOrProp" : 1,
								"digest" : "in3",
								"isalias" : 0,
								"aliases" : [  ],
								"settable" : 1,
								"attachable" : 0,
								"isparam" : 0,
								"deprecated" : 0,
								"touched" : 0,
								"inlet" : 1,
								"type" : "number"
							}
,
							"in4" : 							{
								"attrOrProp" : 1,
								"digest" : "in4",
								"isalias" : 0,
								"aliases" : [  ],
								"settable" : 1,
								"attachable" : 0,
								"isparam" : 0,
								"deprecated" : 0,
								"touched" : 0,
								"inlet" : 1,
								"type" : "number"
							}
,
							"in5" : 							{
								"attrOrProp" : 1,
								"digest" : "in5",
								"isalias" : 0,
								"aliases" : [  ],
								"settable" : 1,
								"attachable" : 0,
								"isparam" : 0,
								"deprecated" : 0,
								"touched" : 0,
								"inlet" : 1,
								"type" : "number"
							}
,
							"in6" : 							{
								"attrOrProp" : 1,
								"digest" : "in6",
								"isalias" : 0,
								"aliases" : [  ],
								"settable" : 1,
								"attachable" : 0,
								"isparam" : 0,
								"deprecated" : 0,
								"touched" : 0,
								"inlet" : 1,
								"type" : "number"
							}
,
							"in7" : 							{
								"attrOrProp" : 1,
								"digest" : "in7",
								"isalias" : 0,
								"aliases" : [  ],
								"settable" : 1,
								"attachable" : 0,
								"isparam" : 0,
								"deprecated" : 0,
								"touched" : 0,
								"inlet" : 1,
								"type" : "number"
							}
,
							"in8" : 							{
								"attrOrProp" : 1,
								"digest" : "in8",
								"isalias" : 0,
								"aliases" : [  ],
								"settable" : 1,
								"attachable" : 0,
								"isparam" : 0,
								"deprecated" : 0,
								"touched" : 0,
								"inlet" : 1,
								"type" : "number"
							}
,
							"in9" : 							{
								"attrOrProp" : 1,
								"digest" : "in9",
								"isalias" : 0,
								"aliases" : [  ],
								"settable" : 1,
								"attachable" : 0,
								"isparam" : 0,
								"deprecated" : 0,
								"touched" : 0,
								"inlet" : 1,
								"type" : "number"
							}
,
							"in10" : 							{
								"attrOrProp" : 1,
								"digest" : "in10",
								"isalias" : 0,
								"aliases" : [  ],
								"settable" : 1,
								"attachable" : 0,
								"isparam" : 0,
								"deprecated" : 0,
								"touched" : 0,
								"inlet" : 1,
								"type" : "number"
							}
,
							"in11" : 							{
								"attrOrProp" : 1,
								"digest" : "in11",
								"isalias" : 0,
								"aliases" : [  ],
								"settable" : 1,
								"attachable" : 0,
								"isparam" : 0,
								"deprecated" : 0,
								"touched" : 0,
								"inlet" : 1,
								"type" : "number"
							}
,
							"in12" : 							{
								"attrOrProp" : 1,
								"digest" : "in12",
								"isalias" : 0,
								"aliases" : [  ],
								"settable" : 1,
								"attachable" : 0,
								"isparam" : 0,
								"deprecated" : 0,
								"touched" : 0,
								"inlet" : 1,
								"type" : "number"
							}
,
							"out1" : 							{
								"attrOrProp" : 1,
								"digest" : "out1",
								"isalias" : 0,
								"aliases" : [  ],
								"attachable" : 0,
								"isparam" : 0,
								"deprecated" : 0,
								"touched" : 0,
								"outlet" : 1,
								"type" : "signal"
							}
,
							"expr" : 							{
								"attrOrProp" : 2,
								"digest" : "expr",
								"defaultarg" : 1,
								"isalias" : 0,
								"aliases" : [  ],
								"settable" : 1,
								"attachable" : 0,
								"isparam" : 0,
								"deprecated" : 0,
								"touched" : 0,
								"type" : "symbol"
							}
,
							"safemath" : 							{
								"attrOrProp" : 2,
								"digest" : "Use safe math expressions (e.g.: division by 0 will not crash).",
								"isalias" : 0,
								"aliases" : [  ],
								"settable" : 1,
								"attachable" : 0,
								"isparam" : 0,
								"deprecated" : 0,
								"touched" : 0,
								"type" : "bool",
								"defaultValue" : "true"
							}
,
							"nocache" : 							{
								"attrOrProp" : 2,
								"digest" : "Do not use parsing cache. This is only useful with very very big code sizes. Code generation will then take a looooong time.",
								"isalias" : 0,
								"aliases" : [  ],
								"settable" : 1,
								"attachable" : 0,
								"isparam" : 0,
								"deprecated" : 0,
								"touched" : 0,
								"type" : "bool",
								"defaultValue" : "false"
							}

						}
,
						"inputs" : [ 							{
								"name" : "in1",
								"type" : "auto",
								"digest" : "in1",
								"hot" : 1,
								"docked" : 0
							}
, 							{
								"name" : "in2",
								"type" : "auto",
								"digest" : "in2",
								"docked" : 0
							}
, 							{
								"name" : "in3",
								"type" : "auto",
								"digest" : "in3",
								"docked" : 0
							}
, 							{
								"name" : "in4",
								"type" : "auto",
								"digest" : "in4",
								"docked" : 0
							}
, 							{
								"name" : "in5",
								"type" : "auto",
								"digest" : "in5",
								"docked" : 0
							}
, 							{
								"name" : "in6",
								"type" : "auto",
								"digest" : "in6",
								"docked" : 0
							}
, 							{
								"name" : "in7",
								"type" : "auto",
								"digest" : "in7",
								"docked" : 0
							}
, 							{
								"name" : "in8",
								"type" : "auto",
								"digest" : "in8",
								"docked" : 0
							}
, 							{
								"name" : "in9",
								"type" : "auto",
								"digest" : "in9",
								"docked" : 0
							}
, 							{
								"name" : "in10",
								"type" : "auto",
								"digest" : "in10",
								"docked" : 0
							}
, 							{
								"name" : "in11",
								"type" : "auto",
								"digest" : "in11",
								"docked" : 0
							}
, 							{
								"name" : "in12",
								"type" : "auto",
								"digest" : "in12",
								"docked" : 0
							}
 ],
						"outputs" : [ 							{
								"name" : "out1",
								"type" : "signal",
								"digest" : "out1",
								"docked" : 0
							}
 ],
						"helpname" : "codebox~",
						"aliasOf" : "expr~",
						"classname" : "codebox~",
						"operator" : 0,
						"versionId" : 527839773,
						"changesPatcherIO" : 0
					}

				}

			}
, 			{
				"box" : 				{
					"id" : "obj-78",
					"maxclass" : "message",
					"numinlets" : 2,
					"numoutlets" : 1,
					"outlettype" : [ "" ],
					"patching_rect" : [ 307.090909090909008, 617.0, 412.0, 23.0 ],
					"presentation_linecount" : 12,
					"rnbo_classname" : "message",
					"rnbo_extra_attributes" : 					{
						"storeempty" : 0,
						"text" : "1. 0. 0. 0. 351.851852 0. 0.556604 648.148148 0."
					}
,
					"rnbo_serial" : 8,
					"rnbo_uniqueid" : "message_obj-78",
					"text" : "1 0 0 0 92.592593 -0.7 0.490566 263.888889 0.75 1 643.518519 -0.895"
				}

			}
, 			{
				"box" : 				{
					"id" : "obj-77",
					"maxclass" : "newobj",
					"numinlets" : 2,
					"numoutlets" : 1,
					"outlettype" : [ "signal" ],
					"patching_rect" : [ 261.0, 545.0, 51.0, 23.0 ],
					"rnbo_classname" : "*~",
					"rnbo_serial" : 4,
					"rnbo_uniqueid" : "*~_obj-77",
					"text" : "*~ 1000"
				}

			}
, 			{
				"box" : 				{
					"bufsize" : 128.0,
					"calccount" : 256.0,
					"id" : "obj-38",
					"maxclass" : "scope~",
					"numinlets" : 2,
					"numoutlets" : 0,
					"patching_rect" : [ 54.0, 302.0, 130.0, 130.0 ],
					"range" : [ -0.1, 1.1 ],
					"rnbo_classname" : "scope~",
					"rnbo_extra_attributes" : 					{
						"bufsize" : 128.0,
						"calccount" : 256.0
					}
,
					"rnbo_serial" : 5,
					"rnbo_uniqueid" : "scope~_obj-38"
				}

			}
, 			{
				"box" : 				{
					"bufsize" : 128.0,
					"calccount" : 256.0,
					"id" : "obj-37",
					"maxclass" : "scope~",
					"numinlets" : 2,
					"numoutlets" : 0,
					"patching_rect" : [ 54.0, 147.0, 130.0, 130.0 ],
					"range" : [ -0.1, 1.1 ],
					"rnbo_classname" : "scope~",
					"rnbo_extra_attributes" : 					{
						"bufsize" : 128.0,
						"calccount" : 256.0
					}
,
					"rnbo_serial" : 4,
					"rnbo_uniqueid" : "scope~_obj-37"
				}

			}
, 			{
				"box" : 				{
					"bufsize" : 128.0,
					"calccount" : 256.0,
					"id" : "obj-33",
					"maxclass" : "scope~",
					"numinlets" : 2,
					"numoutlets" : 0,
					"patching_rect" : [ 54.0, 458.0, 130.0, 130.0 ],
					"range" : [ -0.1, 1.1 ],
					"rnbo_classname" : "scope~",
					"rnbo_extra_attributes" : 					{
						"bufsize" : 128.0,
						"calccount" : 256.0
					}
,
					"rnbo_serial" : 6,
					"rnbo_uniqueid" : "scope~_obj-33"
				}

			}
, 			{
				"box" : 				{
					"id" : "obj-32",
					"maxclass" : "newobj",
					"numinlets" : 2,
					"numoutlets" : 1,
					"outlettype" : [ "" ],
					"patching_rect" : [ 261.0, 471.0, 43.0, 23.0 ],
					"rnbo_classname" : "list.reg",
					"rnbo_extra_attributes" : 					{
						"order" : "",
						"preset" : 0
					}
,
					"rnbo_serial" : 2,
					"rnbo_uniqueid" : "list.reg_obj-32",
					"text" : "list.reg"
				}

			}
, 			{
				"box" : 				{
					"id" : "obj-30",
					"maxclass" : "newobj",
					"numinlets" : 4,
					"numoutlets" : 1,
					"outlettype" : [ "" ],
					"patching_rect" : [ 285.0, 417.0, 65.0, 23.0 ],
					"rnbo_classname" : "pak",
					"rnbo_extra_attributes" : 					{
						"length" : 0.0,
						"list" : ""
					}
,
					"rnbo_serial" : 8,
					"rnbo_uniqueid" : "pak_obj-30",
					"rnboinfo" : 					{
						"needsInstanceInfo" : 1,
						"argnames" : 						{
							"out" : 							{
								"attrOrProp" : 1,
								"digest" : "out",
								"isalias" : 0,
								"aliases" : [  ],
								"attachable" : 0,
								"isparam" : 0,
								"deprecated" : 0,
								"touched" : 0,
								"outlet" : 1,
								"type" : "list"
							}
,
							"in1" : 							{
								"attrOrProp" : 1,
								"digest" : "number to be list element 1",
								"defaultarg" : 1,
								"isalias" : 0,
								"aliases" : [  ],
								"attachable" : 0,
								"isparam" : 0,
								"deprecated" : 0,
								"touched" : 0,
								"inlet" : 1,
								"type" : "number"
							}
,
							"in2" : 							{
								"attrOrProp" : 1,
								"digest" : "number to be list element 2",
								"defaultarg" : 2,
								"isalias" : 0,
								"aliases" : [  ],
								"attachable" : 0,
								"isparam" : 0,
								"deprecated" : 0,
								"touched" : 0,
								"inlet" : 1,
								"type" : "number"
							}
,
							"in3" : 							{
								"attrOrProp" : 1,
								"digest" : "number to be list element 3",
								"defaultarg" : 3,
								"isalias" : 0,
								"aliases" : [  ],
								"attachable" : 0,
								"isparam" : 0,
								"deprecated" : 0,
								"touched" : 0,
								"inlet" : 1,
								"type" : "number"
							}
,
							"in4" : 							{
								"attrOrProp" : 1,
								"digest" : "number to be list element 4",
								"defaultarg" : 4,
								"isalias" : 0,
								"aliases" : [  ],
								"attachable" : 0,
								"isparam" : 0,
								"deprecated" : 0,
								"touched" : 0,
								"inlet" : 1,
								"type" : "number"
							}
,
							"length" : 							{
								"attrOrProp" : 2,
								"digest" : "how many things to pack",
								"isalias" : 0,
								"aliases" : [  ],
								"settable" : 1,
								"attachable" : 0,
								"isparam" : 0,
								"deprecated" : 0,
								"touched" : 0,
								"type" : "number"
							}
,
							"list" : 							{
								"attrOrProp" : 2,
								"digest" : "the list to initialize the {@objectname} object with",
								"isalias" : 0,
								"aliases" : [  ],
								"settable" : 1,
								"attachable" : 0,
								"isparam" : 0,
								"deprecated" : 0,
								"touched" : 0,
								"type" : "list"
							}

						}
,
						"inputs" : [ 							{
								"name" : "in1",
								"type" : [ "number", "bang" ],
								"digest" : "number to be list element 1",
								"defaultarg" : 1,
								"hot" : 1,
								"docked" : 0
							}
, 							{
								"name" : "in2",
								"type" : [ "number", "bang" ],
								"digest" : "number to be list element 2",
								"defaultarg" : 2,
								"hot" : 1,
								"docked" : 0
							}
, 							{
								"name" : "in3",
								"type" : [ "number", "bang" ],
								"digest" : "number to be list element 3",
								"defaultarg" : 3,
								"hot" : 1,
								"docked" : 0
							}
, 							{
								"name" : "in4",
								"type" : [ "number", "bang" ],
								"digest" : "number to be list element 4",
								"defaultarg" : 4,
								"hot" : 1,
								"docked" : 0
							}
 ],
						"outputs" : [ 							{
								"name" : "out",
								"type" : "list",
								"digest" : "out",
								"docked" : 0
							}
 ],
						"helpname" : "pak",
						"aliasOf" : "pack",
						"classname" : "pak",
						"operator" : 0,
						"versionId" : 1331432417,
						"changesPatcherIO" : 0
					}
,
					"text" : "pak 0 0 1 f"
				}

			}
, 			{
				"box" : 				{
					"fontname" : "Lato",
					"fontsize" : 12.0,
					"id" : "obj-40",
					"maxclass" : "newobj",
					"numinlets" : 2,
					"numoutlets" : 2,
					"outlettype" : [ "signal", "" ],
					"patching_rect" : [ 261.0, 508.0, 68.0, 23.0 ],
					"rnbo_classname" : "line~",
					"rnbo_serial" : 4,
					"rnbo_uniqueid" : "foo[1]",
					"rnboinfo" : 					{
						"needsInstanceInfo" : 1,
						"argnames" : 						{
							"segments" : 							{
								"attrOrProp" : 1,
								"digest" : "Target value or target value/ramp time pairs",
								"isalias" : 0,
								"aliases" : [ "dest" ],
								"settable" : 1,
								"attachable" : 0,
								"isparam" : 0,
								"deprecated" : 0,
								"touched" : 0,
								"inlet" : 1,
								"type" : "list",
								"defaultValue" : ""
							}
,
							"dest" : 							{
								"attrOrProp" : 1,
								"digest" : "Target value or target value/ramp time pairs",
								"isalias" : 1,
								"aliasOf" : "segments",
								"aliases" : [  ],
								"settable" : 1,
								"attachable" : 0,
								"isparam" : 0,
								"deprecated" : 0,
								"touched" : 0,
								"inlet" : 1,
								"type" : "list",
								"defaultValue" : ""
							}
,
							"time" : 							{
								"attrOrProp" : 1,
								"digest" : "Ramp time",
								"defaultarg" : 2,
								"isalias" : 0,
								"aliases" : [  ],
								"settable" : 1,
								"attachable" : 0,
								"isparam" : 0,
								"deprecated" : 0,
								"touched" : 0,
								"inlet" : 1,
								"type" : "number",
								"defaultValue" : "0"
							}
,
							"keepramp" : 							{
								"attrOrProp" : 1,
								"digest" : "Keep last ramp",
								"isalias" : 0,
								"aliases" : [  ],
								"settable" : 1,
								"attachable" : 1,
								"isparam" : 0,
								"deprecated" : 0,
								"touched" : 0,
								"type" : "bool",
								"defaultValue" : "false"
							}
,
							"out" : 							{
								"attrOrProp" : 1,
								"digest" : "Ramp out",
								"isalias" : 0,
								"aliases" : [  ],
								"settable" : 0,
								"attachable" : 0,
								"isparam" : 0,
								"deprecated" : 0,
								"touched" : 0,
								"outlet" : 1,
								"type" : "signal"
							}
,
							"target" : 							{
								"attrOrProp" : 1,
								"digest" : "Bang when ramp has finished",
								"isalias" : 0,
								"aliases" : [  ],
								"settable" : 0,
								"attachable" : 0,
								"isparam" : 0,
								"deprecated" : 0,
								"touched" : 0,
								"outlet" : 1,
								"type" : "bang"
							}
,
							"value" : 							{
								"attrOrProp" : 2,
								"digest" : "Initial value.",
								"defaultarg" : 1,
								"isalias" : 0,
								"aliases" : [  ],
								"settable" : 1,
								"attachable" : 0,
								"isparam" : 0,
								"deprecated" : 0,
								"touched" : 0,
								"type" : "number",
								"defaultValue" : "0"
							}

						}
,
						"inputs" : [ 							{
								"name" : "segments",
								"type" : "list",
								"digest" : "Target value or target value/ramp time pairs",
								"hot" : 1,
								"docked" : 0
							}
, 							{
								"name" : "time",
								"type" : "number",
								"digest" : "Ramp time",
								"defaultarg" : 2,
								"docked" : 0
							}
 ],
						"outputs" : [ 							{
								"name" : "out",
								"type" : "signal",
								"digest" : "Ramp out",
								"docked" : 0
							}
, 							{
								"name" : "target",
								"type" : "bang",
								"digest" : "Bang when ramp has finished",
								"docked" : 0
							}
 ],
						"helpname" : "line~",
						"aliasOf" : "line~",
						"classname" : "line~",
						"operator" : 0,
						"versionId" : 2134689829,
						"changesPatcherIO" : 0
					}
,
					"text" : "line~ 0 100",
					"varname" : "foo[1]"
				}

			}
, 			{
				"box" : 				{
					"id" : "obj-23",
					"maxclass" : "newobj",
					"numinlets" : 1,
					"numoutlets" : 2,
					"outlettype" : [ "", "" ],
					"patching_rect" : [ 261.0, 286.0, 41.0, 23.0 ],
					"rnbo_classname" : "edge~",
					"rnbo_serial" : 2,
					"rnbo_uniqueid" : "edge~_obj-23",
					"text" : "edge~"
				}

			}
, 			{
				"box" : 				{
					"id" : "obj-1",
					"maxclass" : "newobj",
					"numinlets" : 1,
					"numoutlets" : 1,
					"outlettype" : [ "" ],
					"patching_rect" : [ 307.0, 585.0, 56.0, 23.0 ],
					"rnbo_classname" : "loadbang",
					"rnbo_serial" : 1,
					"rnbo_uniqueid" : "loadbang_obj-1",
					"text" : "loadbang"
				}

			}
, 			{
				"box" : 				{
					"id" : "obj-45",
					"maxclass" : "newobj",
					"numinlets" : 1,
					"numoutlets" : 1,
					"outlettype" : [ "" ],
					"patching_rect" : [ 465.0, 1179.0, 74.0, 23.0 ],
					"rnbo_classname" : "loadmess",
					"rnbo_serial" : 1,
					"rnbo_uniqueid" : "loadmess_obj-45",
					"rnboinfo" : 					{
						"needsInstanceInfo" : 1,
						"argnames" : 						{
							"input" : 							{
								"attrOrProp" : 1,
								"digest" : "Bang to trigger message.",
								"isalias" : 0,
								"aliases" : [  ],
								"settable" : 0,
								"attachable" : 0,
								"isparam" : 0,
								"deprecated" : 0,
								"touched" : 0,
								"inlet" : 1,
								"type" : "bang"
							}
,
							"message" : 							{
								"attrOrProp" : 1,
								"digest" : "Message when patcher is loaded.",
								"defaultarg" : 1,
								"isalias" : 0,
								"aliases" : [  ],
								"settable" : 1,
								"attachable" : 0,
								"isparam" : 0,
								"deprecated" : 0,
								"touched" : 0,
								"outlet" : 1,
								"type" : "list",
								"defaultValue" : ""
							}
,
							"startupbang" : 							{
								"attrOrProp" : 1,
								"digest" : "startupbang",
								"isalias" : 0,
								"aliases" : [  ],
								"attachable" : 0,
								"isparam" : 0,
								"deprecated" : 0,
								"touched" : 0,
								"type" : "bang"
							}

						}
,
						"inputs" : [ 							{
								"name" : "input",
								"type" : "bang",
								"digest" : "Bang to trigger message.",
								"hot" : 1,
								"docked" : 0
							}
 ],
						"outputs" : [ 							{
								"name" : "message",
								"type" : "list",
								"digest" : "Message when patcher is loaded.",
								"defaultarg" : 1,
								"docked" : 0
							}
 ],
						"helpname" : "loadmess",
						"aliasOf" : "loadmess",
						"classname" : "loadmess",
						"operator" : 0,
						"versionId" : -361086158,
						"changesPatcherIO" : 0
					}
,
					"text" : "loadmess 12"
				}

			}
, 			{
				"box" : 				{
					"id" : "obj-44",
					"maxclass" : "newobj",
					"numinlets" : 1,
					"numoutlets" : 1,
					"outlettype" : [ "" ],
					"patching_rect" : [ 465.0, 1215.0, 96.0, 23.0 ],
					"rnbo_classname" : "set",
					"rnbo_serial" : 1,
					"rnbo_uniqueid" : "rampsamples",
					"rnboinfo" : 					{
						"needsInstanceInfo" : 1,
						"argnames" : 						{
							"name" : 							{
								"attrOrProp" : 2,
								"digest" : "attribute/param to control",
								"defaultarg" : 1,
								"isalias" : 0,
								"aliases" : [  ],
								"settable" : 1,
								"attachable" : 0,
								"isparam" : 0,
								"deprecated" : 0,
								"touched" : 0,
								"type" : "symbol",
								"mandatory" : 1
							}

						}
,
						"inputs" : [ 							{
								"name" : "input",
								"type" : [ "bang", "number", "list", "signal" ],
								"digest" : "attribute or parameter value (bang, number, list)",
								"hot" : 1,
								"docked" : 0
							}
 ],
						"outputs" : [ 							{
								"name" : "output",
								"type" : [ "bang", "number", "list", "signal" ],
								"digest" : "connect to first inlet of gen or subpatcher",
								"docked" : 0
							}
 ],
						"helpname" : "set",
						"aliasOf" : "set",
						"classname" : "set",
						"operator" : 0,
						"versionId" : 1197449671,
						"changesPatcherIO" : 0
					}
,
					"text" : "set rampsamples",
					"varname" : "rampsamples"
				}

			}
, 			{
				"box" : 				{
					"bufsize" : 128.0,
					"calccount" : 256.0,
					"id" : "obj-43",
					"maxclass" : "scope~",
					"numinlets" : 2,
					"numoutlets" : 0,
					"patching_rect" : [ 54.0, 1202.0, 130.0, 130.0 ],
					"range" : [ -0.1, 1.1 ],
					"rnbo_classname" : "scope~",
					"rnbo_extra_attributes" : 					{
						"bufsize" : 128.0,
						"calccount" : 256.0
					}
,
					"rnbo_serial" : 1,
					"rnbo_uniqueid" : "scope~_obj-43"
				}

			}
, 			{
				"box" : 				{
					"bufsize" : 128.0,
					"calccount" : 256.0,
					"id" : "obj-36",
					"maxclass" : "scope~",
					"numinlets" : 2,
					"numoutlets" : 0,
					"patching_rect" : [ 54.0, 1046.0, 130.0, 130.0 ],
					"range" : [ -0.1, 1.1 ],
					"rnbo_classname" : "scope~",
					"rnbo_extra_attributes" : 					{
						"bufsize" : 128.0,
						"calccount" : 256.0
					}
,
					"rnbo_serial" : 2,
					"rnbo_uniqueid" : "scope~_obj-36"
				}

			}
, 			{
				"box" : 				{
					"id" : "obj-34",
					"maxclass" : "message",
					"numinlets" : 2,
					"numoutlets" : 1,
					"outlettype" : [ "" ],
					"patching_rect" : [ 301.0, 299.0, 29.5, 23.0 ],
					"rnbo_classname" : "message",
					"rnbo_extra_attributes" : 					{
						"storeempty" : 0,
						"text" : ""
					}
,
					"rnbo_serial" : 2,
					"rnbo_uniqueid" : "message_obj-34",
					"text" : "140"
				}

			}
, 			{
				"box" : 				{
					"id" : "obj-208",
					"maxclass" : "newobj",
					"numinlets" : 2,
					"numoutlets" : 1,
					"outlettype" : [ "signal" ],
					"patching_rect" : [ 261.0, 1115.0, 75.0, 23.0 ],
					"rnbo_classname" : "*~",
					"rnbo_serial" : 1,
					"rnbo_uniqueid" : "*~_obj-208",
					"text" : "*~ 3.141593"
				}

			}
, 			{
				"box" : 				{
					"id" : "obj-392",
					"maxclass" : "newobj",
					"numinlets" : 1,
					"numoutlets" : 1,
					"outlettype" : [ "signal" ],
					"patching_rect" : [ 261.0, 1209.0, 34.0, 23.0 ],
					"rnbo_classname" : "cos~",
					"rnbo_serial" : 1,
					"rnbo_uniqueid" : "cos~_obj-392",
					"text" : "cos~"
				}

			}
, 			{
				"box" : 				{
					"id" : "obj-390",
					"maxclass" : "newobj",
					"numinlets" : 2,
					"numoutlets" : 1,
					"outlettype" : [ "signal" ],
					"patching_rect" : [ 261.0, 1162.0, 77.0, 23.0 ],
					"rnbo_classname" : "+~",
					"rnbo_serial" : 1,
					"rnbo_uniqueid" : "+~_obj-390",
					"text" : "+~ 4.712389"
				}

			}
, 			{
				"box" : 				{
					"id" : "obj-185",
					"maxclass" : "newobj",
					"numinlets" : 2,
					"numoutlets" : 1,
					"outlettype" : [ "signal" ],
					"patching_rect" : [ 261.0, 1068.0, 40.0, 23.0 ],
					"rnbo_classname" : "*~",
					"rnbo_serial" : 2,
					"rnbo_uniqueid" : "*~_obj-185",
					"text" : "*~ 0.5"
				}

			}
, 			{
				"box" : 				{
					"id" : "obj-31",
					"maxclass" : "newobj",
					"numinlets" : 0,
					"numoutlets" : 1,
					"outlettype" : [ "" ],
					"patching_rect" : [ 340.0, 299.0, 82.0, 23.0 ],
					"rnbo_classname" : "r",
					"rnbo_serial" : 1,
					"rnbo_uniqueid" : "r_obj-31",
					"text" : "r tapped_bpm"
				}

			}
, 			{
				"box" : 				{
					"fontname" : "Ableton Sans Light",
					"id" : "obj-367",
					"maxclass" : "comment",
					"numinlets" : 0,
					"numoutlets" : 0,
					"patching_rect" : [ 397.0, 337.0, 65.0, 21.0 ],
					"suppressinlet" : 1,
					"text" : "BPM to ms"
				}

			}
, 			{
				"box" : 				{
					"fontname" : "Ableton Sans Light",
					"id" : "obj-368",
					"maxclass" : "comment",
					"numinlets" : 0,
					"numoutlets" : 0,
					"patching_rect" : [ 397.0, 374.0, 102.0, 21.0 ],
					"suppressinlet" : 1,
					"text" : "5/16ths / 2 in ms"
				}

			}
, 			{
				"box" : 				{
					"id" : "obj-369",
					"maxclass" : "newobj",
					"numinlets" : 2,
					"numoutlets" : 1,
					"outlettype" : [ "" ],
					"patching_rect" : [ 340.0, 373.0, 40.0, 23.0 ],
					"rnbo_classname" : "*",
					"rnbo_extra_attributes" : 					{
						"hot" : 0
					}
,
					"rnbo_serial" : 4,
					"rnbo_uniqueid" : "*_obj-369",
					"text" : "* 1.25"
				}

			}
, 			{
				"box" : 				{
					"id" : "obj-370",
					"maxclass" : "newobj",
					"numinlets" : 2,
					"numoutlets" : 1,
					"outlettype" : [ "" ],
					"patching_rect" : [ 340.0, 336.0, 55.0, 23.0 ],
					"rnbo_classname" : "!/",
					"rnbo_extra_attributes" : 					{
						"hot" : 0
					}
,
					"rnbo_serial" : 1,
					"rnbo_uniqueid" : "!/_obj-370",
					"text" : "!/ 60000"
				}

			}
, 			{
				"box" : 				{
					"id" : "obj-26",
					"linecount" : 2,
					"maxclass" : "newobj",
					"numinlets" : 2,
					"numoutlets" : 1,
					"outlettype" : [ "" ],
					"patching_rect" : [ 722.090909090909008, 691.0, 47.0, 37.0 ],
					"rnbo_classname" : "+",
					"rnbo_serial" : 1,
					"rnbo_uniqueid" : "+_obj-26",
					"text" : "+ 1. @hot 1"
				}

			}
, 			{
				"box" : 				{
					"id" : "obj-6",
					"maxclass" : "newobj",
					"numinlets" : 1,
					"numoutlets" : 0,
					"patching_rect" : [ 261.0, 1350.0, 43.0, 23.0 ],
					"rnbo_classname" : "out~",
					"rnbo_extra_attributes" : 					{
						"meta" : "",
						"comment" : ""
					}
,
					"rnbo_serial" : 1,
					"rnbo_uniqueid" : "out~_obj-6",
					"rnboinfo" : 					{
						"needsInstanceInfo" : 1,
						"argnames" : 						{
							"in1" : 							{
								"attrOrProp" : 1,
								"digest" : "signal sent to outlet with index 1",
								"isalias" : 0,
								"aliases" : [  ],
								"settable" : 0,
								"attachable" : 0,
								"isparam" : 0,
								"deprecated" : 0,
								"touched" : 0,
								"inlet" : 1,
								"type" : "signal"
							}
,
							"index" : 							{
								"attrOrProp" : 2,
								"digest" : "outlet number",
								"defaultarg" : 1,
								"isalias" : 0,
								"aliases" : [  ],
								"settable" : 1,
								"attachable" : 0,
								"isparam" : 0,
								"deprecated" : 0,
								"touched" : 0,
								"type" : "number",
								"mandatory" : 1
							}
,
							"comment" : 							{
								"attrOrProp" : 2,
								"digest" : "mouse over comment",
								"isalias" : 0,
								"aliases" : [  ],
								"settable" : 1,
								"attachable" : 0,
								"isparam" : 0,
								"deprecated" : 0,
								"touched" : 0,
								"type" : "symbol"
							}
,
							"meta" : 							{
								"attrOrProp" : 2,
								"digest" : "A JSON formatted string containing metadata for use by the exported code",
								"isalias" : 0,
								"aliases" : [  ],
								"settable" : 1,
								"attachable" : 0,
								"isparam" : 0,
								"deprecated" : 0,
								"touched" : 0,
								"type" : "symbol",
								"defaultValue" : "",
								"label" : "Metadata",
								"displayorder" : 3
							}

						}
,
						"inputs" : [ 							{
								"name" : "in1",
								"type" : "signal",
								"digest" : "signal sent to outlet with index 1",
								"displayName" : "",
								"hot" : 1,
								"docked" : 0
							}
 ],
						"outputs" : [  ],
						"helpname" : "out~",
						"aliasOf" : "out~",
						"classname" : "out~",
						"operator" : 0,
						"versionId" : 1989326771,
						"changesPatcherIO" : 1
					}
,
					"text" : "out~ 1"
				}

			}
, 			{
				"box" : 				{
					"id" : "obj-8",
					"maxclass" : "newobj",
					"numinlets" : 0,
					"numoutlets" : 1,
					"outlettype" : [ "signal" ],
					"patching_rect" : [ 261.0, 27.0, 35.0, 23.0 ],
					"rnbo_classname" : "in~",
					"rnbo_extra_attributes" : 					{
						"meta" : "",
						"comment" : ""
					}
,
					"rnbo_serial" : 1,
					"rnbo_uniqueid" : "in~_obj-8",
					"rnboinfo" : 					{
						"needsInstanceInfo" : 1,
						"argnames" : 						{
							"out1" : 							{
								"attrOrProp" : 1,
								"digest" : "signal from inlet with index 1",
								"isalias" : 0,
								"aliases" : [  ],
								"settable" : 0,
								"attachable" : 0,
								"isparam" : 0,
								"deprecated" : 0,
								"touched" : 0,
								"outlet" : 1,
								"type" : "signal"
							}
,
							"index" : 							{
								"attrOrProp" : 2,
								"digest" : "inlet number",
								"defaultarg" : 1,
								"isalias" : 0,
								"aliases" : [  ],
								"settable" : 1,
								"attachable" : 0,
								"isparam" : 0,
								"deprecated" : 0,
								"touched" : 0,
								"type" : "number",
								"mandatory" : 1
							}
,
							"comment" : 							{
								"attrOrProp" : 2,
								"digest" : "mouse over comment",
								"isalias" : 0,
								"aliases" : [  ],
								"settable" : 1,
								"attachable" : 0,
								"isparam" : 0,
								"deprecated" : 0,
								"touched" : 0,
								"type" : "symbol"
							}
,
							"meta" : 							{
								"attrOrProp" : 2,
								"digest" : "A JSON formatted string containing metadata for use by the exported code",
								"isalias" : 0,
								"aliases" : [  ],
								"settable" : 1,
								"attachable" : 0,
								"isparam" : 0,
								"deprecated" : 0,
								"touched" : 0,
								"type" : "symbol",
								"defaultValue" : "",
								"label" : "Metadata",
								"displayorder" : 3
							}

						}
,
						"inputs" : [  ],
						"outputs" : [ 							{
								"name" : "out1",
								"type" : "signal",
								"digest" : "signal from inlet with index 1",
								"displayName" : "",
								"docked" : 0
							}
 ],
						"helpname" : "in~",
						"aliasOf" : "in~",
						"classname" : "in~",
						"operator" : 0,
						"versionId" : -1654556303,
						"changesPatcherIO" : 1
					}
,
					"text" : "in~ 1"
				}

			}
, 			{
				"box" : 				{
					"id" : "obj-66",
					"linecount" : 2,
					"maxclass" : "newobj",
					"numinlets" : 2,
					"numoutlets" : 1,
					"outlettype" : [ "" ],
					"patching_rect" : [ 584.090909090909008, 691.0, 46.0, 37.0 ],
					"rnbo_classname" : "+",
					"rnbo_serial" : 2,
					"rnbo_uniqueid" : "+_obj-66",
					"text" : "+ 1. @hot 1"
				}

			}
, 			{
				"box" : 				{
					"id" : "obj-87",
					"maxclass" : "newobj",
					"numinlets" : 1,
					"numoutlets" : 12,
					"outlettype" : [ "", "", "", "", "", "", "", "", "", "", "", "" ],
					"patching_rect" : [ 307.090909090909008, 648.0, 479.909090909090878, 23.0 ],
					"rnbo_classname" : "unpack",
					"rnbo_extra_attributes" : 					{
						"length" : 0.0
					}
,
					"rnbo_serial" : 1,
					"rnbo_uniqueid" : "unpack_obj-87",
					"rnboinfo" : 					{
						"needsInstanceInfo" : 1,
						"argnames" : 						{
							"input" : 							{
								"attrOrProp" : 1,
								"digest" : "input list",
								"isalias" : 0,
								"aliases" : [  ],
								"attachable" : 0,
								"isparam" : 0,
								"deprecated" : 0,
								"touched" : 0,
								"inlet" : 1,
								"type" : "list"
							}
,
							"out1" : 							{
								"attrOrProp" : 1,
								"digest" : "list element 1",
								"defaultarg" : 1,
								"isalias" : 0,
								"aliases" : [  ],
								"settable" : 0,
								"attachable" : 0,
								"isparam" : 0,
								"deprecated" : 0,
								"touched" : 0,
								"outlet" : 1,
								"type" : "number",
								"defaultValue" : "0"
							}
,
							"out2" : 							{
								"attrOrProp" : 1,
								"digest" : "list element 2",
								"defaultarg" : 2,
								"isalias" : 0,
								"aliases" : [  ],
								"settable" : 0,
								"attachable" : 0,
								"isparam" : 0,
								"deprecated" : 0,
								"touched" : 0,
								"outlet" : 1,
								"type" : "number",
								"defaultValue" : "0"
							}
,
							"out3" : 							{
								"attrOrProp" : 1,
								"digest" : "list element 3",
								"defaultarg" : 3,
								"isalias" : 0,
								"aliases" : [  ],
								"settable" : 0,
								"attachable" : 0,
								"isparam" : 0,
								"deprecated" : 0,
								"touched" : 0,
								"outlet" : 1,
								"type" : "number",
								"defaultValue" : "0"
							}
,
							"out4" : 							{
								"attrOrProp" : 1,
								"digest" : "list element 4",
								"defaultarg" : 4,
								"isalias" : 0,
								"aliases" : [  ],
								"settable" : 0,
								"attachable" : 0,
								"isparam" : 0,
								"deprecated" : 0,
								"touched" : 0,
								"outlet" : 1,
								"type" : "number",
								"defaultValue" : "0"
							}
,
							"out5" : 							{
								"attrOrProp" : 1,
								"digest" : "list element 5",
								"defaultarg" : 5,
								"isalias" : 0,
								"aliases" : [  ],
								"settable" : 0,
								"attachable" : 0,
								"isparam" : 0,
								"deprecated" : 0,
								"touched" : 0,
								"outlet" : 1,
								"type" : "number",
								"defaultValue" : "0"
							}
,
							"out6" : 							{
								"attrOrProp" : 1,
								"digest" : "list element 6",
								"defaultarg" : 6,
								"isalias" : 0,
								"aliases" : [  ],
								"settable" : 0,
								"attachable" : 0,
								"isparam" : 0,
								"deprecated" : 0,
								"touched" : 0,
								"outlet" : 1,
								"type" : "number",
								"defaultValue" : "0"
							}
,
							"out7" : 							{
								"attrOrProp" : 1,
								"digest" : "list element 7",
								"defaultarg" : 7,
								"isalias" : 0,
								"aliases" : [  ],
								"settable" : 0,
								"attachable" : 0,
								"isparam" : 0,
								"deprecated" : 0,
								"touched" : 0,
								"outlet" : 1,
								"type" : "number",
								"defaultValue" : "0"
							}
,
							"out8" : 							{
								"attrOrProp" : 1,
								"digest" : "list element 8",
								"defaultarg" : 8,
								"isalias" : 0,
								"aliases" : [  ],
								"settable" : 0,
								"attachable" : 0,
								"isparam" : 0,
								"deprecated" : 0,
								"touched" : 0,
								"outlet" : 1,
								"type" : "number",
								"defaultValue" : "0"
							}
,
							"out9" : 							{
								"attrOrProp" : 1,
								"digest" : "list element 9",
								"defaultarg" : 9,
								"isalias" : 0,
								"aliases" : [  ],
								"settable" : 0,
								"attachable" : 0,
								"isparam" : 0,
								"deprecated" : 0,
								"touched" : 0,
								"outlet" : 1,
								"type" : "number",
								"defaultValue" : "0"
							}
,
							"out10" : 							{
								"attrOrProp" : 1,
								"digest" : "list element 10",
								"defaultarg" : 10,
								"isalias" : 0,
								"aliases" : [  ],
								"settable" : 0,
								"attachable" : 0,
								"isparam" : 0,
								"deprecated" : 0,
								"touched" : 0,
								"outlet" : 1,
								"type" : "number",
								"defaultValue" : "0"
							}
,
							"out11" : 							{
								"attrOrProp" : 1,
								"digest" : "list element 11",
								"defaultarg" : 11,
								"isalias" : 0,
								"aliases" : [  ],
								"settable" : 0,
								"attachable" : 0,
								"isparam" : 0,
								"deprecated" : 0,
								"touched" : 0,
								"outlet" : 1,
								"type" : "number",
								"defaultValue" : "0"
							}
,
							"out12" : 							{
								"attrOrProp" : 1,
								"digest" : "list element 12",
								"defaultarg" : 12,
								"isalias" : 0,
								"aliases" : [  ],
								"settable" : 0,
								"attachable" : 0,
								"isparam" : 0,
								"deprecated" : 0,
								"touched" : 0,
								"outlet" : 1,
								"type" : "number",
								"defaultValue" : "0"
							}
,
							"length" : 							{
								"attrOrProp" : 2,
								"digest" : "how many things to unpack",
								"isalias" : 0,
								"aliases" : [  ],
								"settable" : 1,
								"attachable" : 0,
								"isparam" : 0,
								"deprecated" : 0,
								"touched" : 0,
								"type" : "number"
							}
,
							"list" : 							{
								"attrOrProp" : 2,
								"digest" : "the list to initialize the unpack object with",
								"defaultarg" : 1,
								"isalias" : 0,
								"aliases" : [  ],
								"settable" : 1,
								"attachable" : 0,
								"isparam" : 0,
								"deprecated" : 0,
								"touched" : 0,
								"type" : "list"
							}

						}
,
						"inputs" : [ 							{
								"name" : "input",
								"type" : [ "bang", "list" ],
								"digest" : "input list",
								"hot" : 1,
								"docked" : 0
							}
 ],
						"outputs" : [ 							{
								"name" : "out1",
								"type" : "number",
								"digest" : "list element 1",
								"defaultarg" : 1,
								"docked" : 0
							}
, 							{
								"name" : "out2",
								"type" : "number",
								"digest" : "list element 2",
								"defaultarg" : 2,
								"docked" : 0
							}
, 							{
								"name" : "out3",
								"type" : "number",
								"digest" : "list element 3",
								"defaultarg" : 3,
								"docked" : 0
							}
, 							{
								"name" : "out4",
								"type" : "number",
								"digest" : "list element 4",
								"defaultarg" : 4,
								"docked" : 0
							}
, 							{
								"name" : "out5",
								"type" : "number",
								"digest" : "list element 5",
								"defaultarg" : 5,
								"docked" : 0
							}
, 							{
								"name" : "out6",
								"type" : "number",
								"digest" : "list element 6",
								"defaultarg" : 6,
								"docked" : 0
							}
, 							{
								"name" : "out7",
								"type" : "number",
								"digest" : "list element 7",
								"defaultarg" : 7,
								"docked" : 0
							}
, 							{
								"name" : "out8",
								"type" : "number",
								"digest" : "list element 8",
								"defaultarg" : 8,
								"docked" : 0
							}
, 							{
								"name" : "out9",
								"type" : "number",
								"digest" : "list element 9",
								"defaultarg" : 9,
								"docked" : 0
							}
, 							{
								"name" : "out10",
								"type" : "number",
								"digest" : "list element 10",
								"defaultarg" : 10,
								"docked" : 0
							}
, 							{
								"name" : "out11",
								"type" : "number",
								"digest" : "list element 11",
								"defaultarg" : 11,
								"docked" : 0
							}
, 							{
								"name" : "out12",
								"type" : "number",
								"digest" : "list element 12",
								"defaultarg" : 12,
								"docked" : 0
							}
 ],
						"helpname" : "unpack",
						"aliasOf" : "unpack",
						"classname" : "unpack",
						"operator" : 0,
						"versionId" : 2023587622,
						"changesPatcherIO" : 0
					}
,
					"text" : "unpack f f f f f f f f f f f f"
				}

			}
, 			{
				"box" : 				{
					"genpatcher" : 					{
						"patcher" : 						{
							"fileversion" : 1,
							"appversion" : 							{
								"major" : 9,
								"minor" : 1,
								"revision" : 0,
								"architecture" : "x64",
								"modernui" : 1
							}
,
							"classnamespace" : "dsp.gen",
							"rect" : [ 59.0, 106.0, 815.0, 480.0 ],
							"gridsize" : [ 15.0, 15.0 ],
							"boxes" : [ 								{
									"box" : 									{
										"maxclass" : "newobj",
										"text" : "out 2",
										"patching_rect" : [ 563.0, 304.0, 35.0, 22.0 ],
										"id" : "obj-2",
										"numoutlets" : 0,
										"numinlets" : 1
									}

								}
, 								{
									"box" : 									{
										"maxclass" : "comment",
										"text" : "interpolate toward the new peak in n samples",
										"linecount" : 2,
										"patching_rect" : [ 287.0, 429.0, 134.0, 33.0 ],
										"id" : "obj-3",
										"numoutlets" : 0,
										"numinlets" : 1
									}

								}
, 								{
									"box" : 									{
										"maxclass" : "newobj",
										"text" : "history",
										"patching_rect" : [ 74.0, 216.0, 46.0, 22.0 ],
										"id" : "obj-17",
										"numoutlets" : 1,
										"outlettype" : [ "" ],
										"numinlets" : 1
									}

								}
, 								{
									"box" : 									{
										"maxclass" : "comment",
										"text" : "Envelope Follower",
										"patching_rect" : [ 121.5, 120.0, 109.0, 20.0 ],
										"id" : "obj-40",
										"numoutlets" : 0,
										"numinlets" : 1
									}

								}
, 								{
									"box" : 									{
										"maxclass" : "comment",
										"text" : "Take the absolute value of the input; if it is greater than the previous peak, or if the count i is greater than or equal to n, then set the previous output as the starting point and use the input as the new peak, and ramp to the new peak in n samples.",
										"linecount" : 11,
										"patching_rect" : [ 51.0, 363.0, 141.0, 154.0 ],
										"id" : "obj-31",
										"numoutlets" : 0,
										"numinlets" : 1
									}

								}
, 								{
									"box" : 									{
										"maxclass" : "comment",
										"text" : "The current sample count (i) as the output ramps to the new peak",
										"patching_rect" : [ 266.0, 144.0, 358.0, 20.0 ],
										"id" : "obj-26",
										"numoutlets" : 0,
										"numinlets" : 1
									}

								}
, 								{
									"box" : 									{
										"maxclass" : "comment",
										"text" : "The number of samples (n) in which to ramp to the new peak",
										"patching_rect" : [ 266.0, 128.0, 333.0, 20.0 ],
										"id" : "obj-22",
										"numoutlets" : 0,
										"numinlets" : 1
									}

								}
, 								{
									"box" : 									{
										"maxclass" : "comment",
										"text" : "The previous peak amplitude",
										"patching_rect" : [ 266.0, 112.0, 165.0, 20.0 ],
										"id" : "obj-19",
										"numoutlets" : 0,
										"numinlets" : 1
									}

								}
, 								{
									"box" : 									{
										"maxclass" : "comment",
										"text" : "The new peak amplitude",
										"patching_rect" : [ 266.0, 96.0, 150.0, 20.0 ],
										"id" : "obj-18",
										"numoutlets" : 0,
										"numinlets" : 1
									}

								}
, 								{
									"box" : 									{
										"maxclass" : "comment",
										"text" : "In effect, there are four variables in this algorithm:",
										"patching_rect" : [ 266.0, 80.0, 272.0, 20.0 ],
										"id" : "obj-9",
										"numoutlets" : 0,
										"numinlets" : 1
									}

								}
, 								{
									"box" : 									{
										"maxclass" : "comment",
										"text" : "current peak",
										"patching_rect" : [ 112.0, 176.0, 77.0, 20.0 ],
										"id" : "obj-39",
										"numoutlets" : 0,
										"numinlets" : 1
									}

								}
, 								{
									"box" : 									{
										"maxclass" : "newobj",
										"text" : "+",
										"patching_rect" : [ 250.0, 440.0, 35.0, 22.0 ],
										"id" : "obj-37",
										"numoutlets" : 1,
										"outlettype" : [ "" ],
										"numinlets" : 2
									}

								}
, 								{
									"box" : 									{
										"maxclass" : "newobj",
										"text" : "latch",
										"patching_rect" : [ 281.5, 336.0, 36.0, 22.0 ],
										"id" : "obj-12",
										"numoutlets" : 1,
										"outlettype" : [ "" ],
										"numinlets" : 2
									}

								}
, 								{
									"box" : 									{
										"maxclass" : "newobj",
										"text" : "-",
										"patching_rect" : [ 266.0, 376.0, 34.5, 22.0 ],
										"id" : "obj-36",
										"numoutlets" : 1,
										"outlettype" : [ "" ],
										"numinlets" : 2
									}

								}
, 								{
									"box" : 									{
										"maxclass" : "newobj",
										"text" : "*",
										"patching_rect" : [ 266.0, 408.0, 83.0, 22.0 ],
										"id" : "obj-35",
										"numoutlets" : 1,
										"outlettype" : [ "" ],
										"numinlets" : 2
									}

								}
, 								{
									"box" : 									{
										"maxclass" : "comment",
										"text" : "divided by n ",
										"patching_rect" : [ 367.0, 376.0, 78.0, 20.0 ],
										"id" : "obj-34",
										"numoutlets" : 0,
										"numinlets" : 1
									}

								}
, 								{
									"box" : 									{
										"maxclass" : "comment",
										"text" : "current value of the count i",
										"patching_rect" : [ 360.0, 329.0, 150.0, 20.0 ],
										"id" : "obj-32",
										"numoutlets" : 0,
										"numinlets" : 1
									}

								}
, 								{
									"box" : 									{
										"maxclass" : "newobj",
										"text" : "/",
										"patching_rect" : [ 330.0, 376.0, 35.0, 22.0 ],
										"id" : "obj-30",
										"numoutlets" : 1,
										"outlettype" : [ "" ],
										"numinlets" : 2
									}

								}
, 								{
									"box" : 									{
										"maxclass" : "comment",
										"text" : "n number of samples of smoothing to get to new value",
										"linecount" : 2,
										"patching_rect" : [ 474.0, 232.0, 196.0, 33.0 ],
										"id" : "obj-29",
										"numoutlets" : 0,
										"numinlets" : 1
									}

								}
, 								{
									"box" : 									{
										"maxclass" : "comment",
										"text" : "previous value of the count i",
										"linecount" : 2,
										"patching_rect" : [ 353.0, 181.0, 96.0, 33.0 ],
										"id" : "obj-27",
										"numoutlets" : 0,
										"numinlets" : 1
									}

								}
, 								{
									"box" : 									{
										"maxclass" : "comment",
										"text" : "or we've already arrived at the old peak",
										"linecount" : 2,
										"patching_rect" : [ 95.0, 290.5, 144.0, 33.0 ],
										"id" : "obj-25",
										"numoutlets" : 0,
										"numinlets" : 1
									}

								}
, 								{
									"box" : 									{
										"maxclass" : "comment",
										"text" : "if this sample is a new peak",
										"patching_rect" : [ 95.0, 248.0, 162.0, 20.0 ],
										"id" : "obj-23",
										"numoutlets" : 0,
										"numinlets" : 1
									}

								}
, 								{
									"box" : 									{
										"maxclass" : "comment",
										"text" : "peak value received in the last n samples",
										"linecount" : 2,
										"patching_rect" : [ 159.0, 328.0, 126.0, 33.0 ],
										"id" : "obj-21",
										"numoutlets" : 0,
										"numinlets" : 1
									}

								}
, 								{
									"box" : 									{
										"maxclass" : "newobj",
										"text" : "||",
										"patching_rect" : [ 58.0, 296.0, 35.0, 22.0 ],
										"id" : "obj-16",
										"numoutlets" : 1,
										"outlettype" : [ "" ],
										"numinlets" : 2
									}

								}
, 								{
									"box" : 									{
										"maxclass" : "newobj",
										"text" : "abs",
										"patching_rect" : [ 58.0, 128.0, 30.0, 22.0 ],
										"id" : "obj-15",
										"numoutlets" : 1,
										"outlettype" : [ "" ],
										"numinlets" : 1
									}

								}
, 								{
									"box" : 									{
										"maxclass" : "newobj",
										"text" : "+ 1",
										"patching_rect" : [ 330.0, 328.0, 28.0, 22.0 ],
										"id" : "obj-14",
										"numoutlets" : 1,
										"outlettype" : [ "" ],
										"numinlets" : 1
									}

								}
, 								{
									"box" : 									{
										"maxclass" : "newobj",
										"text" : ">=",
										"patching_rect" : [ 378.0, 248.0, 83.0, 22.0 ],
										"id" : "obj-13",
										"numoutlets" : 1,
										"outlettype" : [ "" ],
										"numinlets" : 2
									}

								}
, 								{
									"box" : 									{
										"maxclass" : "newobj",
										"text" : "latch",
										"patching_rect" : [ 74.0, 176.0, 36.0, 22.0 ],
										"id" : "obj-11",
										"numoutlets" : 1,
										"outlettype" : [ "" ],
										"numinlets" : 2
									}

								}
, 								{
									"box" : 									{
										"maxclass" : "newobj",
										"text" : "history",
										"patching_rect" : [ 378.0, 216.0, 46.0, 22.0 ],
										"id" : "obj-10",
										"numoutlets" : 1,
										"outlettype" : [ "" ],
										"numinlets" : 1
									}

								}
, 								{
									"box" : 									{
										"maxclass" : "newobj",
										"text" : "history",
										"patching_rect" : [ 202.0, 480.0, 46.0, 22.0 ],
										"id" : "obj-8",
										"numoutlets" : 1,
										"outlettype" : [ "" ],
										"numinlets" : 1
									}

								}
, 								{
									"box" : 									{
										"maxclass" : "newobj",
										"text" : ">",
										"patching_rect" : [ 58.0, 248.0, 35.0, 22.0 ],
										"id" : "obj-7",
										"numoutlets" : 1,
										"outlettype" : [ "" ],
										"numinlets" : 2
									}

								}
, 								{
									"box" : 									{
										"maxclass" : "newobj",
										"text" : "counter @init -1",
										"patching_rect" : [ 330.0, 296.0, 115.0, 22.0 ],
										"id" : "obj-20",
										"numoutlets" : 3,
										"outlettype" : [ "", "", "" ],
										"numinlets" : 3
									}

								}
, 								{
									"box" : 									{
										"maxclass" : "newobj",
										"text" : "param rampsamples 1 @min 1",
										"patching_rect" : [ 442.0, 193.0, 173.0, 22.0 ],
										"id" : "obj-5",
										"numoutlets" : 1,
										"outlettype" : [ "" ],
										"numinlets" : 0
									}

								}
, 								{
									"box" : 									{
										"maxclass" : "newobj",
										"text" : "in 1 @comment signal",
										"patching_rect" : [ 58.0, 96.0, 129.0, 22.0 ],
										"id" : "obj-1",
										"numoutlets" : 1,
										"outlettype" : [ "" ],
										"numinlets" : 0
									}

								}
, 								{
									"box" : 									{
										"maxclass" : "newobj",
										"text" : "out 1 @comment \"envelope of input signal\"",
										"patching_rect" : [ 250.0, 480.0, 240.0, 22.0 ],
										"id" : "obj-4",
										"numoutlets" : 0,
										"numinlets" : 1
									}

								}
, 								{
									"box" : 									{
										"maxclass" : "comment",
										"text" : "by Christopher Dobrian\nhttps://music.arts.uci.edu/dobrian/maxcookbook/envelope-follower-minimal-latency",
										"linecount" : 3,
										"patching_rect" : [ 12.0, 9.0, 271.0, 47.0 ],
										"id" : "obj-6",
										"numoutlets" : 0,
										"numinlets" : 1
									}

								}
 ],
							"lines" : [ 								{
									"patchline" : 									{
										"source" : [ "obj-1", 0 ],
										"destination" : [ "obj-15", 0 ]
									}

								}
, 								{
									"patchline" : 									{
										"source" : [ "obj-10", 0 ],
										"destination" : [ "obj-13", 0 ]
									}

								}
, 								{
									"patchline" : 									{
										"source" : [ "obj-11", 0 ],
										"destination" : [ "obj-17", 0 ],
										"order" : 1
									}

								}
, 								{
									"patchline" : 									{
										"source" : [ "obj-11", 0 ],
										"destination" : [ "obj-36", 0 ],
										"midpoints" : [ 83.5, 207.0, 275.5, 207.0 ],
										"order" : 0
									}

								}
, 								{
									"patchline" : 									{
										"source" : [ "obj-12", 0 ],
										"destination" : [ "obj-36", 1 ],
										"order" : 0
									}

								}
, 								{
									"patchline" : 									{
										"source" : [ "obj-12", 0 ],
										"destination" : [ "obj-37", 0 ],
										"midpoints" : [ 291.0, 367.0, 259.5, 367.0 ],
										"order" : 1
									}

								}
, 								{
									"patchline" : 									{
										"source" : [ "obj-13", 0 ],
										"destination" : [ "obj-16", 1 ],
										"midpoints" : [ 387.5, 278.5, 83.5, 278.5 ],
										"order" : 1
									}

								}
, 								{
									"patchline" : 									{
										"source" : [ "obj-13", 0 ],
										"destination" : [ "obj-20", 1 ],
										"order" : 0
									}

								}
, 								{
									"patchline" : 									{
										"source" : [ "obj-14", 0 ],
										"destination" : [ "obj-10", 0 ],
										"midpoints" : [ 339.5, 359.0, 323.0, 359.0, 323.0, 208.0, 387.5, 208.0 ],
										"order" : 0
									}

								}
, 								{
									"patchline" : 									{
										"source" : [ "obj-14", 0 ],
										"destination" : [ "obj-30", 0 ],
										"order" : 1
									}

								}
, 								{
									"patchline" : 									{
										"source" : [ "obj-15", 0 ],
										"destination" : [ "obj-11", 0 ],
										"midpoints" : [ 67.5, 159.0, 83.5, 159.0 ],
										"order" : 0
									}

								}
, 								{
									"patchline" : 									{
										"source" : [ "obj-15", 0 ],
										"destination" : [ "obj-7", 0 ],
										"order" : 1
									}

								}
, 								{
									"patchline" : 									{
										"source" : [ "obj-16", 0 ],
										"destination" : [ "obj-11", 1 ],
										"midpoints" : [ 67.5, 328.0, 50.0, 328.0, 50.0, 167.0, 100.5, 167.0 ],
										"order" : 2
									}

								}
, 								{
									"patchline" : 									{
										"source" : [ "obj-16", 0 ],
										"destination" : [ "obj-12", 1 ],
										"midpoints" : [ 67.5, 328.0, 308.0, 328.0 ],
										"order" : 1
									}

								}
, 								{
									"patchline" : 									{
										"source" : [ "obj-16", 0 ],
										"destination" : [ "obj-20", 1 ],
										"midpoints" : [ 67.5, 328.0, 299.0, 328.0, 299.0, 288.0, 387.5, 288.0 ],
										"order" : 0
									}

								}
, 								{
									"patchline" : 									{
										"source" : [ "obj-17", 0 ],
										"destination" : [ "obj-7", 1 ]
									}

								}
, 								{
									"patchline" : 									{
										"source" : [ "obj-20", 0 ],
										"destination" : [ "obj-14", 0 ]
									}

								}
, 								{
									"patchline" : 									{
										"source" : [ "obj-30", 0 ],
										"destination" : [ "obj-35", 1 ]
									}

								}
, 								{
									"patchline" : 									{
										"source" : [ "obj-35", 0 ],
										"destination" : [ "obj-37", 1 ]
									}

								}
, 								{
									"patchline" : 									{
										"source" : [ "obj-36", 0 ],
										"destination" : [ "obj-35", 0 ]
									}

								}
, 								{
									"patchline" : 									{
										"source" : [ "obj-37", 0 ],
										"destination" : [ "obj-4", 0 ],
										"order" : 0
									}

								}
, 								{
									"patchline" : 									{
										"source" : [ "obj-37", 0 ],
										"destination" : [ "obj-8", 0 ],
										"midpoints" : [ 259.5, 470.5, 211.5, 470.5 ],
										"order" : 1
									}

								}
, 								{
									"patchline" : 									{
										"source" : [ "obj-5", 0 ],
										"destination" : [ "obj-13", 1 ],
										"order" : 1
									}

								}
, 								{
									"patchline" : 									{
										"source" : [ "obj-5", 0 ],
										"destination" : [ "obj-2", 0 ],
										"order" : 0
									}

								}
, 								{
									"patchline" : 									{
										"source" : [ "obj-5", 0 ],
										"destination" : [ "obj-30", 1 ],
										"midpoints" : [ 451.5, 239.0, 467.0, 239.0, 467.0, 359.0, 355.5, 359.0 ],
										"order" : 2
									}

								}
, 								{
									"patchline" : 									{
										"source" : [ "obj-7", 0 ],
										"destination" : [ "obj-16", 0 ]
									}

								}
, 								{
									"patchline" : 									{
										"source" : [ "obj-8", 0 ],
										"destination" : [ "obj-12", 0 ],
										"midpoints" : [ 211.5, 511.0, 194.75, 511.0, 194.75, 319.0, 291.0, 319.0 ]
									}

								}
 ]
						}

					}
,
					"id" : "obj-56",
					"maxclass" : "newobj",
					"numinlets" : 1,
					"numoutlets" : 2,
					"outlettype" : [ "signal", "signal" ],
					"patching_rect" : [ 261.0, 1256.0, 163.0, 23.0 ],
					"rnbo_classname" : "gen~",
					"rnbo_extra_attributes" : 					{
						"rampsamples" : 1.0,
						"history_3" : 0.0,
						"history_1" : 0.0,
						"exposeparams" : 0,
						"history_2" : 0.0,
						"gencode" : "Param rampsamples(1, min=1);\nHistory history_1(0);\nHistory history_2(0);\nHistory history_3(0);\nout2 = rampsamples;\ngte_4 = history_2 >= rampsamples;\nabs_5 = abs(in1);\ngt_6 = abs_5 > history_1;\nor_7 = gt_6 || gte_4;\nlatch_8 = latch(abs_5, or_7);\nlatch_9 = latch(history_3, or_7);\nsub_10 = latch_8 - latch_9;\ncounter_11, counter_12, counter_13 = counter(1, gte_4 + or_7, 0, init=-1);\nadd_14 = counter_11 + 1;\ndiv_15 = add_14 / rampsamples;\nmul_16 = sub_10 * div_15;\nadd_17 = latch_9 + mul_16;\nout1 = add_17;\nhistory_1_next_18 = fixdenorm(latch_8);\nhistory_2_next_19 = fixdenorm(add_14);\nhistory_3_next_20 = fixdenorm(add_17);\nhistory_1 = history_1_next_18;\nhistory_3 = history_3_next_20;\nhistory_2 = history_2_next_19;",
						"geninlets" : 1,
						"genoutlets" : 2
					}
,
					"rnbo_serial" : 2,
					"rnbo_uniqueid" : "envelopefollower",
					"rnboinfo" : 					{
						"needsInstanceInfo" : 1,
						"argnames" : 						{
							"in1" : 							{
								"attrOrProp" : 1,
								"digest" : "in1",
								"isalias" : 0,
								"aliases" : [  ],
								"settable" : 1,
								"attachable" : 0,
								"isparam" : 0,
								"deprecated" : 0,
								"touched" : 0,
								"inlet" : 1,
								"type" : "number"
							}
,
							"reset" : 							{
								"attrOrProp" : 1,
								"digest" : "Reset all param and history objects to initial values",
								"isalias" : 0,
								"aliases" : [  ],
								"attachable" : 1,
								"isparam" : 0,
								"deprecated" : 0,
								"touched" : 0,
								"type" : "bang"
							}
,
							"out1" : 							{
								"attrOrProp" : 1,
								"digest" : "out1",
								"isalias" : 0,
								"aliases" : [  ],
								"attachable" : 0,
								"isparam" : 0,
								"deprecated" : 0,
								"touched" : 0,
								"outlet" : 1,
								"type" : "signal"
							}
,
							"out2" : 							{
								"attrOrProp" : 1,
								"digest" : "out2",
								"isalias" : 0,
								"aliases" : [  ],
								"attachable" : 0,
								"isparam" : 0,
								"deprecated" : 0,
								"touched" : 0,
								"outlet" : 1,
								"type" : "signal"
							}
,
							"rampsamples" : 							{
								"attrOrProp" : 1,
								"digest" : "rampsamples",
								"isalias" : 0,
								"aliases" : [  ],
								"settable" : 1,
								"attachable" : 1,
								"isparam" : 0,
								"deprecated" : 0,
								"touched" : 0,
								"type" : "number",
								"defaultValue" : "1"
							}
,
							"history_1" : 							{
								"attrOrProp" : 1,
								"digest" : "history_1",
								"isalias" : 0,
								"aliases" : [  ],
								"settable" : 1,
								"attachable" : 1,
								"isparam" : 0,
								"deprecated" : 0,
								"touched" : 0,
								"type" : "number"
							}
,
							"history_2" : 							{
								"attrOrProp" : 1,
								"digest" : "history_2",
								"isalias" : 0,
								"aliases" : [  ],
								"settable" : 1,
								"attachable" : 1,
								"isparam" : 0,
								"deprecated" : 0,
								"touched" : 0,
								"type" : "number"
							}
,
							"history_3" : 							{
								"attrOrProp" : 1,
								"digest" : "history_3",
								"isalias" : 0,
								"aliases" : [  ],
								"settable" : 1,
								"attachable" : 1,
								"isparam" : 0,
								"deprecated" : 0,
								"touched" : 0,
								"type" : "number"
							}
,
							"expr" : 							{
								"attrOrProp" : 2,
								"digest" : "a gen expression",
								"isalias" : 0,
								"aliases" : [  ],
								"settable" : 1,
								"attachable" : 0,
								"isparam" : 0,
								"deprecated" : 0,
								"touched" : 0,
								"type" : "symbol",
								"doNotShowInMaxInspector" : 1
							}
,
							"file" : 							{
								"attrOrProp" : 2,
								"digest" : "gendsp file to load",
								"isalias" : 0,
								"aliases" : [  ],
								"settable" : 1,
								"attachable" : 0,
								"isparam" : 0,
								"deprecated" : 0,
								"touched" : 0,
								"type" : "symbol",
								"doNotShowInMaxInspector" : 1
							}
,
							"title" : 							{
								"attrOrProp" : 2,
								"digest" : "a title",
								"defaultarg" : 1,
								"isalias" : 0,
								"aliases" : [ "t" ],
								"settable" : 1,
								"attachable" : 0,
								"isparam" : 0,
								"deprecated" : 0,
								"touched" : 0,
								"type" : "symbol",
								"doNotShowInMaxInspector" : 1
							}
,
							"t" : 							{
								"attrOrProp" : 2,
								"digest" : "a title",
								"defaultarg" : 1,
								"isalias" : 1,
								"aliasOf" : "title",
								"aliases" : [  ],
								"settable" : 1,
								"attachable" : 0,
								"isparam" : 0,
								"deprecated" : 0,
								"touched" : 0,
								"type" : "symbol"
							}
,
							"exposeparams" : 							{
								"attrOrProp" : 2,
								"digest" : "Expose gen params as RNBO params.",
								"isalias" : 0,
								"aliases" : [  ],
								"settable" : 1,
								"attachable" : 0,
								"isparam" : 0,
								"deprecated" : 0,
								"touched" : 0,
								"type" : "bool",
								"defaultValue" : "false"
							}

						}
,
						"inputs" : [ 							{
								"name" : "in1",
								"type" : "auto",
								"digest" : "in1",
								"hot" : 1,
								"docked" : 0
							}
 ],
						"outputs" : [ 							{
								"name" : "out1",
								"type" : "signal",
								"digest" : "out1",
								"docked" : 0
							}
, 							{
								"name" : "out2",
								"type" : "signal",
								"digest" : "out2",
								"docked" : 0
							}
 ],
						"helpname" : "gen~",
						"aliasOf" : "gen~",
						"classname" : "gen~",
						"operator" : 0,
						"versionId" : 179904306,
						"changesPatcherIO" : 0
					}
,
					"text" : "gen~ @title envelopefollower",
					"varname" : "envelopefollower"
				}

			}
, 			{
				"box" : 				{
					"id" : "obj-27",
					"maxclass" : "newobj",
					"numinlets" : 3,
					"numoutlets" : 1,
					"outlettype" : [ "signal" ],
					"patching_rect" : [ 261.0, 138.0, 91.0, 23.0 ],
					"rnbo_classname" : "lores~",
					"rnbo_serial" : 1,
					"rnbo_uniqueid" : "lores~_obj-27",
					"text" : "lores~ 120 0.98"
				}

			}
, 			{
				"box" : 				{
					"id" : "obj-7",
					"maxclass" : "newobj",
					"numinlets" : 3,
					"numoutlets" : 1,
					"outlettype" : [ "signal" ],
					"patching_rect" : [ 261.0, 101.0, 91.0, 23.0 ],
					"rnbo_classname" : "lores~",
					"rnbo_serial" : 2,
					"rnbo_uniqueid" : "lores~_obj-7",
					"text" : "lores~ 120 0.98"
				}

			}
, 			{
				"box" : 				{
					"id" : "obj-5",
					"maxclass" : "newobj",
					"numinlets" : 3,
					"numoutlets" : 1,
					"outlettype" : [ "signal" ],
					"patching_rect" : [ 261.0, 64.0, 91.0, 23.0 ],
					"rnbo_classname" : "lores~",
					"rnbo_serial" : 3,
					"rnbo_uniqueid" : "lores~_obj-5",
					"text" : "lores~ 120 0.98"
				}

			}
, 			{
				"box" : 				{
					"id" : "obj-360",
					"maxclass" : "newobj",
					"numinlets" : 1,
					"numoutlets" : 0,
					"patching_rect" : [ 330.0, 1350.0, 78.0, 23.0 ],
					"rnbo_classname" : "s~",
					"rnbo_serial" : 1,
					"rnbo_uniqueid" : "s~_obj-360",
					"text" : "s~ kick_duck"
				}

			}
, 			{
				"box" : 				{
					"id" : "obj-372",
					"maxclass" : "newobj",
					"numinlets" : 1,
					"numoutlets" : 1,
					"outlettype" : [ "signal" ],
					"patching_rect" : [ 261.0, 175.0, 35.0, 23.0 ],
					"rnbo_classname" : "abs~",
					"rnbo_serial" : 1,
					"rnbo_uniqueid" : "abs~_obj-372",
					"text" : "abs~"
				}

			}
, 			{
				"box" : 				{
					"id" : "obj-373",
					"maxclass" : "newobj",
					"numinlets" : 3,
					"numoutlets" : 1,
					"outlettype" : [ "signal" ],
					"patching_rect" : [ 261.0, 212.0, 73.0, 23.0 ],
					"rnbo_classname" : "slide~",
					"rnbo_serial" : 4,
					"rnbo_uniqueid" : "slide~_obj-373",
					"text" : "slide~ 0 960"
				}

			}
, 			{
				"box" : 				{
					"id" : "obj-377",
					"maxclass" : "newobj",
					"numinlets" : 1,
					"numoutlets" : 1,
					"outlettype" : [ "signal" ],
					"patching_rect" : [ 261.0, 1303.0, 113.0, 23.0 ],
					"rnbo_classname" : "ease~",
					"rnbo_serial" : 1,
					"rnbo_uniqueid" : "ease~_obj-377",
					"rnboinfo" : 					{
						"needsInstanceInfo" : 1,
						"argnames" : 						{
							"function" : 							{
								"attrOrProp" : 1,
								"digest" : "Initial easing function to use.",
								"isalias" : 0,
								"aliases" : [  ],
								"settable" : 1,
								"attachable" : 1,
								"isparam" : 0,
								"deprecated" : 0,
								"touched" : 0,
								"enum" : [ "linear", "in_back", "in_bounce", "in_circular", "in_cubic", "in_elastic", "in_exponential", "in_quadratic", "in_quartic", "in_quintic", "in_sine", "in_out_back", "in_out_bounce", "in_out_circular", "in_out_cubic", "in_out_elastic", "in_out_exponential", "in_out_quadratic", "in_out_quartic", "in_out_quintic", "in_out_sine", "out_back", "out_bounce", "out_circular", "out_cubic", "out_elastic", "out_exponential", "out_quadratic", "out_quartic", "out_quintic", "out_sine" ],
								"type" : "enum",
								"defaultValue" : "linear"
							}
,
							"syncupdate" : 							{
								"attrOrProp" : 1,
								"digest" : "Synchronise easing function updates",
								"isalias" : 0,
								"aliases" : [  ],
								"settable" : 1,
								"attachable" : 1,
								"isparam" : 0,
								"deprecated" : 0,
								"touched" : 0,
								"type" : "bool",
								"defaultValue" : "false"
							}
,
							"input_range" : 							{
								"attrOrProp" : 1,
								"digest" : "Scale the input value",
								"isalias" : 0,
								"aliases" : [  ],
								"settable" : 1,
								"attachable" : 1,
								"isparam" : 0,
								"deprecated" : 0,
								"touched" : 0,
								"type" : "list",
								"defaultValue" : "0,1"
							}
,
							"output_range" : 							{
								"attrOrProp" : 1,
								"digest" : "Scale the output value",
								"isalias" : 0,
								"aliases" : [  ],
								"settable" : 1,
								"attachable" : 1,
								"isparam" : 0,
								"deprecated" : 0,
								"touched" : 0,
								"type" : "list",
								"defaultValue" : "0,1"
							}
,
							"in1" : 							{
								"attrOrProp" : 1,
								"digest" : "Input value",
								"isalias" : 0,
								"aliases" : [  ],
								"settable" : 0,
								"attachable" : 0,
								"isparam" : 0,
								"deprecated" : 0,
								"touched" : 0,
								"inlet" : 1,
								"type" : "signal"
							}
,
							"out1" : 							{
								"attrOrProp" : 1,
								"digest" : "Eased output",
								"isalias" : 0,
								"aliases" : [  ],
								"settable" : 0,
								"attachable" : 0,
								"isparam" : 0,
								"deprecated" : 0,
								"touched" : 0,
								"outlet" : 1,
								"type" : "signal"
							}

						}
,
						"inputs" : [ 							{
								"name" : "in1",
								"type" : "signal",
								"digest" : "Input value",
								"hot" : 1,
								"docked" : 0
							}
 ],
						"outputs" : [ 							{
								"name" : "out1",
								"type" : "signal",
								"digest" : "Eased output",
								"docked" : 0
							}
 ],
						"helpname" : "ease~",
						"aliasOf" : "ease~",
						"classname" : "ease~",
						"operator" : 0,
						"versionId" : -327368447,
						"changesPatcherIO" : 0
					}
,
					"text" : "ease~ @function 20"
				}

			}
, 			{
				"box" : 				{
					"id" : "obj-384",
					"maxclass" : "newobj",
					"numinlets" : 3,
					"numoutlets" : 1,
					"outlettype" : [ "signal" ],
					"patching_rect" : [ 261.0, 249.0, 89.0, 23.0 ],
					"rnbo_classname" : "thresh~",
					"rnbo_serial" : 1,
					"rnbo_uniqueid" : "thresh~_obj-384",
					"text" : "thresh~ 0.2 0.5"
				}

			}
 ],
		"lines" : [ 			{
				"patchline" : 				{
					"destination" : [ "obj-78", 0 ],
					"source" : [ "obj-1", 0 ]
				}

			}
, 			{
				"patchline" : 				{
					"destination" : [ "obj-208", 0 ],
					"source" : [ "obj-185", 0 ]
				}

			}
, 			{
				"patchline" : 				{
					"destination" : [ "obj-390", 0 ],
					"source" : [ "obj-208", 0 ]
				}

			}
, 			{
				"patchline" : 				{
					"destination" : [ "obj-32", 0 ],
					"source" : [ "obj-23", 0 ]
				}

			}
, 			{
				"patchline" : 				{
					"destination" : [ "obj-80", 10 ],
					"source" : [ "obj-26", 0 ]
				}

			}
, 			{
				"patchline" : 				{
					"destination" : [ "obj-372", 0 ],
					"source" : [ "obj-27", 0 ]
				}

			}
, 			{
				"patchline" : 				{
					"destination" : [ "obj-32", 1 ],
					"source" : [ "obj-30", 0 ]
				}

			}
, 			{
				"patchline" : 				{
					"destination" : [ "obj-370", 0 ],
					"source" : [ "obj-31", 0 ]
				}

			}
, 			{
				"patchline" : 				{
					"destination" : [ "obj-40", 0 ],
					"source" : [ "obj-32", 0 ]
				}

			}
, 			{
				"patchline" : 				{
					"destination" : [ "obj-370", 0 ],
					"source" : [ "obj-34", 0 ]
				}

			}
, 			{
				"patchline" : 				{
					"destination" : [ "obj-30", 3 ],
					"source" : [ "obj-369", 0 ]
				}

			}
, 			{
				"patchline" : 				{
					"destination" : [ "obj-369", 0 ],
					"source" : [ "obj-370", 0 ]
				}

			}
, 			{
				"patchline" : 				{
					"destination" : [ "obj-373", 0 ],
					"source" : [ "obj-372", 0 ]
				}

			}
, 			{
				"patchline" : 				{
					"destination" : [ "obj-37", 0 ],
					"order" : 1,
					"source" : [ "obj-373", 0 ]
				}

			}
, 			{
				"patchline" : 				{
					"destination" : [ "obj-384", 0 ],
					"order" : 0,
					"source" : [ "obj-373", 0 ]
				}

			}
, 			{
				"patchline" : 				{
					"destination" : [ "obj-360", 0 ],
					"order" : 0,
					"source" : [ "obj-377", 0 ]
				}

			}
, 			{
				"patchline" : 				{
					"destination" : [ "obj-43", 0 ],
					"order" : 2,
					"source" : [ "obj-377", 0 ]
				}

			}
, 			{
				"patchline" : 				{
					"destination" : [ "obj-6", 0 ],
					"order" : 1,
					"source" : [ "obj-377", 0 ]
				}

			}
, 			{
				"patchline" : 				{
					"destination" : [ "obj-23", 0 ],
					"order" : 0,
					"source" : [ "obj-384", 0 ]
				}

			}
, 			{
				"patchline" : 				{
					"destination" : [ "obj-38", 0 ],
					"order" : 1,
					"source" : [ "obj-384", 0 ]
				}

			}
, 			{
				"patchline" : 				{
					"destination" : [ "obj-392", 0 ],
					"source" : [ "obj-390", 0 ]
				}

			}
, 			{
				"patchline" : 				{
					"destination" : [ "obj-56", 0 ],
					"source" : [ "obj-392", 0 ]
				}

			}
, 			{
				"patchline" : 				{
					"destination" : [ "obj-33", 0 ],
					"order" : 1,
					"source" : [ "obj-40", 0 ]
				}

			}
, 			{
				"patchline" : 				{
					"destination" : [ "obj-77", 0 ],
					"order" : 0,
					"source" : [ "obj-40", 0 ]
				}

			}
, 			{
				"patchline" : 				{
					"destination" : [ "obj-56", 0 ],
					"source" : [ "obj-44", 0 ]
				}

			}
, 			{
				"patchline" : 				{
					"destination" : [ "obj-44", 0 ],
					"source" : [ "obj-45", 0 ]
				}

			}
, 			{
				"patchline" : 				{
					"destination" : [ "obj-7", 0 ],
					"source" : [ "obj-5", 0 ]
				}

			}
, 			{
				"patchline" : 				{
					"destination" : [ "obj-377", 0 ],
					"source" : [ "obj-56", 0 ]
				}

			}
, 			{
				"patchline" : 				{
					"destination" : [ "obj-26", 0 ],
					"order" : 0,
					"source" : [ "obj-66", 0 ]
				}

			}
, 			{
				"patchline" : 				{
					"destination" : [ "obj-80", 7 ],
					"order" : 1,
					"source" : [ "obj-66", 0 ]
				}

			}
, 			{
				"patchline" : 				{
					"destination" : [ "obj-27", 0 ],
					"source" : [ "obj-7", 0 ]
				}

			}
, 			{
				"patchline" : 				{
					"destination" : [ "obj-80", 0 ],
					"source" : [ "obj-77", 0 ]
				}

			}
, 			{
				"patchline" : 				{
					"destination" : [ "obj-87", 0 ],
					"source" : [ "obj-78", 0 ]
				}

			}
, 			{
				"patchline" : 				{
					"destination" : [ "obj-5", 0 ],
					"source" : [ "obj-8", 0 ]
				}

			}
, 			{
				"patchline" : 				{
					"destination" : [ "obj-185", 0 ],
					"order" : 0,
					"source" : [ "obj-80", 0 ]
				}

			}
, 			{
				"patchline" : 				{
					"destination" : [ "obj-36", 0 ],
					"order" : 1,
					"source" : [ "obj-80", 0 ]
				}

			}
, 			{
				"patchline" : 				{
					"destination" : [ "obj-26", 1 ],
					"source" : [ "obj-87", 10 ]
				}

			}
, 			{
				"patchline" : 				{
					"destination" : [ "obj-66", 1 ],
					"source" : [ "obj-87", 7 ]
				}

			}
, 			{
				"patchline" : 				{
					"destination" : [ "obj-66", 0 ],
					"order" : 0,
					"source" : [ "obj-87", 4 ]
				}

			}
, 			{
				"patchline" : 				{
					"destination" : [ "obj-80", 11 ],
					"source" : [ "obj-87", 11 ]
				}

			}
, 			{
				"patchline" : 				{
					"destination" : [ "obj-80", 9 ],
					"source" : [ "obj-87", 9 ]
				}

			}
, 			{
				"patchline" : 				{
					"destination" : [ "obj-80", 8 ],
					"source" : [ "obj-87", 8 ]
				}

			}
, 			{
				"patchline" : 				{
					"destination" : [ "obj-80", 6 ],
					"source" : [ "obj-87", 6 ]
				}

			}
, 			{
				"patchline" : 				{
					"destination" : [ "obj-80", 5 ],
					"source" : [ "obj-87", 5 ]
				}

			}
, 			{
				"patchline" : 				{
					"destination" : [ "obj-80", 4 ],
					"order" : 1,
					"source" : [ "obj-87", 4 ]
				}

			}
, 			{
				"patchline" : 				{
					"destination" : [ "obj-80", 3 ],
					"source" : [ "obj-87", 3 ]
				}

			}
, 			{
				"patchline" : 				{
					"destination" : [ "obj-80", 2 ],
					"source" : [ "obj-87", 1 ]
				}

			}
, 			{
				"patchline" : 				{
					"destination" : [ "obj-80", 1 ],
					"source" : [ "obj-87", 0 ]
				}

			}
 ]
	}

}
