{
    "patcher": {
        "fileversion": 1,
        "appversion": {
            "major": 9,
            "minor": 1,
            "revision": 0,
            "architecture": "x64",
            "modernui": 1
        },
        "classnamespace": "box",
        "rect": [ 1401.0, 460.0, 1000.0, 780.0 ],
        "boxes": [
            {
                "box": {
                    "comment": "",
                    "id": "obj-1",
                    "index": 0,
                    "maxclass": "outlet",
                    "numinlets": 1,
                    "numoutlets": 0,
                    "patching_rect": [ 587.0, 60.0, 30.0, 30.0 ]
                }
            },
            {
                "box": {
                    "id": "obj-353",
                    "maxclass": "newobj",
                    "numinlets": 1,
                    "numoutlets": 0,
                    "patching_rect": [ 80.5, -37.0, 125.0, 22.0 ],
                    "text": "s jb_autowah/lpf_type"
                }
            },
            {
                "box": {
                    "id": "obj-352",
                    "maxclass": "newobj",
                    "numinlets": 1,
                    "numoutlets": 3,
                    "outlettype": [ "", "", "" ],
                    "patching_rect": [ 80.5, -79.0, 153.0, 22.0 ],
                    "text": "getattr jb_autowah/lpf_type"
                }
            },
            {
                "box": {
                    "id": "obj-2",
                    "maxclass": "newobj",
                    "numinlets": 2,
                    "numoutlets": 14,
                    "outlettype": [ "signal", "signal", "signal", "signal", "signal", "signal", "signal", "signal", "signal", "signal", "signal", "signal", "signal", "" ],
                    "patching_rect": [ 8.0, 12.0, 598.0, 22.0 ],
                    "saved_object_attributes": {
                        "parameter_enable": 0,
                        "parameter_mappable": 0
                    },
                    "text": "sousafx~",
                    "varname": "rnbo~[1]"
                }
            },
            {
                "box": {
                    "comment": "",
                    "id": "obj-115",
                    "index": 0,
                    "maxclass": "inlet",
                    "numinlets": 0,
                    "numoutlets": 1,
                    "outlettype": [ "" ],
                    "patching_rect": [ 8.0, -51.0, 36.0, 36.0 ]
                }
            },
            {
                "box": {
                    "comment": "",
                    "id": "obj-145",
                    "index": 0,
                    "maxclass": "outlet",
                    "numinlets": 1,
                    "numoutlets": 0,
                    "patching_rect": [ 8.0, 60.0, 30.0, 30.0 ]
                }
            },
            {
                "box": {
                    "comment": "",
                    "id": "obj-226",
                    "index": 0,
                    "maxclass": "outlet",
                    "numinlets": 1,
                    "numoutlets": 0,
                    "patching_rect": [ 142.0, 60.0, 30.0, 30.0 ]
                }
            },
            {
                "box": {
                    "comment": "",
                    "id": "obj-227",
                    "index": 0,
                    "maxclass": "outlet",
                    "numinlets": 1,
                    "numoutlets": 0,
                    "patching_rect": [ 97.0, 60.0, 30.0, 30.0 ]
                }
            },
            {
                "box": {
                    "comment": "",
                    "id": "obj-228",
                    "index": 0,
                    "maxclass": "outlet",
                    "numinlets": 1,
                    "numoutlets": 0,
                    "patching_rect": [ 543.0, 60.0, 30.0, 30.0 ]
                }
            },
            {
                "box": {
                    "comment": "",
                    "id": "obj-229",
                    "index": 0,
                    "maxclass": "outlet",
                    "numinlets": 1,
                    "numoutlets": 0,
                    "patching_rect": [ 186.0, 60.0, 30.0, 30.0 ]
                }
            },
            {
                "box": {
                    "comment": "",
                    "id": "obj-231",
                    "index": 0,
                    "maxclass": "outlet",
                    "numinlets": 1,
                    "numoutlets": 0,
                    "patching_rect": [ 276.0, 60.0, 30.0, 30.0 ]
                }
            },
            {
                "box": {
                    "comment": "",
                    "id": "obj-254",
                    "index": 0,
                    "maxclass": "outlet",
                    "numinlets": 1,
                    "numoutlets": 0,
                    "patching_rect": [ 320.0, 60.0, 30.0, 30.0 ]
                }
            },
            {
                "box": {
                    "comment": "",
                    "id": "obj-357",
                    "index": 0,
                    "maxclass": "outlet",
                    "numinlets": 1,
                    "numoutlets": 0,
                    "patching_rect": [ 365.0, 60.0, 30.0, 30.0 ]
                }
            },
            {
                "box": {
                    "comment": "",
                    "id": "obj-358",
                    "index": 0,
                    "maxclass": "outlet",
                    "numinlets": 1,
                    "numoutlets": 0,
                    "patching_rect": [ 409.0, 60.0, 30.0, 30.0 ]
                }
            },
            {
                "box": {
                    "comment": "",
                    "id": "obj-390",
                    "index": 0,
                    "maxclass": "outlet",
                    "numinlets": 1,
                    "numoutlets": 0,
                    "patching_rect": [ 231.0, 60.0, 30.0, 30.0 ]
                }
            },
            {
                "box": {
                    "comment": "",
                    "id": "obj-391",
                    "index": 0,
                    "maxclass": "outlet",
                    "numinlets": 1,
                    "numoutlets": 0,
                    "patching_rect": [ 454.0, 60.0, 30.0, 30.0 ]
                }
            },
            {
                "box": {
                    "comment": "",
                    "id": "obj-393",
                    "index": 0,
                    "maxclass": "outlet",
                    "numinlets": 1,
                    "numoutlets": 0,
                    "patching_rect": [ 498.0, 60.0, 30.0, 30.0 ]
                }
            },
            {
                "box": {
                    "comment": "",
                    "id": "obj-399",
                    "index": 0,
                    "maxclass": "outlet",
                    "numinlets": 1,
                    "numoutlets": 0,
                    "patching_rect": [ 53.0, 60.0, 30.0, 30.0 ]
                }
            }
        ],
        "lines": [
            {
                "patchline": {
                    "destination": [ "obj-2", 0 ],
                    "source": [ "obj-115", 0 ]
                }
            },
            {
                "patchline": {
                    "destination": [ "obj-1", 0 ],
                    "source": [ "obj-2", 13 ]
                }
            },
            {
                "patchline": {
                    "destination": [ "obj-145", 0 ],
                    "source": [ "obj-2", 0 ]
                }
            },
            {
                "patchline": {
                    "destination": [ "obj-226", 0 ],
                    "source": [ "obj-2", 3 ]
                }
            },
            {
                "patchline": {
                    "destination": [ "obj-227", 0 ],
                    "source": [ "obj-2", 2 ]
                }
            },
            {
                "patchline": {
                    "destination": [ "obj-228", 0 ],
                    "source": [ "obj-2", 12 ]
                }
            },
            {
                "patchline": {
                    "destination": [ "obj-229", 0 ],
                    "source": [ "obj-2", 4 ]
                }
            },
            {
                "patchline": {
                    "destination": [ "obj-231", 0 ],
                    "source": [ "obj-2", 6 ]
                }
            },
            {
                "patchline": {
                    "destination": [ "obj-254", 0 ],
                    "source": [ "obj-2", 7 ]
                }
            },
            {
                "patchline": {
                    "destination": [ "obj-357", 0 ],
                    "source": [ "obj-2", 8 ]
                }
            },
            {
                "patchline": {
                    "destination": [ "obj-358", 0 ],
                    "source": [ "obj-2", 9 ]
                }
            },
            {
                "patchline": {
                    "destination": [ "obj-390", 0 ],
                    "source": [ "obj-2", 5 ]
                }
            },
            {
                "patchline": {
                    "destination": [ "obj-391", 0 ],
                    "source": [ "obj-2", 10 ]
                }
            },
            {
                "patchline": {
                    "destination": [ "obj-393", 0 ],
                    "source": [ "obj-2", 11 ]
                }
            },
            {
                "patchline": {
                    "destination": [ "obj-399", 0 ],
                    "source": [ "obj-2", 1 ]
                }
            },
            {
                "patchline": {
                    "destination": [ "obj-2", 0 ],
                    "source": [ "obj-352", 1 ]
                }
            },
            {
                "patchline": {
                    "destination": [ "obj-353", 0 ],
                    "source": [ "obj-352", 0 ]
                }
            }
        ],
        "autosave": 0,
        "toolbaradditions": [ "packagemanager" ],
        "toolbarexclusions": [ "mixerslider", "quickrecord", "showsnapshots", "showmappings" ]
    }
}