{
	"patcher" : 	{
		"fileversion" : 1,
		"appversion" : 		{
			"major" : 9,
			"minor" : 0,
			"revision" : 6,
			"architecture" : "x64",
			"modernui" : 1
		}
,
		"classnamespace" : "rnbo",
		"rect" : [ 603.0, 189.0, 1781.0, 1131.0 ],
		"default_fontname" : "Lato",
		"gridsize" : [ 15.0, 15.0 ],
		"title" : "vfx_outports",
		"boxes" : [ 			{
				"box" : 				{
					"id" : "obj-5",
					"linecount" : 4,
					"maxclass" : "comment",
					"numinlets" : 1,
					"numoutlets" : 0,
					"patching_rect" : [ 838.5, 787.0, 111.0, 64.0 ],
					"presentation_linecount" : 4,
					"text" : "0 stopped, cleared\n1 recording\n2 playing\n3 stopping"
				}

			}
, 			{
				"box" : 				{
					"id" : "obj-6",
					"maxclass" : "newobj",
					"numinlets" : 2,
					"numoutlets" : 1,
					"outlettype" : [ "" ],
					"patching_rect" : [ 798.5, 808.0, 32.0, 23.0 ],
					"rnbo_classname" : ">=",
					"rnbo_extra_attributes" : 					{
						"hot" : 0
					}
,
					"rnbo_serial" : 2,
					"rnbo_uniqueid" : ">=_obj-6",
					"text" : ">= 2"
				}

			}
, 			{
				"box" : 				{
					"id" : "obj-7",
					"maxclass" : "newobj",
					"numinlets" : 0,
					"numoutlets" : 1,
					"outlettype" : [ "" ],
					"patching_rect" : [ 798.5, 762.0, 112.0, 23.0 ],
					"rnbo_classname" : "r",
					"rnbo_serial" : 4,
					"rnbo_uniqueid" : "r_obj-7",
					"text" : "r main_looper_state"
				}

			}
, 			{
				"box" : 				{
					"id" : "obj-4",
					"maxclass" : "newobj",
					"numinlets" : 1,
					"numoutlets" : 0,
					"patching_rect" : [ 798.5, 860.0, 134.0, 23.0 ],
					"rnbo_classname" : "outport",
					"rnbo_extra_attributes" : 					{
						"meta" : ""
					}
,
					"rnbo_serial" : 4,
					"rnbo_uniqueid" : "outport_obj-4",
					"text" : "outport wobble_or_solo"
				}

			}
, 			{
				"box" : 				{
					"id" : "obj-3",
					"maxclass" : "newobj",
					"numinlets" : 3,
					"numoutlets" : 1,
					"outlettype" : [ "signal" ],
					"patching_rect" : [ 329.0, 756.0, 137.0, 23.0 ],
					"rnbo_classname" : "rampsmooth~",
					"rnbo_serial" : 3,
					"rnbo_uniqueid" : "rampsmooth~_obj-3",
					"text" : "rampsmooth~ 48 12000"
				}

			}
, 			{
				"box" : 				{
					"id" : "obj-2",
					"maxclass" : "newobj",
					"numinlets" : 1,
					"numoutlets" : 1,
					"outlettype" : [ "signal" ],
					"patching_rect" : [ 329.0, 717.0, 33.0, 23.0 ],
					"rnbo_classname" : "abs~",
					"rnbo_serial" : 1,
					"rnbo_uniqueid" : "abs~_obj-2",
					"text" : "abs~"
				}

			}
, 			{
				"box" : 				{
					"id" : "obj-1",
					"maxclass" : "newobj",
					"numinlets" : 0,
					"numoutlets" : 1,
					"outlettype" : [ "signal" ],
					"patching_rect" : [ 329.0, 678.0, 75.0, 23.0 ],
					"rnbo_classname" : "r~",
					"rnbo_serial" : 5,
					"rnbo_uniqueid" : "r~_obj-1",
					"text" : "r~ timefxenv"
				}

			}
, 			{
				"box" : 				{
					"id" : "obj-52",
					"maxclass" : "newobj",
					"numinlets" : 3,
					"numoutlets" : 1,
					"outlettype" : [ "signal" ],
					"patching_rect" : [ 327.0, 623.0, 101.0, 23.0 ],
					"rnbo_classname" : "slide~",
					"rnbo_serial" : 1,
					"rnbo_uniqueid" : "slide~_obj-52",
					"text" : "slide~ 240 36000"
				}

			}
, 			{
				"box" : 				{
					"id" : "obj-51",
					"maxclass" : "newobj",
					"numinlets" : 2,
					"numoutlets" : 1,
					"outlettype" : [ "signal" ],
					"patching_rect" : [ 327.0, 588.0, 39.0, 23.0 ],
					"rnbo_classname" : "==~",
					"rnbo_serial" : 1,
					"rnbo_uniqueid" : "==~_obj-51",
					"text" : "==~ 0"
				}

			}
, 			{
				"box" : 				{
					"id" : "obj-47",
					"maxclass" : "newobj",
					"numinlets" : 2,
					"numoutlets" : 1,
					"outlettype" : [ "signal" ],
					"patching_rect" : [ 264.0, 668.0, 29.5, 23.0 ],
					"rnbo_classname" : "*~",
					"rnbo_serial" : 1,
					"rnbo_uniqueid" : "*~_obj-47",
					"text" : "*~"
				}

			}
, 			{
				"box" : 				{
					"id" : "obj-199",
					"maxclass" : "newobj",
					"numinlets" : 0,
					"numoutlets" : 1,
					"outlettype" : [ "signal" ],
					"patching_rect" : [ 327.0, 552.0, 141.0, 23.0 ],
					"rnbo_classname" : "r~",
					"rnbo_serial" : 1,
					"rnbo_uniqueid" : "r~_obj-199",
					"text" : "r~ main_noisegate_active"
				}

			}
, 			{
				"box" : 				{
					"id" : "obj-112",
					"linecount" : 2,
					"maxclass" : "comment",
					"numinlets" : 1,
					"numoutlets" : 0,
					"patching_rect" : [ 426.0, 128.0, 144.0, 35.0 ],
					"text" : "while soloing, push xfade to env_pre-smooth"
				}

			}
, 			{
				"box" : 				{
					"id" : "obj-111",
					"maxclass" : "newobj",
					"numinlets" : 2,
					"numoutlets" : 1,
					"outlettype" : [ "signal" ],
					"patching_rect" : [ 377.0, 152.0, 40.000001192092896, 23.0 ],
					"rnbo_classname" : "sig~",
					"rnbo_extra_attributes" : 					{
						"unit" : "ms"
					}
,
					"rnbo_serial" : 1,
					"rnbo_uniqueid" : "sig~_obj-111",
					"text" : "sig~ 0"
				}

			}
, 			{
				"box" : 				{
					"id" : "obj-110",
					"maxclass" : "newobj",
					"numinlets" : 3,
					"numoutlets" : 1,
					"outlettype" : [ "signal" ],
					"patching_rect" : [ 377.0, 188.0, 87.333335936069489, 23.0 ],
					"rnbo_classname" : "slide~",
					"rnbo_serial" : 2,
					"rnbo_uniqueid" : "slide~_obj-110",
					"text" : "slide~ 480 480"
				}

			}
, 			{
				"box" : 				{
					"id" : "obj-109",
					"maxclass" : "newobj",
					"numinlets" : 2,
					"numoutlets" : 1,
					"outlettype" : [ "signal" ],
					"patching_rect" : [ 264.0, 110.0, 29.5, 23.0 ],
					"rnbo_classname" : "+~",
					"rnbo_serial" : 1,
					"rnbo_uniqueid" : "+~_obj-109",
					"text" : "+~"
				}

			}
, 			{
				"box" : 				{
					"id" : "obj-108",
					"maxclass" : "newobj",
					"numinlets" : 3,
					"numoutlets" : 1,
					"outlettype" : [ "signal" ],
					"patching_rect" : [ 264.0, 147.0, 54.0, 23.0 ],
					"rnbo_classname" : "clip~",
					"rnbo_serial" : 1,
					"rnbo_uniqueid" : "clip~_obj-108",
					"text" : "clip~ 0 1"
				}

			}
, 			{
				"box" : 				{
					"id" : "obj-328",
					"linecount" : 4,
					"maxclass" : "comment",
					"numinlets" : 1,
					"numoutlets" : 0,
					"patching_rect" : [ 379.0, 16.0, 111.0, 64.0 ],
					"text" : "0 stopped, cleared\n1 recording\n2 playing\n3 stopping"
				}

			}
, 			{
				"box" : 				{
					"id" : "obj-237",
					"maxclass" : "newobj",
					"numinlets" : 2,
					"numoutlets" : 1,
					"outlettype" : [ "" ],
					"patching_rect" : [ 377.0, 116.0, 32.000000953674316, 23.0 ],
					"rnbo_classname" : ">=",
					"rnbo_extra_attributes" : 					{
						"hot" : 0
					}
,
					"rnbo_serial" : 1,
					"rnbo_uniqueid" : ">=_obj-237",
					"text" : ">= 2"
				}

			}
, 			{
				"box" : 				{
					"id" : "obj-235",
					"maxclass" : "newobj",
					"numinlets" : 0,
					"numoutlets" : 1,
					"outlettype" : [ "" ],
					"patching_rect" : [ 377.0, 80.0, 112.000003337860107, 23.0 ],
					"rnbo_classname" : "r",
					"rnbo_serial" : 1,
					"rnbo_uniqueid" : "r_obj-235",
					"text" : "r main_looper_state"
				}

			}
, 			{
				"box" : 				{
					"id" : "obj-106",
					"linecount" : 3,
					"maxclass" : "comment",
					"numinlets" : 1,
					"numoutlets" : 0,
					"patching_rect" : [ 21.0, 370.0, 141.0, 50.0 ],
					"text" : "may want to remove or tone down the floor/ceiling "
				}

			}
, 			{
				"box" : 				{
					"id" : "obj-62",
					"maxclass" : "newobj",
					"numinlets" : 2,
					"numoutlets" : 1,
					"outlettype" : [ "signal" ],
					"patching_rect" : [ 264.0, 554.0, 29.5, 23.0 ],
					"rnbo_classname" : "+~",
					"rnbo_serial" : 2,
					"rnbo_uniqueid" : "+~_obj-62",
					"text" : "+~"
				}

			}
, 			{
				"box" : 				{
					"id" : "obj-61",
					"maxclass" : "newobj",
					"numinlets" : 3,
					"numoutlets" : 1,
					"outlettype" : [ "signal" ],
					"patching_rect" : [ 403.0, 486.0, 101.0, 23.0 ],
					"rnbo_classname" : "slide~",
					"rnbo_serial" : 3,
					"rnbo_uniqueid" : "slide~_obj-61",
					"text" : "slide~ 480 36000"
				}

			}
, 			{
				"box" : 				{
					"fontsize" : 12.0,
					"id" : "obj-162",
					"maxclass" : "newobj",
					"numinlets" : 0,
					"numoutlets" : 1,
					"outlettype" : [ "signal" ],
					"patching_rect" : [ 403.0, 450.0, 109.0, 23.0 ],
					"rnbo_classname" : "r~",
					"rnbo_serial" : 2,
					"rnbo_uniqueid" : "r~_obj-162",
					"text" : "r~ env_pre-smooth"
				}

			}
, 			{
				"box" : 				{
					"id" : "obj-127",
					"linecount" : 3,
					"maxclass" : "newobj",
					"numinlets" : 1,
					"numoutlets" : 1,
					"outlettype" : [ "signal" ],
					"patching_rect" : [ 205.0, 369.0, 116.0, 52.0 ],
					"rnbo_classname" : "ease~",
					"rnbo_serial" : 1,
					"rnbo_uniqueid" : "ease~_obj-127",
					"text" : "ease~ @function 20 @output_range 0\\,1 @input_range 0\\,1"
				}

			}
, 			{
				"box" : 				{
					"id" : "obj-60",
					"maxclass" : "newobj",
					"numinlets" : 2,
					"numoutlets" : 1,
					"outlettype" : [ "signal" ],
					"patching_rect" : [ 337.0, 486.0, 30.0, 23.0 ],
					"rnbo_classname" : "*~",
					"rnbo_serial" : 2,
					"rnbo_uniqueid" : "*~_obj-60",
					"text" : "*~"
				}

			}
, 			{
				"box" : 				{
					"id" : "obj-504",
					"maxclass" : "newobj",
					"numinlets" : 2,
					"numoutlets" : 1,
					"outlettype" : [ "signal" ],
					"patching_rect" : [ 264.0, 230.0, 75.0, 23.0 ],
					"rnbo_classname" : "*~",
					"rnbo_serial" : 3,
					"rnbo_uniqueid" : "*~_obj-504",
					"text" : "*~ 3.141593"
				}

			}
, 			{
				"box" : 				{
					"id" : "obj-506",
					"maxclass" : "newobj",
					"numinlets" : 1,
					"numoutlets" : 1,
					"outlettype" : [ "signal" ],
					"patching_rect" : [ 337.0, 331.0, 34.0, 23.0 ],
					"rnbo_classname" : "cos~",
					"rnbo_serial" : 1,
					"rnbo_uniqueid" : "cos~_obj-506",
					"text" : "cos~"
				}

			}
, 			{
				"box" : 				{
					"id" : "obj-507",
					"maxclass" : "newobj",
					"numinlets" : 2,
					"numoutlets" : 1,
					"outlettype" : [ "signal" ],
					"patching_rect" : [ 337.0, 294.0, 77.0, 23.0 ],
					"rnbo_classname" : "+~",
					"rnbo_serial" : 3,
					"rnbo_uniqueid" : "+~_obj-507",
					"text" : "+~ 4.712389"
				}

			}
, 			{
				"box" : 				{
					"id" : "obj-518",
					"maxclass" : "newobj",
					"numinlets" : 2,
					"numoutlets" : 1,
					"outlettype" : [ "signal" ],
					"patching_rect" : [ 194.0, 486.0, 30.0, 23.0 ],
					"rnbo_classname" : "*~",
					"rnbo_serial" : 4,
					"rnbo_uniqueid" : "*~_obj-518",
					"text" : "*~"
				}

			}
, 			{
				"box" : 				{
					"fontname" : "Arial",
					"fontsize" : 12.0,
					"id" : "obj-522",
					"linecount" : 3,
					"maxclass" : "newobj",
					"numinlets" : 1,
					"numoutlets" : 1,
					"outlettype" : [ "signal" ],
					"patching_rect" : [ 337.0, 370.0, 119.0, 49.0 ],
					"rnbo_classname" : "ease~",
					"rnbo_serial" : 2,
					"rnbo_uniqueid" : "ah.SineEaseInOut.gendsp[1]",
					"text" : "ease~ @function 20 @output_range 0\\,1 @input_range 0\\,1",
					"varname" : "ah.SineEaseInOut.gendsp[1]"
				}

			}
, 			{
				"box" : 				{
					"id" : "obj-523",
					"maxclass" : "newobj",
					"numinlets" : 2,
					"numoutlets" : 1,
					"outlettype" : [ "signal" ],
					"patching_rect" : [ 264.0, 188.0, 40.0, 23.0 ],
					"rnbo_classname" : "*~",
					"rnbo_serial" : 5,
					"rnbo_uniqueid" : "*~_obj-523",
					"text" : "*~ 0.5"
				}

			}
, 			{
				"box" : 				{
					"id" : "obj-524",
					"maxclass" : "newobj",
					"numinlets" : 1,
					"numoutlets" : 1,
					"outlettype" : [ "signal" ],
					"patching_rect" : [ 205.0, 330.0, 34.0, 23.0 ],
					"rnbo_classname" : "cos~",
					"rnbo_serial" : 2,
					"rnbo_uniqueid" : "cos~_obj-524",
					"text" : "cos~"
				}

			}
, 			{
				"box" : 				{
					"id" : "obj-57",
					"maxclass" : "newobj",
					"numinlets" : 0,
					"numoutlets" : 1,
					"outlettype" : [ "signal" ],
					"patching_rect" : [ 264.0, 36.0, 74.0, 23.0 ],
					"rnbo_classname" : "r~",
					"rnbo_serial" : 3,
					"rnbo_uniqueid" : "r~_obj-57",
					"text" : "r~ vfx_xfade"
				}

			}
, 			{
				"box" : 				{
					"id" : "obj-45",
					"maxclass" : "newobj",
					"numinlets" : 0,
					"numoutlets" : 1,
					"outlettype" : [ "signal" ],
					"patching_rect" : [ 100.0, 430.0, 71.0, 23.0 ],
					"rnbo_classname" : "r~",
					"rnbo_serial" : 4,
					"rnbo_uniqueid" : "r~_obj-45",
					"text" : "r~ LPF_LFO"
				}

			}
, 			{
				"box" : 				{
					"id" : "obj-65",
					"maxclass" : "newobj",
					"numinlets" : 0,
					"numoutlets" : 1,
					"outlettype" : [ "" ],
					"patching_rect" : [ 640.0, 543.0, 131.0, 23.0 ],
					"rnbo_classname" : "r",
					"rnbo_serial" : 2,
					"rnbo_uniqueid" : "r_obj-65",
					"text" : "r \"change color palette\""
				}

			}
, 			{
				"box" : 				{
					"format" : 0,
					"id" : "obj-67",
					"maxclass" : "number",
					"numinlets" : 1,
					"numoutlets" : 1,
					"outlettype" : [ "" ],
					"parameter_enable" : 0,
					"patching_rect" : [ 343.0, 1005.0, 50.0, 23.0 ],
					"rnbo_classname" : "number",
					"rnbo_extra_attributes" : 					{
						"maximum" : "<none>",
						"minimum" : "<none>",
						"preset" : 0,
						"order" : "",
						"initialFormat" : "integer"
					}
,
					"rnbo_serial" : 1,
					"rnbo_uniqueid" : "number_obj-67"
				}

			}
, 			{
				"box" : 				{
					"id" : "obj-69",
					"linecount" : 3,
					"maxclass" : "comment",
					"numinlets" : 1,
					"numoutlets" : 0,
					"patching_rect" : [ 863.0, 620.0, 260.0, 50.0 ],
					"text" : "rnbo's `urn`, \nand teensy's `const CRGBPalette16 palettes[]`, \nare 0-indexed"
				}

			}
, 			{
				"box" : 				{
					"fontname" : "Lato",
					"fontsize" : 12.0,
					"id" : "obj-79",
					"maxclass" : "newobj",
					"numinlets" : 2,
					"numoutlets" : 2,
					"outlettype" : [ "", "" ],
					"patching_rect" : [ 797.0, 588.0, 115.0, 23.0 ],
					"rnbo_classname" : "urn",
					"rnbo_serial" : 1,
					"rnbo_uniqueid" : "urn_obj-79",
					"text" : "urn 33 @autoclear 1"
				}

			}
, 			{
				"box" : 				{
					"id" : "obj-81",
					"maxclass" : "newobj",
					"numinlets" : 3,
					"numoutlets" : 1,
					"outlettype" : [ "" ],
					"patching_rect" : [ 797.0, 634.0, 54.0, 23.0 ],
					"rnbo_classname" : "clip",
					"rnbo_extra_attributes" : 					{
						"hot" : 0
					}
,
					"rnbo_serial" : 1,
					"rnbo_uniqueid" : "clip_obj-81",
					"text" : "clip 0 32"
				}

			}
, 			{
				"box" : 				{
					"id" : "obj-86",
					"maxclass" : "newobj",
					"numinlets" : 1,
					"numoutlets" : 0,
					"patching_rect" : [ 797.0, 679.0, 156.0, 23.0 ],
					"rnbo_classname" : "outport",
					"rnbo_extra_attributes" : 					{
						"meta" : ""
					}
,
					"rnbo_serial" : 1,
					"rnbo_uniqueid" : "outport_obj-86",
					"text" : "outport vfx_palette_number"
				}

			}
, 			{
				"box" : 				{
					"id" : "obj-87",
					"maxclass" : "button",
					"numinlets" : 1,
					"numoutlets" : 1,
					"outlettype" : [ "bang" ],
					"parameter_enable" : 0,
					"patching_rect" : [ 797.0, 542.0, 24.0, 24.0 ],
					"rnbo_classname" : "button",
					"rnbo_serial" : 1,
					"rnbo_uniqueid" : "button_obj-87"
				}

			}
, 			{
				"box" : 				{
					"id" : "obj-88",
					"maxclass" : "newobj",
					"numinlets" : 2,
					"numoutlets" : 2,
					"outlettype" : [ "", "" ],
					"patching_rect" : [ 797.0, 496.0, 33.0, 23.0 ],
					"rnbo_classname" : "sel",
					"rnbo_serial" : 1,
					"rnbo_uniqueid" : "sel_obj-88",
					"rnboinfo" : 					{
						"needsInstanceInfo" : 1,
						"argnames" : 						{
							"input" : 							{
								"attrOrProp" : 1,
								"digest" : "Number to test",
								"isalias" : 0,
								"aliases" : [  ],
								"attachable" : 0,
								"isparam" : 0,
								"deprecated" : 0,
								"touched" : 0,
								"inlet" : 1,
								"type" : "number"
							}
,
							"test1" : 							{
								"attrOrProp" : 1,
								"digest" : "Set Value (1) to Match",
								"defaultarg" : 1,
								"isalias" : 0,
								"aliases" : [  ],
								"settable" : 1,
								"attachable" : 0,
								"isparam" : 0,
								"deprecated" : 0,
								"touched" : 0,
								"inlet" : 1,
								"type" : "number",
								"defaultValue" : "1"
							}
,
							"match1" : 							{
								"attrOrProp" : 1,
								"digest" : "Bang if input matches 1",
								"isalias" : 0,
								"aliases" : [  ],
								"attachable" : 0,
								"isparam" : 0,
								"deprecated" : 0,
								"touched" : 0,
								"outlet" : 1,
								"type" : "bang"
							}
,
							"nomatch" : 							{
								"attrOrProp" : 1,
								"digest" : "Input if Input Doesn't Match",
								"isalias" : 0,
								"aliases" : [  ],
								"attachable" : 0,
								"isparam" : 0,
								"deprecated" : 0,
								"touched" : 0,
								"outlet" : 1,
								"type" : "number",
								"defaultValue" : "0"
							}

						}
,
						"inputs" : [ 							{
								"name" : "input",
								"type" : [ "number", "bang" ],
								"digest" : "Number to test",
								"hot" : 1,
								"docked" : 0
							}
, 							{
								"name" : "test1",
								"type" : "number",
								"digest" : "Set Value (1) to Match",
								"defaultarg" : 1,
								"docked" : 0
							}
 ],
						"outputs" : [ 							{
								"name" : "match1",
								"type" : "bang",
								"digest" : "Bang if input matches 1",
								"docked" : 0
							}
, 							{
								"name" : "nomatch",
								"type" : [ "number", "bang" ],
								"digest" : "Input if Input Doesn't Match",
								"docked" : 0
							}
 ],
						"helpname" : "select",
						"aliasOf" : "select",
						"classname" : "sel",
						"operator" : 0,
						"versionId" : 902197102,
						"changesPatcherIO" : 0
					}
,
					"text" : "sel 1"
				}

			}
, 			{
				"box" : 				{
					"id" : "obj-113",
					"linecount" : 4,
					"maxclass" : "comment",
					"numinlets" : 1,
					"numoutlets" : 0,
					"patching_rect" : [ 830.0, 431.0, 111.0, 64.0 ],
					"text" : "0 stopped, cleared\n1 recording\n2 playing\n3 stopping"
				}

			}
, 			{
				"box" : 				{
					"id" : "obj-114",
					"maxclass" : "newobj",
					"numinlets" : 2,
					"numoutlets" : 1,
					"outlettype" : [ "" ],
					"patching_rect" : [ 797.0, 451.0, 32.0, 23.0 ],
					"rnbo_classname" : "==",
					"rnbo_extra_attributes" : 					{
						"hot" : 0
					}
,
					"rnbo_serial" : 1,
					"rnbo_uniqueid" : "==_obj-114",
					"text" : "== 0"
				}

			}
, 			{
				"box" : 				{
					"id" : "obj-115",
					"maxclass" : "newobj",
					"numinlets" : 0,
					"numoutlets" : 1,
					"outlettype" : [ "" ],
					"patching_rect" : [ 797.0, 405.0, 112.0, 23.0 ],
					"rnbo_classname" : "r",
					"rnbo_serial" : 3,
					"rnbo_uniqueid" : "r_obj-115",
					"text" : "r main_looper_state"
				}

			}
, 			{
				"box" : 				{
					"id" : "obj-116",
					"maxclass" : "comment",
					"numinlets" : 1,
					"numoutlets" : 0,
					"patching_rect" : [ 830.0, 543.0, 261.333341121673584, 21.0 ],
					"text" : "change color pallet whenever main looper stops"
				}

			}
, 			{
				"box" : 				{
					"id" : "obj-43",
					"maxclass" : "newobj",
					"numinlets" : 3,
					"numoutlets" : 1,
					"outlettype" : [ "" ],
					"patching_rect" : [ 264.0, 1004.0, 61.0, 23.0 ],
					"rnbo_classname" : "clip",
					"rnbo_extra_attributes" : 					{
						"hot" : 0
					}
,
					"rnbo_serial" : 2,
					"rnbo_uniqueid" : "clip_obj-43",
					"text" : "clip 0 253"
				}

			}
, 			{
				"box" : 				{
					"id" : "obj-44",
					"maxclass" : "newobj",
					"numinlets" : 1,
					"numoutlets" : 0,
					"patching_rect" : [ 264.0, 1045.0, 92.0, 23.0 ],
					"rnbo_classname" : "outport",
					"rnbo_extra_attributes" : 					{
						"meta" : ""
					}
,
					"rnbo_serial" : 2,
					"rnbo_uniqueid" : "outport_obj-44",
					"text" : "outport vfx_env"
				}

			}
, 			{
				"box" : 				{
					"id" : "obj-117",
					"maxclass" : "newobj",
					"numinlets" : 2,
					"numoutlets" : 1,
					"outlettype" : [ "" ],
					"patching_rect" : [ 264.0, 882.0, 63.0, 23.0 ],
					"rnbo_classname" : "snapshot~",
					"rnbo_extra_attributes" : 					{
						"mode" : 0.0
					}
,
					"rnbo_serial" : 1,
					"rnbo_uniqueid" : "snapshot~_obj-117",
					"text" : "snapshot~"
				}

			}
, 			{
				"box" : 				{
					"id" : "obj-118",
					"maxclass" : "newobj",
					"numinlets" : 2,
					"numoutlets" : 2,
					"outlettype" : [ "", "" ],
					"patching_rect" : [ 388.0, 819.0, 320.0, 23.0 ],
					"rnbo_classname" : "param",
					"rnbo_extra_attributes" : 					{
						"unit" : "",
						"preset" : 1,
						"tonormalized" : "",
						"order" : "0",
						"fromnormalized" : "",
						"meta" : "",
						"displayname" : "",
						"displayorder" : "-",
						"ctlin" : 0.0,
						"steps" : 0.0,
						"sendinit" : 1,
						"exponent" : 1.0,
						"enum" : ""
					}
,
					"rnbo_serial" : 2,
					"rnbo_uniqueid" : "framesPerSecond",
					"rnboinfo" : 					{
						"needsInstanceInfo" : 1,
						"argnames" : 						{
							"value" : 							{
								"attrOrProp" : 2,
								"digest" : "Set initial value",
								"defaultarg" : 2,
								"isalias" : 0,
								"aliases" : [  ],
								"settable" : 1,
								"attachable" : 0,
								"isparam" : 0,
								"deprecated" : 0,
								"type" : "number",
								"defaultValue" : "0",
								"label" : "Initial Value",
								"displayorder" : 3
							}
,
							"normalizedvalue" : 							{
								"attrOrProp" : 1,
								"digest" : "Set value normalized. ",
								"isalias" : 0,
								"aliases" : [  ],
								"attachable" : 0,
								"isparam" : 0,
								"deprecated" : 0,
								"inlet" : 1,
								"type" : "number"
							}
,
							"reset" : 							{
								"attrOrProp" : 1,
								"digest" : "Reset param to initial value",
								"isalias" : 0,
								"aliases" : [  ],
								"attachable" : 1,
								"isparam" : 0,
								"deprecated" : 0,
								"type" : "bang"
							}
,
							"normalized" : 							{
								"attrOrProp" : 1,
								"digest" : "Normalized parameter value.",
								"isalias" : 0,
								"aliases" : [  ],
								"attachable" : 0,
								"isparam" : 0,
								"deprecated" : 0,
								"outlet" : 1,
								"type" : "number"
							}
,
							"name" : 							{
								"attrOrProp" : 2,
								"digest" : "Name of the parameter",
								"defaultarg" : 1,
								"isalias" : 0,
								"aliases" : [  ],
								"settable" : 1,
								"attachable" : 0,
								"isparam" : 0,
								"deprecated" : 0,
								"type" : "symbol",
								"label" : "Parameter Name",
								"mandatory" : 1
							}
,
							"enum" : 							{
								"attrOrProp" : 2,
								"digest" : "Use an enumerated output",
								"isalias" : 0,
								"aliases" : [  ],
								"settable" : 1,
								"attachable" : 0,
								"isparam" : 0,
								"deprecated" : 0,
								"type" : "list",
								"label" : "Enum Values",
								"displayorder" : 6
							}
,
							"minimum" : 							{
								"attrOrProp" : 2,
								"digest" : "Minimum value",
								"isalias" : 0,
								"aliases" : [ "min" ],
								"settable" : 1,
								"attachable" : 0,
								"isparam" : 0,
								"deprecated" : 0,
								"type" : "number",
								"defaultValue" : "0",
								"label" : "Minimum",
								"displayorder" : 1
							}
,
							"min" : 							{
								"attrOrProp" : 2,
								"digest" : "Minimum value",
								"isalias" : 1,
								"aliasOf" : "minimum",
								"aliases" : [  ],
								"settable" : 1,
								"attachable" : 0,
								"isparam" : 0,
								"deprecated" : 0,
								"type" : "number",
								"defaultValue" : "0",
								"label" : "Minimum",
								"displayorder" : 1
							}
,
							"maximum" : 							{
								"attrOrProp" : 2,
								"digest" : "Maximum value",
								"isalias" : 0,
								"aliases" : [ "max" ],
								"settable" : 1,
								"attachable" : 0,
								"isparam" : 0,
								"deprecated" : 0,
								"type" : "number",
								"defaultValue" : "1",
								"label" : "Maximum",
								"displayorder" : 2
							}
,
							"max" : 							{
								"attrOrProp" : 2,
								"digest" : "Maximum value",
								"isalias" : 1,
								"aliasOf" : "maximum",
								"aliases" : [  ],
								"settable" : 1,
								"attachable" : 0,
								"isparam" : 0,
								"deprecated" : 0,
								"type" : "number",
								"defaultValue" : "1",
								"label" : "Maximum",
								"displayorder" : 2
							}
,
							"exponent" : 							{
								"attrOrProp" : 2,
								"digest" : "Scale values exponentially",
								"isalias" : 0,
								"aliases" : [  ],
								"settable" : 1,
								"attachable" : 0,
								"isparam" : 0,
								"deprecated" : 0,
								"type" : "number",
								"defaultValue" : "1",
								"label" : "Exponent",
								"displayorder" : 7
							}
,
							"steps" : 							{
								"attrOrProp" : 2,
								"digest" : "Divide the output into a number of discrete steps",
								"isalias" : 0,
								"aliases" : [  ],
								"settable" : 1,
								"attachable" : 0,
								"isparam" : 0,
								"deprecated" : 0,
								"type" : "number",
								"defaultValue" : "0",
								"label" : "Steps",
								"displayorder" : 8
							}
,
							"displayName" : 							{
								"attrOrProp" : 2,
								"digest" : "DEPRECATED: Use the lower case 'displayname' instead",
								"isalias" : 0,
								"aliases" : [  ],
								"settable" : 1,
								"attachable" : 0,
								"isparam" : 0,
								"deprecated" : 1,
								"type" : "symbol",
								"label" : "Display Name"
							}
,
							"displayname" : 							{
								"attrOrProp" : 2,
								"digest" : "A more readable name for the parameter in an external RNBO target",
								"isalias" : 0,
								"aliases" : [  ],
								"settable" : 1,
								"attachable" : 0,
								"isparam" : 0,
								"deprecated" : 0,
								"type" : "symbol",
								"defaultValue" : "",
								"label" : "Display Name",
								"displayorder" : 14
							}
,
							"unit" : 							{
								"attrOrProp" : 2,
								"digest" : "A symbol to describe the unit of the parameter in an external RNBO target",
								"isalias" : 0,
								"aliases" : [  ],
								"settable" : 1,
								"attachable" : 0,
								"isparam" : 0,
								"deprecated" : 0,
								"type" : "symbol",
								"defaultValue" : "",
								"label" : "Unit",
								"displayorder" : 15
							}
,
							"tonormalized" : 							{
								"attrOrProp" : 2,
								"digest" : "Converts a real parameter value to its normalized form.",
								"isalias" : 0,
								"aliases" : [  ],
								"settable" : 1,
								"attachable" : 0,
								"isparam" : 0,
								"deprecated" : 0,
								"type" : "symbol",
								"label" : "To Normalized Expression",
								"displayorder" : 10
							}
,
							"fromnormalized" : 							{
								"attrOrProp" : 2,
								"digest" : "Converts a normalized parameter into its actual parameter value.",
								"isalias" : 0,
								"aliases" : [  ],
								"settable" : 1,
								"attachable" : 0,
								"isparam" : 0,
								"deprecated" : 0,
								"type" : "symbol",
								"label" : "From Normalized Expression",
								"displayorder" : 9
							}
,
							"order" : 							{
								"attrOrProp" : 2,
								"digest" : "Order in which initial parameter values will be sent out on patcher load. The order can be numeric or symbolic ('first' and 'last')",
								"isalias" : 0,
								"aliases" : [  ],
								"settable" : 1,
								"attachable" : 0,
								"isparam" : 0,
								"deprecated" : 0,
								"type" : "symbol",
								"defaultValue" : "0",
								"label" : "Restore Order",
								"displayorder" : 12
							}
,
							"displayorder" : 							{
								"attrOrProp" : 2,
								"digest" : "Order in which parameters will show up in a list of all parameters. The order can be numeric or symbolic ('first' and 'last')",
								"isalias" : 0,
								"aliases" : [  ],
								"settable" : 1,
								"attachable" : 0,
								"isparam" : 0,
								"deprecated" : 0,
								"type" : "symbol",
								"defaultValue" : "-",
								"label" : "Display Order",
								"displayorder" : 13
							}
,
							"sendinit" : 							{
								"attrOrProp" : 2,
								"digest" : "Send initial value",
								"isalias" : 0,
								"aliases" : [  ],
								"settable" : 1,
								"attachable" : 0,
								"isparam" : 0,
								"deprecated" : 0,
								"type" : "bool",
								"defaultValue" : "true",
								"label" : "Send Init",
								"displayorder" : 4
							}
,
							"ctlin" : 							{
								"attrOrProp" : 2,
								"digest" : "MIDI controller number to control this parameter.",
								"isalias" : 0,
								"aliases" : [  ],
								"settable" : 1,
								"attachable" : 0,
								"isparam" : 0,
								"deprecated" : 0,
								"type" : "number",
								"label" : "MIDI Controller Number.",
								"displayorder" : 16
							}
,
							"meta" : 							{
								"attrOrProp" : 2,
								"digest" : "A JSON formatted string containing metadata for use by the exported code",
								"isalias" : 0,
								"aliases" : [  ],
								"settable" : 1,
								"attachable" : 0,
								"isparam" : 0,
								"deprecated" : 0,
								"type" : "symbol",
								"defaultValue" : "",
								"label" : "Metadata",
								"displayorder" : 17
							}
,
							"nopreset" : 							{
								"attrOrProp" : 2,
								"digest" : "Do not add this value to the preset [DEPRECATED - USE @preset 0 instead].",
								"isalias" : 0,
								"aliases" : [  ],
								"settable" : 1,
								"attachable" : 0,
								"isparam" : 0,
								"deprecated" : 1,
								"type" : "bool",
								"defaultValue" : "false"
							}
,
							"preset" : 							{
								"attrOrProp" : 2,
								"digest" : "Add this value to the preset.",
								"isalias" : 0,
								"aliases" : [  ],
								"settable" : 1,
								"attachable" : 0,
								"isparam" : 0,
								"deprecated" : 0,
								"type" : "bool",
								"defaultValue" : "true",
								"label" : "Include In Preset",
								"displayorder" : 11
							}

						}
,
						"inputs" : [ 							{
								"name" : "value",
								"type" : "number",
								"digest" : "Parameter value",
								"hot" : 1,
								"docked" : 0
							}
, 							{
								"name" : "normalizedvalue",
								"type" : "number",
								"digest" : "Set value normalized. ",
								"docked" : 0
							}
 ],
						"outputs" : [ 							{
								"name" : "value",
								"type" : "number",
								"digest" : "Parameter value",
								"hot" : 1,
								"docked" : 0
							}
, 							{
								"name" : "normalized",
								"type" : "number",
								"digest" : "Normalized parameter value.",
								"docked" : 0
							}
 ],
						"helpname" : "param",
						"aliasOf" : "param",
						"classname" : "param",
						"operator" : 0,
						"versionId" : 301681565,
						"changesPatcherIO" : 0
					}
,
					"text" : "param framesPerSecond 144 @minimum 1 @maximum 360",
					"varname" : "framesPerSecond"
				}

			}
, 			{
				"box" : 				{
					"id" : "obj-119",
					"maxclass" : "newobj",
					"numinlets" : 2,
					"numoutlets" : 1,
					"outlettype" : [ "" ],
					"patching_rect" : [ 388.0, 886.0, 48.0, 23.0 ],
					"rnbo_classname" : "!/",
					"rnbo_extra_attributes" : 					{
						"hot" : 0
					}
,
					"rnbo_serial" : 1,
					"rnbo_uniqueid" : "!/_obj-119",
					"text" : "!/ 1000"
				}

			}
, 			{
				"box" : 				{
					"id" : "obj-120",
					"maxclass" : "flonum",
					"numinlets" : 1,
					"numoutlets" : 1,
					"outlettype" : [ "" ],
					"parameter_enable" : 0,
					"patching_rect" : [ 388.0, 853.0, 50.0, 23.0 ],
					"rnbo_classname" : "number",
					"rnbo_extra_attributes" : 					{
						"maximum" : "<none>",
						"minimum" : "<none>",
						"preset" : 0,
						"order" : "",
						"initialFormat" : "float"
					}
,
					"rnbo_serial" : 2,
					"rnbo_uniqueid" : "number_obj-120"
				}

			}
, 			{
				"box" : 				{
					"id" : "obj-55",
					"maxclass" : "newobj",
					"numinlets" : 2,
					"numoutlets" : 1,
					"outlettype" : [ "" ],
					"patching_rect" : [ 264.0, 964.0, 50.0, 23.0 ],
					"rnbo_classname" : "round",
					"rnbo_extra_attributes" : 					{
						"hot" : 0
					}
,
					"rnbo_serial" : 1,
					"rnbo_uniqueid" : "round_obj-55",
					"text" : "round 1"
				}

			}
, 			{
				"box" : 				{
					"id" : "obj-56",
					"maxclass" : "newobj",
					"numinlets" : 2,
					"numoutlets" : 1,
					"outlettype" : [ "" ],
					"patching_rect" : [ 264.0, 923.0, 38.0, 23.0 ],
					"rnbo_classname" : "*",
					"rnbo_extra_attributes" : 					{
						"hot" : 0
					}
,
					"rnbo_serial" : 1,
					"rnbo_uniqueid" : "*_obj-56",
					"text" : "* 253"
				}

			}
, 			{
				"box" : 				{
					"id" : "obj-131",
					"maxclass" : "newobj",
					"numinlets" : 3,
					"numoutlets" : 1,
					"outlettype" : [ "signal" ],
					"patching_rect" : [ 264.0, 842.0, 54.0, 23.0 ],
					"rnbo_classname" : "clip~",
					"rnbo_serial" : 2,
					"rnbo_uniqueid" : "clip~_obj-131",
					"text" : "clip~ 0 1"
				}

			}
 ],
		"lines" : [ 			{
				"patchline" : 				{
					"destination" : [ "obj-2", 0 ],
					"source" : [ "obj-1", 0 ]
				}

			}
, 			{
				"patchline" : 				{
					"destination" : [ "obj-523", 0 ],
					"source" : [ "obj-108", 0 ]
				}

			}
, 			{
				"patchline" : 				{
					"destination" : [ "obj-108", 0 ],
					"source" : [ "obj-109", 0 ]
				}

			}
, 			{
				"patchline" : 				{
					"destination" : [ "obj-109", 1 ],
					"midpoints" : [ 386.5, 236.666632235050201, 353.333296835422516, 236.666632235050201, 353.333296835422516, 83.999964237213135, 284.0, 83.999964237213135 ],
					"source" : [ "obj-110", 0 ]
				}

			}
, 			{
				"patchline" : 				{
					"destination" : [ "obj-110", 0 ],
					"source" : [ "obj-111", 0 ]
				}

			}
, 			{
				"patchline" : 				{
					"destination" : [ "obj-88", 0 ],
					"source" : [ "obj-114", 0 ]
				}

			}
, 			{
				"patchline" : 				{
					"destination" : [ "obj-114", 0 ],
					"source" : [ "obj-115", 0 ]
				}

			}
, 			{
				"patchline" : 				{
					"destination" : [ "obj-56", 0 ],
					"source" : [ "obj-117", 0 ]
				}

			}
, 			{
				"patchline" : 				{
					"destination" : [ "obj-120", 0 ],
					"source" : [ "obj-118", 0 ]
				}

			}
, 			{
				"patchline" : 				{
					"destination" : [ "obj-117", 1 ],
					"source" : [ "obj-119", 0 ]
				}

			}
, 			{
				"patchline" : 				{
					"destination" : [ "obj-119", 0 ],
					"source" : [ "obj-120", 0 ]
				}

			}
, 			{
				"patchline" : 				{
					"destination" : [ "obj-518", 1 ],
					"source" : [ "obj-127", 0 ]
				}

			}
, 			{
				"patchline" : 				{
					"destination" : [ "obj-117", 0 ],
					"source" : [ "obj-131", 0 ]
				}

			}
, 			{
				"patchline" : 				{
					"destination" : [ "obj-61", 0 ],
					"source" : [ "obj-162", 0 ]
				}

			}
, 			{
				"patchline" : 				{
					"destination" : [ "obj-51", 0 ],
					"source" : [ "obj-199", 0 ]
				}

			}
, 			{
				"patchline" : 				{
					"destination" : [ "obj-3", 0 ],
					"source" : [ "obj-2", 0 ]
				}

			}
, 			{
				"patchline" : 				{
					"destination" : [ "obj-237", 0 ],
					"source" : [ "obj-235", 0 ]
				}

			}
, 			{
				"patchline" : 				{
					"destination" : [ "obj-111", 0 ],
					"source" : [ "obj-237", 0 ]
				}

			}
, 			{
				"patchline" : 				{
					"destination" : [ "obj-131", 0 ],
					"source" : [ "obj-3", 0 ]
				}

			}
, 			{
				"patchline" : 				{
					"destination" : [ "obj-44", 0 ],
					"order" : 1,
					"source" : [ "obj-43", 0 ]
				}

			}
, 			{
				"patchline" : 				{
					"destination" : [ "obj-67", 0 ],
					"order" : 0,
					"source" : [ "obj-43", 0 ]
				}

			}
, 			{
				"patchline" : 				{
					"destination" : [ "obj-518", 0 ],
					"source" : [ "obj-45", 0 ]
				}

			}
, 			{
				"patchline" : 				{
					"destination" : [ "obj-131", 0 ],
					"source" : [ "obj-47", 0 ]
				}

			}
, 			{
				"patchline" : 				{
					"destination" : [ "obj-507", 0 ],
					"order" : 0,
					"source" : [ "obj-504", 0 ]
				}

			}
, 			{
				"patchline" : 				{
					"destination" : [ "obj-524", 0 ],
					"order" : 1,
					"source" : [ "obj-504", 0 ]
				}

			}
, 			{
				"patchline" : 				{
					"destination" : [ "obj-522", 0 ],
					"source" : [ "obj-506", 0 ]
				}

			}
, 			{
				"patchline" : 				{
					"destination" : [ "obj-506", 0 ],
					"source" : [ "obj-507", 0 ]
				}

			}
, 			{
				"patchline" : 				{
					"destination" : [ "obj-52", 0 ],
					"source" : [ "obj-51", 0 ]
				}

			}
, 			{
				"patchline" : 				{
					"destination" : [ "obj-62", 0 ],
					"source" : [ "obj-518", 0 ]
				}

			}
, 			{
				"patchline" : 				{
					"destination" : [ "obj-47", 1 ],
					"source" : [ "obj-52", 0 ]
				}

			}
, 			{
				"patchline" : 				{
					"destination" : [ "obj-60", 0 ],
					"source" : [ "obj-522", 0 ]
				}

			}
, 			{
				"patchline" : 				{
					"destination" : [ "obj-504", 0 ],
					"source" : [ "obj-523", 0 ]
				}

			}
, 			{
				"patchline" : 				{
					"destination" : [ "obj-127", 0 ],
					"source" : [ "obj-524", 0 ]
				}

			}
, 			{
				"patchline" : 				{
					"destination" : [ "obj-43", 0 ],
					"source" : [ "obj-55", 0 ]
				}

			}
, 			{
				"patchline" : 				{
					"destination" : [ "obj-55", 0 ],
					"source" : [ "obj-56", 0 ]
				}

			}
, 			{
				"patchline" : 				{
					"destination" : [ "obj-109", 0 ],
					"source" : [ "obj-57", 0 ]
				}

			}
, 			{
				"patchline" : 				{
					"destination" : [ "obj-4", 0 ],
					"source" : [ "obj-6", 0 ]
				}

			}
, 			{
				"patchline" : 				{
					"destination" : [ "obj-62", 1 ],
					"source" : [ "obj-60", 0 ]
				}

			}
, 			{
				"patchline" : 				{
					"destination" : [ "obj-60", 1 ],
					"source" : [ "obj-61", 0 ]
				}

			}
, 			{
				"patchline" : 				{
					"destination" : [ "obj-47", 0 ],
					"source" : [ "obj-62", 0 ]
				}

			}
, 			{
				"patchline" : 				{
					"destination" : [ "obj-87", 0 ],
					"source" : [ "obj-65", 0 ]
				}

			}
, 			{
				"patchline" : 				{
					"destination" : [ "obj-6", 0 ],
					"source" : [ "obj-7", 0 ]
				}

			}
, 			{
				"patchline" : 				{
					"destination" : [ "obj-81", 0 ],
					"source" : [ "obj-79", 0 ]
				}

			}
, 			{
				"patchline" : 				{
					"destination" : [ "obj-86", 0 ],
					"source" : [ "obj-81", 0 ]
				}

			}
, 			{
				"patchline" : 				{
					"destination" : [ "obj-79", 0 ],
					"source" : [ "obj-87", 0 ]
				}

			}
, 			{
				"patchline" : 				{
					"destination" : [ "obj-87", 0 ],
					"source" : [ "obj-88", 0 ]
				}

			}
 ]
	}

}
