{
    "patcher": {
        "fileversion": 1,
        "appversion": {
            "major": 9,
            "minor": 1,
            "revision": 2,
            "architecture": "x64",
            "modernui": 1
        },
        "classnamespace": "box",
        "rect": [ 59.0, 106.0, 1000.0, 780.0 ],
        "boxes": [
            {
                "box": {
                    "fontname": "Ableton Sans Medium",
                    "fontsize": 12.0,
                    "id": "obj-74",
                    "maxclass": "newobj",
                    "numinlets": 1,
                    "numoutlets": 1,
                    "outlettype": [ "" ],
                    "patching_rect": [ 17.0, 151.0, 99.0, 23.0 ],
                    "text": "udpreceive 7502"
                }
            },
            {
                "box": {
                    "color": [ 0.439216, 0.74902, 0.254902, 1.0 ],
                    "fontname": "Ableton Sans Medium",
                    "fontsize": 12.0,
                    "id": "obj-75",
                    "linecount": 2,
                    "maxclass": "newobj",
                    "numinlets": 1,
                    "numoutlets": 0,
                    "patching_rect": [ 17.0, 104.0, 258.0, 37.0 ],
                    "text": "zero.announce @port 7502 @type _osc._udp @name gamepad_to_max_from_live"
                }
            },
            {
                "box": {
                    "color": [ 0.784314, 0.145098, 0.023529, 1.0 ],
                    "fontname": "Ableton Sans Medium",
                    "fontsize": 12.0,
                    "id": "obj-782",
                    "linecount": 2,
                    "maxclass": "newobj",
                    "numinlets": 1,
                    "numoutlets": 1,
                    "outlettype": [ "" ],
                    "patching_rect": [ 62.0, 13.0, 206.0, 37.0 ],
                    "text": "zero.resolve @type _osc._udp @name gamepad_from_max_to_live"
                }
            },
            {
                "box": {
                    "fontname": "Ableton Sans Medium",
                    "fontsize": 12.0,
                    "id": "obj-783",
                    "maxclass": "newobj",
                    "numinlets": 1,
                    "numoutlets": 0,
                    "patching_rect": [ 17.0, 70.0, 116.0, 23.0 ],
                    "text": "udpsend localhost 0"
                }
            },
            {
                "box": {
                    "comment": "",
                    "id": "obj-20",
                    "index": 1,
                    "maxclass": "inlet",
                    "numinlets": 0,
                    "numoutlets": 1,
                    "outlettype": [ "" ],
                    "patching_rect": [ 17.0, 16.0, 30.0, 30.0 ]
                }
            },
            {
                "box": {
                    "comment": "",
                    "id": "obj-26",
                    "index": 1,
                    "maxclass": "outlet",
                    "numinlets": 1,
                    "numoutlets": 0,
                    "patching_rect": [ 17.0, 184.0, 30.0, 30.0 ]
                }
            }
        ],
        "lines": [
            {
                "patchline": {
                    "destination": [ "obj-783", 0 ],
                    "source": [ "obj-20", 0 ]
                }
            },
            {
                "patchline": {
                    "destination": [ "obj-26", 0 ],
                    "source": [ "obj-74", 0 ]
                }
            },
            {
                "patchline": {
                    "destination": [ "obj-783", 0 ],
                    "source": [ "obj-782", 0 ]
                }
            }
        ],
        "toolbaradditions": [ "packagemanager" ],
        "toolbarexclusions": [ "mixerslider", "quickrecord", "showmappings" ]
    }
}